<svg width="24" height="24" viewBox="0 0 24 24" fill="none" xmlns="http://www.w3.org/2000/svg">
    <path d="M21.49 7.80863V7.81V16.19C21.49 17.9106 20.9791 19.2238 20.0964 20.1064C19.2138 20.9891 17.9006 21.5 16.18 21.5H7.81C6.08945 21.5 4.77634 20.9891 3.89377 20.1054C3.01114 19.2217 2.5 17.9059 2.5 16.18V7.81C2.5 6.08944 3.01093 4.77618 3.89355 3.89355C4.77618 3.01093 6.08944 2.5 7.81 2.5H16.19C17.9107 2.5 19.2237 3.01097 20.105 3.89333C20.9861 4.77559 21.4947 6.08838 21.49 7.80863ZM6.5 12C6.5 12.8229 7.1606 13.5 8 13.5C8.8394 13.5 9.5 12.8229 9.5 12C9.5 11.1739 8.82614 10.5 8 10.5C7.17386 10.5 6.5 11.1739 6.5 12ZM10.5 12C10.5 12.8229 11.1606 13.5 12 13.5C12.8394 13.5 13.5 12.8229 13.5 12C13.5 11.1739 12.8261 10.5 12 10.5C11.1739 10.5 10.5 11.1739 10.5 12ZM14.5 12C14.5 12.8229 15.1606 13.5 16 13.5C16.8394 13.5 17.5 12.8229 17.5 12C17.5 11.1739 16.8261 10.5 16 10.5C15.1739 10.5 14.5 11.1739 14.5 12Z" fill="#4FBFA3" stroke="url(#paint0_linear_1384_88569)"/>
    <defs>
        <linearGradient id="paint0_linear_1384_88569" x1="11.995" y1="2" x2="11.995" y2="22" gradientUnits="userSpaceOnUse">
            <stop offset="0.473958" stop-color="#4FBFA3"/>
        </linearGradient>
    </defs>
</svg>
