<svg width="20" height="20" viewBox="0 0 20 20" fill="none" xmlns="http://www.w3.org/2000/svg">
    <path d="M12.917 10.9583H11.1087C9.62533 10.9583 8.41699 9.75825 8.41699 8.26659V6.45825C8.41699 6.11659 8.14199 5.83325 7.79199 5.83325H5.15033C3.22533 5.83325 1.66699 7.08325 1.66699 9.31659V14.8499C1.66699 17.0833 3.22533 18.3333 5.15033 18.3333H10.0587C11.9837 18.3333 13.542 17.0833 13.542 14.8499V11.5833C13.542 11.2333 13.2587 10.9583 12.917 10.9583Z" fill="#475467"/>
    <path d="M14.8501 1.66675H13.2085H12.3001H9.9418C8.05846 1.66675 6.53346 2.86675 6.4668 5.00841C6.5168 5.00841 6.55846 5.00008 6.60846 5.00008H8.9668H9.87513H11.5168C13.4418 5.00008 15.0001 6.25008 15.0001 8.48341V10.1251V12.3834V14.0251C15.0001 14.0751 14.9918 14.1167 14.9918 14.1584C16.8501 14.1001 18.3335 12.8667 18.3335 10.6917V9.05008V6.79175V5.15008C18.3335 2.91675 16.7751 1.66675 14.8501 1.66675Z" fill="#475467"/>
    <path d="M9.9832 5.95837C9.72487 5.70004 9.2832 5.87504 9.2832 6.23337V8.4167C9.2832 9.33337 10.0582 10.0834 11.0082 10.0834C11.5999 10.0917 12.4249 10.0917 13.1332 10.0917C13.4915 10.0917 13.6749 9.67504 13.4249 9.42504C12.5165 8.5167 10.8999 6.8917 9.9832 5.95837Z" fill="#475467"/>
</svg>
