<svg width="28" height="16" viewBox="0 0 28 16" fill="none" xmlns="http://www.w3.org/2000/svg">
<path d="M24.0063 2.85156C23.9756 2.85156 22.3384 2.85156 19.7139 4.07488L19.2663 4.29108C18.741 4.55349 18.1809 4.86394 17.5902 5.23167C17.4941 5.2908 17.21 5.44788 17.0547 5.56614C18.4364 6.8375 19.2602 7.69124 19.8141 8.30105C20.368 8.91086 20.7012 9.33773 21.1508 9.82188C25.1141 14.0721 32.6749 8.50062 24.0063 2.85156Z" fill="#439687"/>
<path d="M17.5967 5.23328C18.1875 4.8637 18.7475 4.5551 19.2728 4.2927L19.7204 4.07649H19.6796L19.7225 4.06725C22.3368 2.84763 23.974 2.84393 24.0149 2.84393C24.0026 2.7885 23.8575 2.77926 23.2647 2.39304C22.924 2.16517 22.5654 1.96012 22.1916 1.77954C21.5805 1.38963 20.1558 0.923955 20.1558 0.923955H20.1395C18.3453 0.365241 16.4683 0.0537692 14.5716 0C13.3871 0.00836239 12.207 0.132274 11.0519 0.369582L10.966 0.388061C9.47393 0.687423 7.58323 1.62246 7.58323 1.62246C6.57428 2.10309 5.62111 2.67386 4.738 3.32624L4.69712 3.35765C4.37621 3.60342 2.20958 5.31274 0.772658 7.6448V7.65404C0.695147 7.76962 0.626841 7.89004 0.568259 8.01439C0.568259 8.01439 0.568259 8.01439 0.586655 8.01439C0.566215 8.05504 0.543731 8.09385 0.523291 8.13635C0.502852 8.17885 0.472192 8.23983 0.447664 8.29342C0.149691 8.9449 -0.00245376 9.64332 2.99247e-05 10.3483C2.99247e-05 13.305 2.70832 15.6278 5.99097 15.6278C10.3324 15.6278 11.5097 11.6418 14.1404 8.30081C14.9845 7.17731 16.0501 6.20388 17.284 5.42916C17.2921 5.42318 17.301 5.4182 17.3106 5.41438L17.5967 5.23328Z" fill="#50BFA3"/>
</svg>
