<svg width="196" height="196" viewBox="0 0 196 196" fill="none" xmlns="http://www.w3.org/2000/svg">
    <mask id="mask0_1332_106473" style="mask-type:alpha" maskUnits="userSpaceOnUse" x="0" y="0" width="196" height="196">
        <path d="M196 0H0V196H196V0Z" fill="white"/>
    </mask>
    <g mask="url(#mask0_1332_106473)">
        <mask id="mask1_1332_106473" style="mask-type:alpha" maskUnits="userSpaceOnUse" x="69" y="49" width="78" height="22">
            <path d="M146.041 49.0293H69.804L69.76 70.8287H145.997L146.041 49.0293Z" fill="white"/>
        </mask>
        <g mask="url(#mask1_1332_106473)">
            <path d="M70.8953 50.1358C80.6648 50.1358 81.886 55.9101 81.886 61.6741V67.9626C81.886 68.9591 82.6437 69.7687 83.5761 69.7687L141.14 69.268C142.073 69.268 142.83 68.459 142.83 67.4625V60.6831C142.83 54.499 138.139 49.4849 132.354 49.4849C131.962 49.4849 70.4862 50.1358 70.8953 50.1358Z" fill="#98A2B3"/>
            <path d="M70.8936 51.1925C70.8936 52.1352 71.6598 52.9003 72.6032 52.9003C132.366 52.9003 132.377 52.8997 132.388 52.9003C136.304 52.907 139.478 56.1077 139.484 60.0589V68.1602H141.174C142.106 68.1602 142.863 67.397 142.863 66.456V60.0589C142.888 54.2161 138.214 49.4596 132.422 49.4346H132.355H131.724C131.569 49.4437 131.418 49.4688 131.265 49.4852H72.6008C71.658 49.4852 70.8936 50.2497 70.8936 51.1925Z" fill="#98A2B3"/>
        </g>
        <mask id="mask2_1332_106473" style="mask-type:alpha" maskUnits="userSpaceOnUse" x="46" y="47" width="95" height="104">
            <path d="M140.193 47.9316H46.4048V150.053H140.193V47.9316Z" fill="white"/>
        </mask>
        <g mask="url(#mask2_1332_106473)">
            <path d="M132.354 52.6895V49.4839H71.4862C63.5106 49.4961 57.0481 56.0129 57.0359 64.0544V147.722C57.0359 148.662 57.793 149.426 58.7254 149.426H110.841C118.806 149.401 125.253 142.886 125.259 134.855V60.0459V59.9659C125.308 56.0478 128.469 52.7005 132.354 52.695C132.37 52.695 132.385 52.6901 132.4 52.6895H132.354Z" fill="white"/>
            <path d="M71.4532 49.4841C63.477 49.497 57.0139 56.0138 57.0017 64.0553V113.038L93.3942 49.439L71.4532 49.4841Z" fill="#E6F4F2"/>
            <path d="M57.0354 83.8114V65.1346C57.0482 57.0925 63.5107 50.5763 71.4869 50.5635H132.354M52.71 147.109C56.3448 147.109 57.0024 143.247 57.0024 140.807C57.0024 120.848 57.0354 106.74 57.0354 101.679M57.3535 89.5174V91.7613" stroke="#98A2B3" stroke-width="2.19813" stroke-miterlimit="10" stroke-linecap="round"/>
            <path d="M132.355 49.4336H131.724C126.199 49.77 121.887 54.3831 121.879 59.9669V60.1263V134.813C121.869 139.903 118.46 144.345 113.579 145.631C113.045 145.77 112.499 145.838 111.953 145.844V145.845H111.911H111.867H48.6846C51.221 148.084 54.5389 149.445 58.1738 149.449H58.1964H76.4134H110.842C111.213 149.449 111.787 149.449 112.16 149.392C112.816 149.331 113.467 149.221 114.108 149.063C120.651 147.526 125.285 141.647 125.293 134.87V60.0237V59.9443C125.341 56.2716 128.132 53.2315 131.757 52.8993C131.957 52.8883 132.341 52.8895 132.54 52.8993L132.355 49.4336Z" fill="#98A2B3"/>
        </g>
        <mask id="mask3_1332_106473" style="mask-type:alpha" maskUnits="userSpaceOnUse" x="42" y="130" width="71" height="20">
            <path d="M112.005 130.541H42.7415V149.747H112.005V130.541Z" fill="white"/>
        </mask>
        <g mask="url(#mask3_1332_106473)">
            <path d="M132.353 49.4336H131.723C126.198 49.7706 121.887 54.3831 121.879 59.9669V60.1263V134.813C121.869 139.903 118.46 144.346 113.579 145.631C112.471 145.92 111.307 145.92 110.199 145.631C105.303 144.328 101.895 139.854 101.909 134.745V132.473C101.915 131.532 101.164 130.763 100.231 130.757H89.5222H80.9122H67.6386H53.7409H45.4344C44.502 130.757 43.7449 131.521 43.7449 132.462V134.871C43.7376 142.915 50.1988 149.442 58.1738 149.449H58.1951H76.4122H110.84C111.212 149.449 111.787 149.449 112.159 149.392C112.816 149.331 113.467 149.222 114.108 149.063C120.651 147.526 125.284 141.648 125.292 134.871V60.0243V59.9443C125.34 56.2722 128.131 53.2309 131.757 52.8999C131.967 52.8883 132.177 52.8883 132.388 52.8999C136.304 52.906 139.477 56.1074 139.484 60.0579V68.1598H141.173C142.106 68.1598 142.863 67.3966 142.863 66.4557V60.0579C142.888 54.2151 138.213 49.4592 132.422 49.4336H132.353Z" fill="#98A2B3"/>
        </g>
        <mask id="mask4_1332_106473" style="mask-type:alpha" maskUnits="userSpaceOnUse" x="58" y="51" width="68" height="96">
            <path d="M125.934 51.7476C121.965 51.7476 70.6758 51.7476 70.6758 51.7476L61.6695 58.1588L58.3113 77.5451V130.819C58.3113 130.819 99.2209 130.819 100.442 130.819C101.663 130.819 101.816 131.888 101.816 132.651C101.816 133.414 102.579 146.084 111.585 146.084C120.592 146.084 121.813 137.841 121.813 133.262C121.813 128.682 121.813 60.4485 121.813 58.922C121.813 57.3955 123.645 52.8161 125.934 51.7476Z" fill="white"/>
        </mask>
        <g mask="url(#mask4_1332_106473)">
            <path d="M99.6149 89.5542H67.7091C66.5188 89.5542 65.554 90.5191 65.554 91.7093V106.285C65.554 107.476 66.5188 108.441 67.7091 108.441H99.6149C100.805 108.441 101.77 107.476 101.77 106.285V91.7093C101.77 90.5191 100.805 89.5542 99.6149 89.5542Z" fill="white"/>
            <path d="M99.615 109H67.7091C66.9911 108.999 66.3029 108.713 65.7951 108.205C65.2874 107.697 65.0015 107.009 65 106.291V91.7091C65.0015 90.9911 65.2874 90.3029 65.7951 89.7951C66.3029 89.2874 66.9911 89.0015 67.7091 89H99.615C100.333 89.0015 101.021 89.2874 101.529 89.7951C102.037 90.3029 102.323 90.9911 102.324 91.7091V106.291C102.323 107.009 102.037 107.697 101.529 108.205C101.021 108.713 100.333 108.999 99.615 109V109ZM67.7091 90.108C67.2845 90.108 66.8772 90.2767 66.577 90.577C66.2767 90.8773 66.108 91.2845 66.108 91.7091V106.291C66.108 106.715 66.2767 107.123 66.577 107.423C66.8772 107.723 67.2845 107.892 67.7091 107.892H99.615C100.039 107.891 100.446 107.721 100.745 107.421C101.045 107.121 101.215 106.715 101.216 106.291V91.7091C101.215 91.2849 101.045 90.8785 100.745 90.5786C100.446 90.2786 100.039 90.1095 99.615 90.108H67.7091Z" fill="#98A2B3"/>
            <path d="M71.0107 95.249H75.2545V96.5233H72.3847V97.6867H75.0938V98.9554H72.3847V100.23H75.4096V101.498H71.0107V95.249Z" fill="#D0D5DD"/>
            <path d="M76.3459 97.1886H77.6202V97.7703C77.6648 97.6794 77.7248 97.597 77.7975 97.5265C77.8756 97.4387 77.9673 97.3639 78.0689 97.3049C78.1822 97.2373 78.3031 97.1833 78.429 97.1442C78.5732 97.1035 78.7224 97.083 78.8723 97.0833C79.1491 97.0782 79.423 97.1409 79.67 97.2661C79.9071 97.3964 80.0927 97.6035 80.1964 97.8534C80.3191 97.6059 80.5117 97.3998 80.7504 97.2606C80.9901 97.1496 81.2501 97.0894 81.5142 97.0837C81.7783 97.0779 82.0407 97.1269 82.285 97.2273C82.4707 97.3199 82.6305 97.4569 82.7504 97.6262C82.8713 97.8057 82.956 98.0071 82.9997 98.219C83.0502 98.4576 83.0744 98.701 83.0717 98.9448V101.477H81.7476V98.978C81.7516 98.798 81.7077 98.6202 81.6202 98.4628C81.5717 98.3884 81.5036 98.3289 81.4235 98.2908C81.3433 98.2527 81.2542 98.2374 81.1659 98.2467C81.0342 98.2427 80.9033 98.2693 80.7836 98.3243C80.6836 98.369 80.5975 98.4398 80.5343 98.5293C80.4713 98.6237 80.4263 98.7288 80.4014 98.8395C80.3739 98.9613 80.3609 99.0859 80.3626 99.2107V101.477H79.0385V99.2107C79.0385 99.1332 79.0385 99.039 79.0385 98.9282C79.0329 98.8183 79.0105 98.7099 78.972 98.6068C78.9399 98.5074 78.8804 98.4191 78.8002 98.352C78.6991 98.2785 78.5761 98.2414 78.4512 98.2467C78.3087 98.2417 78.1673 98.2742 78.0412 98.3409C77.9382 98.397 77.8536 98.4817 77.7975 98.5847C77.74 98.6935 77.7025 98.8117 77.6867 98.9337C77.678 99.0702 77.678 99.2072 77.6867 99.3437V101.477H76.3626L76.3459 97.1886Z" fill="#D0D5DD"/>
            <path d="M84.1462 97.1877H85.3651V97.7418C85.4258 97.6562 85.4965 97.5781 85.5756 97.5091C85.6638 97.4223 85.7647 97.3494 85.8748 97.293C85.9929 97.2272 86.1172 97.1734 86.246 97.1323C86.3884 97.092 86.5356 97.0715 86.6836 97.0714C86.9794 97.0686 87.2729 97.1231 87.5479 97.2321C87.7976 97.3402 88.0235 97.4965 88.2127 97.6919C88.3999 97.896 88.5449 98.1351 88.6393 98.3955C88.7418 98.6815 88.7925 98.9836 88.7889 99.2875C88.79 99.5789 88.7452 99.8687 88.6559 100.146C88.5686 100.409 88.4354 100.655 88.2626 100.872C88.0985 101.084 87.8906 101.258 87.6532 101.382C87.3995 101.511 87.1179 101.575 86.8332 101.57C86.5692 101.574 86.3065 101.531 86.0576 101.443C85.8213 101.361 85.6161 101.208 85.4703 101.005V101.005V103.476H84.1462V97.1877ZM85.3651 99.3318C85.3514 99.6201 85.4508 99.9023 85.6421 100.118C85.7439 100.22 85.8662 100.3 86.0008 100.351C86.1354 100.403 86.2793 100.426 86.4233 100.418C86.5673 100.427 86.7116 100.405 86.8463 100.353C86.9811 100.301 87.1032 100.221 87.2044 100.118C87.3834 99.8953 87.4809 99.6178 87.4809 99.3318C87.4809 99.0457 87.3834 98.7682 87.2044 98.5451C87.1032 98.4422 86.9811 98.3623 86.8463 98.3107C86.7116 98.2591 86.5673 98.237 86.4233 98.2459C86.2793 98.238 86.1354 98.2606 86.0008 98.3122C85.8662 98.3637 85.7439 98.4431 85.6421 98.5451C85.5446 98.6548 85.47 98.7829 85.4224 98.9217C85.3749 99.0606 85.3554 99.2075 85.3651 99.3539V99.3318Z" fill="#D0D5DD"/>
            <path d="M92.5067 98.2962H91.3377V99.7255C91.3287 99.8324 91.3287 99.9399 91.3377 100.047C91.3441 100.137 91.3706 100.224 91.4153 100.302C91.4605 100.373 91.5262 100.429 91.6036 100.462C91.7107 100.506 91.8259 100.527 91.9416 100.523C92.0136 100.523 92.1078 100.523 92.2241 100.523C92.3194 100.515 92.4099 100.478 92.4845 100.418V101.526C92.3362 101.58 92.1817 101.615 92.0247 101.631C91.8685 101.651 91.7112 101.661 91.5538 101.659C91.3465 101.662 91.1398 101.637 90.9388 101.587C90.7615 101.546 90.5939 101.471 90.4457 101.365C90.302 101.261 90.1875 101.122 90.1133 100.961C90.0282 100.773 89.9865 100.569 89.9914 100.363V98.2962H89.1438V97.1881H89.9914V95.9194H91.3155V97.1881H92.4845L92.5067 98.2962Z" fill="#D0D5DD"/>
            <path d="M95.6484 102.174C95.5597 102.401 95.4711 102.606 95.388 102.784C95.3167 102.951 95.211 103.102 95.0777 103.227C94.9407 103.355 94.7757 103.45 94.5957 103.504C94.3466 103.571 94.089 103.6 93.8312 103.592C93.4944 103.595 93.1595 103.542 92.8395 103.437L93.0168 102.329C93.2101 102.417 93.4197 102.462 93.6317 102.462C93.7556 102.466 93.8791 102.449 93.9974 102.412C94.0858 102.385 94.1658 102.335 94.2301 102.268C94.2935 102.203 94.3459 102.129 94.3852 102.047L94.5182 101.736L94.6123 101.487L92.7231 97.188H94.1525L95.2605 100.019L96.2079 97.188H97.5652L95.6484 102.174Z" fill="#D0D5DD"/>
            <path d="M126.335 119.802C127.445 118.785 129.168 118.858 130.187 119.965L143.067 133.941C144.083 135.044 144.012 136.762 142.909 137.779L142.905 137.783C141.796 138.8 140.073 138.727 139.053 137.62L126.173 123.645C125.157 122.541 125.227 120.823 126.33 119.807L126.335 119.802Z" fill="#E6F4F2"/>
            <path d="M129.087 122.696C136.839 116.156 137.138 104.132 129.943 95.566C122.714 86.957 110.53 85.1088 102.857 91.5634C95.1897 98.014 94.8808 110.371 102.124 118.969C109.367 127.566 121.367 129.208 129.087 122.696Z" fill="#E6F4F2"/>
            <path d="M129.087 122.696C136.839 116.156 137.138 104.132 129.943 95.566C122.714 86.957 110.53 85.1088 102.857 91.5634C95.1897 98.014 94.8808 110.371 102.124 118.969C109.367 127.566 121.367 129.208 129.087 122.696Z" stroke="#98A2B3" stroke-width="2.24559" stroke-miterlimit="10"/>
        </g>
        <path d="M70.6479 68.6357H112.419" stroke="#98A2B3" stroke-width="2.19813" stroke-miterlimit="10" stroke-linecap="round"/>
        <path d="M133.554 114.465C134.663 113.448 136.386 113.521 137.406 114.627L150.285 128.604C151.301 129.706 151.231 131.424 150.128 132.441L150.123 132.446C149.014 133.462 147.291 133.39 146.271 132.283L133.392 118.307C132.375 117.204 132.446 115.486 133.549 114.47L133.554 114.465Z" fill="#98A2B3"/>
        <path d="M136.306 117.359C144.058 110.819 144.356 98.7947 137.162 90.2286C129.932 81.6196 117.749 79.7714 110.076 86.226C102.408 92.6766 102.099 105.034 109.343 113.632C116.586 122.229 128.586 123.87 136.306 117.359Z" fill="white"/>
        <path d="M136.306 117.359C144.058 110.819 144.356 98.7947 137.162 90.2286C129.932 81.6196 117.749 79.7714 110.076 86.226C102.408 92.6766 102.099 105.034 109.343 113.632C116.586 122.229 128.586 123.87 136.306 117.359Z" stroke="#98A2B3" stroke-width="2.24559" stroke-miterlimit="10"/>
    </g>
</svg>
