<svg width="28" height="17" viewBox="0 0 28 17" fill="none" xmlns="http://www.w3.org/2000/svg">
<path d="M19.8401 8.83919C19.3502 8.29982 18.6541 7.57503 17.5576 6.54751C18.1225 6.19612 18.6572 5.89984 19.1577 5.6497L19.592 5.43992C20.8461 4.85565 21.8572 4.56672 22.5503 4.42372C22.8973 4.35214 23.165 4.31705 23.344 4.29984C23.3938 4.29505 23.4367 4.29165 23.4726 4.28923C25.4703 5.6164 26.4767 6.89562 26.861 7.96757C27.2461 9.04179 27.0208 9.93769 26.4922 10.5742C25.4074 11.8804 22.9136 12.2207 21.1507 10.3305C20.9371 10.1004 20.7505 9.88336 20.545 9.64365L20.5277 9.6235C20.3275 9.38999 20.11 9.13624 19.8401 8.83919Z" stroke="#D0D5DD" stroke-width="0.960541"/>
<path d="M17.0505 5.73789L17.0484 5.73921L16.7899 5.90277C16.7704 5.91302 16.7513 5.92441 16.7327 5.93695C15.477 6.72691 14.3894 7.72008 13.5255 8.86885C12.8781 9.69155 12.3199 10.5507 11.7937 11.3604L11.7602 11.412C11.2184 12.2458 10.7123 13.0203 10.1594 13.691C9.07076 15.0115 7.83794 15.8869 5.89187 15.8869C2.86606 15.8869 0.480544 13.7589 0.480547 11.1752L0.480541 11.1736C0.478347 10.5509 0.612636 9.93272 0.87724 9.35421C0.89123 9.32364 0.905405 9.29473 0.92059 9.26375C0.929241 9.24611 0.938221 9.22779 0.947678 9.20813C0.953006 9.19705 0.959441 9.1847 0.969669 9.16555C0.970867 9.1633 0.97216 9.16089 0.973533 9.15832C0.98241 9.14174 0.994637 9.11889 1.00626 9.09577L1.1567 8.79656C1.15745 8.79543 1.15821 8.7943 1.15896 8.79318L1.24036 8.67181V8.65419C2.60562 6.49613 4.61266 4.91068 4.9115 4.68181L4.91212 4.68133L4.94869 4.65323C5.791 4.03136 6.70068 3.48671 7.66428 3.02769L7.66431 3.02773L7.67057 3.02463L7.67059 3.02463L7.67064 3.0246L7.67067 3.02459L7.67136 3.02424L7.67474 3.02258L7.68927 3.01549L7.74793 2.98718C7.79966 2.96241 7.87582 2.92638 7.97204 2.88208C8.16464 2.79341 8.43675 2.67201 8.75355 2.54168C9.3934 2.27846 10.1911 1.98904 10.8789 1.85105L10.8789 1.85109L10.8855 1.84968L10.9677 1.83199C12.0694 1.60581 13.1951 1.48738 14.3252 1.47886C16.1441 1.53119 17.9435 1.83027 19.663 2.36572L19.7327 2.38744H19.7439C19.7811 2.4 19.8316 2.41721 19.8925 2.43836C20.0299 2.48615 20.2191 2.5537 20.4262 2.63275C20.8538 2.79602 21.3114 2.99129 21.5656 3.15345L21.5895 3.16869L21.615 3.18101C21.8227 3.28134 22.0252 3.38973 22.222 3.50582C21.4686 3.67189 20.4373 3.98244 19.1927 4.56311L19.2736 4.73653L19.2766 4.76497L19.1848 4.57496L18.7446 4.78758L18.7446 4.78755L18.7389 4.7904C18.2096 5.05481 17.6453 5.36573 17.0505 5.73789ZM22.8792 3.3519C22.5442 3.1278 22.1915 2.92615 21.8239 2.74857L22.9189 3.3776C22.9059 3.36922 22.8927 3.36066 22.8792 3.3519ZM19.4914 4.95405L19.3937 4.52716H19.3535V4.80224L19.4914 4.95405ZM17.3052 6.14504C17.8861 5.78159 18.4369 5.47811 18.9535 5.22005L17.3052 6.14504Z" stroke="#98A2B3" stroke-width="0.960541"/>
</svg>
