<svg width="80" height="80" viewBox="0 0 80 80" fill="none" xmlns="http://www.w3.org/2000/svg">
    <circle cx="40" cy="40" r="40" fill="#D1E9FF"/>
    <g clip-path="url(#clip0_56_9752)">
        <path d="M58.8519 27.2974C56.4882 26.3123 54.1226 25.9375 51.7582 25.9375C44.2525 25.9369 36.7475 29.712 29.2418 29.712C27.3594 29.712 25.4783 29.4746 23.5959 28.8813C23.3845 28.8147 23.1724 28.7832 22.9652 28.7832C21.9165 28.7832 21 29.5897 21 30.7092V49.9183C21 50.683 21.4406 51.4078 22.1481 51.702C24.5118 52.6877 26.8774 53.0625 29.2418 53.0625C36.7475 53.0625 44.2531 49.2874 51.7588 49.2874C53.6412 49.2874 55.5223 49.5247 57.4047 50.1181C57.6161 50.1847 57.8282 50.2162 58.0354 50.2162C59.0841 50.2162 60.0006 49.4097 60.0006 48.2902V29.0817C60 28.3164 59.5594 27.5922 58.8519 27.2974ZM23.925 32.0055C25.1511 32.3107 26.4308 32.4638 27.747 32.5462C27.3887 34.3257 25.8141 35.6668 23.925 35.6668V32.0055ZM23.925 49.2614V46.3684C26.0194 46.3684 27.7141 48.0196 27.8073 50.086C26.4344 49.9764 25.1511 49.704 23.925 49.2614ZM40.5 45.3125C37.8072 45.3125 35.625 42.7096 35.625 39.5C35.625 36.2898 37.8078 33.6875 40.5 33.6875C43.1922 33.6875 45.375 36.2898 45.375 39.5C45.375 42.7108 43.1916 45.3125 40.5 45.3125ZM57.075 46.9945C56.0074 46.7287 54.8989 46.5797 53.7649 46.4835C54.1226 44.9044 55.4407 43.7056 57.075 43.4997V46.9945ZM57.075 32.6988C55.1926 32.462 53.732 30.9005 53.6741 28.9721C54.8648 29.1035 55.9952 29.3493 57.075 29.7386V32.6988Z" fill="#2E90FA"/>
    </g>
    <defs>
        <clipPath id="clip0_56_9752">
            <rect width="39" height="31" fill="white" transform="translate(21 24)"/>
        </clipPath>
    </defs>
</svg>
