<svg width="81" height="80" viewBox="0 0 81 80" fill="none" xmlns="http://www.w3.org/2000/svg">
    <circle cx="40.6121" cy="40" r="40" fill="#FFF6ED"/>
    <g clip-path="url(#clip0_55_9679)">
        <path d="M49.3123 29.4531C48.6656 29.4531 48.1404 29.9783 48.1404 30.625C48.1404 31.2717 48.6656 31.7969 49.3123 31.7969C49.9589 31.7969 50.4841 31.2717 50.4841 30.625C50.4841 29.9783 49.9589 29.4531 49.3123 29.4531Z" fill="#FB6514"/>
        <path d="M57.5157 30.625C57.5157 30.4028 57.5045 30.1834 57.4849 29.967L60.204 28.3969L56.6884 22.3062L53.9418 23.8925C53.5869 23.6475 53.2149 23.4314 52.8282 23.2458V20H45.797V23.2458C45.41 23.4314 45.0383 23.6475 44.6834 23.8925L41.9368 22.3062L38.4212 28.3969L41.1403 29.967C41.1211 30.1834 41.1095 30.4028 41.1095 30.625C41.1095 30.8472 41.1208 31.0666 41.1403 31.283L38.4212 32.8531L41.7162 38.5614L40.9197 39.0216C39.948 38.1989 38.8207 37.5543 37.5939 37.1231V34.1406H30.5626V37.1231C29.3358 37.5543 28.2085 38.1989 27.2371 39.0216L24.6724 37.5406L21.1589 43.6313L23.7361 45.1199C23.5976 45.7941 23.5314 46.4166 23.5314 47.0312C23.5314 47.6459 23.5976 48.2684 23.7361 48.9426L21.1589 50.4312L24.6724 56.5219L27.2368 55.0409C28.2085 55.864 29.3358 56.5082 30.5626 56.9397V60H37.5939V56.9394C38.8207 56.5082 39.9477 55.8636 40.9194 55.0409L43.4841 56.5219L46.9973 50.4312L44.42 48.9423C44.5586 48.2684 44.6251 47.6456 44.6251 47.0312C44.6251 46.4166 44.5586 45.7941 44.42 45.1199L46.9973 43.631L43.7044 37.9227L44.6834 37.3575C45.038 37.6022 45.41 37.8186 45.797 38.0038V41.1719H52.8282V38.0042C53.2149 37.8186 53.5869 37.6025 53.9415 37.3575L56.6881 38.9438L60.2037 32.8531L57.4846 31.283C57.5042 31.0666 57.5157 30.8472 57.5157 30.625ZM34.0782 52.8906C30.8477 52.8906 28.2189 50.2618 28.2189 47.0312C28.2189 43.8007 30.8477 41.1719 34.0782 41.1719C37.3088 41.1719 39.9376 43.8007 39.9376 47.0312C39.9376 50.2618 37.3088 52.8906 34.0782 52.8906ZM49.3126 34.1406C47.3741 34.1406 45.797 32.5635 45.797 30.625C45.797 28.6865 47.3741 27.1094 49.3126 27.1094C51.2511 27.1094 52.8282 28.6865 52.8282 30.625C52.8282 32.5635 51.2511 34.1406 49.3126 34.1406Z" fill="#FB6514"/>
        <path d="M34.0779 43.5156C32.1394 43.5156 30.5623 45.0928 30.5623 47.0312C30.5623 48.9697 32.1394 50.5469 34.0779 50.5469C36.0164 50.5469 37.5935 48.9697 37.5935 47.0312C37.5935 45.0928 36.0164 43.5156 34.0779 43.5156Z" fill="#FB6514"/>
    </g>
    <defs>
        <clipPath id="clip0_55_9679">
            <rect width="40" height="40" fill="white" transform="translate(20.6121 20)"/>
        </clipPath>
    </defs>
</svg>
