<svg width="81" height="80" viewBox="0 0 81 80" fill="none" xmlns="http://www.w3.org/2000/svg">
    <circle cx="40.6118" cy="40" r="40" fill="#FDF2FA"/>
    <g clip-path="url(#clip0_56_9742)">
        <path d="M53.2077 45.5045L51.2801 47.463C51.2247 47.5278 51.153 47.5769 51.0726 47.6052L46.2239 49.2126H49.2074C49.548 49.2126 49.8242 49.4888 49.8242 49.8294C49.8242 50.1701 49.548 50.4463 49.2074 50.4463H32.7839C32.4433 50.4463 32.1671 50.1701 32.1671 49.8294C32.1671 49.4888 32.4433 49.2126 32.7839 49.2126H45.6125C45.5601 49.2126 45.5113 49.1557 45.4679 49.1123C45.3029 48.95 45.245 48.7072 45.3191 48.488L45.6908 47.3621H32.7839C32.4433 47.3621 32.1671 47.086 32.1671 46.7453C32.1671 46.4047 32.4433 46.1285 32.7839 46.1285H46.1031L46.9729 43.5148C46.9946 43.4296 47.0374 43.3513 47.0976 43.2874L53.2077 37.1572V30.2453H47.6494C47.3087 30.2453 47.0395 30.0041 47.0395 29.6631V24H28.7661V57H53.2077V45.5045ZM32.7839 43.0444H41.4971C41.8377 43.0444 42.1139 43.3206 42.1139 43.6612C42.1139 44.0019 41.8377 44.278 41.4971 44.278H32.7839C32.4433 44.278 32.1671 44.0019 32.1671 43.6612C32.1671 43.3206 32.4433 43.0444 32.7839 43.0444ZM49.2074 53.5304H32.7839C32.4433 53.5304 32.1671 53.2542 32.1671 52.9136C32.1671 52.5729 32.4433 52.2967 32.7839 52.2967H49.2074C49.548 52.2967 49.8242 52.5729 49.8242 52.9136C49.8242 53.2542 49.548 53.5304 49.2074 53.5304Z" fill="#DD2590"/>
        <path d="M48.2729 24.9106V29.0119H52.4022L48.2729 24.9106Z" fill="#DD2590"/>
        <path d="M46.8813 47.7201L49.7363 46.7657L47.8358 44.8652L46.8813 47.7201Z" fill="#DD2590"/>
        <path d="M50.8768 46.1611L58.6865 38.3343L56.2668 35.9146L48.4399 43.7242L50.8768 46.1611Z" fill="#DD2590"/>
        <path d="M61.4256 35.5882L59.0119 33.1748L57.1392 35.0433L59.5571 37.4609L61.4256 35.5882Z" fill="#DD2590"/>
    </g>
    <defs>
        <clipPath id="clip0_56_9742">
            <rect width="33" height="33" fill="white" transform="translate(28.6118 24)"/>
        </clipPath>
    </defs>
</svg>
