<svg width="103" height="103" viewBox="0 0 103 103" fill="none" xmlns="http://www.w3.org/2000/svg">
<g filter="url(#filter0_d_11023_109340)">
<circle cx="51.5161" cy="47.1704" r="33.0269" fill="white"/>
</g>
<g clip-path="url(#clip0_11023_109340)">
<path d="M63.7097 43.6328L64.1626 43.1798C64.5486 42.7938 64.5486 42.1681 64.1626 41.7822C63.7766 41.3964 63.1511 41.3964 62.7651 41.7822L62.3009 42.2466L61.4091 38.6798C61.0891 37.4 59.805 36.3975 58.4859 36.3975H44.6635C43.3444 36.3975 42.0604 37.4 41.7403 38.6799L40.8487 42.2466L40.3844 41.7822C39.9984 41.3964 39.3729 41.3964 38.9869 41.7822C38.601 42.1682 38.601 42.7939 38.9869 43.1798L39.4399 43.6328C37.9959 44.3407 36.999 45.8256 36.999 47.5392V51.0102C36.999 52.4111 37.6656 53.6584 38.6974 54.4541V56.1859C38.6974 57.6027 39.8499 58.7552 41.2667 58.7552H43.2C44.6167 58.7552 45.7692 57.6027 45.7692 56.1859V55.3583H57.3803V56.1859C57.3803 57.6027 58.5328 58.7552 59.9495 58.7552H61.8827C63.2995 58.7552 64.4521 57.6027 64.4521 56.1859V54.4543C65.4839 53.6586 66.1505 52.4113 66.1505 51.0102V47.5392C66.1505 45.8256 65.1537 44.3407 63.7097 43.6328ZM42.7262 42.8851L43.6576 39.1593C43.7585 38.7555 44.2474 38.3738 44.6635 38.3738H58.4858C58.9019 38.3738 59.3908 38.7555 59.4917 39.1593L60.4233 42.8852C60.449 42.9885 60.4439 43.0765 60.4095 43.1207C60.3748 43.1648 60.2907 43.1912 60.1843 43.1912H42.9651C42.8587 43.1912 42.7746 43.1648 42.7399 43.1207C42.7056 43.0765 42.7005 42.9885 42.7262 42.8851ZM38.9754 47.5392C38.9754 46.2316 40.0394 45.1676 41.347 45.1676H61.8025C63.1101 45.1676 64.1741 46.2316 64.1741 47.5392V51.0102C64.1741 52.3179 63.1101 53.3819 61.8025 53.3819H41.347C40.0394 53.3819 38.9754 52.3179 38.9754 51.0102V47.5392ZM43.7928 56.1859C43.7928 56.5072 43.5212 56.7788 43.2 56.7788H41.2666C40.9453 56.7788 40.6737 56.5072 40.6737 56.1859V55.306C40.8933 55.3403 41.1179 55.3583 41.3469 55.3583H43.7927V56.1859H43.7928ZM62.4757 56.1859C62.4757 56.5072 62.2041 56.7788 61.8827 56.7788H59.9495C59.6283 56.7788 59.3567 56.5072 59.3567 56.1859V55.3583H61.8026C62.0315 55.3583 62.2562 55.3402 62.4758 55.306V56.1859H62.4757Z" fill="#7A5AF8"/>
<rect x="38.5742" y="44.8184" width="26" height="9.45455" rx="1.57576" fill="#7A5AF8"/>
<path d="M48.1776 50.2624H54.9716C55.5174 50.2624 55.9597 49.82 55.9597 49.2742C55.9597 48.7285 55.5173 48.2861 54.9716 48.2861H48.1776C47.6318 48.2861 47.1895 48.7286 47.1895 49.2742C47.1894 49.82 47.6318 50.2624 48.1776 50.2624Z" fill="#FEC84B"/>
<path d="M43.0821 51.9611C44.5635 51.9611 45.7687 50.7559 45.7687 49.2744C45.7687 47.793 44.5635 46.5879 43.0821 46.5879C41.6006 46.5879 40.3955 47.793 40.3955 49.2744C40.3954 50.7558 41.6006 51.9611 43.0821 51.9611ZM43.0821 48.5641C43.4737 48.5641 43.7923 48.8828 43.7923 49.2743C43.7923 49.666 43.4737 49.9846 43.0821 49.9846C42.6905 49.9846 42.3718 49.666 42.3718 49.2743C42.3717 48.8828 42.6904 48.5641 43.0821 48.5641Z" fill="#FEC84B"/>
<path d="M60.0665 51.9611C61.548 51.9611 62.7531 50.7559 62.7531 49.2744C62.7531 47.793 61.548 46.5879 60.0665 46.5879C58.5851 46.5879 57.3799 47.793 57.3799 49.2744C57.3798 50.7558 58.5851 51.9611 60.0665 51.9611ZM60.0665 48.5641C60.4581 48.5641 60.7768 48.8828 60.7768 49.2743C60.7768 49.666 60.4581 49.9846 60.0665 49.9846C59.6749 49.9846 59.3563 49.666 59.3563 49.2743C59.3562 48.8828 59.6748 48.5641 60.0665 48.5641Z" fill="#FEC84B"/>
</g>
<defs>
<filter id="filter0_d_11023_109340" x="0.489258" y="0.143555" width="102.054" height="102.054" filterUnits="userSpaceOnUse" color-interpolation-filters="sRGB">
<feFlood flood-opacity="0" result="BackgroundImageFix"/>
<feColorMatrix in="SourceAlpha" type="matrix" values="0 0 0 0 0 0 0 0 0 0 0 0 0 0 0 0 0 0 127 0" result="hardAlpha"/>
<feOffset dy="4"/>
<feGaussianBlur stdDeviation="9"/>
<feColorMatrix type="matrix" values="0 0 0 0 0.0431597 0 0 0 0 0.0441447 0 0 0 0 0.0458333 0 0 0 0.14 0"/>
<feBlend mode="normal" in2="BackgroundImageFix" result="effect1_dropShadow_11023_109340"/>
<feBlend mode="normal" in="SourceGraphic" in2="effect1_dropShadow_11023_109340" result="shape"/>
</filter>
<clipPath id="clip0_11023_109340">
<rect width="29.1515" height="29.1515" fill="white" transform="translate(37 33)"/>
</clipPath>
</defs>
</svg>
