<svg width="103" height="103" viewBox="0 0 103 103" fill="none" xmlns="http://www.w3.org/2000/svg">
<g filter="url(#filter0_d_11023_108981)">
<circle cx="51.5171" cy="47.1704" r="33.0269" fill="white"/>
</g>
<mask id="mask0_11023_108981" style="mask-type:alpha" maskUnits="userSpaceOnUse" x="36" y="37" width="30" height="18">
<rect x="36.1035" y="37.3301" width="29" height="17" fill="#D9D9D9"/>
</mask>
<g mask="url(#mask0_11023_108981)">
<path d="M64.2863 48.3068L62.0001 41.6063C61.9399 41.4301 61.7744 41.3116 61.5882 41.3116H55.478V37.7652C55.478 37.5249 55.2832 37.3301 55.0428 37.3301H36.5387C36.2983 37.3301 36.1035 37.5249 36.1035 37.7652V54.149C36.1035 54.2644 36.1494 54.3752 36.231 54.4567C36.3126 54.5383 36.4233 54.5842 36.5388 54.5842L38.0195 54.5839C38.1882 56.7098 39.971 58.3885 42.1396 58.3885C44.3085 58.3885 46.0915 56.709 46.2595 54.5825L53.2616 54.5812C53.429 56.7084 55.2122 58.3885 57.3816 58.3885C59.5515 58.3885 61.3351 56.7083 61.5024 54.5809H63.8743C64.1147 54.5809 64.3095 54.3861 64.3095 54.1457V48.4473C64.3096 48.3995 64.3018 48.352 64.2863 48.3068ZM42.1396 56.0965C41.1237 56.0965 40.2972 55.27 40.2972 54.2541C40.2972 53.2383 41.1237 52.4118 42.1396 52.4118C43.1554 52.4118 43.9818 53.2383 43.9818 54.2541C43.9819 55.27 43.1554 56.0965 42.1396 56.0965ZM57.3818 56.0965C56.3659 56.0965 55.5395 55.27 55.5395 54.2541C55.5395 53.2383 56.3659 52.4118 57.3818 52.4118C58.3979 52.4118 59.2247 53.2383 59.2247 54.2541C59.2247 55.27 58.3979 56.0965 57.3818 56.0965ZM59.0814 49.1768L58.4905 47.3846C58.4318 47.2061 58.2651 47.0857 58.0773 47.0857H58.0769L55.3029 47.0881V44.0706H59.8177L61.4982 49.1759L59.0814 49.1768Z" fill="#7A5AF8"/>
</g>
<circle cx="42.1035" cy="54.3301" r="2.8" stroke="#FEC84B" stroke-width="2.4"/>
<circle cx="57.1035" cy="54.3301" r="2.8" stroke="#FEC84B" stroke-width="2.4"/>
<defs>
<filter id="filter0_d_11023_108981" x="0.490234" y="0.143555" width="102.054" height="102.054" filterUnits="userSpaceOnUse" color-interpolation-filters="sRGB">
<feFlood flood-opacity="0" result="BackgroundImageFix"/>
<feColorMatrix in="SourceAlpha" type="matrix" values="0 0 0 0 0 0 0 0 0 0 0 0 0 0 0 0 0 0 127 0" result="hardAlpha"/>
<feOffset dy="4"/>
<feGaussianBlur stdDeviation="9"/>
<feColorMatrix type="matrix" values="0 0 0 0 0.0431597 0 0 0 0 0.0441447 0 0 0 0 0.0458333 0 0 0 0.14 0"/>
<feBlend mode="normal" in2="BackgroundImageFix" result="effect1_dropShadow_11023_108981"/>
<feBlend mode="normal" in="SourceGraphic" in2="effect1_dropShadow_11023_108981" result="shape"/>
</filter>
</defs>
</svg>
