<svg width="103" height="103" viewBox="0 0 103 103" fill="none" xmlns="http://www.w3.org/2000/svg">
<g filter="url(#filter0_d_11023_109207)">
<circle cx="51.5171" cy="47.1704" r="33.0269" fill="white"/>
</g>
<g clip-path="url(#clip0_11023_109207)">
<path d="M52.8475 36.5498H48.0539C47.5121 36.5498 47.0688 36.9931 47.0688 37.5349V54.4775C47.0688 55.0193 47.5121 55.4625 48.0539 55.4625H52.8475C53.3893 55.4625 53.8327 55.0194 53.8327 54.4775V37.5349C53.8327 36.9931 53.3893 36.5498 52.8475 36.5498ZM50.4507 53.9417C49.3978 53.9417 48.5412 53.0851 48.5412 52.0322C48.5412 50.9794 49.3978 50.1227 50.4507 50.1227C51.5036 50.1227 52.3603 50.9793 52.3603 52.0322C52.3603 53.0851 51.5036 53.9417 50.4507 53.9417ZM52.9461 45.6779C52.9461 46.0392 52.6506 46.3346 52.2895 46.3346H48.6121C48.251 46.3346 47.9555 46.0392 47.9555 45.6779V38.8921C47.9555 38.5309 48.251 38.2354 48.6121 38.2354H52.2895C52.6506 38.2354 52.9461 38.5309 52.9461 38.8921V45.6779Z" fill="#7A5AF8"/>
<path d="M44.8706 36.5498H40.0768C39.5351 36.5498 39.0918 36.9931 39.0918 37.5349V54.4775C39.0918 55.0193 39.5351 55.4625 40.0768 55.4625H44.8706C45.4123 55.4625 45.8555 55.0194 45.8555 54.4775V37.5349C45.8555 36.9931 45.4123 36.5498 44.8706 36.5498ZM42.4736 53.9417C41.4208 53.9417 40.564 53.0851 40.564 52.0322C40.564 50.9794 41.4207 50.1227 42.4736 50.1227C43.5266 50.1227 44.3833 50.9793 44.3833 52.0322C44.3832 53.0851 43.5266 53.9417 42.4736 53.9417ZM44.969 45.6779C44.969 46.0392 44.6735 46.3346 44.3122 46.3346H40.635C40.2738 46.3346 39.9783 46.0392 39.9783 45.6779V38.8921C39.9783 38.5309 40.2738 38.2354 40.635 38.2354H44.3122C44.6735 38.2354 44.969 38.5309 44.969 38.8921V45.6779Z" fill="#7A5AF8"/>
<path d="M65.2143 58.4573C65.2143 58.86 64.8848 59.1896 64.482 59.1896H38.7323C38.3295 59.1896 38 58.86 38 58.4573V57.8153C38 57.4125 38.3295 57.083 38.7323 57.083H64.482C64.8848 57.083 65.2143 57.4125 65.2143 57.8153V58.4573Z" fill="#FEC84B"/>
<g clip-path="url(#clip1_11023_109207)">
<path d="M55.3742 48.165H60.9035C62.5738 48.165 62.8982 45.8785 62.9118 45.7769L63.6933 40.1247C63.738 39.8012 64.0362 39.5755 64.3601 39.6198C64.6837 39.6646 64.9096 39.9631 64.865 40.2867L64.0842 45.933C63.9329 47.1125 63.0749 49.3415 60.9121 49.3473C60.8305 49.824 60.4154 50.1883 59.9158 50.1883H59.4731V52.4687H60.9224C61.6577 52.4687 62.2559 53.067 62.2559 53.8021V54.0248C62.2559 54.3513 61.9912 54.6163 61.6645 54.6163C61.3378 54.6163 61.0731 54.3514 61.0731 54.0248V53.8021C61.0731 53.7191 61.0055 53.6515 60.9223 53.6515H59.4731V54.0372C59.4731 54.3638 59.2083 54.6286 58.8816 54.6286C58.5549 54.6286 58.2902 54.3639 58.2902 54.0372V53.6515H56.8409C56.7578 53.6515 56.6902 53.7192 56.6902 53.8022V54.0248C56.6902 54.3514 56.4254 54.6163 56.0988 54.6163C55.772 54.6163 55.5073 54.3515 55.5073 54.0248V53.8022C55.5073 53.067 56.1055 52.4688 56.8407 52.4688H58.29V50.1884H57.8473C57.3478 50.1884 56.9329 49.8242 56.8513 49.3476H55.374C55.0473 49.3476 54.7825 49.0829 54.7825 48.7562C54.7825 48.4296 55.0476 48.165 55.3742 48.165Z" fill="#7A5AF8"/>
</g>
<rect x="40.5918" y="39.1836" width="3.88776" height="6.47959" rx="0.647959" fill="#FEC84B"/>
<rect x="48.3677" y="39.1836" width="3.88776" height="6.47959" rx="0.647959" fill="#FEC84B"/>
</g>
<defs>
<filter id="filter0_d_11023_109207" x="0.490234" y="0.143555" width="102.054" height="102.054" filterUnits="userSpaceOnUse" color-interpolation-filters="sRGB">
<feFlood flood-opacity="0" result="BackgroundImageFix"/>
<feColorMatrix in="SourceAlpha" type="matrix" values="0 0 0 0 0 0 0 0 0 0 0 0 0 0 0 0 0 0 127 0" result="hardAlpha"/>
<feOffset dy="4"/>
<feGaussianBlur stdDeviation="9"/>
<feColorMatrix type="matrix" values="0 0 0 0 0.0431597 0 0 0 0 0.0441447 0 0 0 0 0.0458333 0 0 0 0.14 0"/>
<feBlend mode="normal" in2="BackgroundImageFix" result="effect1_dropShadow_11023_109207"/>
<feBlend mode="normal" in="SourceGraphic" in2="effect1_dropShadow_11023_109207" result="shape"/>
</filter>
<clipPath id="clip0_11023_109207">
<rect width="27.2143" height="27.2143" fill="white" transform="translate(38 34)"/>
</clipPath>
<clipPath id="clip1_11023_109207">
<rect width="15.0144" height="15.0144" fill="white" transform="matrix(-1 0 0 1 67.3345 39.6133)"/>
</clipPath>
</defs>
</svg>
