<svg width="20" height="18" viewBox="0 0 20 18" fill="none" xmlns="http://www.w3.org/2000/svg">
    <path d="M9.48496 8.22571L4.74358 5.51635C4.0268 5.10677 4.087 4.05416 4.8458 3.72896L9.59102 1.6953C9.85137 1.58372 10.1468 1.58778 10.404 1.70648L14.806 3.73819C15.5307 4.07265 15.5908 5.07952 14.9111 5.49781L10.5052 8.20913C10.1937 8.4008 9.80249 8.40716 9.48496 8.22571Z" stroke="#7DC5B8" stroke-width="1.4"/>
    <path d="M1 7.52002C1 8.02002 1.3 9.22002 2.5 10.02C3.62619 10.7708 7.48277 11.8739 9.60611 12.8334C9.85951 12.9479 10.1479 12.9645 10.4083 12.8669L17.1887 10.3242C17.7234 10.1238 18.2266 9.82297 18.5522 9.35386C18.9456 8.78686 19.2709 8.06174 19 7.52002" stroke="#7DC5B8" stroke-width="1.4" stroke-linecap="round"/>
    <path d="M1 11.02C1 11.52 1.3 12.72 2.5 13.52C3.62619 14.2708 7.48277 15.3739 9.60611 16.3334C9.85951 16.4479 10.1479 16.4645 10.4083 16.3669L17.1887 13.8242C17.7234 13.6238 18.2266 13.323 18.5522 12.8539C18.9456 12.2869 19.2709 11.5617 19 11.02" stroke="#7DC5B8" stroke-width="1.4" stroke-linecap="round"/>
</svg>
