<svg width="16" height="16" viewBox="0 0 16 16" fill="none" xmlns="http://www.w3.org/2000/svg">
    <path d="M9.03356 13.4399C8.86023 13.5133 8.67356 13.5799 8.47356 13.6466L7.42023 13.9933C4.77356 14.8466 3.38023 14.1333 2.52023 11.4866L1.66689 8.85328C0.813561 6.20661 1.52023 4.80661 4.16689 3.95328L5.19356 3.61328C5.06689 3.93328 4.96023 4.29995 4.86023 4.71328L4.20689 7.50661C3.47356 10.6466 4.54689 12.3799 7.68689 13.1266L8.80689 13.3933C8.88023 13.4133 8.96023 13.4266 9.03356 13.4399Z" fill="#439687"/>
    <path d="M11.4474 2.13996L10.3341 1.87996C8.10744 1.3533 6.78077 1.78663 6.00077 3.39996C5.80077 3.80663 5.64077 4.29996 5.50744 4.86663L4.8541 7.65997C4.20077 10.4466 5.06077 11.82 7.84077 12.48L8.96077 12.7466C9.34744 12.84 9.70744 12.9 10.0408 12.9266C12.1208 13.1266 13.2274 12.1533 13.7874 9.74663L14.4408 6.95996C15.0941 4.1733 14.2408 2.7933 11.4474 2.13996Z" fill="#439687"/>
</svg>
