<svg width="82" height="80" viewBox="0 0 82 80" fill="none" xmlns="http://www.w3.org/2000/svg">
<ellipse cx="40.75" cy="40" rx="40.5" ry="40" fill="#1D2939"/>
<path d="M52.01 26.1118C52.01 24.9472 51.0626 24 49.898 24H32.3621C31.1975 24 30.25 24.9471 30.25 26.1118V53.8944C30.25 55.0529 31.1974 56 32.3621 56H49.898C51.0626 56 52.01 55.0529 52.01 53.8944V26.1118ZM38.57 26.7839H43.6901C44.042 26.7839 44.33 27.0718 44.33 27.4238C44.33 27.7757 44.042 28.0637 43.6901 28.0637H38.57C38.218 28.0637 37.93 27.7757 37.93 27.4238C37.9298 27.0718 38.2177 26.7839 38.57 26.7839ZM43.1586 53.389H39.1011C38.7491 53.389 38.4612 53.1011 38.4612 52.7491C38.4612 52.3972 38.7491 52.1092 39.1011 52.1092H43.1586C43.5106 52.1092 43.7986 52.3972 43.7986 52.7491C43.7986 53.1011 43.5106 53.389 43.1586 53.389ZM50.7297 49.4979H31.5296V30.8415H50.7297V49.4979Z" fill="#7AD06D"/>
<path d="M42.334 39.2063H46.654C47.006 39.2063 47.2939 38.9248 47.2939 38.5664V34.2464C47.2939 33.8944 47.006 33.6064 46.654 33.6064H42.334C41.982 33.6064 41.6941 33.8944 41.6941 34.2464V38.5664C41.6938 38.9248 41.982 39.2063 42.334 39.2063Z" fill="#7AD06D"/>
<path d="M34.8125 46.7268H39.1325C39.4845 46.7268 39.7725 46.4453 39.7725 46.0869V41.7669C39.7725 41.4149 39.4845 41.127 39.1325 41.127H34.8125C34.4606 41.127 34.1726 41.4149 34.1726 41.7669V46.0869C34.1726 46.4453 34.4606 46.7268 34.8125 46.7268Z" fill="#7AD06D"/>
<path d="M34.8125 39.2063H39.1325C39.4845 39.2063 39.7725 38.9248 39.7725 38.5664V34.2464C39.7725 33.8944 39.4845 33.6064 39.1325 33.6064H34.8125C34.4606 33.6064 34.1726 33.8944 34.1726 34.2464V38.5664C34.1726 38.9248 34.4606 39.2063 34.8125 39.2063Z" fill="#7AD06D"/>
<path d="M42.334 46.7268H46.654C47.006 46.7268 47.2939 46.4453 47.2939 46.0869V41.7669C47.2939 41.4149 47.006 41.127 46.654 41.127H42.334C41.982 41.127 41.6941 41.4149 41.6941 41.7669V46.0869C41.6938 46.4453 41.982 46.7268 42.334 46.7268Z" fill="#7AD06D"/>
</svg>
