<svg width="145" height="36" viewBox="0 0 145 36" fill="none" xmlns="http://www.w3.org/2000/svg">
<path d="M42.3569 5.29883C42.3029 5.29883 39.4142 5.29883 34.7836 7.57222L33.9939 7.97402C33.067 8.46166 32.0789 9.0386 31.0367 9.72199C30.8672 9.83188 30.3659 10.1238 30.0918 10.3436C32.5297 12.7062 33.983 14.2928 34.9604 15.4261C35.9377 16.5593 36.5255 17.3526 37.3189 18.2524C44.3116 26.1509 57.6514 15.797 42.3569 5.29883Z" fill="#4ebfa2"/>
<path d="M31.047 9.72546C32.0892 9.03863 33.0774 8.46513 34.0042 7.97749L34.794 7.57569H34.7219L34.7976 7.55852C39.4101 5.292 42.2988 5.28513 42.3709 5.28513C42.3493 5.1821 42.0932 5.16493 41.0474 4.4472C40.4463 4.02372 39.8135 3.64266 39.1541 3.30707C38.0758 2.58247 35.5621 1.71707 35.5621 1.71707H35.5333C32.3677 0.678758 29.0561 0.0999239 25.7096 0C23.6197 0.0155406 21.5376 0.245816 19.4995 0.686826L19.3481 0.721168C16.7154 1.2775 13.3796 3.01517 13.3796 3.01517C11.5994 3.90835 9.91768 4.96906 8.35954 6.18144L8.28742 6.23982C7.72122 6.69656 3.8985 9.87313 1.36325 14.207V14.2242C1.22649 14.439 1.10597 14.6627 1.00261 14.8938C1.00261 14.8938 1.00261 14.8938 1.03507 14.8938C0.999008 14.9694 0.959339 15.0415 0.923275 15.1205C0.887212 15.1995 0.833117 15.3128 0.789841 15.4124C0.264109 16.6231 -0.00432931 17.921 5.2798e-05 19.2311C5.2798e-05 24.7257 4.77845 29.0424 10.5702 29.0424C18.2301 29.0424 20.3073 21.635 24.9487 15.4261C26.438 13.3382 28.3182 11.5292 30.4952 10.0895C30.5095 10.0784 30.5253 10.0691 30.5421 10.062L31.047 9.72546Z" fill="#4FBFA3"/>
<path d="M28.3966 23.8122C28.8666 23.8121 29.3338 23.8816 29.7814 24.0183C30.2151 24.1447 30.6166 24.3552 30.9607 24.6364C31.3185 24.3875 31.7104 24.1864 32.1256 24.0389C32.6259 23.8726 33.1537 23.7935 33.6835 23.8054C34.117 23.8062 34.5482 23.8663 34.9637 23.9839C35.3731 24.0989 35.7544 24.2904 36.0853 24.5471C36.4272 24.8275 36.6952 25.1804 36.8679 25.5774C37.0722 26.0709 37.1667 26.5995 37.1456 27.1296V32.7478C36.9682 32.7959 36.7874 32.8315 36.6046 32.8543C36.3505 32.892 36.0937 32.9104 35.8365 32.9092C35.6091 32.912 35.3821 32.8936 35.1585 32.8543C34.9724 32.8267 34.7971 32.7533 34.65 32.6414C34.5046 32.5247 34.395 32.3729 34.3326 32.2018C34.2495 31.9699 34.2116 31.7255 34.2208 31.4806V27.2086C34.2342 27.0692 34.216 26.9287 34.1674 26.7966C34.1189 26.6645 34.0412 26.5438 33.9395 26.4428C33.7168 26.2716 33.4356 26.1848 33.1498 26.1989C32.9701 26.2039 32.7934 26.2436 32.6304 26.3157C32.4809 26.3747 32.3422 26.4558 32.2193 26.5561C32.2244 26.6018 32.2244 26.6478 32.2193 26.6935V32.7478C32.0344 32.7947 31.8465 32.8303 31.6567 32.8543C31.4098 32.8916 31.1602 32.91 30.9102 32.9092C30.6817 32.9118 30.4534 32.8934 30.2286 32.8543C30.0429 32.8255 29.868 32.7522 29.7201 32.6414C29.5757 32.5239 29.4662 32.3723 29.4028 32.2018C29.3196 31.9699 29.2818 31.7255 29.291 31.4806V27.2086C29.3056 27.0677 29.2862 26.9254 29.2343 26.7927C29.1824 26.66 29.0994 26.5403 28.9917 26.4428C28.7731 26.279 28.5015 26.1928 28.2235 26.1989C28.0402 26.1954 27.8581 26.2293 27.6898 26.2985C27.5659 26.3549 27.4455 26.418 27.3291 26.4874V32.7478C27.1518 32.7959 26.971 32.8315 26.7882 32.8543C26.5341 32.8919 26.2772 32.9102 26.02 32.9092C25.7927 32.912 25.5656 32.8936 25.342 32.8543C25.156 32.8267 24.9807 32.7533 24.8335 32.6414C24.6882 32.5247 24.5785 32.3729 24.5162 32.2018C24.4331 31.9699 24.3952 31.7255 24.4044 31.4806V26.0994C24.3894 25.8315 24.4571 25.5652 24.5991 25.3335C24.7477 25.1261 24.9318 24.9439 25.1437 24.7944C25.581 24.4904 26.0685 24.2583 26.5862 24.1076C27.1697 23.9194 27.7806 23.8197 28.3966 23.8122Z" fill="#4ebfa2"/>
<path d="M40.1743 30.5638C40.0481 30.2651 39.9111 29.9319 39.7668 29.5645C39.6226 29.197 39.4747 28.7712 39.3196 28.2939C39.1646 27.8165 39.0059 27.2636 38.84 26.6592C38.6741 26.0548 38.4794 25.3405 38.3135 24.5438C38.4927 24.3555 38.7081 24.2016 38.9482 24.0905C39.2251 23.9644 39.5284 23.8998 39.8353 23.9016C40.1885 23.8897 40.537 23.9808 40.8343 24.1626C41.1449 24.4096 41.3521 24.7544 41.4185 25.1345L42.7781 30.0487H42.8502C42.9873 29.6435 43.1207 29.2039 43.2542 28.7266C43.3876 28.2492 43.5138 27.7581 43.64 27.2533C43.7663 26.7485 43.8853 26.2231 44.0007 25.7354C44.1161 25.2478 44.2026 24.7327 44.2856 24.2416C44.6984 24.0134 45.1679 23.8948 45.6452 23.8982C45.9994 23.8851 46.349 23.9788 46.6441 24.166C46.7851 24.2785 46.8949 24.4221 46.9641 24.5844C47.0332 24.7466 47.0596 24.9225 47.0408 25.0967C47.0358 25.4715 46.9948 25.8451 46.9182 26.2128C46.8389 26.6352 46.7343 27.0851 46.6008 27.5624C46.4674 28.0397 46.3123 28.5308 46.1356 29.0356C45.9589 29.5405 45.775 30.0418 45.5766 30.5295C45.3783 31.0171 45.1799 31.4773 44.9744 31.9031C44.7688 32.329 44.5669 32.7273 44.3721 33.0742C44.1067 33.569 43.8067 34.0463 43.4741 34.5028C43.2489 34.8208 42.9836 35.1114 42.6844 35.3682C42.4655 35.5592 42.2077 35.7053 41.927 35.7974C41.6708 35.8764 41.4029 35.9158 41.1336 35.9142C40.9163 35.9226 40.6995 35.8872 40.4975 35.8103C40.2955 35.7334 40.1129 35.6166 39.9616 35.4678C39.6546 35.1472 39.467 34.7393 39.4278 34.307C39.7885 34.0083 40.1491 33.6786 40.5314 33.3146C40.8883 32.9626 41.222 32.5899 41.5303 32.1985C41.2886 32.1092 41.0733 31.9655 40.9028 31.7795C40.591 31.4155 40.3449 31.0046 40.1743 30.5638Z" fill="#4ebfa2"/>
<path d="M53.1571 26.2093C52.8775 26.2085 52.6001 26.2562 52.3385 26.3501C52.0837 26.4463 51.8546 26.5953 51.6677 26.7862C51.4675 26.9831 51.3117 27.2168 51.2097 27.473C51.0878 27.7812 51.0291 28.1088 51.0366 28.438C51.0126 28.7404 51.0548 29.0442 51.1603 29.3302C51.2658 29.6163 51.4324 29.8784 51.6497 30.1001C51.8476 30.2809 52.081 30.4228 52.3366 30.5177C52.5922 30.6125 52.8648 30.6585 53.1391 30.653C53.4423 30.6587 53.7444 30.617 54.0334 30.5294C54.2632 30.4534 54.4873 30.3627 54.7042 30.2581C54.9145 30.4046 55.0912 30.5904 55.2235 30.8041C55.3415 31.0226 55.3998 31.2659 55.393 31.5116C55.3992 31.7406 55.3401 31.9669 55.222 32.1664C55.1039 32.366 54.9312 32.5313 54.7223 32.6448C54.1544 32.9406 53.5113 33.0797 52.865 33.0466C52.193 33.0512 51.5261 32.9347 50.8995 32.7032C50.3394 32.4951 49.8309 32.1782 49.4065 31.7726C48.9783 31.3655 48.6463 30.8761 48.4328 30.3371C48.1907 29.7438 48.0683 29.1123 48.0722 28.4758C48.0535 27.7734 48.1759 27.074 48.4328 26.4153C48.6412 25.8799 48.9714 25.395 49.3997 24.9954C49.828 24.5959 50.3439 24.2915 50.9104 24.1041C51.4772 23.9105 52.0753 23.8128 52.6775 23.8157C53.3502 23.7768 54.0188 23.9402 54.5888 24.2827C54.7965 24.4128 54.9666 24.5903 55.0838 24.799C55.2009 25.0078 55.2614 25.2411 55.2596 25.4778C55.2622 25.6984 55.209 25.9163 55.1045 26.1131C55.0094 26.2975 54.8881 26.4686 54.7439 26.6214C54.5102 26.5146 54.2692 26.4228 54.0226 26.3466C53.7437 26.257 53.4515 26.2107 53.1571 26.2093Z" fill="#094063"/>
<path d="M65.4335 28.4243C65.4456 29.0957 65.3346 29.7639 65.1053 30.3989C64.9129 30.9404 64.6019 31.4367 64.1929 31.855C63.7942 32.2488 63.309 32.5537 62.772 32.7479C62.1827 32.9563 61.5578 33.0588 60.9292 33.0501C60.299 33.0584 59.6731 32.9499 59.0864 32.7307C58.5492 32.524 58.0647 32.2102 57.6655 31.8104C57.256 31.3911 56.9428 30.8952 56.7459 30.3543C56.5183 29.7343 56.4072 29.081 56.4177 28.4243C56.408 27.7733 56.5191 27.1258 56.7459 26.5115C56.9425 25.9761 57.2531 25.485 57.6583 25.0692C58.0575 24.6694 58.542 24.3556 59.0792 24.1488C59.6656 23.9284 60.2915 23.8188 60.922 23.826C61.5542 23.822 62.1808 23.9388 62.7648 24.1694C63.3017 24.3709 63.7882 24.6775 64.1929 25.0692C64.6024 25.4884 64.9156 25.9843 65.1126 26.5252C65.336 27.1354 65.4446 27.7782 65.4335 28.4243ZM59.4073 28.4243C59.3693 29.0062 59.5096 29.586 59.8112 30.0933C59.9298 30.2771 60.0974 30.4276 60.2969 30.5296C60.4965 30.6315 60.7209 30.6813 60.9472 30.6737C61.1708 30.6802 61.392 30.6291 61.5875 30.5257C61.7831 30.4224 61.9456 30.2706 62.058 30.0864C62.3437 29.5764 62.4772 29.0015 62.4439 28.4243C62.4727 27.8518 62.3288 27.2834 62.0291 26.7862C61.9091 26.6076 61.7438 26.4605 61.5484 26.3587C61.353 26.2569 61.1339 26.2035 60.9112 26.2035C60.6884 26.2035 60.4693 26.2569 60.2739 26.3587C60.0785 26.4605 59.9132 26.6076 59.7932 26.7862C59.5036 27.2862 59.3697 27.8545 59.4073 28.4243Z" fill="#094063"/>
<path d="M72.4083 32.5349C72.1947 32.6894 71.9487 32.7983 71.687 32.8543C71.3449 32.9418 70.9918 32.9846 70.6376 32.9814C70.2412 32.9884 69.8467 32.9279 69.4727 32.8028C69.3255 32.7547 69.1897 32.6792 69.0733 32.5808C68.9569 32.4823 68.8622 32.3629 68.7947 32.2293C68.6901 32.0267 68.5675 31.7451 68.4341 31.3811C68.3007 31.017 68.1384 30.6118 67.9797 30.1654C67.821 29.7189 67.6515 29.2382 67.4784 28.7265C67.3053 28.2148 67.143 27.6962 66.9879 27.2086C66.8329 26.7209 66.6922 26.2264 66.566 25.7628C66.4398 25.2992 66.3352 24.8871 66.2559 24.53C66.4396 24.3455 66.6587 24.1963 66.9014 24.0904C67.1816 23.9628 67.4888 23.8981 67.7994 23.9015C68.1503 23.889 68.4967 23.9802 68.7911 24.1625C69.0968 24.4123 69.3009 24.7562 69.3681 25.1344L70.0389 27.8817C70.1651 28.4208 70.2841 28.9119 70.3995 29.3412C70.515 29.7705 70.6015 30.1104 70.6592 30.3508H70.7458C70.9621 29.4671 71.1917 28.4895 71.4346 27.4181C71.6726 26.3466 71.8926 25.2923 72.0873 24.2552C72.2958 24.1439 72.519 24.0596 72.7509 24.0045C72.9865 23.9465 73.2288 23.9165 73.4722 23.9153C73.8318 23.9043 74.1865 23.9977 74.4891 24.1831C74.634 24.2931 74.7475 24.4359 74.8193 24.5985C74.8911 24.7611 74.919 24.9383 74.9003 25.1138C74.8871 25.3943 74.8436 25.6728 74.7704 25.9448C74.6875 26.3089 74.5757 26.7175 74.4459 27.1777C74.316 27.6379 74.1574 28.1221 73.9806 28.6338C73.8039 29.1454 73.62 29.664 73.4361 30.1345C73.2522 30.6049 73.0755 31.0789 72.8951 31.5081C72.7148 31.9374 72.5453 32.2602 72.4083 32.5349Z" fill="#094063"/>
<path d="M80.7063 33.05C80.0646 33.0561 79.4267 32.9574 78.8201 32.7581C78.2552 32.568 77.7389 32.266 77.3055 31.8721C76.8576 31.4536 76.5105 30.9474 76.2885 30.3885C76.0321 29.719 75.9097 29.0096 75.9279 28.2971C75.908 27.6058 76.0305 26.9175 76.2885 26.271C76.5078 25.7468 76.8394 25.272 77.2622 24.8767C77.6559 24.5183 78.1257 24.2443 78.6398 24.0731C79.1483 23.9017 79.6836 23.8134 80.223 23.8121C80.7916 23.8048 81.3562 23.9028 81.8855 24.1006C82.3664 24.2786 82.8053 24.5459 83.1766 24.887C83.546 25.2302 83.8359 25.6431 84.0277 26.0993C84.2331 26.5812 84.3361 27.0971 84.3306 27.6172C84.3542 27.9564 84.2362 28.2908 84.0024 28.5478C83.7527 28.7749 83.4327 28.9194 83.09 28.9599L78.831 29.6021C78.8886 29.7924 78.9869 29.9693 79.1197 30.1218C79.2525 30.2742 79.417 30.399 79.6027 30.4881C80.019 30.6898 80.4809 30.7912 80.9479 30.7834C81.4001 30.7848 81.85 30.7211 82.2822 30.5946C82.6431 30.4949 82.9878 30.3481 83.3064 30.1584C83.5006 30.2872 83.66 30.4578 83.7716 30.6564C83.8962 30.8657 83.9609 31.1026 83.9592 31.3432C83.9705 31.5875 83.9087 31.8298 83.781 32.042C83.6533 32.2542 83.465 32.4275 83.2379 32.5417C82.8538 32.7484 82.4334 32.8868 81.9973 32.9504C81.5705 33.017 81.1387 33.0503 80.7063 33.05ZM80.223 26.0306C79.9744 26.0244 79.7277 26.0726 79.5017 26.1714C79.3131 26.2599 79.146 26.3851 79.0113 26.5388C78.8851 26.6881 78.7886 26.858 78.7264 27.0402C78.6642 27.2215 78.6267 27.4096 78.6146 27.6L81.561 27.102C81.5103 26.834 81.3787 26.5857 81.1823 26.3877C81.0599 26.2646 80.9105 26.1687 80.7446 26.1069C80.5788 26.0452 80.4007 26.0191 80.223 26.0306Z" fill="#094063"/>
<path d="M88.835 32.7479C88.6565 32.7963 88.4745 32.8319 88.2904 32.8544C88.0375 32.8921 87.7819 32.9105 87.5259 32.9094C87.2974 32.9119 87.0691 32.8935 86.8443 32.8544C86.6566 32.8294 86.4799 32.7551 86.334 32.6399C86.1882 32.5246 86.0789 32.373 86.0184 32.2019C85.9353 31.97 85.8974 31.7256 85.9066 31.4808V26.1201C85.8986 25.8766 85.9492 25.6346 86.0545 25.4126C86.1558 25.2127 86.298 25.0341 86.4728 24.8872C86.6795 24.7185 86.9087 24.5765 87.1544 24.4648C87.4358 24.332 87.7261 24.2173 88.0236 24.1214C88.3396 24.0249 88.6626 23.9503 88.9901 23.8982C89.3188 23.8446 89.6519 23.8182 89.9854 23.8192C90.4489 23.7996 90.907 23.9198 91.2945 24.1626C91.4625 24.291 91.5946 24.4569 91.6789 24.6457C91.7632 24.8344 91.7972 25.0401 91.7778 25.2444C91.7783 25.4103 91.7553 25.5755 91.7092 25.7355C91.6665 25.8858 91.6085 26.0319 91.5361 26.1716C91.2945 26.1716 91.0493 26.1716 90.8149 26.2094C90.5666 26.2321 90.3198 26.2676 90.0756 26.3158C89.8339 26.3639 89.6067 26.412 89.394 26.4669C89.2073 26.5121 89.0261 26.5754 88.853 26.6558L88.835 32.7479Z" fill="#094063"/>
<path d="M97.0291 23.8123C97.634 23.8059 98.2358 23.8941 98.8107 24.0733C99.2993 24.2271 99.7567 24.4594 100.163 24.7602C100.378 24.9117 100.563 25.099 100.708 25.3131C100.848 25.5529 100.917 25.825 100.906 26.0995V32.3358C100.917 32.8997 100.793 33.4585 100.545 33.9705C100.329 34.4149 100.008 34.8062 99.6077 35.1141C99.1977 35.433 98.7223 35.6669 98.212 35.8009C97.6543 35.9483 97.0778 36.0211 96.499 36.0172C95.6533 36.0545 94.81 35.9041 94.0359 35.5777C93.7557 35.4526 93.5211 35.2508 93.3618 34.9983C93.2025 34.7457 93.1258 34.4536 93.1415 34.1594C93.136 33.9091 93.1915 33.6611 93.3038 33.4348C93.3888 33.255 93.5115 33.0938 93.6644 32.9609C94.0207 33.1615 94.3993 33.3239 94.7932 33.4451C95.2123 33.5757 95.6505 33.6418 96.0915 33.6408C96.6073 33.6654 97.1203 33.5536 97.5737 33.318C97.7551 33.2101 97.9023 33.0572 97.9995 32.8757C98.0967 32.6942 98.1403 32.491 98.1254 32.2878V32.0027C97.5834 32.2317 96.9943 32.342 96.4016 32.3255C95.9003 32.3268 95.4025 32.2454 94.9302 32.0852C94.4682 31.9258 94.0502 31.6687 93.7077 31.3331C93.3336 30.9565 93.0462 30.5097 92.8638 30.0212C92.6382 29.407 92.5307 28.759 92.5464 28.1084C92.5318 27.4621 92.6456 26.8189 92.8818 26.2128C93.0779 25.7142 93.3905 25.2647 93.796 24.8982C94.2015 24.5317 94.6893 24.2578 95.2223 24.0974C95.8043 23.9093 96.4146 23.813 97.0291 23.8123ZM98.111 26.4051C97.9973 26.3434 97.8763 26.295 97.7504 26.2609C97.5631 26.2085 97.3685 26.1842 97.1734 26.1888C96.9372 26.1727 96.7003 26.209 96.4813 26.2948C96.2623 26.3806 96.0671 26.5136 95.9112 26.6833C95.604 27.0895 95.4548 27.5849 95.4892 28.0844C95.4389 28.6132 95.5886 29.1417 95.9112 29.5748C96.0439 29.7235 96.21 29.8417 96.3973 29.9208C96.5847 29.9999 96.7883 30.0377 96.9931 30.0315C97.3973 30.0514 97.7951 29.9292 98.111 29.6881V26.4051Z" fill="#094063"/>
<path d="M107.311 33.0502C106.669 33.0563 106.031 32.9576 105.425 32.7583C104.846 32.5651 104.32 32.2524 103.884 31.8427C103.447 31.4331 103.111 30.9365 102.9 30.3887C102.642 29.7196 102.52 29.0099 102.54 28.2973C102.518 27.6059 102.64 26.9172 102.9 26.2712C103.117 25.7458 103.449 25.2704 103.874 24.8769C104.266 24.5171 104.737 24.2428 105.252 24.0734C105.76 23.9016 106.295 23.8134 106.835 23.8124C107.403 23.8054 107.968 23.9034 108.497 24.1008C108.977 24.2806 109.416 24.5477 109.788 24.8872C110.152 25.2317 110.437 25.6445 110.625 26.0995C110.827 26.5821 110.929 27.0977 110.924 27.6174C110.949 27.9562 110.832 28.2905 110.6 28.548C110.35 28.7751 110.03 28.9196 109.687 28.9601L105.432 29.6195C105.49 29.8099 105.589 29.9869 105.723 30.1393C105.856 30.2917 106.021 30.4164 106.207 30.5055C106.622 30.7076 107.083 30.809 107.549 30.8008C108.001 30.8025 108.451 30.7388 108.883 30.6119C109.245 30.5122 109.591 30.3654 109.911 30.1758C110.103 30.3057 110.261 30.4761 110.372 30.6738C110.498 30.8828 110.564 31.1196 110.564 31.3606C110.574 31.6048 110.513 31.847 110.385 32.0591C110.257 32.2712 110.069 32.4445 109.842 32.5591C109.46 32.766 109.04 32.9045 108.605 32.9677C108.177 33.0286 107.744 33.0562 107.311 33.0502ZM106.827 26.0308C106.579 26.0243 106.332 26.0724 106.106 26.1716C105.917 26.2592 105.75 26.3845 105.616 26.5391C105.488 26.6875 105.392 26.8576 105.331 27.0404C105.267 27.2213 105.229 27.4096 105.219 27.6002L108.162 27.1023C108.114 26.8332 107.982 26.5841 107.783 26.388C107.662 26.2647 107.513 26.1687 107.348 26.1069C107.182 26.0451 107.005 26.0191 106.827 26.0308Z" fill="#094063"/>
<path d="M117.812 27.2635C117.826 27.115 117.806 26.9654 117.754 26.8249C117.702 26.6844 117.618 26.5563 117.509 26.4496C117.281 26.2674 116.99 26.1741 116.694 26.1886C116.463 26.1891 116.234 26.2192 116.012 26.2779C115.804 26.3327 115.608 26.4235 115.435 26.5458V32.7478C115.258 32.7959 115.077 32.8315 114.894 32.8543C114.64 32.8918 114.383 32.9102 114.126 32.9092C113.899 32.9119 113.671 32.8935 113.448 32.8543C113.262 32.8266 113.087 32.7533 112.939 32.6414C112.794 32.5247 112.684 32.3728 112.622 32.2018C112.539 31.9699 112.501 31.7255 112.51 31.4806V26.1199C112.498 25.8457 112.565 25.5736 112.705 25.3335C112.847 25.1193 113.027 24.9309 113.239 24.7772C113.685 24.4702 114.182 24.2379 114.71 24.0904C115.349 23.9049 116.015 23.8146 116.683 23.8225C117.979 23.8225 118.976 24.1178 119.676 24.7085C120.032 25.0177 120.311 25.3985 120.493 25.8232C120.675 26.2479 120.756 26.7059 120.729 27.1639V32.7478C120.551 32.7962 120.369 32.8317 120.185 32.8543C119.932 32.892 119.676 32.9104 119.42 32.9092C119.191 32.9118 118.963 32.8934 118.738 32.8543C118.553 32.8247 118.378 32.7515 118.23 32.6414C118.085 32.5239 117.976 32.3723 117.913 32.2018C117.829 31.9699 117.791 31.7255 117.801 31.4806L117.812 27.2635Z" fill="#094063"/>
<path d="M122.652 21.6695C122.639 21.2492 122.795 20.84 123.089 20.5259C123.241 20.3792 123.422 20.2627 123.621 20.1832C123.821 20.1037 124.035 20.0627 124.252 20.0627C124.468 20.0627 124.682 20.1037 124.882 20.1832C125.082 20.2627 125.263 20.3792 125.415 20.5259C125.699 20.8454 125.855 21.2507 125.855 21.6695C125.855 22.0883 125.699 22.4936 125.415 22.8131C125.263 22.9598 125.082 23.0763 124.882 23.1558C124.682 23.2353 124.468 23.2762 124.252 23.2762C124.035 23.2762 123.821 23.2353 123.621 23.1558C123.422 23.0763 123.241 22.9598 123.089 22.8131C122.795 22.499 122.639 22.0898 122.652 21.6695ZM125.718 32.748L125.155 32.8476C124.908 32.8889 124.659 32.9096 124.408 32.9094C124.18 32.912 123.952 32.8936 123.727 32.8545C123.539 32.8294 123.362 32.7552 123.217 32.6399C123.071 32.5247 122.961 32.373 122.901 32.202C122.818 31.9701 122.78 31.7257 122.789 31.4808V24.2073L123.337 24.1077C123.585 24.0664 123.836 24.0457 124.087 24.0459C124.315 24.0432 124.542 24.0616 124.765 24.1009C124.952 24.1285 125.127 24.2019 125.274 24.3138C125.419 24.4304 125.529 24.5823 125.591 24.7533C125.676 24.985 125.715 25.2294 125.707 25.4745L125.718 32.748Z" fill="#094063"/>
<path d="M127.747 24.2071C127.924 24.1573 128.105 24.1217 128.288 24.1006C128.542 24.063 128.799 24.0447 129.056 24.0457C129.283 24.0429 129.511 24.0613 129.734 24.1006C129.922 24.1262 130.099 24.2006 130.245 24.3157C130.392 24.4308 130.502 24.5822 130.564 24.7531C130.645 24.9854 130.683 25.2295 130.675 25.4743V29.3171C130.656 29.5019 130.677 29.6885 130.736 29.8656C130.795 30.0427 130.891 30.2066 131.018 30.3473C131.295 30.5722 131.654 30.6844 132.017 30.6598C132.234 30.6645 132.452 30.6414 132.662 30.5911C132.796 30.5556 132.925 30.5073 133.048 30.4469V24.2071C133.226 24.157 133.409 24.1214 133.593 24.1006C133.846 24.0629 134.101 24.0445 134.357 24.0457C134.586 24.0431 134.814 24.0615 135.039 24.1006C135.227 24.1256 135.403 24.1999 135.549 24.3152C135.695 24.4304 135.804 24.5821 135.865 24.7531C135.948 24.985 135.986 25.2294 135.977 25.4743V30.9071C135.992 31.1712 135.934 31.4346 135.807 31.67C135.68 31.9055 135.49 32.1044 135.255 32.2464C134.815 32.5255 134.327 32.7289 133.813 32.8474C133.223 32.985 132.617 33.0531 132.01 33.05C131.431 33.0563 130.854 32.9847 130.297 32.8371C129.803 32.7076 129.342 32.4819 128.944 32.1743C128.556 31.8662 128.255 31.4708 128.068 31.0238C127.847 30.4766 127.741 29.893 127.758 29.3068L127.747 24.2071Z" fill="#094063"/>
<path d="M145 30.1756C145.02 30.578 144.942 30.9794 144.772 31.3482C144.601 31.717 144.344 32.0433 144.019 32.3013C143.362 32.8119 142.401 33.0683 141.134 33.0706C140.681 33.0753 140.228 33.0408 139.781 32.9675C139.412 32.9066 139.056 32.7907 138.725 32.6241C138.45 32.4926 138.214 32.2993 138.036 32.0609C137.864 31.8254 137.776 31.5439 137.783 31.2573C137.775 31.0057 137.835 30.7563 137.957 30.5327C138.063 30.3466 138.203 30.1803 138.371 30.0417C138.734 30.2502 139.117 30.425 139.514 30.5637C139.994 30.7192 140.498 30.7948 141.004 30.7869C141.287 30.8017 141.569 30.7461 141.823 30.6255C141.907 30.5864 141.979 30.5254 142.029 30.4496C142.08 30.3737 142.107 30.2859 142.107 30.1962C142.11 30.1193 142.093 30.0429 142.057 29.974C142.021 29.905 141.968 29.8457 141.902 29.8013C141.689 29.6816 141.454 29.6034 141.209 29.5712L140.694 29.4647C139.88 29.338 139.117 29.006 138.483 28.5032C138.232 28.2583 138.038 27.9655 137.913 27.6442C137.789 27.3228 137.737 26.9801 137.762 26.6384C137.755 26.2241 137.849 25.8139 138.036 25.4399C138.216 25.0876 138.482 24.7814 138.811 24.5471C139.173 24.2956 139.578 24.1073 140.009 23.9907C140.509 23.8555 141.028 23.7896 141.548 23.795C141.95 23.7935 142.351 23.8268 142.746 23.8946C143.083 23.9489 143.411 24.0483 143.719 24.1899C143.977 24.3061 144.201 24.4806 144.372 24.6982C144.536 24.9135 144.621 25.1741 144.614 25.4399C144.619 25.6761 144.569 25.9105 144.47 26.1268C144.383 26.3117 144.261 26.4795 144.109 26.6213C143.979 26.5423 143.84 26.4788 143.694 26.4324C143.497 26.3613 143.296 26.3016 143.092 26.2538C142.874 26.1986 142.654 26.1539 142.432 26.1199C142.23 26.0848 142.025 26.0664 141.819 26.0649C141.52 26.0514 141.222 26.097 140.943 26.1989C140.851 26.2292 140.771 26.2864 140.716 26.3622C140.66 26.4381 140.631 26.5287 140.632 26.6213C140.632 26.6835 140.647 26.7451 140.676 26.8007C140.706 26.8563 140.749 26.9043 140.802 26.9406C141.004 27.056 141.226 27.1351 141.458 27.1742L141.992 27.2978C143.092 27.5622 143.878 27.9228 144.343 28.3795C144.572 28.6227 144.748 28.9067 144.86 29.215C144.973 29.5233 145.02 29.8498 145 30.1756Z" fill="#094063"/>
</svg>
