<svg width="82" height="80" viewBox="0 0 82 80" fill="none" xmlns="http://www.w3.org/2000/svg">
<ellipse cx="40.75" cy="40" rx="40.5" ry="40" fill="#1D2939"/>
<path d="M56.6468 43.1995V28.0148C56.6468 26.9037 55.7428 26.0002 54.6322 26.0002L28.2648 26C27.154 26 26.25 26.9038 26.25 28.0148V46.2612C26.25 47.3723 27.154 48.2758 28.2646 48.2758H54.632C55.7428 48.2758 56.6466 47.372 56.6466 46.2612V43.2483C56.6475 43.2397 56.652 43.2325 56.652 43.2239C56.652 43.2154 56.6475 43.2084 56.647 43.1998L56.6468 43.1995ZM41.957 45.9763H40.9478C40.6856 45.9763 40.4729 45.7638 40.4729 45.5013C40.4729 45.2389 40.6856 45.0264 40.9478 45.0264H41.957C42.2193 45.0264 42.432 45.2389 42.432 45.5013C42.432 45.7638 42.2193 45.9763 41.957 45.9763ZM55.6968 42.7486H27.2004V28.0145C27.2004 27.4277 27.678 26.9498 28.265 26.9498H54.6324C55.2193 26.9498 55.697 27.4277 55.697 28.0145L55.6968 42.7486Z" fill="#7AD06D"/>
<path d="M49.0862 54.049H47.6743C45.9761 52.7496 44.8571 50.7746 44.3878 49.2227H38.5066C38.042 50.7749 36.923 52.7496 35.2248 54.049H33.817C33.5547 54.049 33.342 54.2615 33.342 54.524C33.342 54.7865 33.5547 54.9989 33.817 54.9989H49.0859C49.3482 54.9989 49.5609 54.7865 49.5609 54.524C49.5609 54.2615 49.3482 54.049 49.0859 54.049H49.0862Z" fill="#7AD06D"/>
<path d="M49.8373 35.0673L51.6904 34.0505C51.856 33.9594 51.9517 33.7796 51.9351 33.5917C51.9182 33.4038 51.7918 33.2434 51.6129 33.1834L44.0024 30.6331C43.8322 30.576 43.6441 30.6195 43.5163 30.7466C43.389 30.8732 43.3437 31.0612 43.4001 31.232L45.9036 38.8448C45.9626 39.0248 46.123 39.1523 46.3116 39.1694C46.5002 39.1875 46.6811 39.0901 46.7717 38.9236L47.7383 37.1519L50.5616 39.9366C50.6542 40.0281 50.7745 40.0734 50.895 40.0734C51.0165 40.0734 51.1382 40.027 51.231 39.9341L52.6316 38.5336C52.8172 38.3479 52.8172 38.0473 52.6316 37.8619L49.8373 35.0673Z" fill="#7AD06D"/>
<path d="M39.4188 29.1631H29.7894C29.5272 29.1631 29.3145 29.3756 29.3145 29.6381V33.1465C29.3145 33.409 29.5272 33.6215 29.7894 33.6215H39.4188C39.6811 33.6215 39.8938 33.409 39.8938 33.1465V29.6381C39.8938 29.3756 39.6811 29.1631 39.4188 29.1631Z" fill="#7AD06D"/>
<path d="M39.1815 34.9971H29.6808C29.4185 34.9971 29.2058 35.2095 29.2058 35.472C29.2058 35.7345 29.4185 35.947 29.6808 35.947H39.1815C39.4438 35.947 39.6565 35.7345 39.6565 35.472C39.6565 35.2095 39.4438 34.9971 39.1815 34.9971Z" fill="#7AD06D"/>
<path d="M39.1815 37.3711H29.6808C29.4185 37.3711 29.2058 37.5836 29.2058 37.8461C29.2058 38.1086 29.4185 38.321 29.6808 38.321H39.1815C39.4438 38.321 39.6565 38.1086 39.6565 37.8461C39.6565 37.5836 39.4438 37.3711 39.1815 37.3711Z" fill="#7AD06D"/>
<path d="M39.1815 39.7471H29.6808C29.4185 39.7471 29.2058 39.9595 29.2058 40.222C29.2058 40.4845 29.4185 40.697 29.6808 40.697H39.1815C39.4438 40.697 39.6565 40.4845 39.6565 40.222C39.6565 39.9593 39.4438 39.7471 39.1815 39.7471Z" fill="#7AD06D"/>
</svg>
