<svg width="30" height="25" viewBox="0 0 30 25" fill="none" xmlns="http://www.w3.org/2000/svg">
<path d="M3.98775 13.8636L15.4877 24.8636C15.5787 24.9506 15.8587 24.8998 15.9873 24.8636L26.5342 14.3168C27.4978 13.3533 28.3689 12.2685 28.7461 10.959C29.4847 8.39533 29.5753 4.64263 26.4873 1.86347C22.4873 -1.73653 17.4876 0.696873 15.4877 2.36358C13.1544 0.69691 7.58775 -1.63642 3.98775 2.36358C0.387746 6.36358 2.48775 11.6969 3.98775 13.8636Z" fill="#6938EF"/>
<path d="M2 10.8638H6.89816C6.96214 10.8638 7.02227 10.8332 7.0599 10.7814L10.7481 5.71014C10.848 5.57283 11.0627 5.61455 11.1039 5.77926L12.4244 11.0614C12.4598 11.2028 12.6296 11.2601 12.7434 11.1691L14.7434 9.56906C14.8604 9.47543 15.0351 9.53904 15.0644 9.68601L15.8737 13.7323C15.9122 13.9249 16.1763 13.9524 16.2537 13.7719L17.4481 10.985C17.4796 10.9114 17.5519 10.8638 17.6319 10.8638H28.5" stroke="#FEC84B" stroke-width="2.2" stroke-linecap="round"/>
</svg>
