<svg width="50" height="50" viewBox="0 0 50 50" fill="none" xmlns="http://www.w3.org/2000/svg">
    <circle cx="25" cy="25" r="25" fill="#FFFAEB"/>
    <path opacity="0.4" d="M29.24 16.65H20.76C18.29 16.65 16.29 18.66 16.29 21.12V30.53C16.29 32.99 18.3 35 20.76 35H29.23C31.7 35 33.7 32.99 33.7 30.53V21.12C33.71 18.65 31.7 16.65 29.24 16.65Z" fill="#DC6803"/>
    <path d="M27.35 15H22.65C21.61 15 20.76 15.84 20.76 16.88V17.82C20.76 18.86 21.6 19.7 22.64 19.7H27.35C28.39 19.7 29.23 18.86 29.23 17.82V16.88C29.24 15.84 28.39 15 27.35 15Z" fill="#DC6803"/>
    <path d="M23.81 29.95C23.62 29.95 23.43 29.88 23.28 29.73L21.78 28.23C21.49 27.94 21.49 27.46 21.78 27.17C22.07 26.88 22.55 26.88 22.84 27.17L23.81 28.14L27.28 24.67C27.57 24.38 28.05 24.38 28.34 24.67C28.63 24.96 28.63 25.44 28.34 25.73L24.34 29.73C24.2 29.88 24 29.95 23.81 29.95Z" fill="#DC6803"/>
</svg>