<svg width="50" height="50" viewBox="0 0 50 50" fill="none" xmlns="http://www.w3.org/2000/svg">
    <circle cx="25" cy="25" r="25" fill="#F9FAFB"/>
    <path opacity="0.4" d="M29.24 16.6504H20.76C18.29 16.6504 16.29 18.6604 16.29 21.1204V30.5304C16.29 32.9904 18.3 35.0004 20.76 35.0004H29.23C31.7 35.0004 33.7 32.9904 33.7 30.5304V21.1204C33.71 18.6504 31.7 16.6504 29.24 16.6504Z" fill="#98A2B3"/>
    <path d="M27.3498 15H22.6498C21.6098 15 20.7598 15.84 20.7598 16.88V17.82C20.7598 18.86 21.5998 19.7 22.6398 19.7H27.3498C28.3898 19.7 29.2298 18.86 29.2298 17.82V16.88C29.2398 15.84 28.3898 15 27.3498 15Z" fill="#98A2B3"/>
    <path d="M23.81 29.9506C23.62 29.9506 23.43 29.8806 23.28 29.7306L21.78 28.2306C21.49 27.9406 21.49 27.4606 21.78 27.1706C22.07 26.8806 22.55 26.8806 22.84 27.1706L23.81 28.1406L27.28 24.6706C27.57 24.3806 28.05 24.3806 28.34 24.6706C28.63 24.9606 28.63 25.4406 28.34 25.7306L24.34 29.7306C24.2 29.8806 24 29.9506 23.81 29.9506Z" fill="#98A2B3"/>
</svg>