<svg width="50" height="50" viewBox="0 0 50 50" fill="none" xmlns="http://www.w3.org/2000/svg">
    <circle cx="25" cy="25" r="25" fill="#FDF2FA"/>
    <path opacity="0.4" d="M33.5 23.19H30.61C28.24 23.19 26.31 21.26 26.31 18.89V16C26.31 15.45 25.86 15 25.31 15H21.07C17.99 15 15.5 17 15.5 20.57V29.43C15.5 33 17.99 35 21.07 35H28.93C32.01 35 34.5 33 34.5 29.43V24.19C34.5 23.64 34.05 23.19 33.5 23.19Z" fill="#DD2590"/>
    <path d="M28.7997 15.2105C28.3897 14.8005 27.6797 15.0805 27.6797 15.6505V19.1405C27.6797 20.6005 28.9197 21.8105 30.4297 21.8105C31.3797 21.8205 32.6997 21.8205 33.8297 21.8205C34.3997 21.8205 34.6997 21.1505 34.2997 20.7505C32.8597 19.3005 30.2797 16.6905 28.7997 15.2105Z" fill="#DD2590"/>
    <path d="M26.5 26.75H20.5C20.09 26.75 19.75 26.41 19.75 26C19.75 25.59 20.09 25.25 20.5 25.25H26.5C26.91 25.25 27.25 25.59 27.25 26C27.25 26.41 26.91 26.75 26.5 26.75Z" fill="#DD2590"/>
    <path d="M24.5 30.75H20.5C20.09 30.75 19.75 30.41 19.75 30C19.75 29.59 20.09 29.25 20.5 29.25H24.5C24.91 29.25 25.25 29.59 25.25 30C25.25 30.41 24.91 30.75 24.5 30.75Z" fill="#DD2590"/>
</svg>