<svg width="50" height="50" viewBox="0 0 50 50" fill="none" xmlns="http://www.w3.org/2000/svg">
    <circle cx="25" cy="25" r="25" fill="#EBE9FE"/>
    <path opacity="0.4" d="M23.7499 15.4503C24.4399 14.8603 25.5699 14.8603 26.2699 15.4503L27.8499 16.8103C28.1499 17.0703 28.7099 17.2803 29.1099 17.2803H30.8099C31.8699 17.2803 32.7399 18.1503 32.7399 19.2103V20.9103C32.7399 21.3003 32.9499 21.8703 33.2099 22.1703L34.5699 23.7503C35.1599 24.4403 35.1599 25.5703 34.5699 26.2703L33.2099 27.8503C32.9499 28.1503 32.7399 28.7103 32.7399 29.1103V30.8103C32.7399 31.8703 31.8699 32.7403 30.8099 32.7403H29.1099C28.7199 32.7403 28.1499 32.9503 27.8499 33.2103L26.2699 34.5703C25.5799 35.1603 24.4499 35.1603 23.7499 34.5703L22.1699 33.2103C21.8699 32.9503 21.3099 32.7403 20.9099 32.7403H19.1799C18.1199 32.7403 17.2499 31.8703 17.2499 30.8103V29.1003C17.2499 28.7103 17.0399 28.1503 16.7899 27.8503L15.4399 26.2603C14.8599 25.5703 14.8599 24.4503 15.4399 23.7603L16.7899 22.1703C17.0399 21.8703 17.2499 21.3103 17.2499 20.9203V19.2103C17.2499 18.1503 18.1199 17.2803 19.1799 17.2803H20.9099C21.2999 17.2803 21.8699 17.0703 22.1699 16.8103L23.7499 15.4503Z" fill="#6938EF"/>
    <path d="M29.5804 24.0707C29.3904 23.8007 29.0705 23.6507 28.6905 23.6507H26.7404C26.6104 23.6507 26.4905 23.6007 26.4105 23.5007C26.3305 23.4007 26.2905 23.2707 26.3105 23.1307L26.5504 21.5707C26.6504 21.1107 26.3405 20.5807 25.8805 20.4307C25.4505 20.2707 24.9404 20.4907 24.7404 20.7907L22.8004 23.6707V23.3107C22.8004 22.6107 22.5005 22.3207 21.7605 22.3207H21.2704C20.5304 22.3207 20.2305 22.6107 20.2305 23.3107V28.0907C20.2305 28.7907 20.5304 29.0807 21.2704 29.0807H21.7605C22.4605 29.0807 22.7605 28.8107 22.7905 28.1707L24.2605 29.3007C24.4605 29.5007 24.9105 29.6107 25.2305 29.6107H27.0804C27.7204 29.6107 28.3605 29.1307 28.5005 28.5407L29.6705 24.9807C29.8005 24.6607 29.7704 24.3307 29.5804 24.0707Z" fill="#6938EF"/>
</svg>