<svg width="50" height="50" viewBox="0 0 50 50" fill="none" xmlns="http://www.w3.org/2000/svg">
    <circle cx="25" cy="25" r="25" fill="#F9FAFB"/>
    <path opacity="0.4" d="M23.7499 15.45C24.4399 14.86 25.5699 14.86 26.2699 15.45L27.8499 16.81C28.1499 17.07 28.7099 17.28 29.1099 17.28H30.8099C31.8699 17.28 32.7399 18.15 32.7399 19.21V20.91C32.7399 21.3 32.9499 21.87 33.2099 22.17L34.5699 23.75C35.1599 24.44 35.1599 25.57 34.5699 26.27L33.2099 27.85C32.9499 28.15 32.7399 28.71 32.7399 29.11V30.81C32.7399 31.87 31.8699 32.74 30.8099 32.74H29.1099C28.7199 32.74 28.1499 32.95 27.8499 33.21L26.2699 34.57C25.5799 35.16 24.4499 35.16 23.7499 34.57L22.1699 33.21C21.8699 32.95 21.3099 32.74 20.9099 32.74H19.1799C18.1199 32.74 17.2499 31.87 17.2499 30.81V29.1C17.2499 28.71 17.0399 28.15 16.7899 27.85L15.4399 26.26C14.8599 25.57 14.8599 24.45 15.4399 23.76L16.7899 22.17C17.0399 21.87 17.2499 21.31 17.2499 20.92V19.21C17.2499 18.15 18.1199 17.28 19.1799 17.28H20.9099C21.2999 17.28 21.8699 17.07 22.1699 16.81L23.7499 15.45Z" fill="#98A2B3"/>
    <path d="M29.58 24.07C29.39 23.8 29.07 23.65 28.69 23.65H26.74C26.61 23.65 26.49 23.6 26.41 23.5C26.33 23.4 26.29 23.27 26.31 23.13L26.55 21.57C26.65 21.11 26.34 20.58 25.88 20.43C25.45 20.27 24.94 20.49 24.74 20.79L22.8 23.67V23.31C22.8 22.61 22.5 22.32 21.76 22.32H21.27C20.53 22.32 20.23 22.61 20.23 23.31V28.09C20.23 28.79 20.53 29.08 21.27 29.08H21.76C22.46 29.08 22.76 28.81 22.79 28.17L24.26 29.3C24.46 29.5 24.91 29.61 25.23 29.61H27.08C27.72 29.61 28.36 29.13 28.5 28.54L29.67 24.98C29.8 24.66 29.77 24.33 29.58 24.07Z" fill="#98A2B3"/>
</svg>
