<svg width="18" height="18" viewBox="0 0 18 18" fill="none" xmlns="http://www.w3.org/2000/svg">
<rect x="1.16448" y="1.16546" width="15.6691" height="15.6691" rx="7.83454" fill="#12B76A" stroke="#D1FADF" stroke-width="2.33091"/>
<path fill-rule="evenodd" clip-rule="evenodd" d="M11.668 6.75C11.4448 6.75 11.2456 6.83766 11.1022 6.98109L7.68359 10.4077L5.85875 8.57484C5.71531 8.43141 5.51609 8.34375 5.29297 8.34375C4.85469 8.34375 4.49609 8.70234 4.49609 9.14063C4.49609 9.36375 4.58375 9.56297 4.72719 9.70641L7.11781 12.097C7.26125 12.2405 7.46047 12.3281 7.68359 12.3281C7.90672 12.3281 8.10594 12.2405 8.24937 12.097L12.2337 8.11266C12.3772 7.96922 12.4648 7.77 12.4648 7.54688C12.4648 7.10859 12.1062 6.75 11.668 6.75Z" fill="white"/>
</svg>
