<svg width="164" height="34" viewBox="0 0 164 34" fill="none" xmlns="http://www.w3.org/2000/svg">
<g clip-path="url(#clip0_11023_116157)">
<path d="M28.4991 27.5146C26.7672 29.8041 24.434 31.5684 21.7593 32.6112C19.0846 33.6541 16.173 33.9346 13.3484 33.4216C10.5237 32.9086 7.89673 31.6222 5.7595 29.7055C3.62225 27.7887 2.05853 25.3168 1.24221 22.5645C0.425895 19.8121 0.388977 16.8872 1.13556 14.1152C1.88215 11.3432 3.38298 8.8325 5.47116 6.86241C7.55935 4.89234 10.153 3.54006 12.9639 2.95595C15.7746 2.37184 18.6923 2.57879 21.3926 3.55378L23.7777 0.411658L23.8077 0.373535C24.9927 0.88761 26.1229 1.51978 27.1812 2.26045L27.1513 2.29856L24.856 5.33995L22.5334 8.39222L20.2326 11.439L20.2027 11.4772L10.8062 23.9367L10.779 23.9749C9.75288 23.0418 8.99434 21.8519 8.5817 20.5278L8.61709 20.4815L16.29 10.3173L16.3254 10.2709L18.942 6.80483C18.023 6.57503 17.0794 6.4589 16.132 6.45902C15.5855 6.45954 15.0396 6.49775 14.4984 6.57338C12.0357 6.92034 9.74794 8.04429 7.9683 9.78156C6.18866 11.5189 5.00998 13.7789 4.60386 16.2325C4.19773 18.6862 4.58535 21.2054 5.7103 23.4235C6.83525 25.6417 8.63879 27.4427 10.8584 28.5647C13.078 29.6867 15.5977 30.071 18.0508 29.6615C20.504 29.2521 22.7623 28.0704 24.4973 26.2884C26.2322 24.5065 27.3531 22.2173 27.6968 19.7541C28.0404 17.2909 27.5889 14.7823 26.408 12.5935L23.7368 16.1332L23.6988 16.1822L16.2709 26.0061L16.2355 26.0551H16.0858C14.7253 26.0579 13.3878 25.705 12.2058 25.0313L12.2357 24.9932L21.6022 12.5854L21.6321 12.5472L23.9384 9.48951L26.2663 6.40185L28.5645 3.36046L28.5917 3.31962C29.5841 4.15404 30.4899 5.08632 31.2954 6.10234L31.2655 6.14046L28.8802 9.30164C30.7364 11.9912 31.6985 15.197 31.63 18.4642C31.5617 21.7314 30.4662 24.8941 28.4991 27.5036V27.5146Z" fill="#D3B418"/>
<path d="M54.4615 20.5933C54.4615 20.9794 54.4352 21.3651 54.3825 21.7477H43.4014C43.5091 22.625 43.9307 23.4336 44.5885 24.0239C45.2553 24.5682 46.0974 24.8507 46.9574 24.819C47.5911 24.8285 48.2165 24.6747 48.7735 24.3724C49.2994 24.0883 49.7338 23.6605 50.026 23.1391H54.1456C53.6701 24.6576 52.7146 25.981 51.4228 26.9102C50.2161 27.7473 48.7983 28.2283 47.3313 28.2981C45.8642 28.3679 44.4072 28.0238 43.1264 27.3049C41.9837 26.6506 41.042 25.6957 40.4036 24.5441C39.7591 23.344 39.4219 22.003 39.4219 20.6409C39.4219 19.2787 39.7591 17.9378 40.4036 16.7377C41.0341 15.5879 41.9698 14.6345 43.1074 13.9822C44.2955 13.3233 45.6329 12.9802 46.9916 12.9859C48.3503 12.9916 49.6848 13.346 50.8674 14.0149C51.9931 14.6713 52.9149 15.6271 53.5303 16.7758C54.1557 17.9502 54.4759 19.2628 54.4615 20.5933ZM46.9574 16.3293C46.1616 16.3068 45.3828 16.5619 44.7546 17.0509C44.1272 17.5681 43.6888 18.2785 43.5076 19.0712H50.5379C50.322 18.2694 49.8554 17.5578 49.2065 17.04C48.5586 16.5559 47.7658 16.3054 46.9574 16.3293Z" fill="#05083F"/>
<path d="M69.0949 13.3663H72.0328V27.8735H68.9451L68.6047 26.5747C67.3144 27.7161 65.644 28.3338 63.9215 28.3064C62.5574 28.3246 61.213 27.9808 60.0251 27.3098C58.8792 26.6596 57.9366 25.7037 57.3023 24.549C56.6324 23.3485 56.2862 21.9945 56.2976 20.6199C56.279 19.2558 56.618 17.9106 57.2806 16.7181C57.9163 15.5693 58.8591 14.62 60.0034 13.9762C61.1985 13.3045 62.5507 12.9625 63.9215 12.9852C65.6756 12.9514 67.3774 13.5839 68.6837 14.7549L69.0949 13.3663ZM61.4002 23.4598C62.1607 24.1895 63.1739 24.5969 64.2278 24.5969C65.2818 24.5969 66.295 24.1895 67.0555 23.4598C67.6244 22.9048 68.0139 22.1921 68.1737 21.4136C68.3335 20.6351 68.2563 19.8266 67.9521 19.0923C67.6478 18.3582 67.1306 17.732 66.467 17.2947C65.8034 16.8574 65.0239 16.629 64.2292 16.6392C63.7049 16.6236 63.1831 16.7163 62.6962 16.9118C62.2095 17.1072 61.7682 17.4009 61.4002 17.7745C60.6793 18.5445 60.2781 19.5597 60.2781 20.6145C60.2781 21.6692 60.6793 22.6844 61.4002 23.4544V23.4598Z" fill="#05083F"/>
<path d="M83.2045 13.312H84.4924V17.0205H82.7988C81.697 17.0205 80.9074 17.2809 80.4299 17.8019C79.9526 18.3229 79.7139 19.1751 79.7139 20.3586V27.9117H75.793V13.391H78.298L78.995 15.1744C79.9916 13.9328 81.3947 13.312 83.2045 13.312Z" fill="#05083F"/>
<path d="M94.9622 13.0504C96.6063 13.0504 97.9146 13.5995 98.8853 14.6978C99.8569 15.796 100.342 17.2672 100.342 19.1114V27.9115H96.43V19.7432C96.43 17.5758 95.5859 16.4911 93.8973 16.4894C93.4495 16.4685 93.0028 16.5494 92.5907 16.7257C92.1786 16.902 91.8117 17.1694 91.5175 17.5077C90.9349 18.1866 90.6436 19.1114 90.6436 20.2823V27.9061H86.7227V13.3908H89.4101L90.1725 15.1879C90.7427 14.5151 91.4575 13.9798 92.2636 13.6222C93.1113 13.2394 94.0318 13.0443 94.9622 13.0504Z" fill="#05083F"/>
<path d="M103.945 11.4627V7.81689H107.855V11.4627H103.945ZM103.945 27.9112V13.3905H107.868V27.9112H103.945Z" fill="#05083F"/>
<path d="M119.519 12.985C120.88 12.9656 122.222 13.3076 123.408 13.9761C124.553 14.6213 125.495 15.5727 126.13 16.7235C126.777 17.9309 127.116 19.2798 127.116 20.6497C127.116 22.0197 126.777 23.3685 126.13 24.576C125.496 25.7306 124.553 26.6865 123.408 27.337C122.223 28.0085 120.881 28.3525 119.519 28.3335C118.096 28.3482 116.702 27.9221 115.531 27.1137V33.1338H111.609V13.3907H114.193L114.861 14.7167C116.14 13.5729 117.804 12.9544 119.519 12.985ZM116.363 23.4869C117.126 24.2123 118.139 24.6167 119.191 24.6167C120.244 24.6167 121.256 24.2123 122.019 23.4869C122.74 22.7141 123.14 21.6968 123.14 20.6402C123.14 19.5835 122.74 18.5663 122.019 17.7935C121.256 17.0681 120.244 16.6636 119.191 16.6636C118.139 16.6636 117.126 17.0681 116.363 17.7935C115.642 18.5638 115.242 19.5796 115.242 20.6348C115.242 21.69 115.642 22.7057 116.363 23.476V23.4869Z" fill="#05083F"/>
<path d="M141.756 13.3663H144.694V27.8735H141.612L141.269 26.5746C139.975 27.7193 138.299 28.3372 136.572 28.3064C135.208 28.3239 133.863 27.9801 132.676 27.3098C131.53 26.6596 130.587 25.7037 129.952 24.5489C129.29 23.3464 128.952 21.9925 128.969 20.6199C128.951 19.2558 129.29 17.9106 129.952 16.7181C130.588 15.5693 131.531 14.62 132.676 13.9762C133.864 13.3089 135.208 12.9671 136.572 12.9852C138.326 12.9514 140.028 13.5839 141.334 14.7549L141.756 13.3663ZM134.061 23.4598C134.822 24.1886 135.835 24.5957 136.888 24.5957C137.941 24.5957 138.954 24.1886 139.714 23.4598C140.435 22.687 140.835 21.6697 140.835 20.6131C140.835 19.5565 140.435 18.5392 139.714 17.7664C138.954 17.0375 137.941 16.6305 136.888 16.6305C135.835 16.6305 134.822 17.0375 134.061 17.7664C133.341 18.5363 132.939 19.5516 132.939 20.6063C132.939 21.661 133.341 22.6762 134.061 23.4461V23.4598Z" fill="#05083F"/>
<path d="M158.482 13.3912H162.654L156.329 27.705C155.862 28.8283 155.27 29.8951 154.564 30.8853C154.042 31.6 153.357 32.1806 152.566 32.5789C151.696 32.9677 150.749 33.1539 149.797 33.1234H148.182V29.5838H149.544C150.469 29.5838 151.131 29.415 151.528 29.0719C151.926 28.7288 152.345 28.0019 152.808 26.8937L152.863 26.7738L146.723 13.3804H150.987L154.864 22.3111L158.482 13.3912Z" fill="#05083F"/>
</g>
<defs>
<clipPath id="clip0_11023_116157">
<rect width="163.187" height="33.7629" fill="white" transform="translate(0.480469 0.13916)"/>
</clipPath>
</defs>
</svg>
