<svg width="145" height="38" viewBox="0 0 145 38" fill="none" xmlns="http://www.w3.org/2000/svg">
<g clip-path="url(#clip0_11023_116167)">
<path d="M52.2838 29.411C52.9305 29.8097 53.6096 30.0091 54.3211 30.0093C55.4853 30.0093 56.4284 29.6321 57.1506 28.8775C57.8728 28.1229 58.234 27.045 58.234 25.6435L58.246 25.6121C56.9996 26.3776 55.565 26.7817 54.1023 26.7792C49.7224 26.7792 46.1719 23.2285 46.1719 18.8486C46.1719 14.4687 49.7224 10.918 54.1023 10.918C55.5528 10.9156 56.9759 11.3129 58.2154 12.0662L58.2347 12.0885V10.9297H62.8914V25.4173C62.8914 26.7108 62.6919 27.9018 62.2931 28.9907C61.8943 30.0795 61.3229 31.0173 60.5791 31.8041C59.8353 32.5909 58.9352 33.1998 57.8789 33.6311C56.8226 34.0624 55.6368 34.278 54.3216 34.278C53.1787 34.278 52.1546 34.1325 51.2496 33.8414C50.3447 33.5503 49.5523 33.1731 48.8727 32.7096L52.2838 29.411ZM54.1025 15.3771C52.185 15.3771 50.6303 16.9316 50.6303 18.8493C50.6303 20.767 52.185 22.3215 54.1025 22.3215C56.02 22.3215 57.5749 20.7668 57.5749 18.8493C57.5749 16.9318 56.0202 15.3771 54.1025 15.3771Z" fill="#F95D43"/>
<path d="M67.0274 9.45172C66.647 9.45172 66.2954 9.38045 65.9725 9.23791C65.3389 8.96538 64.834 8.46031 64.5615 7.82669C64.4189 7.50377 64.3477 7.1522 64.3477 6.77198C64.3471 6.41415 64.4198 6.06002 64.5615 5.73143C64.695 5.41249 64.8885 5.12219 65.1316 4.87638C65.3739 4.63562 65.6591 4.44237 65.9725 4.30658C66.2954 4.16405 66.647 4.09278 67.0274 4.09278C67.3852 4.09214 67.7392 4.16491 68.0678 4.30658C68.3877 4.43832 68.6782 4.63207 68.923 4.87668C69.1676 5.12129 69.3614 5.4119 69.4931 5.73178C69.6348 6.06038 69.7077 6.41451 69.707 6.77234C69.707 7.15268 69.6357 7.50425 69.4931 7.82704C69.3573 8.14054 69.1639 8.4258 68.923 8.66812C68.6772 8.91123 68.3868 9.10478 68.0678 9.23827C67.7392 9.37981 67.3852 9.45246 67.0274 9.45172ZM69.2884 26.7343V10.8889H64.602V26.7343H69.2884Z" fill="#F95D43"/>
<path d="M76.9401 29.411C77.5868 29.8096 78.2659 30.0091 78.9773 30.0093C80.1415 30.0093 81.0846 29.6321 81.8069 28.8775C82.5291 28.1229 82.8902 27.045 82.8902 25.6435L82.9022 25.612C81.656 26.3776 80.2214 26.7817 78.7587 26.7792C74.3788 26.7792 70.8281 23.2285 70.8281 18.8486C70.8281 14.4687 74.3788 10.918 78.7587 10.918C80.2091 10.9157 81.6318 11.3129 82.8711 12.0661L82.8902 12.0883V10.9297H87.5469V25.4173C87.5469 26.7108 87.3476 27.9018 86.9488 28.9907C86.55 30.0795 85.9788 31.0173 85.2348 31.8041C84.491 32.5909 83.5909 33.1998 82.5346 33.6311C81.4783 34.0624 80.2925 34.278 78.9773 34.278C77.8344 34.278 76.8104 34.1325 75.9052 33.8414C74.9999 33.5503 74.2076 33.1731 73.5282 32.7096L76.9401 29.411ZM78.7587 15.3771C76.841 15.3771 75.2866 16.9316 75.2866 18.8493C75.2866 20.767 76.841 22.3215 78.7587 22.3215C80.6765 22.3215 82.2309 20.7668 82.2309 18.8493C82.2309 16.9318 80.6763 15.3771 78.7587 15.3771Z" fill="#F95D43"/>
<path d="M118.543 9.42885C118.112 9.42885 117.713 9.34803 117.346 9.18639C116.628 8.87714 116.055 8.30427 115.746 7.58559C115.584 7.21916 115.503 6.82033 115.503 6.38905C115.502 5.98323 115.585 5.5816 115.746 5.20896C115.907 4.8317 116.123 4.50836 116.392 4.23897C116.667 3.96576 116.991 3.74635 117.346 3.59207C117.713 3.43043 118.112 3.34961 118.543 3.34961C118.949 3.34891 119.351 3.43142 119.723 3.59207C120.101 3.75383 120.424 3.96946 120.694 4.23897C120.963 4.50848 121.179 4.83181 121.34 5.20896C121.501 5.58154 121.584 5.98319 121.584 6.38905C121.584 6.82056 121.503 7.21939 121.341 7.58559C121.187 7.94114 120.967 8.26467 120.694 8.53949C120.424 8.80936 120.101 9.02498 119.724 9.18639C119.351 9.34714 118.949 9.42966 118.543 9.42885ZM93.7789 10.9172H89.3125V26.8249H93.9335V19.4627C93.9335 18.0396 94.178 16.9023 94.6674 16.0508C95.1563 15.1995 96.0544 14.7735 97.0329 14.7735C97.8624 14.7735 98.4738 15.0269 98.8673 15.5339C99.2608 16.0409 99.4574 16.7038 99.4574 17.5227V26.8248H104.243V19.4627C104.243 18.0396 104.509 16.9023 105.04 16.0508C105.572 15.1994 106.359 14.7736 107.401 14.7735C108.123 14.7735 108.671 15.0269 109.043 15.5339C109.416 16.0409 109.602 16.7038 109.602 17.5227L109.59 22.8281C109.59 22.8281 109.644 26.8164 113.686 26.8164H120.75V10.9138H116.063V22.8277H114.333L114.387 17.2313C114.387 16.3046 114.27 15.453 114.036 14.6766C113.802 13.9001 113.457 13.2318 113 12.6718C112.542 12.1116 111.963 11.675 111.261 11.3621C110.56 11.0492 109.741 10.8928 108.805 10.8929C107.486 10.8929 106.39 11.1786 105.519 11.7499C104.647 12.3213 103.977 12.9842 103.509 13.7387C103.19 12.9842 102.637 12.3213 101.85 11.7499C101.063 11.1786 100.074 10.8929 98.8832 10.8929C97.7986 10.8929 96.8574 11.1139 96.0599 11.5558C95.2623 11.9979 94.5264 12.5212 93.7457 13.4657L93.7789 10.9172Z" fill="#F95D43"/>
<path d="M122.352 26.811V3.26367H127.202V26.811H122.352Z" fill="#F95D43"/>
<path d="M141.051 25.7568C139.867 26.4854 138.435 26.8497 136.755 26.8497C135.602 26.8497 134.534 26.6523 133.552 26.2576C132.571 25.8629 131.716 25.3113 130.987 24.603C130.258 23.8948 129.692 23.0599 129.287 22.0984C128.882 21.1369 128.68 20.0795 128.68 18.926C128.68 17.8531 128.882 16.8361 129.287 15.8748C129.692 14.9136 130.254 14.0737 130.972 13.355C131.691 12.6368 132.53 12.0649 133.492 11.6396C134.454 11.2142 135.501 11.002 136.635 11.0029C137.869 11.0029 138.957 11.2053 139.898 11.61C140.839 12.0148 141.624 12.5663 142.251 13.2646C142.878 13.963 143.354 14.7824 143.678 15.7228C144.002 16.6631 144.164 17.6701 144.164 18.7436C144.164 18.9058 144.158 19.0676 144.148 19.2292C144.138 19.3916 144.123 19.5329 144.103 19.6537C144.083 19.7844 144.073 19.9161 144.072 20.0482H133.112C133.335 21.0198 133.79 21.7282 134.478 22.1734C135.167 22.6185 135.936 22.8411 136.786 22.8413C137.636 22.8413 138.339 22.6592 138.896 22.2949L141.051 25.7568ZM139.882 16.9525C139.841 16.7097 139.745 16.4466 139.594 16.1633C139.442 15.88 139.23 15.6219 138.956 15.389C138.683 15.1567 138.349 14.9644 137.954 14.8122C137.56 14.66 137.119 14.5841 136.634 14.5846C135.925 14.5846 135.267 14.7869 134.66 15.1917C134.054 15.5964 133.608 16.1834 133.325 16.9525H139.882Z" fill="#F95D43"/>
<path d="M19.1628 0.522461C14.1413 0.522461 13.5123 0.54439 11.5395 0.633873C4.8235 0.941584 1.09171 4.66736 0.783288 11.3901C0.69292 13.3614 0.671875 13.9919 0.671875 19.0134C0.671875 24.0349 0.69292 24.6656 0.783288 26.6383C1.09171 33.3541 4.81748 37.0845 11.5395 37.3929C13.5123 37.4833 14.1413 37.5043 19.1628 37.5043C24.1843 37.5043 24.815 37.4833 26.7877 37.3929C33.4961 37.0861 37.2392 33.3609 37.5423 26.6383C37.6327 24.6656 37.6538 24.0365 37.6538 19.0134C37.6538 13.9903 37.6325 13.3614 37.5423 11.3901C37.2399 4.68169 33.5103 0.942292 26.7877 0.633873C24.815 0.54439 24.1843 0.522461 19.1628 0.522461Z" fill="#F95D43"/>
<path d="M27.915 9.72674H25.9177C26.5947 10.9376 26.9489 12.3021 26.9468 13.6893C26.9468 18.1812 23.3063 21.821 18.8153 21.821C14.3243 21.821 10.6836 18.1803 10.6836 13.6893C10.6836 9.19833 14.3241 5.55762 18.816 5.55762H27.9157L27.915 9.72674ZM18.816 9.86557C16.7041 9.86557 14.9921 11.5774 14.9921 13.6893C14.9921 15.8012 16.7034 17.5131 18.816 17.5131C20.9286 17.5131 22.6397 15.8012 22.6397 13.6893C22.6397 11.5774 20.927 9.86557 18.816 9.86557ZM14.9914 33.4095L26.9953 25.3593V20.1033L14.9914 28.1533V33.4095Z" fill="white"/>
</g>
<defs>
<clipPath id="clip0_11023_116167">
<rect width="143.492" height="36.996" fill="white" transform="translate(0.667969 0.522461)"/>
</clipPath>
</defs>
</svg>
