<svg width="552" height="140" viewBox="0 0 552 140" fill="none" xmlns="http://www.w3.org/2000/svg">
<path fill-rule="evenodd" clip-rule="evenodd" d="M51.3466 2.33351C47.8139 3.75314 43.459 6.56036 41.6698 8.57209C37.685 13.0539 35.7304 13.3534 38.2567 9.09592L40.1168 5.9613L36.5762 8.74484C32.8939 11.6384 29.8258 16.2289 27.92 21.6887C26.9026 24.6018 27.1924 24.8052 31.2637 24.039C34.6468 23.4009 34.0137 23.993 28.6335 26.4965C24.7086 28.323 20.4844 31.6261 19.1677 33.8998C17.8605 36.1567 13.0126 41.1205 8.39475 44.9294L0 51.8549L4.473 52.9443C6.93315 53.5434 10.8943 53.6674 13.2772 53.2216C16.5611 52.6072 17.6085 52.9429 17.6085 54.6119C17.6085 55.8212 16.7233 56.8326 15.6397 56.8577C14.5577 56.8842 12.0739 58.0823 10.1241 59.5214C3.97845 64.0562 8.41995 67.8609 19.971 67.9598C23.6045 67.9905 24.151 68.3123 22.3335 69.3502C18.5818 71.4943 11.5558 70.9621 8.55225 68.3053C5.92672 65.9829 5.77867 66.2574 5.43532 74.0549L5.07465 82.2439L10.9478 81.3843C14.1781 80.912 18.0133 80.5192 19.4717 80.5108C20.9286 80.5025 22.5713 79.2416 23.121 77.7078C24.4755 73.9365 29.7801 71.4803 32.4056 73.4085C33.8625 74.4784 36.2864 73.8 41.3626 70.9064C51.3922 65.1874 57.2922 59.0742 58.6152 53.0321L59.7712 47.7562L59.9524 52.5096C60.2091 59.2512 54.1816 67.5168 42.2494 76.7827C30.4322 85.9595 23.9085 96.0209 23.9085 105.067C23.9085 112.966 26.1403 113.778 28.5217 106.745C30.6936 100.336 42.3643 89.147 50.8378 85.3521C53.7847 84.0327 58.4986 81.4275 61.3147 79.5635C64.1308 77.6994 66.4335 76.7103 66.4335 77.3651C66.4335 79.0201 57.7442 86.0082 48.1052 92.1033C43.4747 95.0318 38.7907 99.4536 37.1558 102.441C33.064 109.916 32.382 124.543 35.7115 133.409C38.671 141.292 40.5751 142.399 37.9921 134.737C37.1054 132.105 36.3305 126.053 36.2675 121.286C36.1777 114.306 36.9684 111.392 40.3357 106.309C45.4072 98.654 47.9398 98.0716 45.0544 105.224C42.703 111.053 42.3549 120.137 44.3205 124.38C45.5049 126.935 45.76 126.82 47.4028 122.987C48.3871 120.688 50.0062 117.003 51.0001 114.798C51.9939 112.594 57.289 105.798 62.7669 99.6974C76.5261 84.3768 80.0856 72.2758 75.1826 57.5083C74.6723 55.9758 75.6677 57.2297 77.3908 60.2946C82.2355 68.9072 81.7 80.0929 75.9701 89.9397C73.4186 94.3226 69.1693 100.731 66.5264 104.179C60.0484 112.633 60.4658 114.149 67.6147 108.139C70.864 105.408 78.5925 100.316 84.7917 96.8234C93.4999 91.918 96.5254 89.3393 98.102 85.4844C99.2234 82.7399 100.631 80.4955 101.232 80.4955C102.673 80.4955 104.233 84.218 104.233 87.6577C104.233 93.4157 107.131 88.4909 108.836 79.8365C110.965 69.0172 109.307 57.9207 104.041 47.7562C102.057 43.925 100.14 40.1634 99.7826 39.3972C99.4235 38.631 102.942 41.2808 107.601 45.2861C113.187 50.0883 117.942 52.8872 121.571 53.5085C126.879 54.4183 126.98 54.3584 124.434 51.8005C122.985 50.3419 120.283 45.5592 118.429 41.1707C116.575 36.7822 113.332 31.9898 111.222 30.5214C106.075 26.9409 106.374 26.1622 112.896 26.1622C115.928 26.1622 118.408 25.662 118.408 25.0518C118.408 24.4416 115.751 21.6511 112.502 18.8508C105.421 12.7488 94.6622 8.3046 85.639 7.75569C79.1705 7.36282 77.4695 6.28451 80.6085 4.56814C83.7286 2.86291 82.089 1.08523 77.3955 1.08523C71.8657 1.08523 62.7196 4.91225 55.6195 10.1979C49.4188 14.8121 49.3857 13.7059 55.4841 5.86378C60.8533 -1.03795 60.4973 -1.34166 51.3466 2.33351ZM88.8788 19.6547C89.545 20.5519 89.9073 23.1056 89.6821 25.3277C89.1938 30.1229 83.7585 33.9694 75.8835 35.0937C70.4844 35.8627 70.4576 35.8432 74.5589 34.1366C80.7298 31.5704 85.3335 27.4745 85.3335 24.5531C85.3335 22.5358 84.1255 21.9827 79.717 21.9827C73.5163 21.9827 69.0354 23.6559 63.6772 27.9719C58.5695 32.0873 59.3003 28.7827 64.4647 24.4096C72.9083 17.2626 85.302 14.8483 88.8788 19.6547ZM45.3127 34.3191C44.8544 34.9739 40.1499 36.9062 34.8563 38.6129C25.578 41.6068 25.1575 41.6263 23.1242 39.1659C21.965 37.763 21.3696 36.3002 21.8027 35.9171C22.2343 35.5326 27.3152 34.8457 33.0923 34.3916C38.8694 33.9374 44.1693 33.4679 44.8702 33.3467C45.571 33.2269 45.7695 33.6643 45.3127 34.3191ZM316.858 54.559C316.858 59.495 317.463 60.8059 320.008 61.3952C322.94 62.0723 323.158 63.2955 323.158 78.9714C323.158 94.891 322.985 95.8203 320.008 95.8203C317.325 95.8203 316.858 96.7495 316.858 102.09V108.359H327.811H338.765L339.23 99.2697L339.696 90.1794L347.571 99.2182L355.446 108.257L364.502 108.307L373.558 108.359V102.09C373.558 96.4737 373.18 95.8203 369.93 95.8203C366.354 95.8203 356.141 87.9238 356.33 85.3047C356.382 84.5761 359.528 81.7842 363.321 79.1023C369.2 74.9451 370.23 73.4558 370.312 69.0019L370.408 63.7775H357.021H343.633V68.6536C343.633 72.2995 344.304 73.5297 346.29 73.5297C348.368 73.5297 347.96 74.4422 344.421 77.7092C341.931 80.0079 339.318 81.8887 338.614 81.8887C337.91 81.8887 337.333 74.3656 337.333 65.1707V48.4528H327.096H316.858V54.559ZM133.804 64.4936C128.41 67.1615 126.283 70.6305 126.283 76.766C126.283 83.5953 130.311 87.1659 142.045 90.7394C149.943 93.1454 152.271 94.4745 152.271 96.5782C152.271 99.9942 145.711 101.109 143.087 98.1399C142.052 96.9682 137.97 95.8468 133.765 95.5793L126.283 95.1042V101.752V108.402L134.552 108.508C139.101 108.566 146.839 108.714 151.751 108.835C159.221 109.019 161.341 108.506 164.721 105.698C169.917 101.379 171.393 94.6208 168.295 89.3226C165.638 84.7781 161.822 82.6772 151.493 80.072C147.13 78.9728 144.215 77.3734 143.895 75.905C143.163 72.5461 147.902 71.3591 151.272 74.0577C152.925 75.3798 156.816 76.316 160.664 76.316H167.233V69.9827V63.6494L160.54 63.6661C156.857 63.6744 150.302 63.3875 145.971 63.028C140.651 62.585 136.704 63.0601 133.804 64.4936ZM259.765 64.5744C257.256 65.7781 255.433 66.0484 255.433 65.2153C255.433 64.3641 250.935 63.7775 244.408 63.7775H233.383V69.3502C233.383 73.9936 233.908 74.9228 236.533 74.9228C239.403 74.9228 239.683 75.8521 239.683 85.3716C239.683 94.891 239.403 95.8203 236.533 95.8203C233.85 95.8203 233.383 96.7495 233.383 102.09V108.359H246.771H260.158V102.09C260.158 97.4461 259.546 95.8203 257.796 95.8203C254.07 95.8203 254.501 80.2796 258.314 77.2285C262.263 74.0674 269.106 74.275 271.128 77.6172C272.025 79.0995 272.758 86.6226 272.758 94.3352V108.359H280.633H288.508V92.1995C288.508 73.9741 286.389 67.8261 278.925 64.4128C273.292 61.8369 265.329 61.9037 259.765 64.5744ZM431.933 64.6399C429.238 66.3577 427.907 66.5931 427.469 65.4326C427.068 64.3668 422.963 63.7775 415.953 63.7775H405.058V69.2527C405.058 73.871 405.614 74.7989 408.602 75.1736C411.855 75.5832 412.184 76.4511 412.609 85.7199C413.067 95.7186 413.031 95.8203 409.065 95.8203C405.367 95.8203 405.058 96.3023 405.058 102.09V108.359H419.233H433.408V102.09C433.408 97.4461 432.796 95.8203 431.046 95.8203C429.216 95.8203 428.683 93.9869 428.683 87.6772C428.683 78.924 431.465 74.9228 437.549 74.9228C443.422 74.9228 444.433 77.6228 444.433 93.3126V108.359H453.096H461.758V92.9894C461.758 70.6793 457.615 63.9099 443.268 62.7814C437.809 62.3523 434.727 62.8567 431.933 64.6399ZM485.963 63.9001C479.405 65.5817 470.073 74.9173 468.759 81.1085C466.493 91.794 471.941 102.321 482.109 106.91C489.486 110.238 497.035 110.536 503.102 107.736C507.054 105.912 507.433 105.956 507.433 108.225C507.433 113.937 497.826 117.694 491.11 114.61C488.628 113.47 483.136 112.538 478.904 112.538C469.685 112.538 468.966 114.519 475.944 120.692C485.062 128.757 503.723 129.554 514.116 122.324C521.942 116.878 523.183 112.028 523.183 86.9026V63.7775H516.227C512.401 63.7775 509.024 64.4337 508.722 65.2362C508.366 66.178 506.109 65.9328 502.34 64.5396C495.868 62.1475 493.207 62.0431 485.963 63.9001ZM173.533 69.1872C173.533 73.4266 174.215 74.7557 176.683 75.3269C179.487 75.9747 179.833 77.2271 179.833 86.7034C179.833 93.3001 180.706 98.8434 182.127 101.275C186.822 109.306 202.548 112.041 209.954 106.113C212.675 103.934 212.908 103.928 212.908 106.053C212.908 107.857 214.45 108.359 219.996 108.359H227.083V86.0681V63.7775H216.058H205.033V69.3502C205.033 73.9936 205.558 74.9228 208.183 74.9228C211.007 74.9228 211.333 75.8521 211.333 83.8795C211.333 93.6539 209.075 97.2134 202.874 97.2134C196.562 97.2134 195.583 94.7448 195.583 78.8237V63.7775H184.558H173.533V69.1872ZM379.858 69.2485C379.858 73.1466 380.583 74.8476 382.378 75.1694C384.382 75.5275 384.947 77.6883 385.135 85.7199C385.339 94.4912 385.009 95.8217 382.615 95.8203C380.399 95.8203 379.858 97.0477 379.858 102.09V108.359H390.096H400.333V86.0681V63.7775H390.096H379.858V69.2485ZM504.405 78.9951C509.594 83.5869 510.015 85.8773 506.704 91.5405C502.942 97.9783 494.92 99.1694 487.959 94.3254C482.385 90.4482 482.255 83.1369 487.675 78.3431C492.876 73.7414 498.724 73.9699 504.405 78.9951ZM533.634 91.7425C525.294 97.5436 530.224 108.359 541.206 108.359C551.253 108.359 555.365 97.2956 547.383 91.7425C545.101 90.1543 542.008 88.8545 540.508 88.8545C539.009 88.8545 535.916 90.1543 533.634 91.7425ZM543.154 98.0619C544.049 100.124 544.243 100.124 545.547 98.0619C546.327 96.8289 547.638 95.8203 548.462 95.8203C550.456 95.8203 550.388 102.386 548.383 103.483C547.517 103.956 546.808 103.721 546.808 102.96C546.808 102.2 545.037 101.861 542.871 102.209C539.735 102.712 538.933 102.268 538.933 100.028C538.933 98.4798 538.225 97.2134 537.358 97.2134C536.492 97.2134 535.783 98.4673 535.783 99.9998C535.783 103.973 533.145 103.452 532.248 99.3032C531.564 96.1421 531.988 95.8203 536.839 95.8203C540.297 95.8203 542.526 96.6116 543.154 98.0619Z" fill="black"/>
</svg>
