<svg width="8" height="14" viewBox="0 0 8 14" fill="none" xmlns="http://www.w3.org/2000/svg">
<path d="M1.06161 14C1.35735 14 1.6 13.8913 1.79716 13.6894L7.61327 7.87354C7.87109 7.60954 8 7.33777 8 7.00388C8 6.66999 7.87867 6.39046 7.61327 6.13422L1.79716 0.310593C1.59242 0.108708 1.34976 0 1.06161 0C0.477725 0 0 0.48142 0 1.07931C0 1.37438 0.121327 1.65391 0.333649 1.87133L5.49005 7.00388L0.333649 12.1287C0.121327 12.3461 0 12.6256 0 12.9207C0 13.5186 0.477725 14 1.06161 14Z" fill="#98A2B3"/>
</svg>
