<svg width="45" height="45" viewBox="0 0 45 45" fill="none" xmlns="http://www.w3.org/2000/svg">
<g clip-path="url(#clip0_11914_76792)">
<path d="M41.2314 16.4141L41.9306 15.7147C42.5264 15.1189 42.5264 14.153 41.9306 13.5574C41.3347 12.9618 40.3691 12.9618 39.7734 13.5574L39.0567 14.2742L37.6802 8.7683C37.1861 6.79269 35.204 5.24512 33.1678 5.24512H11.8306C9.79442 5.24512 7.8123 6.79269 7.31821 8.76845L5.94184 14.2742L5.22518 13.5574C4.62927 12.9618 3.66366 12.9618 3.0679 13.5574C2.47215 14.1531 2.47215 15.1191 3.0679 15.7147L3.76715 16.4141C1.53806 17.5068 -0.000732422 19.7989 -0.000732422 22.4442V27.8022C-0.000732422 29.9647 1.02821 31.8901 2.62093 33.1184V35.7918C2.62093 37.9788 4.40003 39.7578 6.58715 39.7578H9.57139C11.7584 39.7578 13.5374 37.9788 13.5374 35.7918V34.5142H31.4609V35.7918C31.4609 37.9788 33.24 39.7578 35.427 39.7578H38.4112C40.5982 39.7578 42.3775 37.9788 42.3775 35.7918V33.1188C43.9702 31.8904 44.9993 29.965 44.9993 27.8022V22.4442C44.9993 19.7989 43.4605 17.5068 41.2314 16.4141ZM8.84003 15.2598L10.2779 9.50845C10.4337 8.88512 11.1884 8.29587 11.8306 8.29587H33.1676C33.8099 8.29587 34.5646 8.88512 34.7203 9.50845L36.1584 15.26C36.1981 15.4195 36.1902 15.5553 36.137 15.6235C36.0835 15.6916 35.9537 15.7324 35.7894 15.7324H9.20881C9.04457 15.7324 8.91472 15.6916 8.86124 15.6235C8.80821 15.5553 8.80033 15.4195 8.84003 15.2598ZM3.05018 22.4442C3.05018 20.4257 4.6926 18.7833 6.71109 18.7833H38.2874C40.3059 18.7833 41.9484 20.4257 41.9484 22.4442V27.8022C41.9484 29.8209 40.3059 31.4633 38.2874 31.4633H6.71109C4.6926 31.4633 3.05018 29.8209 3.05018 27.8022V22.4442V22.4442ZM10.4865 35.7918C10.4865 36.2877 10.0673 36.7069 9.57139 36.7069H6.587C6.09093 36.7069 5.67169 36.2877 5.67169 35.7918V34.4334C6.01063 34.4863 6.35745 34.5142 6.71093 34.5142H10.4864V35.7918H10.4865ZM39.3265 35.7918C39.3265 36.2877 38.9073 36.7069 38.4112 36.7069H35.427C34.9311 36.7069 34.5118 36.2877 34.5118 35.7918V34.5142H38.2876C38.6409 34.5142 38.9878 34.4862 39.3267 34.4334V35.7918H39.3265Z" fill="#7A5AF8"/>
<rect x="2.4314" y="18.2441" width="40.1351" height="14.5946" rx="1.57576" fill="#7A5AF8"/>
<path d="M17.255 26.6474H27.7428C28.5852 26.6474 29.2681 25.9644 29.2681 25.122C29.2681 24.2796 28.585 23.5967 27.7428 23.5967H17.255C16.4126 23.5967 15.7297 24.2797 15.7297 25.122C15.7296 25.9644 16.4126 26.6474 17.255 26.6474Z" fill="#FEC84B"/>
<path d="M9.38931 29.27C11.6761 29.27 13.5366 27.4095 13.5366 25.1227C13.5366 22.8359 11.6761 20.9756 9.38931 20.9756C7.10249 20.9756 5.24219 22.8359 5.24219 25.1227C5.24204 27.4094 7.10249 29.27 9.38931 29.27ZM9.38931 24.0262C9.99385 24.0262 10.4857 24.5182 10.4857 25.1226C10.4857 25.7271 9.99385 26.2189 9.38931 26.2189C8.78491 26.2189 8.29294 25.7271 8.29294 25.1226C8.29279 24.5182 8.78476 24.0262 9.38931 24.0262Z" fill="#FEC84B"/>
<path d="M35.6076 29.27C37.8944 29.27 39.7547 27.4095 39.7547 25.1227C39.7547 22.8359 37.8944 20.9756 35.6076 20.9756C33.3208 20.9756 31.4603 22.8359 31.4603 25.1227C31.4602 27.4094 33.3208 29.27 35.6076 29.27ZM35.6076 24.0262C36.212 24.0262 36.704 24.5182 36.704 25.1226C36.704 25.7271 36.212 26.2189 35.6076 26.2189C35.0031 26.2189 34.5112 25.7271 34.5112 25.1226C34.5111 24.5182 35.0029 24.0262 35.6076 24.0262Z" fill="#FEC84B"/>
</g>
<defs>
<clipPath id="clip0_11914_76792">
<rect width="45" height="45" fill="white" transform="translate(0.000244141)"/>
</clipPath>
</defs>
</svg>
