<svg width="101" height="41" viewBox="0 0 101 41" fill="none" xmlns="http://www.w3.org/2000/svg">
<g clip-path="url(#clip0_190_460)">
<path fill-rule="evenodd" clip-rule="evenodd" d="M47.1276 13.1484L46.7467 9.81699C43.238 8.64601 37.5533 8.02122 34.5345 10.8842C30.4 14.6577 31.7601 24.2091 40.0287 24.3914C44.1903 24.5474 45.9309 23.5065 48.0799 22.8817C47.862 22.6734 47.59 22.3614 47.5355 22.1009L47.563 18.4575C47.59 18.041 47.8075 17.8068 48.1069 17.4944H44.7612C45.0876 17.8327 45.3055 18.015 45.3325 18.5094L45.387 22.6475C39.8653 24.4692 35.7582 22.8817 34.8879 18.7435C34.0721 13.0183 36.1936 10.0775 40.8446 9.84292C43.9724 9.79106 45.8764 10.9102 47.1276 13.1484V13.1484Z" fill="#005291"/>
<path fill-rule="evenodd" clip-rule="evenodd" d="M61.0685 8.85959L61.1213 10.613C60.7526 10.2989 60.305 9.88034 59.7261 9.88034L55.1203 9.90627V15.2199H59.5947C59.805 15.2199 60.0157 15.0104 60.1471 14.8272V17.3659C60.0157 17.2091 59.7261 16.8687 59.5681 16.8687H55.1203V23.3076H60.1999C60.9367 23.3599 61.6736 22.4437 62.0423 22.156L61.6212 24.407H52.541C52.6728 24.2761 53.0148 23.7789 53.0148 23.334V9.90627C53.0148 9.30452 52.7517 9.01641 52.541 8.83325L61.0685 8.85959Z" fill="#005291"/>
<path fill-rule="evenodd" clip-rule="evenodd" d="M79.6173 8.83325L73.0065 23.5476C72.9263 23.8341 72.7122 24.1465 72.1768 24.3547L75.4688 24.3811C75.1209 24.1465 75.0406 23.9382 75.0406 23.7036L76.5929 19.8235H82.0525L83.846 23.5995C83.9262 23.9382 83.6585 24.1465 83.1234 24.407L87.3787 24.3811C86.9771 24.1724 86.7094 24.0423 86.3885 23.5476C86.3885 23.5476 79.6439 8.88552 79.6173 8.83325ZM79.3762 12.8961L77.0747 18.1307L81.6244 18.1566C81.6244 18.1566 79.4032 12.8961 79.3762 12.8961V12.8961Z" fill="#005291"/>
<path fill-rule="evenodd" clip-rule="evenodd" d="M11.6122 24.4072C11.746 24.2764 12.0944 23.7792 12.0944 23.3342V16.5813H3.73332V23.3342C3.73332 23.7792 4.05509 24.2764 4.18895 24.4072H0.946289C1.08015 24.2764 1.40193 23.7792 1.40193 23.3342V9.90651C1.42853 9.30477 1.13378 9.01665 0.946289 8.8335H4.18895C4.00146 9.01665 3.70671 9.30477 3.73332 9.90651V15.1938H12.0944V9.90651C12.0944 9.30477 11.8263 9.01665 11.6122 8.8335H14.8814C14.6669 9.01665 14.3992 9.30477 14.3992 9.90651V23.3342C14.3992 23.7792 14.7476 24.2764 14.8814 24.4072H11.6122Z" fill="#005291"/>
<path fill-rule="evenodd" clip-rule="evenodd" d="M75.104 31.8825C75.1276 31.8286 75.2218 31.6668 75.2218 31.5322V29.3771H72.9322V31.5322C72.9322 31.6668 73.0264 31.8286 73.0737 31.8825H72.1768C72.2241 31.8286 72.3182 31.6668 72.3182 31.5322V27.2492C72.3182 27.0607 72.2241 26.9528 72.1768 26.8989H73.0737C73.0032 26.9528 72.9322 27.0607 72.9322 27.2492V28.9194H75.2218V27.2492C75.2218 27.0607 75.1509 26.9528 75.104 26.8989H75.9772C75.93 26.9528 75.859 27.0607 75.859 27.2492V31.5322C75.859 31.6668 75.9536 31.8286 75.9772 31.8825H75.104Z" fill="#005291"/>
<path fill-rule="evenodd" clip-rule="evenodd" d="M85.465 26.8989C86.8928 26.8989 88.0126 28.0065 88.0126 29.3907C88.0126 30.7749 86.8928 31.8825 85.465 31.8825C84.0652 31.8825 82.9453 30.7749 82.9453 29.3907C82.9453 28.0065 84.0652 26.8989 85.465 26.8989ZM85.465 27.4805C86.4447 27.4805 87.2568 28.3387 87.2568 29.3907C87.2568 30.4703 86.4447 31.3289 85.465 31.3289C84.5132 31.3289 83.7012 30.4703 83.7012 29.3907C83.7012 28.3387 84.5132 27.4805 85.465 27.4805Z" fill="#005291"/>
<path fill-rule="evenodd" clip-rule="evenodd" d="M77.5532 26.8989H78.1258L79.7237 30.2929L81.1548 26.8989H82.0614C81.966 26.9796 81.8942 27.0607 81.8942 27.1953C81.8942 27.1953 82.2045 30.6971 82.3236 31.4783C82.3485 31.6405 82.4668 31.7479 82.6099 31.8825H81.2025C81.322 31.7479 81.4651 31.6573 81.4651 31.5055C81.4651 30.9218 81.2025 28.3807 81.2025 28.3807L79.7245 31.8285L78.1503 28.4074C78.1503 28.4074 77.7765 30.9305 77.7444 31.5055C77.7373 31.6413 77.8399 31.7479 77.9594 31.8557H76.9092C77.0523 31.7746 77.125 31.6437 77.1478 31.5055C77.2749 30.7243 77.6727 27.1681 77.6727 27.1681C77.6727 27.1142 77.6486 26.9796 77.5532 26.8989V26.8989Z" fill="#005291"/>
<path fill-rule="evenodd" clip-rule="evenodd" d="M65.3691 24.4155C65.5359 24.2847 65.9692 23.7875 65.9692 23.3425V9.91481C65.9692 9.31307 65.636 9.02495 65.3691 8.8418H68.9184C68.6515 9.02495 68.3183 9.31307 68.3183 9.91481V23.3425C68.3183 23.7875 68.7516 24.2847 68.9184 24.4155H65.3691Z" fill="#005291"/>
<path fill-rule="evenodd" clip-rule="evenodd" d="M22.6842 18.4949C20.6155 16.8761 18.8115 14.6959 18.1021 10.0532C18.0235 9.61404 17.7089 9.19916 17.3682 8.83325L21.1695 8.85754C20.8025 9.22344 20.4356 9.56506 20.4356 10.1265C20.5665 11.7123 20.7278 14.2333 23.807 17.1605C23.9426 17.289 24.2644 17.5516 24.2644 17.5516L23.199 18.8369C23.199 18.8369 22.8856 18.6521 22.6842 18.4949Z" fill="#E33E3C"/>
<path fill-rule="evenodd" clip-rule="evenodd" d="M23.8073 17.7203C21.3509 19.9079 21.0168 22.8076 23.0974 25.2845C23.5581 25.8332 23.8073 26.0723 23.9386 26.3081C24.2278 26.7576 24.412 27.3067 24.3596 28.0557C24.996 27.6166 25.1932 26.3538 24.5433 25.4343C23.0936 23.3834 22.0046 21.3658 24.8853 19.0687C27.0145 17.3705 29.1972 15.1742 29.9337 10.0816C30.0122 9.63215 30.3542 9.2078 30.6697 8.83325L26.8574 8.85836C27.2252 9.23249 27.6196 9.58235 27.6196 10.1565C27.4621 11.779 26.9448 14.9264 23.8073 17.7203Z" fill="#18BC2B"/>
<path fill-rule="evenodd" clip-rule="evenodd" d="M25.2448 18.7803C25.2616 18.7999 25.2783 18.8244 25.2867 18.8374C25.9821 19.8705 26.3592 21.0179 26.3256 22.0428C26.267 24.0174 24.4991 25.0521 23.9713 26.3947C23.6613 27.1672 23.7451 27.7209 24.0802 28.7679C22.7648 27.8377 22.9994 26.2265 23.2843 25.4531C23.7116 24.3122 24.9432 23.6001 24.9516 21.886C24.9516 21.0448 24.6248 20.4438 24.1137 19.7782C24.3316 19.5447 24.5913 19.3078 24.8845 19.0686C25.0102 18.9746 25.1275 18.8783 25.2448 18.7803Z" fill="#E33E3C"/>
</g>
<defs>
<clipPath id="clip0_190_460">
<rect width="100" height="40" fill="white" transform="translate(0.751953 0.366699)"/>
</clipPath>
</defs>
</svg>
