<svg width="520" height="502" viewBox="0 0 520 502" fill="none" xmlns="http://www.w3.org/2000/svg">
    <path d="M201.73 815.836C218.907 849.044 226.734 879.645 224.997 906.837C224.447 919.227 221.407 931.38 216.057 942.569C210.707 953.758 203.157 963.755 193.859 971.963C174.838 988.978 148.328 1000.18 114.967 1005.31C80.3802 1010.51 40.0381 1009.09 -5.04546 1000.85C-53.1847 991.73 -100.166 977.306 -145.13 957.842C-191.723 937.963 -236.381 913.826 -278.537 885.738C-318.872 859.193 -356.4 828.612 -390.544 794.47C-423.646 760.954 -449.025 727.091 -466.303 693.922C-483.58 660.753 -491.286 630.106 -489.57 602.922C-487.878 576.7 -477.419 554.775 -458.411 537.788C-439.403 520.8 -412.88 509.568 -379.519 504.443C-345 499.129 -304.606 500.619 -259.53 508.837C-211.424 517.999 -164.476 532.443 -119.539 551.907C-72.9465 571.786 -28.2879 595.923 13.8681 624.011C54.2053 650.552 91.7344 681.132 125.874 715.279C158.949 748.783 184.356 782.658 201.613 815.835L201.73 815.836ZM203.205 816.105C132.621 679.603 -74.821 541.504 -260.14 507.677C-445.458 473.85 -538.365 557.082 -467.7 693.553C-397.035 830.024 -189.775 968.193 -4.44859 1002.04C180.878 1035.89 273.893 952.637 203.322 816.107L203.205 816.105Z" stroke="#9ADACA"/>
    <path d="M211.52 823.155C226.418 857.449 231.8 888.642 227.529 915.833C225.7 928.49 221.367 940.656 214.784 951.62C208.2 962.584 199.497 972.126 189.184 979.689C167.855 995.779 139.162 1005.66 103.93 1009.07C67.4674 1012.59 25.5501 1009.02 -20.7101 998.326C-69.7456 986.684 -117.353 969.69 -162.677 947.649C-209.228 925.336 -253.587 898.712 -295.174 868.127C-334.649 839.438 -371.005 806.686 -403.643 770.407C-435.089 734.975 -458.586 699.597 -473.464 665.295C-488.342 630.993 -493.737 599.829 -489.474 572.617C-487.645 559.957 -483.31 547.788 -476.722 536.822C-470.135 525.857 -461.427 516.315 -451.108 508.754C-429.8 492.671 -401.106 482.788 -365.875 479.384C-329.412 475.855 -287.495 479.432 -241.235 490.124C-192.199 501.766 -144.591 518.76 -99.2681 540.801C-52.717 563.115 -8.35774 589.738 33.2289 620.323C72.7042 649.012 109.06 681.765 141.698 718.043C173.144 753.475 196.642 788.853 211.52 823.155V823.155ZM213.151 823.527C151.915 682.565 -51.6877 532.76 -241.747 488.973C-431.807 445.185 -536.267 524.008 -475.072 664.984C-413.877 805.961 -210.226 955.771 -20.174 999.538C169.878 1043.31 274.346 964.503 213.151 823.527V823.527Z" stroke="#9ADACA"/>
    <path d="M221.082 831.027C233.47 866.288 236.263 897.943 229.387 925.067C222.716 951.276 207.335 972.191 183.597 987.279C159.86 1002.37 129.128 1010.76 92.0947 1012.32C53.7877 1013.96 10.4134 1008.1 -36.8101 994.97C-86.5952 980.797 -134.674 961.202 -180.182 936.535C-226.443 911.803 -270.239 882.714 -310.976 849.663C-349.364 818.87 -384.282 783.985 -415.112 745.626C-444.693 708.336 -465.968 671.546 -478.364 636.265C-490.759 600.984 -493.565 569.358 -486.669 542.225C-479.997 516.016 -464.596 495.094 -440.879 480.013C-417.162 464.933 -386.41 456.535 -349.405 454.959C-311.07 453.336 -267.695 459.188 -220.492 472.33C-170.715 486.511 -122.641 506.099 -77.1278 530.745C-30.8442 555.514 12.9777 584.631 53.7453 617.702C92.128 648.463 127.053 683.305 157.904 721.615C187.464 758.912 208.739 795.703 221.155 830.976L221.082 831.027ZM222.817 831.429C171.815 686.435 -26.8351 525.1 -220.927 471.079C-415.019 417.058 -531.081 490.862 -480.094 635.815C-429.108 780.768 -230.427 942.184 -36.3549 996.213C157.717 1050.24 273.726 976.481 222.713 831.399L222.817 831.429Z" stroke="#9ADACA"/>
    <path d="M230.32 839.444C240.042 875.568 240.076 907.541 230.422 934.457C221.09 960.458 203.172 980.698 177.082 994.507C150.993 1008.32 118.217 1015.26 79.4807 1014.88C39.399 1014.5 -5.18147 1006.3 -53.2825 990.643C-103.587 973.877 -151.901 951.644 -197.358 924.342C-243.149 897.149 -286.184 865.563 -325.854 830.031C-365.124 794.867 -398.49 757.826 -424.931 720.117C-452.353 681.067 -471.21 642.95 -480.923 606.846C-490.637 570.742 -490.699 538.757 -481.025 511.834C-471.722 485.82 -453.775 465.592 -427.706 451.791C-401.637 437.99 -368.82 431.029 -330.112 431.402C-290.023 431.8 -245.349 439.941 -197.341 455.655C-147.031 472.406 -98.715 494.64 -53.266 521.956C-7.46958 549.141 35.5664 580.727 75.2308 616.267C114.511 651.52 147.862 688.521 174.358 726.254C201.801 765.296 220.638 803.421 230.372 839.517L230.32 839.444ZM232.052 840.079C192.05 691.595 -0.348135 518.904 -197.703 454.353C-395.058 389.803 -522.675 457.804 -482.693 606.295C-442.711 754.787 -250.252 927.455 -52.9145 992.082C144.423 1056.71 272.003 988.49 232.001 840.006L232.052 840.079Z" stroke="#9ADACA"/>
    <path d="M239.182 848.398C246.054 885.27 243.189 917.383 230.684 943.955C218.586 969.533 198.107 989.039 169.701 1001.6C141.295 1014.16 106.373 1019.4 66.1493 1016.96C24.4036 1014.43 -21.3955 1003.91 -69.9786 985.678C-120.635 966.296 -168.992 941.37 -214.167 911.354C-259.234 881.747 -301.228 847.707 -339.522 809.744C-377.217 772.207 -408.666 733.265 -432.914 693.946C-457.893 653.211 -474.132 613.924 -481.016 577.079C-487.899 540.234 -485.022 508.094 -472.517 481.522C-460.419 455.944 -439.94 436.438 -411.534 423.876C-383.128 411.314 -348.235 406.065 -307.942 408.5C-266.196 411.027 -220.397 421.548 -171.814 439.783C-121.181 459.185 -72.846 484.118 -27.6869 514.13C17.3863 543.703 59.3903 577.707 97.6985 615.636C135.394 653.173 166.842 692.115 191.082 731.414C216.069 772.169 232.308 811.457 239.192 848.301L239.182 848.398ZM240.904 848.944C212.655 697.539 27.7908 513.742 -172.05 438.386C-371.89 363.03 -510.976 424.73 -482.709 576.243C-454.442 727.757 -269.582 911.602 -69.7493 986.938C130.083 1062.27 269.122 1000.45 240.894 849.041L240.904 848.944Z" stroke="#9ADACA"/>
    <path d="M247.571 857.814C251.39 895.211 245.507 927.392 230.079 953.439C215.175 978.61 192.023 997.029 161.294 1008.21C130.566 1019.38 93.7869 1022.76 52.0032 1018.2C8.80684 1013.53 -38.0397 1000.53 -86.9989 979.63C-137.746 957.648 -185.872 930.053 -230.479 897.363C-274.603 865.394 -315.299 828.944 -351.918 788.596C-387.821 748.951 -417.044 708.06 -438.71 667.236C-461.115 624.975 -474.41 584.578 -478.249 547.189C-482.088 509.8 -476.165 477.602 -460.737 451.556C-445.833 426.385 -422.688 407.945 -391.96 396.768C-361.231 385.59 -324.465 382.246 -282.669 386.776C-239.409 391.486 -192.623 404.51 -143.632 425.494C-92.8855 447.473 -44.7555 475.057 -0.13993 507.733C43.9718 539.717 84.6668 576.166 121.299 616.5C157.202 656.145 186.433 697.056 208.071 737.868C230.432 780.076 243.667 820.496 247.571 857.814ZM249.294 858.545C233.582 704.802 57.5799 510.271 -143.807 424.074C-345.194 337.876 -495.731 392.593 -480.011 546.356C-464.291 700.119 -288.297 894.63 -86.9098 980.828C114.477 1067.03 265.03 1012.35 249.318 858.606L249.294 858.545Z" stroke="#9ADACA"/>
    <path d="M255.518 867.82C256.128 905.639 247.06 937.698 228.635 963.085C210.802 987.593 185.018 1004.91 151.993 1014.53C118.968 1024.15 80.3369 1025.61 37.1882 1018.84C-7.46825 1011.83 -55.0381 996.223 -104.183 972.601C-154.804 947.983 -202.467 917.699 -246.258 882.331C-289.148 848.003 -328.247 809.19 -362.887 766.552C-396.748 724.726 -423.467 682.128 -442.331 639.946C-461.845 596.317 -472.075 554.949 -472.665 517.123C-473.255 479.297 -464.219 447.273 -445.774 421.878C-427.969 397.357 -402.177 380.06 -369.152 370.439C-336.127 360.818 -297.496 359.36 -254.348 366.136C-209.792 373.183 -162.101 388.741 -112.976 412.37C-62.3752 436.97 -14.733 467.239 29.0344 502.595C71.9176 536.931 111.015 575.743 145.664 618.374C179.504 660.207 206.223 702.806 225.088 744.988C244.602 788.617 254.831 829.985 255.434 867.783L255.518 867.82ZM257.155 868.631C254.799 713.234 89.0167 508.353 -113.035 411.068C-315.088 313.782 -476.919 360.899 -474.459 516.326C-471.999 671.753 -306.217 876.634 -104.083 973.888C98.0497 1071.14 259.699 1024.1 257.239 868.669L257.155 868.631Z" stroke="#9ADACA"/>
    <path d="M262.856 878.269C260.051 916.333 247.72 948.068 226.216 972.641C205.428 996.357 177.028 1012.5 141.697 1020.36C106.367 1028.21 66.0094 1027.66 21.6856 1018.62C-24.2129 1009.23 -72.3739 991.064 -121.568 964.719C-171.837 937.495 -218.779 904.533 -261.452 866.492C-302.905 829.875 -340.167 788.772 -372.554 743.936C-404.048 700.107 -428.034 655.852 -443.885 612.44C-460.279 567.494 -467.155 525.416 -464.37 487.36C-461.586 449.304 -449.133 417.522 -427.661 392.985C-406.901 369.256 -378.473 353.129 -343.163 345.279C-307.853 337.428 -267.457 337.778 -223.078 346.963C-177.172 356.373 -129.019 374.518 -79.946 400.911C-29.6723 428.127 17.27 461.09 59.9375 499.137C101.397 535.751 138.666 576.852 171.06 621.685C202.541 665.543 226.54 709.77 242.37 753.189C258.765 798.135 265.669 840.226 262.856 878.269V878.269ZM264.589 879.206C276.113 722.789 121.897 508.04 -79.8357 399.567C-281.569 291.093 -454.477 329.967 -466.121 486.314C-477.766 642.661 -323.43 857.48 -121.669 965.966C80.0918 1074.45 253.064 1035.62 264.573 879.166L264.589 879.206Z" stroke="#9ADACA"/>
    <path d="M269.59 889.158C263.223 927.268 247.485 958.548 222.851 982.117C199.066 1004.87 167.954 1019.52 130.362 1025.67C92.7693 1031.82 50.8491 1029.08 5.48114 1017.63C-41.513 1005.75 -90.0548 984.968 -138.806 955.848C-188.484 926.027 -234.43 890.392 -275.673 849.696C-315.424 810.856 -350.534 767.535 -380.297 720.601C-409.13 674.864 -430.115 629.105 -442.705 584.624C-455.802 538.525 -459.084 495.878 -452.725 457.747C-446.366 419.617 -430.62 388.358 -405.986 364.788C-382.194 342.054 -351.089 327.384 -313.598 321.274C-276.107 315.164 -234.065 317.856 -188.697 329.31C-141.703 341.184 -93.1614 361.969 -44.4101 391.089C5.26237 420.917 51.208 456.552 92.4571 497.241C132.221 536.076 167.35 579.389 197.141 626.312C225.975 672.049 246.98 717.8 259.55 762.289C272.646 808.388 275.949 851.028 269.59 889.158V889.158ZM271.305 890.172C297.466 733.49 156.215 509.426 -44.1831 389.746C-244.581 270.066 -428.259 300.045 -454.44 456.734C-480.621 613.423 -339.397 837.358 -138.952 957.159C61.4928 1076.96 245.124 1046.86 271.305 890.172V890.172Z" stroke="#9ADACA"/>
    <path d="M275.599 900.492C265.519 938.497 246.236 969.143 218.492 991.515C191.619 1013.13 157.888 1026.23 118.263 1030.42C78.6373 1034.61 35.0825 1029.62 -11.2611 1015.75C-59.1407 1001.34 -107.845 977.894 -156.052 945.961C-204.852 913.569 -249.508 875.334 -289.028 832.104C-326.845 791.102 -359.549 745.665 -386.423 696.787C-412.337 649.275 -430.073 602.173 -439.185 556.701C-448.559 509.704 -448.283 466.64 -438.142 428.611C-428.001 390.583 -408.779 359.961 -381.006 337.601C-354.142 315.962 -320.431 302.869 -280.806 298.681C-241.18 294.492 -197.621 299.436 -151.371 313.363C-103.374 327.779 -54.6854 351.182 -6.51426 383.082C42.3131 415.496 86.9901 453.764 126.521 497.032C164.329 538.032 197.03 583.462 223.908 632.329C249.822 679.841 267.566 726.963 276.65 772.422C286.044 819.412 285.756 862.504 275.607 900.512L275.599 900.492ZM277.32 901.643C318.777 745.443 191.881 512.715 -6.11901 381.814C-204.119 250.913 -398.244 271.384 -439.7 427.584C-481.156 583.783 -354.268 816.491 -156.26 947.412C41.747 1078.33 235.833 1057.76 277.216 901.613L277.32 901.643Z" stroke="#9ADACA"/>
    <path d="M280.819 912.126C266.871 949.807 244.033 979.612 213.055 1000.65C183.11 1020.99 146.786 1032.37 105.198 1034.47C63.6091 1036.58 18.504 1029.37 -28.4541 1012.88C-77.0134 995.917 -125.663 969.78 -172.973 935.224C-220.69 900.271 -263.796 859.426 -301.267 813.661C-336.861 770.555 -366.842 723.108 -390.492 672.455C-413.177 623.306 -427.374 575.073 -432.742 528.881C-438.271 481.124 -434.003 437.802 -420.055 400.121C-406.107 362.44 -383.262 332.655 -352.291 311.598C-322.346 291.261 -286.023 279.882 -244.426 277.794C-202.83 275.706 -157.814 282.925 -110.879 299.354C-62.2836 316.353 -13.6547 342.498 33.6559 377.054C81.3781 412.011 124.488 452.863 161.958 498.638C197.549 541.737 227.527 589.178 251.175 639.823C273.86 688.973 288.057 737.205 293.432 783.417C299.003 831.042 294.689 874.545 280.819 912.126ZM282.495 913.341C339.855 758.481 228.691 517.767 34.2053 375.704C-160.281 233.64 -364.399 244.034 -421.772 398.922C-479.145 553.81 -367.96 794.516 -173.482 936.559C20.996 1078.6 225.122 1068.23 282.495 913.341V913.341Z" stroke="#9ADACA"/>
    <path d="M285.241 924.14C267.272 961.276 240.87 990.036 206.563 1009.61C173.495 1028.48 134.629 1038.02 90.9978 1037.96C47.3666 1037.91 1.28117 1028.33 -46.2072 1009.26C-95.2953 989.589 -143.615 960.745 -189.778 923.493C-236.149 886.042 -277.386 842.649 -312.427 794.433C-345.592 749.341 -372.57 700.012 -392.644 647.761C-411.846 597.154 -422.274 547.843 -423.687 501.175C-425.112 452.907 -416.754 409.521 -398.873 372.395C-380.992 335.27 -354.502 306.499 -320.195 286.924C-287.127 268.057 -248.241 258.505 -204.63 258.57C-161.019 258.636 -114.913 268.201 -67.4248 287.277C-18.3164 306.938 29.9831 335.79 76.1667 373.035C122.525 410.485 163.768 453.856 198.84 502.038C231.985 547.143 258.962 596.469 279.058 648.71C298.239 699.325 308.695 748.649 310.08 795.304C311.505 843.572 303.147 886.958 285.266 924.083L285.241 924.14ZM286.893 925.41C360.614 772.713 266.638 524.779 76.8454 371.658C-112.948 218.536 -326.624 218.29 -400.406 371.01C-474.189 523.73 -380.177 771.696 -190.392 924.798C-0.606519 1077.9 213.086 1078.19 286.868 925.466L286.893 925.41Z" stroke="#9ADACA"/>
    <path d="M288.728 936.466C267.619 972.029 236.409 1000.51 199.067 1018.28C162.909 1035.53 121.535 1043.09 76.089 1040.73C30.6426 1038.37 -16.5525 1026.16 -64.3671 1004.6C-113.763 982.262 -161.479 950.698 -206.21 910.826C-250.962 870.943 -290.045 825.124 -322.372 774.643C-352.796 727.62 -376.46 676.554 -392.67 622.944C-408.018 570.993 -414.52 520.891 -411.739 473.887C-408.876 425.224 -396.214 382.088 -374.153 345.677C-353.021 310.109 -321.783 281.633 -284.415 263.875C-248.258 246.632 -206.884 239.074 -161.437 241.432C-115.991 243.79 -68.7507 255.941 -21.1183 277.564C28.2571 299.912 75.9733 331.476 120.725 371.341C165.47 411.227 204.546 457.049 236.867 507.531C267.296 554.551 290.967 605.614 307.184 659.223C322.533 711.173 329.014 761.283 326.253 808.279C323.37 856.95 310.729 900.078 288.647 936.497L288.728 936.466ZM290.236 937.907C381.029 788.193 305.398 533.988 121.592 370.03C-62.2139 206.073 -284.949 194.553 -375.681 344.243C-466.413 493.934 -390.883 748.178 -206.915 912.074C-22.9476 1075.97 199.605 1087.56 290.317 937.876L290.236 937.907Z" stroke="#9ADACA"/>
    <path d="M291.266 949.04C265.716 983.923 230.753 1010.8 190.473 1026.52C151.233 1041.97 107.425 1047.38 60.282 1042.6C13.1388 1037.83 -35.0398 1023.18 -82.8194 998.942C-132.288 973.818 -179.135 939.618 -222.137 897.174C-265.008 854.917 -301.617 806.747 -330.853 754.127C-358.298 705.262 -378.357 652.603 -390.378 597.862C-401.757 544.872 -403.894 494.089 -396.788 446.908C-389.371 398.119 -372.287 355.419 -346 319.962C-320.424 285.063 -285.437 258.17 -245.134 242.431C-205.906 227.005 -162.107 221.581 -114.943 226.346C-67.7797 231.112 -19.6742 245.812 28.0695 270.02C77.5174 295.152 124.386 329.344 167.395 371.808C210.257 414.072 246.859 462.244 276.091 514.864C303.53 563.723 323.592 616.371 335.628 671.1C346.994 724.118 349.144 774.873 342.018 822.062C334.613 870.823 317.538 913.543 291.23 949.008L291.266 949.04ZM292.754 950.49C400.835 804.744 345.132 545.122 168.329 370.612C-8.47409 196.102 -239.371 172.8 -347.452 318.545C-455.533 464.291 -399.851 723.921 -223.048 898.431C-46.2446 1072.94 184.769 1096.25 292.789 950.523L292.754 950.49Z" stroke="#9ADACA"/>
    <path d="M292.76 961.809C262.666 995.741 223.91 1020.85 180.642 1034.44C138.357 1047.91 92.2141 1051.05 43.5282 1043.78C-5.15766 1036.51 -54.0878 1019.24 -101.67 992.253C-152.525 963.147 -198.42 926.13 -237.634 882.591C-278.366 837.992 -312.194 787.547 -337.992 732.933C-362.167 682.319 -378.32 628.254 -385.874 572.675C-392.926 518.786 -390.586 467.558 -378.854 420.618C-366.721 371.944 -345.041 329.892 -314.434 295.631C-284.34 261.7 -245.584 236.592 -202.315 222.997C-160.031 209.532 -113.888 206.392 -65.2021 213.662C-16.5162 220.933 32.3127 238.238 79.8765 265.118C130.781 294.231 176.718 331.273 215.96 374.85C256.704 419.44 290.533 469.886 316.318 524.508C340.503 575.117 356.657 629.185 364.2 684.766C371.26 738.675 368.912 789.883 357.18 836.822C345.047 885.497 323.387 927.541 292.76 961.809V961.809ZM294.206 963.391C420.043 822.526 385.504 558.523 217.082 373.72C48.6607 188.917 -189.831 153.312 -315.729 294.2C-441.626 435.089 -407.027 699.068 -238.686 883.903C-70.3453 1068.74 168.369 1104.26 294.206 963.391V963.391Z" stroke="#9ADACA"/>
    <path d="M293.183 974.734C258.529 1007.39 216.013 1030.52 169.771 1041.88C124.469 1053.19 76.1137 1053.9 26.0316 1044.03C-24.0506 1034.16 -73.3724 1014.18 -120.487 984.665C-170.535 952.991 -215.044 913.316 -252.239 867.223C-290.527 820.443 -321.226 767.938 -343.214 711.628C-363.846 659.355 -375.803 604.062 -378.61 547.935C-381.024 493.353 -373.977 442.034 -357.507 395.385C-340.459 347.097 -314.082 305.957 -279.049 273.108C-244.41 240.418 -201.892 217.26 -155.64 205.89C-110.366 194.576 -61.9908 193.853 -11.9086 203.725C38.1736 213.596 87.4954 233.57 134.61 263.088C184.658 294.762 229.167 334.437 266.362 380.53C304.646 427.312 335.345 479.817 357.337 536.125C377.961 588.386 389.911 643.665 392.717 699.778C395.139 754.38 388.084 805.679 371.614 852.327C354.567 900.615 328.189 941.756 293.165 974.625L293.183 974.734ZM294.525 976.286C438.414 841.374 426.338 574.071 267.574 379.39C108.809 184.709 -136.586 136.303 -280.461 271.373C-424.336 406.443 -412.256 673.698 -253.491 868.379C-94.7263 1063.06 150.614 1111.32 294.544 976.395L294.525 976.286Z" stroke="#9ADACA"/>
    <path d="M292.43 987.74C253.251 1018.81 207.027 1039.75 157.838 1048.73C109.519 1057.75 59.0624 1055.91 7.77392 1043.39C-45.0441 1030.13 -94.974 1007.27 -139.526 975.955C-188.509 941.779 -231.332 899.531 -266.168 851.013C-301.768 802.043 -329.036 747.53 -346.871 689.674C-363.659 635.858 -371.113 579.566 -368.912 523.235C-366.538 468.228 -354.509 416.99 -333.127 370.961C-311.993 324.579 -280.189 283.853 -240.312 252.106C-201.142 221.028 -154.937 200.048 -105.758 191.013C-57.5412 182.029 -7.07201 183.848 44.232 196.411C97.0526 209.658 146.987 232.505 191.544 263.813C240.579 298.033 283.44 340.338 318.297 388.922C353.908 437.894 381.179 492.415 399.008 550.281C415.782 604.077 423.235 660.345 421.046 716.652C418.692 771.651 406.635 822.877 385.261 868.925C364.132 915.308 332.324 956.029 292.438 987.76L292.43 987.74ZM293.744 989.582C455.881 861.314 467.475 591.85 319.658 387.747C171.842 183.645 -79.4572 122.077 -241.638 250.292C-403.819 378.508 -415.517 647.942 -267.584 852.046C-119.65 1056.15 131.552 1117.71 293.712 989.501L293.744 989.582Z" stroke="#9ADACA"/>
    <path d="M290.472 1000.79C246.748 1030.01 196.796 1048.6 144.606 1055.08C92.3085 1061.47 39.2538 1056.94 -11.1998 1041.76C-64.5738 1025.89 -114.549 1000.27 -158.603 966.212C-206.313 929.538 -247.171 884.727 -279.295 833.842C-311.949 782.801 -335.475 726.468 -348.819 667.363C-361.441 612.097 -364.11 555.023 -356.7 498.82C-349.898 445.523 -332.546 394.116 -305.655 347.6C-279.069 301.672 -242.296 262.458 -198.17 232.977C-154.441 203.764 -104.491 185.173 -52.3036 178.687C-0.00645717 172.295 53.0482 176.83 103.502 192.005C156.876 207.88 206.851 233.494 250.905 267.555C298.615 304.228 339.473 349.04 371.597 399.925C404.239 450.973 427.75 507.311 441.08 566.419C453.726 621.671 456.422 678.734 449.042 734.931C442.241 788.228 424.888 839.635 397.998 886.151C371.411 932.079 334.639 971.293 290.512 1000.77L290.472 1000.79ZM291.697 1002.64C472.227 882.241 508.739 611.925 373.17 398.877C237.601 185.83 -18.6786 110.72 -199.379 231.164C-380.079 351.608 -416.295 621.787 -280.807 834.866C-145.319 1047.94 111.041 1123.02 291.641 1002.62L291.697 1002.64Z" stroke="#9ADACA"/>
    <path d="M287.258 1013.81C239.068 1040.89 185.462 1056.91 130.32 1060.72C75.6922 1064.44 20.8762 1057.08 -30.8319 1039.07C-84.5502 1020.57 -134.328 992.171 -177.592 955.345C-270.478 876.066 -331.31 765.671 -348.716 644.799C-356.861 588.219 -354.475 530.621 -341.681 474.908C-329.53 421.157 -306.776 370.37 -274.751 325.523C-242.577 280.504 -200.864 243.141 -152.588 216.099C-104.312 189.057 -50.6623 173.004 4.53261 169.083C59.1661 165.364 113.988 172.726 165.705 190.726C219.394 209.226 269.149 237.607 312.401 274.405C405.298 353.684 466.152 464.073 483.594 584.947C491.732 641.518 489.351 699.105 476.571 754.811C464.408 808.569 441.651 859.363 409.628 904.223C377.407 949.32 335.622 986.742 287.258 1013.81V1013.81ZM288.3 1015.74C487.405 904.155 549.909 634.271 427.941 412.896C305.973 191.521 45.7743 102.485 -153.392 214.091C-352.558 325.696 -415.008 595.536 -293.028 816.883C-171.048 1038.23 89.1995 1127.27 288.292 1015.72L288.3 1015.74Z" stroke="#9ADACA"/>
    <path d="M282.73 1026.74C230.191 1051.42 173.025 1064.72 114.985 1065.74C58.205 1066.7 1.79555 1056.42 -51.0021 1035.51C-104.836 1014.37 -154.155 983.187 -196.331 943.613C-285.628 859.652 -339.377 744.678 -346.534 622.317C-349.846 564.569 -342.137 506.718 -323.819 451.853C-306.033 397.938 -277.766 348.071 -240.643 305.117C-202.593 261.25 -155.743 225.874 -103.135 201.285C-50.5264 176.697 6.66437 163.447 64.7255 162.393C121.467 161.425 177.841 171.67 230.613 192.542C284.449 213.69 333.77 244.884 375.949 284.462C465.262 368.431 519.017 483.421 526.168 605.798C529.471 663.546 521.762 721.395 503.453 776.263C485.653 830.158 457.378 880.004 420.254 922.937C382.25 966.854 335.382 1002.23 282.73 1026.74V1026.74ZM283.651 1028.71C501.2 926.995 590.802 658.907 483.809 429.815C376.816 200.723 113.537 97.6469 -104.04 199.347C-321.617 301.047 -411.191 569.148 -304.198 798.24C-197.205 1027.33 66.0735 1130.41 283.651 1028.71Z" stroke="#9ADACA"/>
    <path d="M276.827 1039.49C192.735 1071.94 100.906 1078.7 12.9672 1058.93C-74.9713 1039.15 -155.064 993.725 -217.17 928.402C-279.276 863.079 -320.601 780.795 -335.913 691.971C-351.226 603.147 -339.837 511.776 -303.188 429.428C-275.864 368.034 -235.297 313.445 -184.394 269.574C-133.492 225.703 -73.5136 193.636 -8.75966 175.672C55.9943 157.708 123.92 154.292 190.15 165.668C256.38 177.044 319.272 202.932 374.32 241.474C429.368 280.016 475.207 330.26 508.553 388.602C541.899 446.945 561.924 511.942 567.195 578.934C572.465 645.927 562.85 713.256 539.038 776.095C515.226 838.934 477.808 895.728 429.464 942.404C385.635 984.706 333.72 1017.73 276.827 1039.49V1039.49ZM277.606 1041.52C513.53 950.701 631.167 685.815 540.35 449.891C449.533 213.968 184.648 96.3312 -51.2757 187.148C-287.199 277.964 -404.836 542.85 -314.019 778.774C-223.203 1014.7 41.683 1132.33 277.606 1041.52Z" stroke="#9ADACA"/>
</svg>
