<svg width="160" height="38" viewBox="0 0 160 38" fill="none" xmlns="http://www.w3.org/2000/svg">
    <path d="M47.0087 6.16406C46.9497 6.16406 43.798 6.16406 38.7459 8.51893L37.8842 8.93512C36.873 9.44024 35.7949 10.0379 34.6578 10.7457C34.4729 10.8596 33.926 11.1619 33.627 11.3896C36.2868 13.8369 37.8724 15.4804 38.9387 16.6542C40.005 17.8281 40.6464 18.6498 41.512 19.5818C49.1413 27.7634 63.6955 17.0384 47.0087 6.16406Z" fill="#EAECF0"/>
    <path d="M34.6703 10.7478C35.8075 10.0364 36.8856 9.44233 37.8968 8.9372L38.7585 8.52101H38.6798L38.7624 8.50322C43.7948 6.15547 46.9465 6.14836 47.0252 6.14836C47.0015 6.04164 46.7222 6.02386 45.5811 5.2804C44.9253 4.84174 44.2349 4.44703 43.5154 4.09941C42.339 3.34884 39.5965 2.45243 39.5965 2.45243H39.5651C36.1113 1.37691 32.4982 0.777333 28.8471 0.673828C26.5668 0.689926 24.2952 0.928453 22.0716 1.38527L21.9063 1.42084C19.034 1.99711 15.3945 3.79705 15.3945 3.79705C13.4523 4.72224 11.6174 5.82097 9.91746 7.07679L9.83876 7.13726C9.22102 7.61037 5.05029 10.9008 2.28423 15.39V15.4077C2.13502 15.6302 2.00353 15.862 1.89077 16.1014C1.89077 16.1014 1.89077 16.1014 1.92618 16.1014C1.88683 16.1797 1.84355 16.2544 1.8042 16.3362C1.76486 16.418 1.70584 16.5354 1.65862 16.6385C1.08503 17.8926 0.792152 19.2371 0.796933 20.5941C0.796933 26.2857 6.01035 30.7571 12.3294 30.7571C20.6866 30.7571 22.953 23.0842 28.0169 16.6528C29.6417 14.49 31.6931 12.6162 34.0683 11.1249C34.0839 11.1134 34.1011 11.1038 34.1195 11.0964L34.6703 10.7478Z" fill="white"/>
    <path d="M31.7817 25.3384C32.2946 25.3383 32.8043 25.4103 33.2926 25.5518C33.7657 25.6828 34.2038 25.9008 34.5793 26.1921C34.9696 25.9343 35.3972 25.726 35.8502 25.5732C36.3961 25.4009 36.9719 25.319 37.5499 25.3313C38.0229 25.3321 38.4933 25.3944 38.9467 25.5163C39.3934 25.6354 39.8094 25.8337 40.1704 26.0996C40.5434 26.3901 40.8358 26.7556 41.0242 27.1668C41.2471 27.678 41.3503 28.2255 41.3272 28.7746V34.5942C41.1337 34.644 40.9364 34.6809 40.737 34.7045C40.4597 34.7436 40.1795 34.7626 39.8989 34.7614C39.6509 34.7642 39.4031 34.7452 39.1592 34.7045C38.9562 34.6759 38.765 34.5999 38.6044 34.484C38.4458 34.3631 38.3262 34.2058 38.2582 34.0286C38.1674 33.7884 38.1261 33.5353 38.1362 33.2816V28.8565C38.1507 28.7121 38.1309 28.5666 38.0779 28.4297C38.025 28.2929 37.9402 28.1679 37.8293 28.0632C37.5863 27.8859 37.2794 27.796 36.9676 27.8106C36.7716 27.8158 36.5788 27.8569 36.401 27.9316C36.2379 27.9927 36.0865 28.0767 35.9525 28.1806C35.958 28.2279 35.958 28.2756 35.9525 28.3229V34.5942C35.7507 34.6428 35.5456 34.6796 35.3386 34.7045C35.0693 34.7432 34.7969 34.7622 34.5242 34.7614C34.2748 34.7641 34.0258 34.745 33.7805 34.7045C33.5779 34.6746 33.387 34.5988 33.2257 34.484C33.0681 34.3623 32.9487 34.2053 32.8795 34.0286C32.7888 33.7884 32.7474 33.5353 32.7575 33.2816V28.8565C32.7734 28.7105 32.7523 28.5632 32.6957 28.4257C32.6391 28.2882 32.5485 28.1643 32.4309 28.0632C32.1925 27.8936 31.8962 27.8043 31.5929 27.8106C31.3928 27.8069 31.1942 27.8421 31.0105 27.9138C30.8754 27.9722 30.744 28.0375 30.6171 28.1094V34.5942C30.4236 34.644 30.2263 34.6809 30.0269 34.7045C29.7496 34.7434 29.4694 34.7625 29.1888 34.7614C28.9408 34.7642 28.693 34.7452 28.4491 34.7045C28.2461 34.6759 28.0548 34.5999 27.8943 34.484C27.7357 34.3631 27.616 34.2058 27.548 34.0286C27.4573 33.7884 27.416 33.5353 27.4261 33.2816V27.7075C27.4097 27.43 27.4835 27.1542 27.6385 26.9142C27.8007 26.6994 28.0015 26.5106 28.2327 26.3558C28.7097 26.0409 29.2417 25.8005 29.8065 25.6443C30.4431 25.4494 31.1097 25.3462 31.7817 25.3384Z" fill="#F2F4F7"/>
    <path d="M44.6279 32.3335C44.4902 32.024 44.3407 31.679 44.1833 31.2984C44.0259 30.9177 43.8646 30.4766 43.6954 29.9822C43.5262 29.4877 43.3531 28.915 43.1721 28.289C42.9911 27.6629 42.7787 26.923 42.5977 26.0977C42.7932 25.9026 43.0283 25.7433 43.2902 25.6282C43.5922 25.4976 43.9232 25.4307 44.2581 25.4325C44.6434 25.4202 45.0236 25.5145 45.348 25.7029C45.6868 25.9587 45.9129 26.3159 45.9854 26.7096L47.4688 31.7999H47.5474C47.697 31.3802 47.8425 30.9249 47.9881 30.4304C48.1337 29.936 48.2714 29.4273 48.4091 28.9044C48.5468 28.3815 48.6767 27.8372 48.8026 27.3321C48.9285 26.827 49.0229 26.2934 49.1134 25.7847C49.5638 25.5483 50.0761 25.4255 50.5968 25.429C50.9833 25.4154 51.3648 25.5125 51.6867 25.7064C51.8405 25.8229 51.9603 25.9717 52.0358 26.1398C52.1112 26.3078 52.14 26.49 52.1195 26.6704C52.1141 27.0587 52.0693 27.4457 51.9857 27.8265C51.8992 28.2641 51.7851 28.7301 51.6395 29.2245C51.4939 29.719 51.3247 30.2276 51.1319 30.7506C50.9391 31.2735 50.7384 31.7928 50.522 32.2979C50.3056 32.8031 50.0892 33.2797 49.865 33.7208C49.6407 34.1619 49.4203 34.5745 49.2079 34.9338C48.9183 35.4464 48.591 35.9408 48.2281 36.4136C47.9823 36.743 47.693 37.044 47.3665 37.31C47.1277 37.5079 46.8464 37.6593 46.5402 37.7547C46.2606 37.8365 45.9684 37.8773 45.6746 37.8756C45.4374 37.8844 45.2009 37.8477 44.9805 37.768C44.7601 37.6883 44.5609 37.5674 44.3958 37.4132C44.0609 37.0811 43.8562 36.6586 43.8135 36.2109C44.2069 35.9014 44.6004 35.5599 45.0175 35.1828C45.4069 34.8183 45.7709 34.4322 46.1074 34.0267C45.8437 33.9343 45.6087 33.7854 45.4227 33.5928C45.0825 33.2157 44.814 32.7901 44.6279 32.3335Z" fill="#F2F4F7"/>
    <path d="M58.796 27.8211C58.4909 27.8204 58.1883 27.8698 57.9028 27.967C57.6249 28.0667 57.3749 28.221 57.171 28.4187C56.9526 28.6226 56.7825 28.8647 56.6713 29.1302C56.5383 29.4494 56.4742 29.7887 56.4824 30.1297C56.4563 30.4429 56.5022 30.7576 56.6174 31.0539C56.7325 31.3503 56.9143 31.6218 57.1513 31.8514C57.3673 32.0387 57.622 32.1857 57.9008 32.2839C58.1796 32.3822 58.4771 32.4299 58.7763 32.4241C59.1071 32.43 59.4368 32.3868 59.7521 32.2961C60.0027 32.2173 60.2472 32.1234 60.4839 32.0151C60.7134 32.1668 60.9062 32.3592 61.0505 32.5807C61.1793 32.807 61.2429 33.059 61.2355 33.3134C61.2422 33.5506 61.1777 33.7851 61.0489 33.9918C60.92 34.1985 60.7316 34.3697 60.5036 34.4873C59.8841 34.7937 59.1824 34.9378 58.4773 34.9035C57.7441 34.9083 57.0165 34.7876 56.3329 34.5478C55.7217 34.3323 55.167 34.0039 54.7039 33.5838C54.2368 33.1622 53.8746 32.6553 53.6416 32.0969C53.3774 31.4823 53.2439 30.8282 53.2481 30.1689C53.2277 29.4413 53.3612 28.7168 53.6416 28.0346C53.8689 27.48 54.2292 26.9777 54.6965 26.5638C55.1638 26.1499 55.7267 25.8346 56.3447 25.6406C56.9631 25.44 57.6156 25.3388 58.2727 25.3418C59.0067 25.3015 59.7361 25.4707 60.358 25.8255C60.5846 25.9603 60.7702 26.1441 60.8981 26.3604C61.0259 26.5766 61.0918 26.8183 61.0899 27.0634C61.0927 27.2919 61.0347 27.5176 60.9207 27.7215C60.817 27.9125 60.6845 28.0897 60.5272 28.248C60.2722 28.1374 60.0093 28.0423 59.7403 27.9634C59.436 27.8706 59.1171 27.8226 58.796 27.8211Z" fill="#F2F4F7"/>
    <path d="M72.187 30.1189C72.2002 30.8143 72.079 31.5065 71.8289 32.1643C71.619 32.7251 71.2797 33.2392 70.8335 33.6726C70.3985 34.0804 69.8691 34.3963 69.2832 34.5974C68.6402 34.8133 67.9584 34.9195 67.2726 34.9105C66.585 34.9191 65.9021 34.8067 65.262 34.5796C64.6759 34.3655 64.1473 34.0404 63.7117 33.6263C63.265 33.192 62.9233 32.6784 62.7084 32.1181C62.4601 31.4759 62.3389 30.7991 62.3504 30.1189C62.3398 29.4446 62.461 28.7738 62.7084 28.1375C62.923 27.5829 63.2618 27.0743 63.7039 26.6435C64.1395 26.2294 64.6681 25.9043 65.2541 25.6902C65.894 25.4619 66.5769 25.3483 67.2647 25.3558C67.9545 25.3517 68.6382 25.4726 69.2753 25.7115C69.8611 25.9203 70.3919 26.2378 70.8335 26.6435C71.2802 27.0778 71.6219 27.5915 71.8368 28.1518C72.0806 28.7838 72.1991 29.4497 72.187 30.1189ZM65.6122 30.1189C65.5707 30.7216 65.7238 31.3222 66.0529 31.8477C66.1822 32.0381 66.365 32.194 66.5828 32.2996C66.8005 32.4052 67.0453 32.4567 67.2923 32.4489C67.5362 32.4557 67.7775 32.4027 67.9909 32.2956C68.2042 32.1885 68.3815 32.0313 68.5041 31.8406C68.8159 31.3123 68.9615 30.7168 68.9251 30.1189C68.9566 29.5259 68.7996 28.9371 68.4727 28.4221C68.3417 28.2371 68.1614 28.0848 67.9482 27.9793C67.735 27.8738 67.4959 27.8185 67.2529 27.8185C67.0099 27.8185 66.7708 27.8738 66.5577 27.9793C66.3445 28.0848 66.1641 28.2371 66.0332 28.4221C65.7172 28.94 65.5711 29.5286 65.6122 30.1189Z" fill="#F2F4F7"/>
    <path d="M79.7945 34.3737C79.5615 34.5336 79.2931 34.6465 79.0076 34.7045C78.6343 34.7951 78.2491 34.8394 77.8626 34.8361C77.4302 34.8433 76.9998 34.7807 76.5917 34.6511C76.4311 34.6013 76.283 34.5231 76.156 34.4212C76.029 34.3192 75.9257 34.1954 75.852 34.0571C75.7379 33.8472 75.6041 33.5555 75.4586 33.1784C75.313 32.8014 75.1359 32.3816 74.9628 31.9192C74.7897 31.4568 74.6047 30.9587 74.4159 30.4287C74.227 29.8987 74.05 29.3616 73.8808 28.8564C73.7116 28.3513 73.5581 27.8391 73.4204 27.3589C73.2827 26.8786 73.1686 26.4518 73.082 26.0818C73.2824 25.8907 73.5215 25.7362 73.7863 25.6265C74.092 25.4943 74.4272 25.4273 74.7661 25.4309C75.149 25.4179 75.5269 25.5123 75.8481 25.7012C76.1816 25.96 76.4043 26.3161 76.4776 26.7079L77.2095 29.5537C77.3472 30.1121 77.477 30.6208 77.603 31.0655C77.7289 31.5101 77.8233 31.8623 77.8862 32.1113H77.9807C78.2168 31.1959 78.4673 30.1833 78.7322 29.0734C78.9919 27.9636 79.2319 26.8715 79.4444 25.7973C79.6718 25.6819 79.9153 25.5946 80.1683 25.5376C80.4254 25.4774 80.6897 25.4464 80.9553 25.4451C81.3477 25.4337 81.7347 25.5305 82.0648 25.7226C82.2228 25.8365 82.3467 25.9844 82.4251 26.1529C82.5034 26.3213 82.5338 26.5048 82.5134 26.6866C82.499 26.9771 82.4516 27.2656 82.3717 27.5474C82.2813 27.9245 82.1593 28.3478 82.0176 28.8244C81.876 29.3011 81.7029 29.8027 81.5101 30.3327C81.3173 30.8627 81.1166 31.3998 80.9159 31.8872C80.7153 32.3745 80.5225 32.8654 80.3257 33.3101C80.129 33.7547 79.9441 34.0891 79.7945 34.3737Z" fill="#F2F4F7"/>
    <path d="M88.8524 34.9111C88.1524 34.9174 87.4563 34.8152 86.7946 34.6087C86.1782 34.4118 85.6149 34.099 85.142 33.6909C84.6533 33.2575 84.2747 32.7331 84.0325 32.1542C83.7527 31.4607 83.6192 30.7259 83.639 29.9879C83.6173 29.2718 83.751 28.5588 84.0325 27.8891C84.2717 27.3462 84.6335 26.8544 85.0948 26.4449C85.5244 26.0737 86.0369 25.7898 86.5978 25.6125C87.1526 25.4349 87.7366 25.3435 88.3252 25.3422C88.9455 25.3346 89.5615 25.4361 90.139 25.641C90.6637 25.8253 91.1425 26.1023 91.5476 26.4556C91.9506 26.811 92.2669 27.2388 92.4762 27.7113C92.7003 28.2105 92.8126 28.7449 92.8067 29.2836C92.8324 29.635 92.7037 29.9814 92.4487 30.2476C92.1761 30.4828 91.8271 30.6325 91.4532 30.6744L86.8064 31.3396C86.8693 31.5368 86.9766 31.72 87.1215 31.878C87.2663 32.0359 87.4457 32.165 87.6484 32.2574C88.1026 32.4663 88.6065 32.5714 89.116 32.5633C89.6094 32.5647 90.1002 32.4988 90.5718 32.3677C90.9656 32.2644 91.3416 32.1124 91.6893 31.9159C91.9011 32.0492 92.075 32.226 92.1968 32.4317C92.3328 32.6485 92.4034 32.8939 92.4014 33.1431C92.4138 33.3962 92.3464 33.6472 92.2071 33.867C92.0677 34.0868 91.8623 34.2663 91.6145 34.3846C91.1954 34.5986 90.7368 34.7421 90.261 34.8079C89.7954 34.8769 89.3243 34.9114 88.8524 34.9111ZM88.3252 27.6401C88.054 27.6337 87.7848 27.6836 87.5382 27.786C87.3324 27.8776 87.1501 28.0073 87.0031 28.1666C86.8654 28.3212 86.7601 28.4972 86.6923 28.686C86.6245 28.8737 86.5835 29.0686 86.5703 29.2658L89.7849 28.75C89.7297 28.4723 89.5861 28.2152 89.3718 28.0101C89.2383 27.8825 89.0752 27.7832 88.8943 27.7192C88.7133 27.6553 88.519 27.6283 88.3252 27.6401Z" fill="#F2F4F7"/>
    <path d="M97.7179 34.5966C97.5232 34.6466 97.3246 34.6835 97.1238 34.7068C96.8479 34.7459 96.5689 34.7649 96.2896 34.7638C96.0403 34.7664 95.7913 34.7473 95.546 34.7068C95.3412 34.6809 95.1484 34.604 94.9893 34.4846C94.8301 34.3652 94.7109 34.2082 94.6449 34.031C94.5542 33.7908 94.5129 33.5376 94.523 33.284V27.7312C94.5142 27.479 94.5694 27.2283 94.6843 26.9984C94.7948 26.7913 94.95 26.6062 95.1407 26.4541C95.3662 26.2793 95.6163 26.1322 95.8844 26.0166C96.1913 25.879 96.5081 25.7602 96.8326 25.6609C97.1775 25.5609 97.5299 25.4836 97.8871 25.4297C98.2458 25.3742 98.6092 25.3468 98.9731 25.3478C99.4787 25.3275 99.9786 25.452 100.401 25.7036C100.585 25.8365 100.729 26.0084 100.821 26.2039C100.913 26.3994 100.95 26.6125 100.929 26.8241C100.929 26.9959 100.904 27.167 100.854 27.3328C100.807 27.4885 100.744 27.6398 100.665 27.7845C100.401 27.7845 100.134 27.7845 99.8781 27.8237C99.6072 27.8472 99.3379 27.884 99.0714 27.9339C98.8078 27.9837 98.5599 28.0335 98.3278 28.0904C98.1242 28.1372 97.9264 28.2028 97.7376 28.2861L97.7179 34.5966Z" fill="#F2F4F7"/>
    <path d="M106.66 25.3421C107.32 25.3355 107.977 25.4268 108.604 25.6125C109.137 25.7718 109.636 26.0124 110.079 26.3239C110.314 26.4809 110.515 26.6749 110.673 26.8966C110.827 27.1451 110.902 27.4269 110.89 27.7112V34.1711C110.901 34.7551 110.767 35.334 110.496 35.8643C110.26 36.3247 109.91 36.7299 109.473 37.0489C109.026 37.3792 108.507 37.6215 107.951 37.7603C107.342 37.913 106.713 37.9884 106.082 37.9844C105.159 38.0231 104.239 37.8672 103.394 37.5291C103.089 37.3995 102.833 37.1906 102.659 36.9289C102.485 36.6673 102.401 36.3648 102.418 36.06C102.412 35.8008 102.473 35.5438 102.596 35.3094C102.688 35.1232 102.822 34.9562 102.989 34.8185C103.378 35.0264 103.791 35.1946 104.221 35.3201C104.678 35.4554 105.156 35.5238 105.637 35.5228C106.2 35.5483 106.759 35.4325 107.254 35.1885C107.452 35.0767 107.613 34.9183 107.719 34.7303C107.825 34.5423 107.872 34.3318 107.856 34.1213V33.8261C107.265 34.0632 106.622 34.1775 105.975 34.1604C105.428 34.1617 104.885 34.0775 104.37 33.9114C103.866 33.7464 103.41 33.48 103.036 33.1324C102.628 32.7423 102.314 32.2795 102.115 31.7735C101.869 31.1373 101.752 30.4661 101.769 29.7922C101.753 29.1227 101.877 28.4565 102.135 27.8286C102.349 27.3122 102.69 26.8465 103.133 26.4669C103.575 26.0873 104.107 25.8036 104.689 25.6374C105.324 25.4426 105.99 25.3429 106.66 25.3421ZM107.84 28.0278C107.716 27.9639 107.584 27.9137 107.447 27.8784C107.243 27.8242 107.03 27.799 106.817 27.8037C106.56 27.7871 106.301 27.8247 106.062 27.9136C105.823 28.0025 105.61 28.1402 105.44 28.316C105.105 28.7368 104.942 29.2499 104.98 29.7673C104.925 30.315 105.088 30.8625 105.44 31.3111C105.585 31.4651 105.766 31.5876 105.971 31.6695C106.175 31.7514 106.397 31.7906 106.621 31.7842C107.062 31.8048 107.496 31.6782 107.84 31.4285V28.0278Z" fill="#F2F4F7"/>
    <path d="M117.876 34.911C117.176 34.9174 116.48 34.8151 115.818 34.6087C115.187 34.4085 114.613 34.0847 114.137 33.6603C113.661 33.236 113.295 32.7216 113.064 32.1542C112.782 31.4611 112.649 30.726 112.671 29.9879C112.647 29.2716 112.781 28.5583 113.064 27.8891C113.301 27.3448 113.663 26.8525 114.126 26.4449C114.555 26.0721 115.068 25.7881 115.629 25.6125C116.184 25.4346 116.768 25.3432 117.357 25.3422C117.977 25.3349 118.593 25.4364 119.171 25.641C119.694 25.8271 120.173 26.1038 120.579 26.4556C120.977 26.8124 121.287 27.24 121.492 27.7113C121.713 28.2111 121.824 28.7452 121.819 29.2835C121.845 29.6345 121.718 29.9808 121.465 30.2475C121.192 30.4827 120.843 30.6324 120.469 30.6744L115.826 31.3574C115.89 31.5546 115.998 31.7379 116.144 31.8958C116.289 32.0537 116.469 32.1828 116.672 32.2751C117.125 32.4845 117.628 32.5895 118.136 32.5811C118.629 32.5828 119.12 32.5168 119.592 32.3854C119.987 32.2821 120.364 32.1301 120.713 31.9336C120.923 32.0682 121.095 32.2447 121.217 32.4494C121.354 32.6659 121.426 32.9113 121.425 33.1609C121.437 33.4139 121.369 33.6647 121.23 33.8844C121.091 34.1041 120.886 34.2837 120.638 34.4023C120.221 34.6167 119.763 34.7602 119.289 34.8256C118.821 34.8887 118.349 34.9173 117.876 34.911ZM117.349 27.6401C117.078 27.6333 116.808 27.6832 116.562 27.786C116.356 27.8767 116.173 28.0065 116.027 28.1666C115.888 28.3203 115.782 28.4965 115.716 28.6859C115.646 28.8733 115.605 29.0684 115.594 29.2657L118.805 28.75C118.753 28.4712 118.609 28.2133 118.392 28.0101C118.259 27.8823 118.097 27.7829 117.916 27.7189C117.736 27.6549 117.542 27.628 117.349 27.6401Z" fill="#F2F4F7"/>
    <path d="M129.334 28.9144C129.35 28.7606 129.329 28.6056 129.271 28.4601C129.214 28.3145 129.123 28.1819 129.004 28.0714C128.756 27.8826 128.438 27.786 128.115 27.801C127.863 27.8015 127.613 27.8327 127.371 27.8935C127.144 27.9502 126.931 28.0443 126.741 28.171V34.5953C126.548 34.6451 126.351 34.6819 126.151 34.7055C125.874 34.7445 125.594 34.7635 125.313 34.7625C125.065 34.7653 124.817 34.7462 124.573 34.7055C124.37 34.6769 124.179 34.6009 124.019 34.485C123.86 34.3641 123.74 34.2068 123.672 34.0297C123.582 33.7895 123.54 33.5363 123.55 33.2827V27.7299C123.537 27.4458 123.61 27.1639 123.763 26.9153C123.917 26.6934 124.115 26.4982 124.345 26.339C124.832 26.021 125.375 25.7804 125.951 25.6276C126.648 25.4355 127.374 25.3419 128.103 25.3501C129.517 25.3501 130.605 25.656 131.369 26.2679C131.757 26.5881 132.061 26.9826 132.26 27.4225C132.459 27.8624 132.547 28.3368 132.517 28.8113V34.5953C132.323 34.6454 132.124 34.6822 131.923 34.7055C131.647 34.7446 131.368 34.7636 131.089 34.7625C130.84 34.7651 130.591 34.7461 130.346 34.7055C130.143 34.675 129.952 34.5991 129.791 34.485C129.633 34.3633 129.514 34.2063 129.444 34.0297C129.354 33.7895 129.312 33.5363 129.323 33.2827L129.334 28.9144Z" fill="#F2F4F7"/>
    <path d="M134.616 23.1214C134.602 22.686 134.772 22.2621 135.092 21.9368C135.258 21.7848 135.456 21.6642 135.673 21.5818C135.891 21.4994 136.125 21.457 136.361 21.457C136.597 21.457 136.831 21.4994 137.049 21.5818C137.267 21.6642 137.464 21.7848 137.63 21.9368C137.94 22.2678 138.111 22.6875 138.111 23.1214C138.111 23.5552 137.94 23.975 137.63 24.3059C137.464 24.4579 137.267 24.5786 137.049 24.6609C136.831 24.7433 136.597 24.7857 136.361 24.7857C136.125 24.7857 135.891 24.7433 135.673 24.6609C135.456 24.5786 135.258 24.4579 135.092 24.3059C134.772 23.9806 134.602 23.5567 134.616 23.1214ZM137.961 34.5969L137.347 34.7C137.078 34.7428 136.805 34.7643 136.532 34.7641C136.283 34.7667 136.034 34.7477 135.789 34.7072C135.584 34.6813 135.391 34.6043 135.232 34.4849C135.073 34.3656 134.954 34.2085 134.888 34.0313C134.797 33.7911 134.756 33.5379 134.766 33.2843V25.7501L135.364 25.647C135.634 25.6042 135.908 25.5827 136.182 25.5829C136.43 25.5801 136.678 25.5992 136.922 25.6399C137.125 25.6685 137.316 25.7445 137.477 25.8604C137.635 25.9813 137.755 26.1386 137.823 26.3157C137.915 26.5557 137.958 26.8089 137.949 27.0627L137.961 34.5969Z" fill="#F2F4F7"/>
    <path d="M140.174 25.7475C140.367 25.696 140.564 25.6591 140.764 25.6373C141.041 25.5983 141.322 25.5793 141.602 25.5804C141.85 25.5775 142.098 25.5966 142.342 25.6373C142.547 25.6637 142.74 25.7408 142.899 25.8601C143.059 25.9793 143.179 26.1361 143.247 26.3131C143.336 26.5537 143.377 26.8066 143.369 27.0601V31.0407C143.348 31.2321 143.37 31.4254 143.435 31.6089C143.499 31.7923 143.604 31.962 143.743 32.1078C144.045 32.3407 144.436 32.457 144.832 32.4315C145.07 32.4364 145.307 32.4124 145.537 32.3604C145.682 32.3236 145.823 32.2736 145.958 32.211V25.7475C146.152 25.6957 146.351 25.6588 146.552 25.6373C146.828 25.5982 147.107 25.5792 147.386 25.5804C147.635 25.5777 147.884 25.5968 148.13 25.6373C148.334 25.6632 148.527 25.7401 148.686 25.8595C148.846 25.9789 148.965 26.136 149.031 26.3131C149.121 26.5533 149.163 26.8065 149.153 27.0601V32.6876C149.17 32.9613 149.106 33.2341 148.968 33.478C148.829 33.7218 148.622 33.9279 148.366 34.0749C147.885 34.3641 147.353 34.5747 146.792 34.6975C146.148 34.84 145.487 34.9105 144.825 34.9073C144.193 34.9139 143.564 34.8397 142.956 34.6868C142.417 34.5527 141.914 34.3189 141.48 34.0002C141.057 33.6811 140.728 33.2715 140.524 32.8086C140.282 32.2417 140.167 31.6372 140.186 31.03L140.174 25.7475Z" fill="#F2F4F7"/>
    <path d="M158.997 31.9299C159.019 32.3467 158.934 32.7625 158.748 33.1445C158.562 33.5266 158.281 33.8645 157.927 34.1318C157.211 34.6606 156.161 34.9262 154.779 34.9286C154.285 34.9335 153.791 34.8978 153.304 34.8219C152.901 34.7588 152.512 34.6387 152.151 34.4662C151.851 34.3299 151.593 34.1297 151.399 33.8828C151.212 33.6388 151.115 33.3473 151.124 33.0504C151.115 32.7898 151.18 32.5314 151.313 32.2998C151.428 32.1071 151.582 31.9348 151.765 31.7912C152.161 32.0072 152.578 32.1882 153.012 32.3319C153.535 32.493 154.085 32.5713 154.637 32.5631C154.946 32.5785 155.254 32.5209 155.531 32.3959C155.623 32.3554 155.701 32.2923 155.756 32.2137C155.811 32.1351 155.841 32.0442 155.841 31.9512C155.845 31.8716 155.826 31.7925 155.787 31.7211C155.747 31.6497 155.689 31.5882 155.617 31.5422C155.385 31.4182 155.129 31.3372 154.862 31.3038L154.299 31.1936C153.411 31.0623 152.578 30.7184 151.887 30.1975C151.613 29.9438 151.401 29.6406 151.265 29.3078C151.13 28.9749 151.074 28.6199 151.1 28.266C151.092 27.8368 151.195 27.4119 151.399 27.0245C151.595 26.6596 151.886 26.3424 152.245 26.0997C152.639 25.8392 153.082 25.6441 153.551 25.5234C154.098 25.3834 154.664 25.3151 155.232 25.3206C155.67 25.3191 156.107 25.3536 156.538 25.4238C156.906 25.48 157.264 25.583 157.6 25.7297C157.882 25.8501 158.126 26.0308 158.312 26.2562C158.491 26.4792 158.584 26.7492 158.576 27.0245C158.581 27.2692 158.527 27.5119 158.419 27.736C158.324 27.9276 158.191 28.1013 158.025 28.2482C157.884 28.1664 157.732 28.1006 157.573 28.0526C157.358 27.9789 157.139 27.9171 156.916 27.8676C156.678 27.8104 156.438 27.7641 156.196 27.7288C155.975 27.6925 155.751 27.6734 155.527 27.6719C155.201 27.658 154.875 27.7052 154.571 27.8107C154.47 27.8421 154.384 27.9013 154.323 27.9799C154.262 28.0585 154.23 28.1523 154.232 28.2482C154.231 28.3127 154.248 28.3765 154.28 28.434C154.312 28.4916 154.359 28.5413 154.417 28.579C154.637 28.6985 154.88 28.7805 155.133 28.8209L155.716 28.949C156.916 29.2229 157.773 29.5964 158.281 30.0695C158.53 30.3214 158.722 30.6155 158.845 30.9349C158.968 31.2542 159.02 31.5924 158.997 31.9299Z" fill="#F2F4F7"/>
</svg>
