<svg width="84" height="50" viewBox="0 0 84 50" fill="none" xmlns="http://www.w3.org/2000/svg">
    <path fill-rule="evenodd" clip-rule="evenodd" d="M76.6687 3.74714C76.8148 5.13201 71.6558 16.3524 69.5161 23.3833C67.5068 29.9857 68.016 31.8382 68.016 31.8382C68.016 31.8382 73.6488 33.252 76.0918 34.0754C78.5341 34.9039 80.297 38.3729 79.8263 40.2472L82.5994 41.4089C84.4843 42.2009 83.972 44.5354 81.1962 44.0555L78.4204 43.5757C76.1 46.4922 72.682 46.2264 70.8516 46.0263C69.0204 45.8312 64.5738 44.8769 63.8722 45.2922C63.2271 45.6707 61.7817 48.9929 62.2557 49.3841C65.0406 51.6865 65.2674 53.9337 62.0526 53.5196C58.4798 53.0596 55.7266 51.9974 55.7266 51.9974C55.7266 51.9974 45.2914 70.1943 44.5823 69.9439C41.9466 69.0066 34.3875 66.9846 32.9994 66.8918C31.1425 66.7636 38.6831 45.1337 40.3905 36.6503C40.4907 36.1562 38.8858 32.9579 38.0909 32.656C31.8062 30.2703 20.7761 25.5647 16.1308 25.0537C13.4008 24.7509 9.72186 30.3692 8.49655 30.7761C7.04416 31.2566 0.675901 30.2478 0.27772 30.0206C-0.428682 29.6235 1.90262 23.3784 2.1162 22.24C2.26047 21.4637 4.76226 21.8144 4.7376 20.7884C4.71608 19.9531 0.857266 15.7276 0.919728 15.1337C1.337 11.4122 4.84534 5.08491 6.70698 3.09085C7.28009 2.4754 10.0449 7.30594 10.869 7.11273C11.4066 6.98376 13.3957 3.8835 14.0322 3.88415C14.9686 3.88098 21.8897 4.89006 22.2624 5.70166C22.9294 7.1452 18.8756 16.4891 20.2284 17.0025C29.1938 20.4112 37.6506 20.4887 47.0768 23.9517C52.5121 17.9208 65.0045 0.355103 65.728 0.529156C67.1454 0.87261 76.605 3.14875 76.6687 3.74714ZM60.5092 44.6748L57.8631 47.9868C57.8631 47.9868 59.2873 49.0973 59.8594 48.8292C60.4306 48.566 61.7141 45.4847 60.5092 44.6748Z" fill="url(#paint0_angular_552_180914)"/>
    <defs>
        <radialGradient id="paint0_angular_552_180914" cx="0" cy="0" r="1" gradientUnits="userSpaceOnUse" gradientTransform="translate(49.049 29.5875) rotate(-162.316) scale(38.4983 38.1421)">
            <stop stop-color="#7552D0"/>
            <stop offset="1" stop-color="#4FBFA3"/>
        </radialGradient>
    </defs>
</svg>
