<svg width="125" height="52" viewBox="0 0 125 52" fill="none" xmlns="http://www.w3.org/2000/svg">
    <g clip-path="url(#clip0_552_180142)">
        <path fill-rule="evenodd" clip-rule="evenodd" d="M54.5258 48.1439C57.5557 49.9271 57.7708 52.152 55.1236 54.3291C52.4765 56.5062 47.184 58.4573 40.4105 59.753C33.6369 61.0487 25.9372 61.583 19.0052 61.2383C12.0731 60.8936 6.47656 59.6982 3.44667 57.915C0.416784 56.1318 0.20176 53.9069 2.84891 51.7298C5.49605 49.5526 10.7885 47.6016 17.562 46.3059C24.3356 45.0101 32.0353 44.4759 38.9673 44.8206C45.8994 45.1653 51.4959 46.3607 54.5258 48.1439Z" fill="url(#paint0_radial_552_180142)"/>
        <path fill-rule="evenodd" clip-rule="evenodd" d="M75.1674 49.1049C78.1538 50.0666 78.6184 51.6596 76.4588 53.5333C74.2993 55.407 69.6927 57.408 63.6522 59.0961C57.6118 60.7842 50.6325 62.0211 44.2496 62.5347C37.8667 63.0484 32.603 62.7966 29.6166 61.8349C26.6303 60.8732 26.1657 59.2803 28.3252 57.4066C30.4848 55.5328 35.0914 53.5318 41.1318 51.8437C47.1722 50.1556 54.1516 48.9187 60.5345 48.4051C66.9174 47.8915 72.181 48.1432 75.1674 49.1049Z" fill="url(#paint1_radial_552_180142)"/>
        <path fill-rule="evenodd" clip-rule="evenodd" d="M4.23242 35.2349C8.13042 33.6529 12.723 35.3181 24.4719 36.8892C34.0632 38.4744 42.6244 39.4387 42.8047 42.0086C43.1183 43.7491 43.7392 47.68 43.9336 51.6486C31.672 49.6117 17.6512 47.0418 5.39116 45.005C4.58678 41.7013 4.4096 38.4681 4.23242 35.2349Z" fill="#0857A4"/>
        <path fill-rule="evenodd" clip-rule="evenodd" d="M106.53 16.8784C107.969 24.3836 103.753 33.7293 94.8084 42.8595C85.8639 51.9896 72.924 60.1564 58.8353 65.5631C44.7467 70.9699 30.6634 73.1737 19.6836 71.6898C8.70381 70.206 1.7269 65.1559 0.287729 57.6507C-1.15144 50.1454 3.06501 40.7997 12.0095 31.6696C20.954 22.5394 33.8939 14.3727 47.9825 8.96591C62.0712 3.55917 76.1545 1.35533 87.1343 2.83921C98.1141 4.32308 105.091 9.37312 106.53 16.8784Z" fill="url(#paint2_radial_552_180142)"/>
        <path fill-rule="evenodd" clip-rule="evenodd" d="M117.6 20.8937C124.781 21.8103 126.463 24.9471 122.278 29.614C118.092 34.2808 108.382 40.0955 95.2821 45.7787C82.1825 51.4619 66.7671 56.5483 52.4269 59.9187C38.0868 63.2892 25.9966 64.6677 18.8162 63.751C11.6357 62.8344 9.95311 59.6976 14.1385 55.0307C18.324 50.3639 28.0346 44.5492 41.1341 38.866C54.2337 33.1828 69.6492 28.0964 83.9893 24.726C98.3295 21.3555 110.42 19.977 117.6 20.8937Z" fill="url(#paint3_radial_552_180142)"/>
        <path fill-rule="evenodd" clip-rule="evenodd" d="M114.445 27.5372C115.104 29.3472 114.061 31.7688 111.545 34.2691C109.029 36.7694 105.247 39.1438 101.03 40.8698C96.8135 42.5958 92.5076 43.5321 89.0599 43.4727C85.6122 43.4132 83.305 42.363 82.646 40.553C81.987 38.743 83.03 36.3214 85.5457 33.8211C88.0614 31.3207 91.8437 28.9464 96.0605 27.2204C100.277 25.4944 104.583 24.5581 108.031 24.6175C111.479 24.6769 113.786 25.7272 114.445 27.5372Z" fill="url(#paint4_radial_552_180142)"/>
        <path fill-rule="evenodd" clip-rule="evenodd" d="M35.0859 15.9097C35.0249 16.2886 34.8401 16.6312 34.5721 16.8622C34.3041 17.0931 33.9749 17.1934 33.6569 17.1411C33.3389 17.0887 33.0582 16.888 32.8764 16.583C32.6947 16.2781 32.6269 15.8939 32.6879 15.515C32.7489 15.136 32.9338 14.7934 33.2018 14.5625C33.4698 14.3315 33.799 14.2312 34.117 14.2836C34.435 14.3359 34.7157 14.5366 34.8974 14.8416C35.0791 15.1465 35.147 15.5308 35.0859 15.9097Z" fill="#A5A3AE"/>
        <path fill-rule="evenodd" clip-rule="evenodd" d="M35.0859 15.9097C35.0249 16.2886 34.8401 16.6312 34.5721 16.8622C34.3041 17.0931 33.9749 17.1934 33.6569 17.1411C33.3389 17.0887 33.0582 16.888 32.8764 16.583C32.6947 16.2781 32.6269 15.8939 32.6879 15.515C32.7489 15.136 32.9338 14.7934 33.2018 14.5625C33.4698 14.3315 33.799 14.2312 34.117 14.2836C34.435 14.3359 34.7157 14.5366 34.8974 14.8416C35.0791 15.1465 35.147 15.5308 35.0859 15.9097Z" fill="#A5A3AE"/>
        <path fill-rule="evenodd" clip-rule="evenodd" d="M35.0859 15.9097C35.0249 16.2886 34.8401 16.6312 34.5721 16.8622C34.3041 17.0931 33.9749 17.1934 33.6569 17.1411C33.3389 17.0887 33.0582 16.888 32.8764 16.583C32.6947 16.2781 32.6269 15.8939 32.6879 15.515C32.7489 15.136 32.9338 14.7934 33.2018 14.5625C33.4698 14.3315 33.799 14.2312 34.117 14.2836C34.435 14.3359 34.7157 14.5366 34.8974 14.8416C35.0791 15.1465 35.147 15.5308 35.0859 15.9097Z" fill="#A5A3AE"/>
        <path fill-rule="evenodd" clip-rule="evenodd" d="M35.0859 15.9097C35.0249 16.2886 34.8401 16.6312 34.5721 16.8622C34.3041 17.0931 33.9749 17.1934 33.6569 17.1411C33.3389 17.0887 33.0582 16.888 32.8764 16.583C32.6947 16.2781 32.6269 15.8939 32.6879 15.515C32.7489 15.136 32.9338 14.7934 33.2018 14.5625C33.4698 14.3315 33.799 14.2312 34.117 14.2836C34.435 14.3359 34.7157 14.5366 34.8974 14.8416C35.0791 15.1465 35.147 15.5308 35.0859 15.9097Z" fill="url(#paint5_linear_552_180142)"/>
        <path fill-rule="evenodd" clip-rule="evenodd" d="M35.0859 15.9097C35.0249 16.2886 34.8401 16.6312 34.5721 16.8622C34.3041 17.0931 33.9749 17.1934 33.6569 17.1411C33.3389 17.0887 33.0582 16.888 32.8764 16.583C32.6947 16.2781 32.6269 15.8939 32.6879 15.515C32.7489 15.136 32.9338 14.7934 33.2018 14.5625C33.4698 14.3315 33.799 14.2312 34.117 14.2836C34.435 14.3359 34.7157 14.5366 34.8974 14.8416C35.0791 15.1465 35.147 15.5308 35.0859 15.9097Z" fill="url(#paint6_linear_552_180142)"/>
        <path fill-rule="evenodd" clip-rule="evenodd" d="M35.0859 15.9097C35.0249 16.2886 34.8401 16.6312 34.5721 16.8622C34.3041 17.0931 33.9749 17.1934 33.6569 17.1411C33.3389 17.0887 33.0582 16.888 32.8764 16.583C32.6947 16.2781 32.6269 15.8939 32.6879 15.515C32.7489 15.136 32.9338 14.7934 33.2018 14.5625C33.4698 14.3315 33.799 14.2312 34.117 14.2836C34.435 14.3359 34.7157 14.5366 34.8974 14.8416C35.0791 15.1465 35.147 15.5308 35.0859 15.9097Z" fill="url(#paint7_linear_552_180142)"/>
        <path fill-rule="evenodd" clip-rule="evenodd" d="M35.0859 15.9097C35.0249 16.2886 34.8401 16.6312 34.5721 16.8622C34.3041 17.0931 33.9749 17.1934 33.6569 17.1411C33.3389 17.0887 33.0582 16.888 32.8764 16.583C32.6947 16.2781 32.6269 15.8939 32.6879 15.515C32.7489 15.136 32.9338 14.7934 33.2018 14.5625C33.4698 14.3315 33.799 14.2312 34.117 14.2836C34.435 14.3359 34.7157 14.5366 34.8974 14.8416C35.0791 15.1465 35.147 15.5308 35.0859 15.9097Z" fill="url(#paint8_linear_552_180142)"/>
        <path fill-rule="evenodd" clip-rule="evenodd" d="M35.0859 15.9097C35.0249 16.2886 34.8401 16.6312 34.5721 16.8622C34.3041 17.0931 33.9749 17.1934 33.6569 17.1411C33.3389 17.0887 33.0582 16.888 32.8764 16.583C32.6947 16.2781 32.6269 15.8939 32.6879 15.515C32.7489 15.136 32.9338 14.7934 33.2018 14.5625C33.4698 14.3315 33.799 14.2312 34.117 14.2836C34.435 14.3359 34.7157 14.5366 34.8974 14.8416C35.0791 15.1465 35.147 15.5308 35.0859 15.9097Z" fill="url(#paint9_linear_552_180142)"/>
        <path fill-rule="evenodd" clip-rule="evenodd" d="M35.0859 15.9097C35.0249 16.2886 34.8401 16.6312 34.5721 16.8622C34.3041 17.0931 33.9749 17.1934 33.6569 17.1411C33.3389 17.0887 33.0582 16.888 32.8764 16.583C32.6947 16.2781 32.6269 15.8939 32.6879 15.515C32.7489 15.136 32.9338 14.7934 33.2018 14.5625C33.4698 14.3315 33.799 14.2312 34.117 14.2836C34.435 14.3359 34.7157 14.5366 34.8974 14.8416C35.0791 15.1465 35.147 15.5308 35.0859 15.9097Z" fill="url(#paint10_linear_552_180142)"/>
        <path fill-rule="evenodd" clip-rule="evenodd" d="M34.792 15.9241C34.731 16.303 34.5462 16.6456 34.2782 16.8766C34.0102 17.1075 33.681 17.2078 33.363 17.1555C33.045 17.1031 32.7642 16.9024 32.5825 16.5975C32.4008 16.2925 32.333 15.9083 32.394 15.5294C32.455 15.1504 32.6398 14.8078 32.9078 14.5769C33.1758 14.3459 33.505 14.2456 33.823 14.298C34.141 14.3503 34.4218 14.551 34.6035 14.856C34.7852 15.161 34.853 15.5452 34.792 15.9241Z" fill="#676767"/>
        <path fill-rule="evenodd" clip-rule="evenodd" d="M34.792 15.9241C34.731 16.303 34.5462 16.6456 34.2782 16.8766C34.0102 17.1075 33.681 17.2078 33.363 17.1555C33.045 17.1031 32.7642 16.9024 32.5825 16.5975C32.4008 16.2925 32.333 15.9083 32.394 15.5294C32.455 15.1504 32.6398 14.8078 32.9078 14.5769C33.1758 14.3459 33.505 14.2456 33.823 14.298C34.141 14.3503 34.4218 14.551 34.6035 14.856C34.7852 15.161 34.853 15.5452 34.792 15.9241Z" fill="url(#paint11_radial_552_180142)"/>
        <path fill-rule="evenodd" clip-rule="evenodd" d="M34.792 15.9241C34.731 16.303 34.5462 16.6456 34.2782 16.8766C34.0102 17.1075 33.681 17.2078 33.363 17.1555C33.045 17.1031 32.7642 16.9024 32.5825 16.5975C32.4008 16.2925 32.333 15.9083 32.394 15.5294C32.455 15.1504 32.6398 14.8078 32.9078 14.5769C33.1758 14.3459 33.505 14.2456 33.823 14.298C34.141 14.3503 34.4218 14.551 34.6035 14.856C34.7852 15.161 34.853 15.5452 34.792 15.9241Z" fill="url(#paint12_linear_552_180142)"/>
        <path fill-rule="evenodd" clip-rule="evenodd" d="M34.3946 17.5462C34.5133 17.5946 34.6017 17.5773 34.7085 17.4579C34.3718 17.0506 34.036 16.6424 33.6993 16.2351C33.5623 16.1937 33.4653 16.3593 33.5228 16.5584C33.8212 16.8855 34.097 17.2191 34.3946 17.5462Z" fill="#636566"/>
        <path fill-rule="evenodd" clip-rule="evenodd" d="M34.3979 17.5463C34.5272 17.6104 34.5903 17.6246 34.7119 17.4581C34.3751 17.0507 34.0394 16.6426 33.7027 16.2352C33.5657 16.1938 33.4122 16.412 33.5261 16.5585C33.8245 16.8856 34.1004 17.2193 34.3979 17.5463Z" fill="url(#paint13_linear_552_180142)"/>
        <path d="M68.783 49.1739C68.6201 50.6426 68.3391 52.0838 67.9562 53.4149C67.5732 54.7461 67.0958 55.9413 66.5511 56.9322C66.0065 57.9232 65.4053 58.6905 64.7819 59.1903C64.1584 59.6901 63.525 59.9127 62.9176 59.8453C62.3103 59.778 61.7411 59.422 61.2423 58.7976C60.7436 58.1733 60.3252 57.2929 60.0109 56.2067C59.6967 55.1205 59.4928 53.8498 59.4109 52.467C59.3291 51.0843 59.3708 49.6166 59.5337 48.1479C59.6966 46.6791 59.9776 45.238 60.3605 43.9068C60.7435 42.5756 61.2209 41.3804 61.7655 40.3895C62.3102 39.3986 62.9114 38.6313 63.5348 38.1314C64.1583 37.6316 64.7917 37.409 65.399 37.4764C66.0064 37.5438 66.5756 37.8998 67.0744 38.5241C67.5731 39.1484 67.9915 40.0288 68.3058 41.115C68.62 42.2012 68.8239 43.472 68.9057 44.8547C68.9876 46.2375 68.9459 47.7051 68.783 49.1739Z" fill="#050402"/>
        <path d="M68.783 49.1739C68.6201 50.6426 68.3391 52.0838 67.9562 53.4149C67.5732 54.7461 67.0958 55.9413 66.5511 56.9322C66.0065 57.9232 65.4053 58.6905 64.7819 59.1903C64.1584 59.6901 63.525 59.9127 62.9176 59.8453C62.3103 59.778 61.7411 59.422 61.2423 58.7976C60.7436 58.1733 60.3252 57.2929 60.0109 56.2067C59.6967 55.1205 59.4928 53.8498 59.4109 52.467C59.3291 51.0843 59.3708 49.6166 59.5337 48.1479C59.6966 46.6791 59.9776 45.238 60.3605 43.9068C60.7435 42.5756 61.2209 41.3804 61.7655 40.3895C62.3102 39.3986 62.9114 38.6313 63.5348 38.1314C64.1583 37.6316 64.7917 37.409 65.399 37.4764C66.0064 37.5438 66.5756 37.8998 67.0744 38.5241C67.5731 39.1484 67.9915 40.0288 68.3058 41.115C68.62 42.2012 68.8239 43.472 68.9057 44.8547C68.9876 46.2375 68.9459 47.7051 68.783 49.1739Z" fill="url(#paint14_linear_552_180142)"/>
        <path d="M67.5185 49.0327C67.4083 50.026 67.2332 51.0022 67.0032 51.9056C66.7732 52.8091 66.4927 53.622 66.1779 54.2981C65.8631 54.9742 65.52 55.5001 65.1683 55.8459C64.8166 56.1916 64.4632 56.3505 64.1281 56.3133C63.7931 56.2761 63.483 56.0437 63.2156 55.6292C62.9483 55.2148 62.7288 54.6265 62.5698 53.8979C62.4108 53.1692 62.3154 52.3146 62.289 51.3827C62.2625 50.4508 62.3057 49.4599 62.4158 48.4667C62.526 47.4734 62.7011 46.4972 62.9311 45.5938C63.1611 44.6903 63.4416 43.8774 63.7564 43.2013C64.0712 42.5252 64.4143 41.9993 64.766 41.6535C65.1177 41.3078 65.4711 41.1489 65.8062 41.1861C66.1412 41.2233 66.4513 41.4557 66.7187 41.8701C66.986 42.2846 67.2055 42.8729 67.3645 43.6015C67.5235 44.3302 67.6189 45.1848 67.6453 46.1167C67.6718 47.0486 67.6286 48.0394 67.5185 49.0327Z" fill="#6E5E70"/>
        <path d="M67.5185 49.0327C67.4083 50.026 67.2332 51.0022 67.0032 51.9056C66.7732 52.8091 66.4927 53.622 66.1779 54.2981C65.8631 54.9742 65.52 55.5001 65.1683 55.8459C64.8166 56.1916 64.4632 56.3505 64.1281 56.3133C63.7931 56.2761 63.483 56.0437 63.2156 55.6292C62.9483 55.2148 62.7288 54.6265 62.5698 53.8979C62.4108 53.1692 62.3154 52.3146 62.289 51.3827C62.2625 50.4508 62.3057 49.4599 62.4158 48.4667C62.526 47.4734 62.7011 46.4972 62.9311 45.5938C63.1611 44.6903 63.4416 43.8774 63.7564 43.2013C64.0712 42.5252 64.4143 41.9993 64.766 41.6535C65.1177 41.3078 65.4711 41.1489 65.8062 41.1861C66.1412 41.2233 66.4513 41.4557 66.7187 41.8701C66.986 42.2846 67.2055 42.8729 67.3645 43.6015C67.5235 44.3302 67.6189 45.1848 67.6453 46.1167C67.6718 47.0486 67.6286 48.0394 67.5185 49.0327Z" fill="url(#paint15_linear_552_180142)"/>
        <path fill-rule="evenodd" clip-rule="evenodd" d="M65.4576 37.4439C62.2636 37.0896 63.1321 37.0129 59.9381 36.6586C53.0409 37.8625 52.1147 58.6712 57.5813 59.2957C60.7448 59.5901 59.7841 59.5148 62.9476 59.8093C57.8641 59.7175 58.4358 38.4525 65.4576 37.4439Z" fill="black"/>
        <path fill-rule="evenodd" clip-rule="evenodd" d="M65.4576 37.4439C62.2636 37.0896 63.1321 37.0129 59.9381 36.6586C53.0409 37.8625 52.1147 58.6712 57.5813 59.2957C60.7448 59.5901 59.7841 59.5148 62.9476 59.8093C57.8641 59.7175 58.4358 38.4525 65.4576 37.4439Z" fill="url(#paint16_linear_552_180142)"/>
        <path fill-rule="evenodd" clip-rule="evenodd" d="M64.8021 41.5969C67.6054 43.7471 65.7638 55.0864 63.0659 55.3758C61.493 51.7799 62.3486 44.4434 64.8021 41.5969Z" fill="#6A5969"/>
        <path fill-rule="evenodd" clip-rule="evenodd" d="M64.8021 41.5969C67.6054 43.7471 65.7638 55.0864 63.0659 55.3758C61.493 51.7799 62.3486 44.4434 64.8021 41.5969Z" fill="url(#paint17_radial_552_180142)"/>
        <path d="M64.3199 48.4637C64.2907 48.746 64.2477 49.0256 64.1936 49.286C64.1395 49.5463 64.0754 49.782 64.005 49.9792C63.9346 50.1764 63.8593 50.3311 63.7837 50.434C63.7081 50.5369 63.6337 50.586 63.5648 50.5783C63.496 50.5707 63.4341 50.5065 63.3829 50.3895C63.3317 50.2725 63.2922 50.1052 63.2667 49.8973C63.2412 49.6895 63.2303 49.4454 63.2346 49.1796C63.2388 48.9137 63.2582 48.6315 63.2916 48.3496C63.3208 48.0673 63.3637 47.7877 63.4178 47.5274C63.4719 47.2671 63.5361 47.0313 63.6065 46.8341C63.6769 46.6369 63.7522 46.4823 63.8278 46.3794C63.9034 46.2765 63.9778 46.2274 64.0466 46.235C64.1155 46.2427 64.1773 46.3069 64.2286 46.4239C64.2798 46.5408 64.3193 46.7082 64.3448 46.916C64.3703 47.1239 64.3812 47.3679 64.3769 47.6338C64.3726 47.8996 64.3533 48.1819 64.3199 48.4637Z" fill="#848080"/>
        <path fill-rule="evenodd" clip-rule="evenodd" d="M64.8825 49.7376C64.6421 49.7915 64.6113 50.5509 64.7849 50.5869C64.6049 50.567 64.4342 50.5468 64.253 50.5268C64.0494 50.4897 64.0977 49.7191 64.3505 49.6798C64.5286 49.696 64.7044 49.7215 64.8825 49.7376Z" fill="#848080"/>
        <path d="M65.0029 50.1812C64.9973 50.2385 64.9873 50.295 64.9735 50.3476C64.9596 50.4001 64.9422 50.4475 64.9223 50.487C64.9024 50.5265 64.8803 50.5572 64.8575 50.5773C64.8347 50.5974 64.8115 50.6065 64.7894 50.604C64.7673 50.6016 64.7467 50.5876 64.7288 50.563C64.711 50.5384 64.6962 50.5036 64.6854 50.4607C64.6746 50.4179 64.668 50.3678 64.6661 50.3135C64.6641 50.2592 64.6667 50.2018 64.6738 50.1447C64.6794 50.0874 64.6894 50.0308 64.7032 49.9783C64.7171 49.9258 64.7345 49.8783 64.7544 49.8389C64.7743 49.7994 64.7963 49.7687 64.8192 49.7486C64.842 49.7285 64.8652 49.7194 64.8873 49.7219C64.9094 49.7243 64.93 49.7383 64.9479 49.7629C64.9657 49.7875 64.9805 49.8223 64.9913 49.8652C65.0021 49.908 65.0087 49.9581 65.0106 50.0124C65.0126 50.0667 65.01 50.1241 65.0029 50.1812Z" fill="#848080"/>
        <path fill-rule="evenodd" clip-rule="evenodd" d="M64.8825 49.7376C64.6421 49.7915 64.6113 50.5509 64.7849 50.5869C64.6049 50.567 64.4342 50.5468 64.253 50.5268C64.0494 50.4897 64.0977 49.7191 64.3505 49.6798C64.5286 49.696 64.7044 49.7215 64.8825 49.7376Z" fill="url(#paint18_linear_552_180142)"/>
        <path d="M65.0029 50.1812C64.9973 50.2385 64.9873 50.295 64.9735 50.3476C64.9596 50.4001 64.9422 50.4475 64.9223 50.487C64.9024 50.5265 64.8803 50.5572 64.8575 50.5773C64.8347 50.5974 64.8115 50.6065 64.7894 50.604C64.7673 50.6016 64.7467 50.5876 64.7288 50.563C64.711 50.5384 64.6962 50.5036 64.6854 50.4607C64.6746 50.4179 64.668 50.3678 64.6661 50.3135C64.6641 50.2592 64.6667 50.2018 64.6738 50.1447C64.6794 50.0874 64.6894 50.0308 64.7032 49.9783C64.7171 49.9258 64.7345 49.8783 64.7544 49.8389C64.7743 49.7994 64.7963 49.7687 64.8192 49.7486C64.842 49.7285 64.8652 49.7194 64.8873 49.7219C64.9094 49.7243 64.93 49.7383 64.9479 49.7629C64.9657 49.7875 64.9805 49.8223 64.9913 49.8652C65.0021 49.908 65.0087 49.9581 65.0106 50.0124C65.0126 50.0667 65.01 50.1241 65.0029 50.1812Z" fill="url(#paint19_radial_552_180142)"/>
        <path fill-rule="evenodd" clip-rule="evenodd" d="M64.3691 45.3068C64.1172 45.3631 64.0849 46.1586 64.2667 46.1964C64.0782 46.1755 63.8994 46.1544 63.7096 46.1334C63.4963 46.0946 63.547 45.2873 63.8117 45.2462C63.9982 45.2631 64.1825 45.2898 64.3691 45.3068Z" fill="#848080"/>
        <path d="M64.5025 45.7708C64.4967 45.8308 64.4862 45.89 64.4717 45.9451C64.4572 46.0001 64.439 46.0498 64.4181 46.0911C64.3972 46.1324 64.3742 46.1646 64.3503 46.1857C64.3263 46.2067 64.3021 46.2162 64.2789 46.2137C64.2558 46.2111 64.2342 46.1965 64.2155 46.1707C64.1967 46.1449 64.1813 46.1085 64.17 46.0636C64.1587 46.0187 64.1518 45.9662 64.1497 45.9093C64.1476 45.8525 64.1504 45.7923 64.1578 45.7325C64.1637 45.6726 64.1741 45.6133 64.1886 45.5582C64.2031 45.5032 64.2214 45.4535 64.2422 45.4122C64.2631 45.3709 64.2862 45.3387 64.3101 45.3177C64.334 45.2966 64.3583 45.2871 64.3814 45.2896C64.4046 45.2922 64.4262 45.3068 64.4449 45.3326C64.4636 45.3584 64.4791 45.3948 64.4904 45.4397C64.5017 45.4846 64.5086 45.5371 64.5106 45.594C64.5127 45.6508 64.51 45.711 64.5025 45.7708Z" fill="#848080"/>
        <path fill-rule="evenodd" clip-rule="evenodd" d="M64.3691 45.3068C64.1172 45.3631 64.0849 46.1586 64.2667 46.1964C64.0782 46.1755 63.8994 46.1544 63.7096 46.1334C63.4963 46.0946 63.547 45.2873 63.8117 45.2462C63.9982 45.2631 64.1825 45.2898 64.3691 45.3068Z" fill="url(#paint20_linear_552_180142)"/>
        <path d="M64.5025 45.7708C64.4967 45.8308 64.4862 45.89 64.4717 45.9451C64.4572 46.0001 64.439 46.0498 64.4181 46.0911C64.3972 46.1324 64.3742 46.1646 64.3503 46.1857C64.3263 46.2067 64.3021 46.2162 64.2789 46.2137C64.2558 46.2111 64.2342 46.1965 64.2155 46.1707C64.1967 46.1449 64.1813 46.1085 64.17 46.0636C64.1587 46.0187 64.1518 45.9662 64.1497 45.9093C64.1476 45.8525 64.1504 45.7923 64.1578 45.7325C64.1637 45.6726 64.1741 45.6133 64.1886 45.5582C64.2031 45.5032 64.2214 45.4535 64.2422 45.4122C64.2631 45.3709 64.2862 45.3387 64.3101 45.3177C64.334 45.2966 64.3583 45.2871 64.3814 45.2896C64.4046 45.2922 64.4262 45.3068 64.4449 45.3326C64.4636 45.3584 64.4791 45.3948 64.4904 45.4397C64.5017 45.4846 64.5086 45.5371 64.5106 45.594C64.5127 45.6508 64.51 45.711 64.5025 45.7708Z" fill="url(#paint21_radial_552_180142)"/>
        <path fill-rule="evenodd" clip-rule="evenodd" d="M65.2693 47.139C65.0289 47.1928 64.998 47.9522 65.1716 47.9883C64.9916 47.9684 64.8209 47.9482 64.6397 47.9281C64.4361 47.8911 64.4845 47.1204 64.7372 47.0812C64.9153 47.0973 65.0912 47.1229 65.2693 47.139Z" fill="#848080"/>
        <path d="M65.3896 47.5821C65.384 47.6393 65.374 47.6959 65.3602 47.7485C65.3463 47.801 65.3289 47.8484 65.309 47.8879C65.2891 47.9273 65.2671 47.958 65.2442 47.9781C65.2214 47.9982 65.1982 48.0073 65.1761 48.0049C65.154 48.0024 65.1334 47.9885 65.1156 47.9639C65.0977 47.9392 65.0829 47.9045 65.0721 47.8616C65.0613 47.8187 65.0548 47.7687 65.0528 47.7144C65.0508 47.6601 65.0534 47.6027 65.0606 47.5456C65.0661 47.4883 65.0761 47.4317 65.09 47.3792C65.1038 47.3266 65.1212 47.2792 65.1411 47.2398C65.161 47.2003 65.1831 47.1696 65.2059 47.1495C65.2287 47.1294 65.2519 47.1203 65.274 47.1228C65.2961 47.1252 65.3167 47.1392 65.3346 47.1638C65.3524 47.1884 65.3672 47.2232 65.378 47.266C65.3888 47.3089 65.3954 47.359 65.3974 47.4133C65.3993 47.4676 65.3967 47.525 65.3896 47.5821Z" fill="#848080"/>
        <path fill-rule="evenodd" clip-rule="evenodd" d="M65.2693 47.139C65.0289 47.1928 64.998 47.9522 65.1716 47.9883C64.9916 47.9684 64.8209 47.9482 64.6397 47.9281C64.4361 47.8911 64.4845 47.1204 64.7372 47.0812C64.9153 47.0973 65.0912 47.1229 65.2693 47.139Z" fill="url(#paint22_linear_552_180142)"/>
        <path d="M65.3896 47.5821C65.384 47.6393 65.374 47.6959 65.3602 47.7485C65.3463 47.801 65.3289 47.8484 65.309 47.8879C65.2891 47.9273 65.2671 47.958 65.2442 47.9781C65.2214 47.9982 65.1982 48.0073 65.1761 48.0049C65.154 48.0024 65.1334 47.9885 65.1156 47.9639C65.0977 47.9392 65.0829 47.9045 65.0721 47.8616C65.0613 47.8187 65.0548 47.7687 65.0528 47.7144C65.0508 47.6601 65.0534 47.6027 65.0606 47.5456C65.0661 47.4883 65.0761 47.4317 65.09 47.3792C65.1038 47.3266 65.1212 47.2792 65.1411 47.2398C65.161 47.2003 65.1831 47.1696 65.2059 47.1495C65.2287 47.1294 65.2519 47.1203 65.274 47.1228C65.2961 47.1252 65.3167 47.1392 65.3346 47.1638C65.3524 47.1884 65.3672 47.2232 65.378 47.266C65.3888 47.3089 65.3954 47.359 65.3974 47.4133C65.3993 47.4676 65.3967 47.525 65.3896 47.5821Z" fill="url(#paint23_radial_552_180142)"/>
        <path fill-rule="evenodd" clip-rule="evenodd" d="M63.5096 50.1039C63.2572 50.1604 63.2248 50.9579 63.407 50.9958C63.218 50.9748 63.0387 50.9537 62.8485 50.9326C62.6347 50.8937 62.6854 50.0843 62.9508 50.0431C63.1379 50.0601 63.3226 50.0869 63.5096 50.1039Z" fill="#848080"/>
        <path d="M63.6409 50.5697C63.6351 50.6298 63.6246 50.6892 63.6101 50.7444C63.5955 50.7996 63.5773 50.8494 63.5563 50.8908C63.5354 50.9323 63.5123 50.9645 63.4883 50.9856C63.4643 51.0067 63.44 51.0163 63.4168 51.0137C63.3936 51.0111 63.3719 50.9965 63.3532 50.9706C63.3344 50.9448 63.3189 50.9082 63.3076 50.8632C63.2962 50.8182 63.2893 50.7656 63.2872 50.7086C63.2851 50.6516 63.2879 50.5913 63.2954 50.5313C63.3012 50.4712 63.3117 50.4118 63.3263 50.3566C63.3408 50.3014 63.3591 50.2516 63.38 50.2102C63.4009 50.1687 63.4241 50.1365 63.448 50.1154C63.472 50.0943 63.4963 50.0847 63.5196 50.0873C63.5428 50.0899 63.5644 50.1045 63.5832 50.1304C63.602 50.1562 63.6175 50.1928 63.6288 50.2378C63.6401 50.2828 63.647 50.3354 63.6491 50.3924C63.6512 50.4494 63.6484 50.5097 63.6409 50.5697Z" fill="#848080"/>
        <path fill-rule="evenodd" clip-rule="evenodd" d="M63.5096 50.1039C63.2572 50.1604 63.2248 50.9579 63.407 50.9958C63.218 50.9748 63.0387 50.9537 62.8485 50.9326C62.6347 50.8937 62.6854 50.0843 62.9508 50.0431C63.1379 50.0601 63.3226 50.0869 63.5096 50.1039Z" fill="url(#paint24_linear_552_180142)"/>
        <path d="M63.6409 50.5697C63.6351 50.6298 63.6246 50.6892 63.6101 50.7444C63.5955 50.7996 63.5773 50.8494 63.5563 50.8908C63.5354 50.9323 63.5123 50.9645 63.4883 50.9856C63.4643 51.0067 63.44 51.0163 63.4168 51.0137C63.3936 51.0111 63.3719 50.9965 63.3532 50.9706C63.3344 50.9448 63.3189 50.9082 63.3076 50.8632C63.2962 50.8182 63.2893 50.7656 63.2872 50.7086C63.2851 50.6516 63.2879 50.5913 63.2954 50.5313C63.3012 50.4712 63.3117 50.4118 63.3263 50.3566C63.3408 50.3014 63.3591 50.2516 63.38 50.2102C63.4009 50.1687 63.4241 50.1365 63.448 50.1154C63.472 50.0943 63.4963 50.0847 63.5196 50.0873C63.5428 50.0899 63.5644 50.1045 63.5832 50.1304C63.602 50.1562 63.6175 50.1928 63.6288 50.2378C63.6401 50.2828 63.647 50.3354 63.6491 50.3924C63.6512 50.4494 63.6484 50.5097 63.6409 50.5697Z" fill="url(#paint25_radial_552_180142)"/>
        <path fill-rule="evenodd" clip-rule="evenodd" d="M63.599 47.6474C63.3243 47.7089 63.289 48.5766 63.4874 48.6179C63.2817 48.595 63.0867 48.572 62.8797 48.5491C62.647 48.5068 62.7023 47.6262 62.991 47.5814C63.1945 47.5998 63.3955 47.629 63.599 47.6474Z" fill="#848080"/>
        <path d="M63.7342 48.1533C63.7279 48.2188 63.7164 48.2834 63.7006 48.3435C63.6848 48.4035 63.6649 48.4577 63.6422 48.5028C63.6194 48.5478 63.5942 48.5829 63.5682 48.6059C63.5421 48.6289 63.5156 48.6393 63.4903 48.6365C63.4651 48.6337 63.4415 48.6177 63.4211 48.5896C63.4007 48.5615 63.3838 48.5217 63.3715 48.4727C63.3592 48.4238 63.3517 48.3665 63.3494 48.3045C63.3471 48.2425 63.3501 48.1769 63.3583 48.1116C63.3646 48.0462 63.3761 47.9816 63.3919 47.9215C63.4077 47.8615 63.4276 47.8073 63.4503 47.7622C63.4731 47.7171 63.4983 47.6821 63.5243 47.6591C63.5504 47.6361 63.5769 47.6257 63.6022 47.6285C63.6274 47.6313 63.651 47.6473 63.6714 47.6754C63.6918 47.7035 63.7087 47.7433 63.721 47.7923C63.7333 47.8412 63.7408 47.8984 63.7431 47.9605C63.7454 48.0225 63.7424 48.0881 63.7342 48.1533Z" fill="#848080"/>
        <path fill-rule="evenodd" clip-rule="evenodd" d="M63.599 47.6474C63.3243 47.7089 63.289 48.5766 63.4874 48.6179C63.2817 48.595 63.0867 48.572 62.8797 48.5491C62.647 48.5068 62.7023 47.6262 62.991 47.5814C63.1945 47.5998 63.3955 47.629 63.599 47.6474Z" fill="url(#paint26_linear_552_180142)"/>
        <path d="M63.7342 48.1533C63.7279 48.2188 63.7164 48.2834 63.7006 48.3435C63.6848 48.4035 63.6649 48.4577 63.6422 48.5028C63.6194 48.5478 63.5942 48.5829 63.5682 48.6059C63.5421 48.6289 63.5156 48.6393 63.4903 48.6365C63.4651 48.6337 63.4415 48.6177 63.4211 48.5896C63.4007 48.5615 63.3838 48.5217 63.3715 48.4727C63.3592 48.4238 63.3517 48.3665 63.3494 48.3045C63.3471 48.2425 63.3501 48.1769 63.3583 48.1116C63.3646 48.0462 63.3761 47.9816 63.3919 47.9215C63.4077 47.8615 63.4276 47.8073 63.4503 47.7622C63.4731 47.7171 63.4983 47.6821 63.5243 47.6591C63.5504 47.6361 63.5769 47.6257 63.6022 47.6285C63.6274 47.6313 63.651 47.6473 63.6714 47.6754C63.6918 47.7035 63.7087 47.7433 63.721 47.7923C63.7333 47.8412 63.7408 47.8984 63.7431 47.9605C63.7454 48.0225 63.7424 48.0881 63.7342 48.1533Z" fill="url(#paint27_radial_552_180142)"/>
        <path d="M109.549 28.5579C109.4 29.9072 109.138 31.2307 108.779 32.4527C108.419 33.6748 107.97 34.7715 107.455 35.6803C106.941 36.5891 106.372 37.2921 105.782 37.7493C105.191 38.2064 104.589 38.4088 104.012 38.3447C103.434 38.2806 102.892 37.9514 102.416 37.3759C101.939 36.8004 101.538 35.9898 101.236 34.9904C100.933 33.991 100.735 32.8224 100.652 31.5513C100.57 30.2802 100.604 28.9315 100.754 27.5822C100.903 26.2329 101.165 24.9095 101.525 23.6874C101.884 22.4654 102.334 21.3687 102.848 20.4599C103.362 19.5511 103.931 18.848 104.522 18.3909C105.113 17.9337 105.714 17.7314 106.291 17.7955C106.869 17.8595 107.411 18.1887 107.888 18.7643C108.364 19.3398 108.765 20.1504 109.067 21.1498C109.37 22.1492 109.568 23.3178 109.651 24.5889C109.734 25.86 109.699 27.2086 109.549 28.5579Z" fill="#050402"/>
        <path d="M109.549 28.5579C109.4 29.9072 109.138 31.2307 108.779 32.4527C108.419 33.6748 107.97 34.7715 107.455 35.6803C106.941 36.5891 106.372 37.2921 105.782 37.7493C105.191 38.2064 104.589 38.4088 104.012 38.3447C103.434 38.2806 102.892 37.9514 102.416 37.3759C101.939 36.8004 101.538 35.9898 101.236 34.9904C100.933 33.991 100.735 32.8224 100.652 31.5513C100.57 30.2802 100.604 28.9315 100.754 27.5822C100.903 26.2329 101.165 24.9095 101.525 23.6874C101.884 22.4654 102.334 21.3687 102.848 20.4599C103.362 19.5511 103.931 18.848 104.522 18.3909C105.113 17.9337 105.714 17.7314 106.291 17.7955C106.869 17.8595 107.411 18.1887 107.888 18.7643C108.364 19.3398 108.765 20.1504 109.067 21.1498C109.37 22.1492 109.568 23.3178 109.651 24.5889C109.734 25.86 109.699 27.2086 109.549 28.5579Z" fill="url(#paint28_linear_552_180142)"/>
        <path d="M107.575 28.3396C107.492 29.0874 107.347 29.8209 107.148 30.4982C106.949 31.1755 106.699 31.7833 106.414 32.287C106.129 32.7906 105.814 33.1803 105.487 33.4337C105.159 33.687 104.826 33.7992 104.506 33.7636C104.186 33.7281 103.885 33.5457 103.621 33.2267C103.357 32.9078 103.135 32.4585 102.968 31.9046C102.8 31.3507 102.69 30.7031 102.644 29.9986C102.598 29.2942 102.617 28.5467 102.7 27.7989C102.783 27.0511 102.928 26.3176 103.128 25.6403C103.327 24.963 103.576 24.3552 103.861 23.8515C104.146 23.3479 104.461 22.9582 104.789 22.7049C105.116 22.4515 105.449 22.3394 105.769 22.3749C106.089 22.4104 106.39 22.5928 106.654 22.9118C106.918 23.2308 107.14 23.68 107.308 24.2339C107.475 24.7878 107.585 25.4354 107.631 26.1399C107.677 26.8444 107.658 27.5918 107.575 28.3396Z" fill="#6E5E70"/>
        <path d="M107.575 28.3396C107.492 29.0874 107.347 29.8209 107.148 30.4982C106.949 31.1755 106.699 31.7833 106.414 32.287C106.129 32.7906 105.814 33.1803 105.487 33.4337C105.159 33.687 104.826 33.7992 104.506 33.7636C104.186 33.7281 103.885 33.5457 103.621 33.2267C103.357 32.9078 103.135 32.4585 102.968 31.9046C102.8 31.3507 102.69 30.7031 102.644 29.9986C102.598 29.2942 102.617 28.5467 102.7 27.7989C102.783 27.0511 102.928 26.3176 103.128 25.6403C103.327 24.963 103.576 24.3552 103.861 23.8515C104.146 23.3479 104.461 22.9582 104.789 22.7049C105.116 22.4515 105.449 22.3394 105.769 22.3749C106.089 22.4104 106.39 22.5928 106.654 22.9118C106.918 23.2308 107.14 23.68 107.308 24.2339C107.475 24.7878 107.585 25.4354 107.631 26.1399C107.677 26.8444 107.658 27.5918 107.575 28.3396Z" fill="url(#paint29_linear_552_180142)"/>
        <path fill-rule="evenodd" clip-rule="evenodd" d="M106.303 17.722C103.265 17.385 99.8552 16.9273 96.8178 16.5904C90.2668 17.6714 89.4291 36.7105 94.6276 37.3037C97.6353 37.5854 100.988 37.985 103.996 38.2668C99.1641 38.1645 99.6319 18.6242 106.303 17.722Z" fill="black"/>
        <path fill-rule="evenodd" clip-rule="evenodd" d="M106.303 17.722C103.265 17.385 99.8552 16.9273 96.8178 16.5904C90.2668 17.6714 89.4291 36.7105 94.6276 37.3037C97.6353 37.5854 100.988 37.985 103.996 38.2668C99.1641 38.1645 99.6319 18.6242 106.303 17.722Z" fill="url(#paint30_linear_552_180142)"/>
        <path fill-rule="evenodd" clip-rule="evenodd" d="M68.9346 47.5642C76.947 43.8999 94.2951 35.4939 97.8607 32.7327C101.19 29.211 99.7407 17.3148 105.556 17.5986C106.273 17.677 106.742 17.8855 107.471 18.1991C109.664 20.446 109.578 24.6294 109.688 27.3044C115.076 22.1065 115.132 20.1481 115.504 19.5946C115.758 15.8973 113.338 9.72891 112.673 7.32677C101.547 4.54047 103.046 5.48282 91.9024 2.85019C65.3565 -3.66633 47.9614 3.87408 44.9117 5.24292C40.4319 9.24754 37.2976 13.7131 32.8163 17.7178C21.6868 22.4327 2.96039 34.354 4.23359 35.5582C4.37157 39.4546 4.63969 42.6894 6.25941 48.6116C20.067 51.0232 29.0359 53.6746 42.8419 56.0862C47.1523 55.4778 53.9918 53.7515 56.9396 51.4403C59.2367 46.8712 61.0242 37.2924 64.3467 37.7706C65.2734 37.9118 65.4318 38.0043 65.6717 38.0294C68.0613 38.7585 69.2498 44.1837 68.9346 47.5642Z" fill="#4A1FB8" stroke="black" stroke-width="0.109688"/>
        <path fill-rule="evenodd" clip-rule="evenodd" d="M44.8684 5.22852C42.1323 7.6338 35.7397 15.284 32.8311 17.752C33.038 18.2772 33.7358 18.8307 34.3316 19.0706C38.4209 14.9421 42.529 10.8968 46.6183 6.76827C46.2718 6.67419 45.1177 5.94351 44.8684 5.22852Z" fill="url(#paint31_linear_552_180142)"/>
        <path fill-rule="evenodd" clip-rule="evenodd" d="M33.9961 17.7286C40.7557 21.1688 53.9141 22.9202 68.2894 23.48C70.0377 19.3797 72.2407 15.2575 73.989 11.1572C63.4882 10.4093 48.7884 8.63592 44.2899 6.74023C40.7572 10.5912 37.5272 13.8777 33.9961 17.7286Z" fill="#A7A4A1" stroke="black" stroke-width="0.109688"/>
        <path fill-rule="evenodd" clip-rule="evenodd" d="M32.8176 17.7175C21.6881 22.4324 12.6973 28.3516 4.12207 35.2146C5.19143 32.7983 30.4657 37.9993 44.2717 40.4093C46.2991 37.9962 70.1747 24.4222 70.4146 24.4489C72.5832 24.9475 34.591 22.7257 32.8176 17.7175Z" fill="url(#paint32_linear_552_180142)"/>
        <path fill-rule="evenodd" clip-rule="evenodd" d="M11.5625 37.5649L12.3183 48.0767L35.8474 53.1569C35.8536 53.102 34.4424 41.0913 34.2261 41.0678C24.9907 39.7131 17.8815 38.4853 11.5625 37.5649Z" fill="url(#paint33_radial_552_180142)"/>
        <path fill-rule="evenodd" clip-rule="evenodd" d="M75.8444 11.1588L70.6152 23.3075L95.2858 13.6252L93.2396 6.87817L75.8444 11.1588Z" fill="#A7A4A1" stroke="black" stroke-width="0.109688"/>
        <path fill-rule="evenodd" clip-rule="evenodd" d="M32.8203 17.7175C21.6908 22.4324 6.668 32.3499 4.25488 35.1205C11.9552 32.7184 32.444 39.7696 46.2516 42.1811C48.279 39.768 70.1774 24.4222 70.4173 24.4489C72.5858 24.9475 34.5937 22.7257 32.8203 17.7175Z" fill="url(#paint34_linear_552_180142)"/>
        <path fill-rule="evenodd" clip-rule="evenodd" d="M11.5625 37.5649L12.3183 48.0767L35.8474 53.1569C35.8536 53.102 34.4424 41.0913 34.2261 41.0678C24.9907 39.7131 17.8815 38.4853 11.5625 37.5649Z" fill="#000041"/>
        <path d="M11.4932 41.6812L35.0726 45.4739L35.0174 45.4675" stroke="#828283" stroke-width="0.562275"/>
        <path d="M11.4932 41.6812L35.0726 45.4739L35.0174 45.4675" stroke="url(#paint35_linear_552_180142)" stroke-width="0.562275"/>
        <path fill-rule="evenodd" clip-rule="evenodd" d="M75.8444 11.1588L70.6152 23.3075L95.2858 13.6252L93.2396 6.87817L75.8444 11.1588Z" fill="url(#paint36_radial_552_180142)" stroke="#787878" stroke-width="0.109688"/>
        <path fill-rule="evenodd" clip-rule="evenodd" d="M94.6729 6.5708L96.7865 12.7047L107.179 8.57938C102.005 7.6433 100.545 8.2062 94.6729 6.5708Z" fill="#A7A4A1" stroke="black" stroke-width="0.109688"/>
        <path fill-rule="evenodd" clip-rule="evenodd" d="M94.8175 5.19096C98.7139 5.98592 102.61 6.78089 106.507 7.57428C105.227 6.67113 101.723 5.05297 93.6258 3.35172C91.9606 2.95972 87.1783 1.89663 85.5146 1.50464C89.4722 2.71982 93.941 4.27526 94.8175 5.19096Z" fill="#A7A4A1" stroke="black" stroke-width="0.109688"/>
        <path fill-rule="evenodd" clip-rule="evenodd" d="M94.8175 5.19096C98.7139 5.98592 102.61 6.78089 106.507 7.57428C105.227 6.67113 101.723 5.05297 93.6258 3.35172C91.9606 2.95972 87.1783 1.89663 85.5146 1.50464C89.4722 2.71982 93.941 4.27526 94.8175 5.19096Z" fill="url(#paint37_linear_552_180142)" stroke="#787878" stroke-width="0.109688"/>
        <path fill-rule="evenodd" clip-rule="evenodd" d="M94.6729 6.5708L96.7865 12.7047L107.179 8.57938C102.005 7.6433 100.545 8.2062 94.6729 6.5708Z" fill="url(#paint38_linear_552_180142)" stroke="#787878" stroke-width="0.109688"/>
        <path fill-rule="evenodd" clip-rule="evenodd" d="M38.1294 22.3416C39.782 23.3012 43.9576 23.9205 48.3024 24.4019C45.2057 26.9467 41.6981 29.7205 37.3313 32.3437C31.9688 32.0865 30.6172 31.7824 27.2617 30.76C27.4938 29.4194 28.1257 27.9581 28.6839 27.6398C32.7967 24.6089 36.3732 22.9452 38.1294 22.3416Z" fill="url(#paint39_linear_552_180142)"/>
        <path fill-rule="evenodd" clip-rule="evenodd" d="M27.7783 30.4182C27.8755 29.6969 27.9743 28.9756 28.5059 28.303C31.0585 29.2093 34.2102 29.457 36.9494 29.6703C37.2724 30.3821 37.1533 31.3307 36.9886 31.9893C33.8166 31.8921 30.7998 31.3747 27.7783 30.4182Z" fill="black" stroke="#504E4E" stroke-width="0.109688"/>
        <path fill-rule="evenodd" clip-rule="evenodd" d="M27.7783 30.4182C27.8755 29.6969 27.9743 28.9756 28.5059 28.303C31.0585 29.2093 34.2102 29.457 36.9494 29.6703C37.2724 30.3821 37.1533 31.3307 36.9886 31.9893C33.8166 31.8921 30.7998 31.3747 27.7783 30.4182Z" fill="url(#paint40_linear_552_180142)" stroke="#504E4E" stroke-width="0.109688"/>
        <path opacity="0.26702" fill-rule="evenodd" clip-rule="evenodd" d="M110.965 10.229C89.7703 20.5385 69.1623 25.7598 45.1503 41.6842C43.921 42.5356 45.0327 44.8468 45.2506 47.5046C45.1566 51.2411 46.3749 51.8745 47.7688 52.5048C48.7284 53.0866 53.2928 51.6801 55.5664 50.3222C58.7431 49.0647 57.9513 38.23 63.3075 36.1163C66.6975 35.5769 69.5575 38.8227 69.8397 44.5254C78.9591 40.157 87.3666 36.2606 96.4859 31.8938C98.9194 30.078 99.0025 18.7808 103.303 15.9647C105.11 15.1775 110.784 17.125 110.497 24.3377C116.219 21.8979 114.494 10.4015 110.965 10.229Z" fill="url(#paint41_linear_552_180142)"/>
        <path fill-rule="evenodd" clip-rule="evenodd" d="M68.9353 47.5249C76.9476 43.8606 94.2911 35.4938 97.8566 32.7326C101.185 29.2109 99.7366 17.3147 105.552 17.5985C106.269 17.6769 106.75 18.1191 107.467 18.199C109.348 20.4491 109.954 24.3188 109.707 27.229C115.097 22.0312 115.319 20.5181 115.504 19.5553C115.754 15.8972 113.334 9.7288 112.669 7.32666C95.155 14.5425 67.452 22.1801 42.6309 41.1605C43.3364 45.5336 44.467 50.2642 43.6391 55.8634C47.9494 55.2551 53.9454 53.7859 56.8932 51.4747C58.6289 48.1239 61.0201 37.2923 64.3427 37.7705C65.2693 37.9117 65.4277 38.0042 65.6676 38.0293C68.0572 38.7584 69.2489 44.1459 68.9353 47.5249Z" fill="url(#paint42_linear_552_180142)"/>
        <path fill-rule="evenodd" clip-rule="evenodd" d="M85.6035 1.53463C62.4538 -2.25047 47.9626 3.87406 44.9128 5.2429C43.9015 8.28792 73.7229 11.0523 75.7518 10.9629C81.7995 9.46861 90.7762 7.46473 94.138 6.46436C95.4033 5.85285 96.9399 5.06415 85.6035 1.53463Z" fill="url(#paint43_linear_552_180142)"/>
        <path fill-rule="evenodd" clip-rule="evenodd" d="M85.6035 1.53463C62.4538 -2.25047 47.9626 3.87406 44.9128 5.2429C43.9015 8.28792 73.7229 11.0523 75.7518 10.9629C81.7995 9.46861 90.7762 7.46473 94.138 6.46436C95.4033 5.85285 96.9399 5.06415 85.6035 1.53463Z" fill="url(#paint44_linear_552_180142)"/>
        <path fill-rule="evenodd" clip-rule="evenodd" d="M85.6035 1.53463C62.4538 -2.25047 47.9626 3.87406 44.9128 5.2429C43.9015 8.28792 73.7229 11.0523 75.7518 10.9629C81.7995 9.46861 90.7762 7.46473 94.138 6.46436C95.4033 5.85285 96.9399 5.06415 85.6035 1.53463Z" fill="url(#paint45_radial_552_180142)"/>
        <path fill-rule="evenodd" clip-rule="evenodd" d="M68.8961 47.5218C76.91 43.8559 94.2142 35.486 97.7798 32.7248C101.109 29.2031 99.7366 17.3147 105.552 17.5985C106.269 17.6769 106.521 17.7443 107.355 18.1473C109.524 19.5757 109.598 24.3565 109.676 27.3027C115.065 22.1064 115.416 19.985 115.614 19.6071C116.031 15.8502 113.334 9.7288 112.669 7.32666C95.155 14.5425 67.452 22.1801 42.6309 41.1605C43.3364 45.5336 44.467 50.2642 43.6391 55.8634C47.9494 55.2551 53.8341 53.7357 56.7819 51.4229C59.0366 47.238 61.0201 37.2923 64.3427 37.7705C65.2693 37.9117 65.4277 38.0042 65.6676 38.0293C68.0572 38.7584 69.2112 44.1412 68.8961 47.5218Z" fill="url(#paint46_linear_552_180142)"/>
        <path fill-rule="evenodd" clip-rule="evenodd" d="M112.661 7.28884C107.07 5.81808 102.173 5.02782 96.4404 3.84399C107.946 6.74789 108.032 8.93522 108.122 9.11867C109.622 8.36918 111.018 7.8298 112.661 7.28884Z" fill="url(#paint47_linear_552_180142)"/>
        <path d="M10.9092 38.0505L34.5215 41.6335L34.4662 41.6275" stroke="#828283" stroke-width="0.562277"/>
        <path d="M10.9092 38.0505L34.5215 41.6335L34.4662 41.6275" stroke="url(#paint48_linear_552_180142)" stroke-width="0.562277"/>
        <path d="M11.6943 42.9839L35.2738 46.7767L35.2186 46.7703" stroke="#828283" stroke-width="0.562275"/>
        <path d="M11.6943 42.9839L35.2738 46.7767L35.2186 46.7703" stroke="url(#paint49_linear_552_180142)" stroke-width="0.562275"/>
        <path d="M11.0137 39.2307L34.626 42.8136L34.5707 42.8077" stroke="#828283" stroke-width="0.562277"/>
        <path d="M11.0137 39.2307L34.626 42.8136L34.5707 42.8077" stroke="url(#paint50_linear_552_180142)" stroke-width="0.562277"/>
        <path fill-rule="evenodd" clip-rule="evenodd" d="M43.4333 57.4565C41.9625 57.6775 18.4507 52.7651 5.25142 49.8737C4.37492 49.5382 3.87003 47.8181 3.78222 46.802C3.70226 46.0243 4.62423 45.1384 5.13696 44.9753C5.23417 45.2435 5.33296 45.51 5.43174 45.7766C18.2249 48.2022 40.7708 53.2464 43.8111 53.0536C44.5214 53.0771 44.8115 52.4499 45.1847 52.5471C46.3419 52.8403 46.7276 54.6388 46.8483 55.8602C46.8938 56.9265 44.0667 57.6728 43.4333 57.4565Z" fill="#888786"/>
        <path d="M11.752 44.1626L35.6192 48.1992L35.5634 48.1923" stroke="#828283" stroke-width="0.566086"/>
        <path d="M11.752 44.1626L35.6192 48.1992L35.5634 48.1923" stroke="url(#paint51_linear_552_180142)" stroke-width="0.566086"/>
        <path d="M11.2695 40.5391L34.8818 44.122L34.8266 44.1161" stroke="#828283" stroke-width="0.562277"/>
        <path d="M11.2695 40.5391L34.8818 44.122L34.8266 44.1161" stroke="url(#paint52_linear_552_180142)" stroke-width="0.562277"/>
        <path d="M11.917 45.3547L35.7482 49.6001L35.6924 49.5927" stroke="#828283" stroke-width="0.566089"/>
        <path d="M11.917 45.3547L35.7482 49.6001L35.6924 49.5927" stroke="url(#paint53_linear_552_180142)" stroke-width="0.566089"/>
        <path d="M12.1416 46.4998L35.9151 51.0571L35.8594 51.0489" stroke="#828283" stroke-width="0.566089"/>
        <path d="M12.1416 46.4998L35.9151 51.0571L35.8594 51.0489" stroke="url(#paint54_linear_552_180142)" stroke-width="0.566089"/>
        <path fill-rule="evenodd" clip-rule="evenodd" d="M34.2002 40.7356L35.6365 51.5421L37.3111 51.7836L35.453 40.8203L34.2002 40.7356Z" fill="#0857A4"/>
        <path fill-rule="evenodd" clip-rule="evenodd" d="M43.4333 57.4565C41.9625 57.6775 18.4507 52.7651 5.25142 49.8737C4.37492 49.5382 3.87003 47.8181 3.78222 46.802C3.70226 46.0243 4.62423 45.1384 5.13696 44.9753C5.23417 45.2435 5.33296 45.51 5.43174 45.7766C18.2249 48.2022 40.7708 53.2464 43.8111 53.0536C44.5214 53.0771 44.8115 52.4499 45.1847 52.5471C46.3419 52.8403 46.7276 54.6388 46.8483 55.8602C46.8938 56.9265 44.0667 57.6728 43.4333 57.4565Z" fill="url(#paint55_linear_552_180142)"/>
        <path fill-rule="evenodd" clip-rule="evenodd" d="M43.4333 57.4565C41.9625 57.6775 18.4507 52.7651 5.25142 49.8737C4.37492 49.5382 3.87003 47.8181 3.78222 46.802C3.70226 46.0243 4.62423 45.1384 5.13696 44.9753C5.23417 45.2435 5.33296 45.51 5.43174 45.7766C18.2249 48.2022 40.7708 53.2464 43.8111 53.0536C44.5214 53.0771 44.8115 52.4499 45.1847 52.5471C46.3419 52.8403 46.7276 54.6388 46.8483 55.8602C46.8938 56.9265 44.0667 57.6728 43.4333 57.4565Z" fill="url(#paint56_linear_552_180142)"/>
        <path d="M95.3148 13.6157C98.9086 15.2825 98.8521 24.7797 93.7139 35.1801" stroke="#144AAA" stroke-width="0.109688"/>
        <path fill-rule="evenodd" clip-rule="evenodd" d="M60.7371 23.5787C55.0767 28.8299 43.977 31.7981 35.4033 38.6595C39.8877 39.2758 35.143 38.6595 39.7451 39.6944C42.0578 40.8296 42.812 40.6462 43.4204 43.895C47.2212 44.3027 109.647 18.7258 113.032 10.3042C113.117 8.46811 112.965 8.51358 111.833 7.6167C83.9275 16.3786 76.0438 25.1671 60.7371 23.5787Z" fill="url(#paint57_linear_552_180142)"/>
        <path fill-rule="evenodd" clip-rule="evenodd" d="M80.8739 22.9703C81.0333 23.7811 80.728 24.6487 80.0252 25.3823C79.3224 26.1159 78.2797 26.6554 77.1264 26.8821C75.9731 27.1088 74.8038 27.0041 73.8756 26.5911C72.9474 26.1781 72.3364 25.4906 72.1771 24.6798C72.0177 23.8691 72.323 23.0014 73.0258 22.2678C73.7286 21.5342 74.7713 20.9948 75.9246 20.7681C77.0779 20.5414 78.2472 20.646 79.1754 21.059C80.1036 21.4721 80.7146 22.1596 80.8739 22.9703Z" fill="url(#paint58_radial_552_180142)"/>
        <path d="M95.3052 13.6707C98.8974 15.3374 98.7955 24.8911 93.6572 35.2899" stroke="url(#paint59_linear_552_180142)" stroke-width="0.109688"/>
        <path d="M70.7783 23.2478C76.8746 25.4242 71.636 43.7303 69.9395 46.9055" stroke="#144AAA" stroke-width="0.109688"/>
        <path d="M70.7783 23.2478C76.8746 25.4242 71.636 43.7303 69.9395 46.9055" stroke="url(#paint60_linear_552_180142)" stroke-width="0.109688"/>
        <path fill-rule="evenodd" clip-rule="evenodd" d="M33.9961 17.7286C40.7557 21.1688 53.9141 22.9202 68.2894 23.48C70.0377 19.3797 72.2407 15.2575 73.989 11.1572C63.4882 10.4093 48.7884 8.63592 44.2899 6.74023C40.7572 10.5912 37.5272 13.8777 33.9961 17.7286Z" fill="url(#paint61_linear_552_180142)" stroke="black" stroke-width="0.109688"/>
        <path fill-rule="evenodd" clip-rule="evenodd" d="M33.9961 17.7286C40.7557 21.1688 53.9141 22.9202 68.2894 23.48C70.0377 19.3797 72.2407 15.2575 73.989 11.1572C63.4882 10.4093 48.7884 8.63592 44.2899 6.74023C40.7572 10.5912 37.5272 13.8777 33.9961 17.7286Z" fill="url(#paint62_radial_552_180142)" stroke="#878786" stroke-width="0.109688"/>
        <path fill-rule="evenodd" clip-rule="evenodd" d="M72.8864 24.1417C72.7108 23.8642 72.9005 23.4314 73.2188 23.2479C74.9687 22.743 78.2238 21.6298 78.517 22.0108C78.6801 22.5329 74.7695 24.079 73.8585 24.4819C73.4587 24.5807 73.004 24.4788 72.8864 24.1417Z" fill="#747474"/>
        <path fill-rule="evenodd" clip-rule="evenodd" d="M72.8864 24.1417C72.7108 23.8642 72.9005 23.4314 73.2188 23.2479C74.9687 22.743 78.2238 21.6298 78.517 22.0108C78.6801 22.5329 74.7695 24.079 73.8585 24.4819C73.4587 24.5807 73.004 24.4788 72.8864 24.1417Z" fill="url(#paint63_linear_552_180142)"/>
        <path fill-rule="evenodd" clip-rule="evenodd" d="M72.8864 24.1417C72.7108 23.8642 72.9005 23.4314 73.2188 23.2479C74.9687 22.743 78.2238 21.6298 78.517 22.0108C78.6801 22.5329 74.7695 24.079 73.8585 24.4819C73.4587 24.5807 73.004 24.4788 72.8864 24.1417Z" fill="url(#paint64_radial_552_180142)"/>
        <path fill-rule="evenodd" clip-rule="evenodd" d="M72.8864 24.1417C72.7108 23.8642 72.9005 23.4314 73.2188 23.2479C74.9687 22.743 78.2238 21.6298 78.517 22.0108C78.6801 22.5329 74.7695 24.079 73.8585 24.4819C73.4587 24.5807 73.004 24.4788 72.8864 24.1417Z" fill="url(#paint65_linear_552_180142)"/>
        <path fill-rule="evenodd" clip-rule="evenodd" d="M78.1893 22.057C78.1377 22.5224 77.9275 22.951 77.605 23.2483C77.2825 23.5457 76.8741 23.6876 76.4696 23.6427C76.0652 23.5978 75.6978 23.3699 75.4483 23.0091C75.1988 22.6483 75.0877 22.1841 75.1393 21.7187C75.1909 21.2533 75.4011 20.8248 75.7236 20.5274C76.0461 20.23 76.4545 20.0882 76.859 20.133C77.2634 20.1779 77.6308 20.4058 77.8803 20.7666C78.1298 21.1275 78.2409 21.5916 78.1893 22.057Z" fill="#A5A3AE"/>
        <path fill-rule="evenodd" clip-rule="evenodd" d="M78.1893 22.057C78.1377 22.5224 77.9275 22.951 77.605 23.2483C77.2825 23.5457 76.8741 23.6876 76.4696 23.6427C76.0652 23.5978 75.6978 23.3699 75.4483 23.0091C75.1988 22.6483 75.0877 22.1841 75.1393 21.7187C75.1909 21.2533 75.4011 20.8248 75.7236 20.5274C76.0461 20.23 76.4545 20.0882 76.859 20.133C77.2634 20.1779 77.6308 20.4058 77.8803 20.7666C78.1298 21.1275 78.2409 21.5916 78.1893 22.057Z" fill="#A5A3AE"/>
        <path fill-rule="evenodd" clip-rule="evenodd" d="M78.1893 22.057C78.1377 22.5224 77.9275 22.951 77.605 23.2483C77.2825 23.5457 76.8741 23.6876 76.4696 23.6427C76.0652 23.5978 75.6978 23.3699 75.4483 23.0091C75.1988 22.6483 75.0877 22.1841 75.1393 21.7187C75.1909 21.2533 75.4011 20.8248 75.7236 20.5274C76.0461 20.23 76.4545 20.0882 76.859 20.133C77.2634 20.1779 77.6308 20.4058 77.8803 20.7666C78.1298 21.1275 78.2409 21.5916 78.1893 22.057Z" fill="#A5A3AE"/>
        <path fill-rule="evenodd" clip-rule="evenodd" d="M78.1893 22.057C78.1377 22.5224 77.9275 22.951 77.605 23.2483C77.2825 23.5457 76.8741 23.6876 76.4696 23.6427C76.0652 23.5978 75.6978 23.3699 75.4483 23.0091C75.1988 22.6483 75.0877 22.1841 75.1393 21.7187C75.1909 21.2533 75.4011 20.8248 75.7236 20.5274C76.0461 20.23 76.4545 20.0882 76.859 20.133C77.2634 20.1779 77.6308 20.4058 77.8803 20.7666C78.1298 21.1275 78.2409 21.5916 78.1893 22.057Z" fill="url(#paint66_linear_552_180142)"/>
        <path fill-rule="evenodd" clip-rule="evenodd" d="M78.1893 22.057C78.1377 22.5224 77.9275 22.951 77.605 23.2483C77.2825 23.5457 76.8741 23.6876 76.4696 23.6427C76.0652 23.5978 75.6978 23.3699 75.4483 23.0091C75.1988 22.6483 75.0877 22.1841 75.1393 21.7187C75.1909 21.2533 75.4011 20.8248 75.7236 20.5274C76.0461 20.23 76.4545 20.0882 76.859 20.133C77.2634 20.1779 77.6308 20.4058 77.8803 20.7666C78.1298 21.1275 78.2409 21.5916 78.1893 22.057Z" fill="url(#paint67_linear_552_180142)"/>
        <path fill-rule="evenodd" clip-rule="evenodd" d="M78.1893 22.057C78.1377 22.5224 77.9275 22.951 77.605 23.2483C77.2825 23.5457 76.8741 23.6876 76.4696 23.6427C76.0652 23.5978 75.6978 23.3699 75.4483 23.0091C75.1988 22.6483 75.0877 22.1841 75.1393 21.7187C75.1909 21.2533 75.4011 20.8248 75.7236 20.5274C76.0461 20.23 76.4545 20.0882 76.859 20.133C77.2634 20.1779 77.6308 20.4058 77.8803 20.7666C78.1298 21.1275 78.2409 21.5916 78.1893 22.057Z" fill="url(#paint68_linear_552_180142)"/>
        <path fill-rule="evenodd" clip-rule="evenodd" d="M78.1893 22.057C78.1377 22.5224 77.9275 22.951 77.605 23.2483C77.2825 23.5457 76.8741 23.6876 76.4696 23.6427C76.0652 23.5978 75.6978 23.3699 75.4483 23.0091C75.1988 22.6483 75.0877 22.1841 75.1393 21.7187C75.1909 21.2533 75.4011 20.8248 75.7236 20.5274C76.0461 20.23 76.4545 20.0882 76.859 20.133C77.2634 20.1779 77.6308 20.4058 77.8803 20.7666C78.1298 21.1275 78.2409 21.5916 78.1893 22.057Z" fill="url(#paint69_linear_552_180142)"/>
        <path fill-rule="evenodd" clip-rule="evenodd" d="M78.1893 22.057C78.1377 22.5224 77.9275 22.951 77.605 23.2483C77.2825 23.5457 76.8741 23.6876 76.4696 23.6427C76.0652 23.5978 75.6978 23.3699 75.4483 23.0091C75.1988 22.6483 75.0877 22.1841 75.1393 21.7187C75.1909 21.2533 75.4011 20.8248 75.7236 20.5274C76.0461 20.23 76.4545 20.0882 76.859 20.133C77.2634 20.1779 77.6308 20.4058 77.8803 20.7666C78.1298 21.1275 78.2409 21.5916 78.1893 22.057Z" fill="url(#paint70_linear_552_180142)"/>
        <path fill-rule="evenodd" clip-rule="evenodd" d="M78.1893 22.057C78.1377 22.5224 77.9275 22.951 77.605 23.2483C77.2825 23.5457 76.8741 23.6876 76.4696 23.6427C76.0652 23.5978 75.6978 23.3699 75.4483 23.0091C75.1988 22.6483 75.0877 22.1841 75.1393 21.7187C75.1909 21.2533 75.4011 20.8248 75.7236 20.5274C76.0461 20.23 76.4545 20.0882 76.859 20.133C77.2634 20.1779 77.6308 20.4058 77.8803 20.7666C78.1298 21.1275 78.2409 21.5916 78.1893 22.057Z" fill="url(#paint71_linear_552_180142)"/>
        <path fill-rule="evenodd" clip-rule="evenodd" d="M77.8221 22.0915C77.7705 22.5569 77.5603 22.9854 77.2378 23.2828C76.9153 23.5801 76.5069 23.722 76.1025 23.6771C75.698 23.6323 75.3306 23.4044 75.0811 23.0435C74.8317 22.6827 74.7205 22.2185 74.7721 21.7531C74.8238 21.2877 75.0339 20.8592 75.3564 20.5618C75.6789 20.2644 76.0873 20.1226 76.4918 20.1675C76.8962 20.2123 77.2636 20.4402 77.5131 20.8011C77.7626 21.1619 77.8737 21.6261 77.8221 22.0915Z" fill="#676767"/>
        <path fill-rule="evenodd" clip-rule="evenodd" d="M77.8221 22.0915C77.7705 22.5569 77.5603 22.9854 77.2378 23.2828C76.9153 23.5801 76.5069 23.722 76.1025 23.6771C75.698 23.6323 75.3306 23.4044 75.0811 23.0435C74.8317 22.6827 74.7205 22.2185 74.7721 21.7531C74.8238 21.2877 75.0339 20.8592 75.3564 20.5618C75.6789 20.2644 76.0873 20.1226 76.4918 20.1675C76.8962 20.2123 77.2636 20.4402 77.5131 20.8011C77.7626 21.1619 77.8737 21.6261 77.8221 22.0915Z" fill="url(#paint72_radial_552_180142)"/>
        <path fill-rule="evenodd" clip-rule="evenodd" d="M77.8221 22.0915C77.7705 22.5569 77.5603 22.9854 77.2378 23.2828C76.9153 23.5801 76.5069 23.722 76.1025 23.6771C75.698 23.6323 75.3306 23.4044 75.0811 23.0435C74.8317 22.6827 74.7205 22.2185 74.7721 21.7531C74.8238 21.2877 75.0339 20.8592 75.3564 20.5618C75.6789 20.2644 76.0873 20.1226 76.4918 20.1675C76.8962 20.2123 77.2636 20.4402 77.5131 20.8011C77.7626 21.1619 77.8737 21.6261 77.8221 22.0915Z" fill="url(#paint73_linear_552_180142)"/>
        <path fill-rule="evenodd" clip-rule="evenodd" d="M74.0535 23.5676C74.0017 23.7197 74.0284 23.8311 74.1789 23.9565C74.6571 23.5049 75.1338 23.0533 75.6105 22.6018C75.6528 22.4277 75.4458 22.3164 75.2059 22.4026C74.8249 22.7993 74.4345 23.1694 74.0535 23.5676Z" fill="#636566"/>
        <path fill-rule="evenodd" clip-rule="evenodd" d="M74.0503 23.5677C73.9798 23.7339 73.9672 23.8154 74.1758 23.9565C74.654 23.5049 75.1307 23.0534 75.6073 22.6018C75.6497 22.4277 75.3753 22.249 75.2028 22.4026C74.8218 22.7993 74.4313 23.1694 74.0503 23.5677Z" fill="url(#paint74_linear_552_180142)"/>
        <path d="M96.7149 16.995L93.025 18.3996" stroke="#5B5958" stroke-width="0.943166"/>
        <path fill-rule="evenodd" clip-rule="evenodd" d="M96.7149 16.995L93.025 18.3996L96.7149 16.995Z" fill="black"/>
        <path d="M96.7149 16.995L93.025 18.3996" stroke="url(#paint75_linear_552_180142)" stroke-width="0.943166"/>
        <path fill-rule="evenodd" clip-rule="evenodd" d="M96.7168 17.0522L93.0275 18.3445L96.7168 17.0522Z" fill="#9E9EB1"/>
        <path d="M96.7168 17.0522L93.0275 18.3445" stroke="url(#paint76_radial_552_180142)" stroke-width="0.943166"/>
        <path d="M42.0166 44.7164C42.2037 45.7826 42.0893 46.8568 41.6984 47.7025C41.3075 48.5483 40.6722 49.0963 39.9323 49.2261C39.1924 49.3559 38.4085 49.0569 37.753 48.3947C37.0975 47.7326 36.6241 46.7616 36.437 45.6953C36.2499 44.6291 36.3643 43.5549 36.7552 42.7092C37.1461 41.8635 37.7814 41.3154 38.5213 41.1856C39.2612 41.0558 40.0451 41.3548 40.7006 42.017C41.3561 42.6792 41.8295 43.6502 42.0166 44.7164Z" fill="#827F7C" stroke="url(#paint77_linear_552_180142)" stroke-width="0.355334"/>
        <path d="M42.0166 44.7164C42.2037 45.7826 42.0893 46.8568 41.6984 47.7025C41.3075 48.5483 40.6722 49.0963 39.9323 49.2261C39.1924 49.3559 38.4085 49.0569 37.753 48.3947C37.0975 47.7326 36.6241 46.7616 36.437 45.6953C36.2499 44.6291 36.3643 43.5549 36.7552 42.7092C37.1461 41.8635 37.7814 41.3154 38.5213 41.1856C39.2612 41.0558 40.0451 41.3548 40.7006 42.017C41.3561 42.6792 41.8295 43.6502 42.0166 44.7164Z" fill="url(#paint78_radial_552_180142)" stroke="url(#paint79_linear_552_180142)" stroke-width="0.355334"/>
        <path fill-rule="evenodd" clip-rule="evenodd" d="M43.4333 57.4565C41.9625 57.6775 18.4507 52.7651 5.25142 49.8737C4.37492 49.5382 3.87003 47.8181 3.78222 46.802C3.70226 46.0243 4.62423 45.1384 5.13696 44.9753C5.23417 45.2435 5.33296 45.51 5.43174 45.7766C18.2249 48.2022 40.7708 53.2464 43.8111 53.0536C44.5214 53.0771 44.8115 52.4499 45.1847 52.5471C46.3419 52.8403 46.7276 54.6388 46.8483 55.8602C46.8938 56.9265 44.0667 57.6728 43.4333 57.4565Z" fill="url(#paint80_radial_552_180142)"/>
        <path d="M8.28209 48.0959C8.27847 48.2217 8.24033 48.3413 8.17607 48.4284C8.11181 48.5156 8.02668 48.5631 7.93942 48.5606C7.85216 48.5581 7.76991 48.5057 7.71076 48.415C7.65162 48.3243 7.62043 48.2027 7.62405 48.077C7.62767 47.9512 7.6658 47.8316 7.73007 47.7444C7.79433 47.6573 7.87946 47.6097 7.96672 47.6123C8.05398 47.6148 8.13623 47.6671 8.19537 47.7578C8.25452 47.8485 8.28571 47.9701 8.28209 48.0959Z" fill="#827F7C" stroke="url(#paint81_linear_552_180142)" stroke-width="0.0412953"/>
        <path d="M8.28209 48.0959C8.27847 48.2217 8.24033 48.3413 8.17607 48.4284C8.11181 48.5156 8.02668 48.5631 7.93942 48.5606C7.85216 48.5581 7.76991 48.5057 7.71076 48.415C7.65162 48.3243 7.62043 48.2027 7.62405 48.077C7.62767 47.9512 7.6658 47.8316 7.73007 47.7444C7.79433 47.6573 7.87946 47.6097 7.96672 47.6123C8.05398 47.6148 8.13623 47.6671 8.19537 47.7578C8.25452 47.8485 8.28571 47.9701 8.28209 48.0959Z" fill="url(#paint82_radial_552_180142)" stroke="url(#paint83_linear_552_180142)" stroke-width="0.0412953"/>
        <path d="M8.31932 49.5641C8.38802 49.6695 8.42484 49.7895 8.4217 49.8978C8.41856 50.006 8.37571 50.0936 8.30257 50.1412C8.22944 50.1889 8.13201 50.1928 8.03172 50.1519C7.93143 50.1111 7.83649 50.0289 7.7678 49.9235C7.69911 49.8181 7.66228 49.6981 7.66542 49.5899C7.66856 49.4817 7.71141 49.3941 7.78455 49.3464C7.85769 49.2987 7.95512 49.2949 8.05541 49.3357C8.1557 49.3765 8.25063 49.4587 8.31932 49.5641Z" fill="#827F7C" stroke="url(#paint84_linear_552_180142)" stroke-width="0.0412951"/>
        <path d="M8.31932 49.5641C8.38802 49.6695 8.42484 49.7895 8.4217 49.8978C8.41856 50.006 8.37571 50.0936 8.30257 50.1412C8.22944 50.1889 8.13201 50.1928 8.03172 50.1519C7.93143 50.1111 7.83649 50.0289 7.7678 49.9235C7.69911 49.8181 7.66228 49.6981 7.66542 49.5899C7.66856 49.4817 7.71141 49.3941 7.78455 49.3464C7.85769 49.2987 7.95512 49.2949 8.05541 49.3357C8.1557 49.3765 8.25063 49.4587 8.31932 49.5641Z" fill="url(#paint85_radial_552_180142)" stroke="url(#paint86_linear_552_180142)" stroke-width="0.0412951"/>
        <path fill-rule="evenodd" clip-rule="evenodd" d="M10.2266 36.3828L10.5072 46.5919L12.1442 47.0059L11.4621 36.6023L10.2266 36.3828Z" fill="#0857A4"/>
        <path d="M10.4063 39.38C10.5611 40.2623 10.4663 41.1511 10.1429 41.8509C9.81953 42.5507 9.29392 43.0042 8.68174 43.1117C8.06955 43.2191 7.42094 42.9716 6.8786 42.4237C6.33625 41.8758 5.94459 41.0724 5.78978 40.1901C5.63496 39.3078 5.72968 38.419 6.05309 37.7192C6.3765 37.0194 6.90211 36.5659 7.51429 36.4585C8.12647 36.3511 8.77508 36.5985 9.31743 37.1464C9.85978 37.6943 10.2514 38.4978 10.4063 39.38Z" fill="#827F7C" stroke="url(#paint87_linear_552_180142)" stroke-width="0.294009"/>
        <path d="M10.4063 39.38C10.5611 40.2623 10.4663 41.1511 10.1429 41.8509C9.81953 42.5507 9.29392 43.0042 8.68174 43.1117C8.06955 43.2191 7.42094 42.9716 6.8786 42.4237C6.33625 41.8758 5.94459 41.0724 5.78978 40.1901C5.63496 39.3078 5.72968 38.419 6.05309 37.7192C6.3765 37.0194 6.90211 36.5659 7.51429 36.4585C8.12647 36.3511 8.77508 36.5985 9.31743 37.1464C9.85978 37.6943 10.2514 38.4978 10.4063 39.38Z" fill="url(#paint88_radial_552_180142)" stroke="url(#paint89_linear_552_180142)" stroke-width="0.294009"/>
        <path fill-rule="evenodd" clip-rule="evenodd" d="M18.5975 29.8559C18.8888 30.5494 18.7779 31.3801 18.2891 32.1653C17.8004 32.9506 16.9738 33.6261 15.9913 34.0432C15.0088 34.4603 13.9508 34.5848 13.05 34.3894C12.1493 34.194 11.4796 33.6947 11.1883 33.0013C10.8969 32.3079 11.0079 31.4771 11.4966 30.6919C11.9854 29.9066 12.8119 29.2311 13.7945 28.8141C14.777 28.397 15.835 28.2724 16.7358 28.4678C17.6365 28.6632 18.3062 29.1625 18.5975 29.8559Z" fill="url(#paint90_radial_552_180142)"/>
        <path fill-rule="evenodd" clip-rule="evenodd" d="M14.175 31.9393C14.2103 32.0404 14.1466 32.1714 13.9979 32.3035C13.8492 32.4355 13.6277 32.5578 13.3822 32.6434C13.1366 32.7291 12.8871 32.771 12.6886 32.7601C12.49 32.7491 12.3586 32.6862 12.3234 32.5851C12.2881 32.484 12.3518 32.353 12.5005 32.2209C12.6492 32.0889 12.8707 31.9666 13.1163 31.881C13.3618 31.7954 13.6113 31.7534 13.8099 31.7643C14.0084 31.7753 14.1398 31.8382 14.175 31.9393Z" fill="#888896"/>
        <path fill-rule="evenodd" clip-rule="evenodd" d="M14.175 31.9393C14.2103 32.0404 14.1466 32.1714 13.9979 32.3035C13.8492 32.4355 13.6277 32.5578 13.3822 32.6434C13.1366 32.7291 12.8871 32.771 12.6886 32.7601C12.49 32.7491 12.3586 32.6862 12.3234 32.5851C12.2881 32.484 12.3518 32.353 12.5005 32.2209C12.6492 32.0889 12.8707 31.9666 13.1163 31.881C13.3618 31.7954 13.6113 31.7534 13.8099 31.7643C14.0084 31.7753 14.1398 31.8382 14.175 31.9393Z" fill="url(#paint91_linear_552_180142)"/>
        <path fill-rule="evenodd" clip-rule="evenodd" d="M14.175 31.9393C14.2103 32.0404 14.1466 32.1714 13.9979 32.3035C13.8492 32.4355 13.6277 32.5578 13.3822 32.6434C13.1366 32.7291 12.8871 32.771 12.6886 32.7601C12.49 32.7491 12.3586 32.6862 12.3234 32.5851C12.2881 32.484 12.3518 32.353 12.5005 32.2209C12.6492 32.0889 12.8707 31.9666 13.1163 31.881C13.3618 31.7954 13.6113 31.7534 13.8099 31.7643C14.0084 31.7753 14.1398 31.8382 14.175 31.9393Z" fill="url(#paint92_linear_552_180142)"/>
        <path fill-rule="evenodd" clip-rule="evenodd" d="M13.0929 31.2038C13.1018 31.2294 13.0857 31.2625 13.0481 31.296C13.0105 31.3294 12.9544 31.3603 12.8923 31.382C12.8302 31.4036 12.7671 31.4142 12.7168 31.4115C12.6666 31.4087 12.6334 31.3928 12.6245 31.3672C12.6155 31.3416 12.6317 31.3085 12.6693 31.2751C12.7069 31.2417 12.7629 31.2107 12.8251 31.1891C12.8872 31.1674 12.9503 31.1568 13.0005 31.1596C13.0508 31.1623 13.084 31.1782 13.0929 31.2038Z" fill="#888896"/>
        <path fill-rule="evenodd" clip-rule="evenodd" d="M13.0929 31.2038C13.1018 31.2294 13.0857 31.2625 13.0481 31.296C13.0105 31.3294 12.9544 31.3603 12.8923 31.382C12.8302 31.4036 12.7671 31.4142 12.7168 31.4115C12.6666 31.4087 12.6334 31.3928 12.6245 31.3672C12.6155 31.3416 12.6317 31.3085 12.6693 31.2751C12.7069 31.2417 12.7629 31.2107 12.8251 31.1891C12.8872 31.1674 12.9503 31.1568 13.0005 31.1596C13.0508 31.1623 13.084 31.1782 13.0929 31.2038Z" fill="url(#paint93_linear_552_180142)"/>
        <path fill-rule="evenodd" clip-rule="evenodd" d="M13.0929 31.2038C13.1018 31.2294 13.0857 31.2625 13.0481 31.296C13.0105 31.3294 12.9544 31.3603 12.8923 31.382C12.8302 31.4036 12.7671 31.4142 12.7168 31.4115C12.6666 31.4087 12.6334 31.3928 12.6245 31.3672C12.6155 31.3416 12.6317 31.3085 12.6693 31.2751C12.7069 31.2417 12.7629 31.2107 12.8251 31.1891C12.8872 31.1674 12.9503 31.1568 13.0005 31.1596C13.0508 31.1623 13.084 31.1782 13.0929 31.2038Z" fill="url(#paint94_linear_552_180142)"/>
        <path fill-rule="evenodd" clip-rule="evenodd" d="M12.6318 31.385C12.8217 31.4432 13.064 31.3408 13.0953 31.2046C13.2122 31.5039 13.3291 31.8032 13.446 32.1025C13.3696 32.281 13.1605 32.3445 12.9955 32.2915C12.8742 31.9895 12.753 31.6873 12.6318 31.385Z" fill="#888896"/>
        <path fill-rule="evenodd" clip-rule="evenodd" d="M12.6318 31.385C12.8217 31.4432 13.064 31.3408 13.0953 31.2046C13.2122 31.5039 13.3291 31.8032 13.446 32.1025C13.3696 32.281 13.1605 32.3445 12.9955 32.2915C12.8742 31.9895 12.753 31.6873 12.6318 31.385Z" fill="url(#paint95_linear_552_180142)"/>
        <path fill-rule="evenodd" clip-rule="evenodd" d="M44.2982 33.7459C44.7029 34.2286 44.7134 34.9206 44.3271 35.6698C43.9409 36.419 43.1896 37.164 42.2387 37.7409C41.2877 38.3177 40.2148 38.6792 39.2562 38.7458C38.2975 38.8125 37.5315 38.5787 37.1268 38.096C36.722 37.6134 36.7116 36.9213 37.0978 36.1721C37.4841 35.4229 38.2353 34.6779 39.1863 34.1011C40.1373 33.5242 41.2101 33.1627 42.1688 33.0961C43.1274 33.0295 43.8934 33.2632 44.2982 33.7459Z" fill="url(#paint96_radial_552_180142)"/>
        <path fill-rule="evenodd" clip-rule="evenodd" d="M40.457 35.9707C40.4951 36.0801 40.4262 36.2217 40.2654 36.3646C40.1046 36.5074 39.865 36.6396 39.5994 36.7322C39.3339 36.8249 39.064 36.8702 38.8493 36.8584C38.6345 36.8466 38.4925 36.7785 38.4543 36.6691C38.4162 36.5598 38.4851 36.4181 38.6459 36.2753C38.8068 36.1325 39.0463 36.0002 39.3119 35.9076C39.5774 35.815 39.8473 35.7696 40.062 35.7815C40.2768 35.7933 40.4188 35.8614 40.457 35.9707Z" fill="#888896"/>
        <path fill-rule="evenodd" clip-rule="evenodd" d="M40.457 35.9707C40.4951 36.0801 40.4262 36.2217 40.2654 36.3646C40.1046 36.5074 39.865 36.6396 39.5994 36.7322C39.3339 36.8249 39.064 36.8702 38.8493 36.8584C38.6345 36.8466 38.4925 36.7785 38.4543 36.6691C38.4162 36.5598 38.4851 36.4181 38.6459 36.2753C38.8068 36.1325 39.0463 36.0002 39.3119 35.9076C39.5774 35.815 39.8473 35.7696 40.062 35.7815C40.2768 35.7933 40.4188 35.8614 40.457 35.9707Z" fill="url(#paint97_linear_552_180142)"/>
        <path fill-rule="evenodd" clip-rule="evenodd" d="M40.457 35.9707C40.4951 36.0801 40.4262 36.2217 40.2654 36.3646C40.1046 36.5074 39.865 36.6396 39.5994 36.7322C39.3339 36.8249 39.064 36.8702 38.8493 36.8584C38.6345 36.8466 38.4925 36.7785 38.4543 36.6691C38.4162 36.5598 38.4851 36.4181 38.6459 36.2753C38.8068 36.1325 39.0463 36.0002 39.3119 35.9076C39.5774 35.815 39.8473 35.7696 40.062 35.7815C40.2768 35.7933 40.4188 35.8614 40.457 35.9707Z" fill="url(#paint98_linear_552_180142)"/>
        <path fill-rule="evenodd" clip-rule="evenodd" d="M39.2696 35.1757C39.2792 35.2033 39.2618 35.2392 39.2211 35.2753C39.1804 35.3114 39.1198 35.3449 39.0526 35.3683C38.9855 35.3918 38.9172 35.4032 38.8629 35.4002C38.8085 35.3972 38.7726 35.38 38.7629 35.3524C38.7533 35.3247 38.7707 35.2889 38.8114 35.2527C38.8521 35.2166 38.9127 35.1831 38.9799 35.1597C39.0471 35.1363 39.1153 35.1248 39.1697 35.1278C39.224 35.1308 39.26 35.148 39.2696 35.1757Z" fill="#888896"/>
        <path fill-rule="evenodd" clip-rule="evenodd" d="M39.2696 35.1757C39.2792 35.2033 39.2618 35.2392 39.2211 35.2753C39.1804 35.3114 39.1198 35.3449 39.0526 35.3683C38.9855 35.3918 38.9172 35.4032 38.8629 35.4002C38.8085 35.3972 38.7726 35.38 38.7629 35.3524C38.7533 35.3247 38.7707 35.2889 38.8114 35.2527C38.8521 35.2166 38.9127 35.1831 38.9799 35.1597C39.0471 35.1363 39.1153 35.1248 39.1697 35.1278C39.224 35.1308 39.26 35.148 39.2696 35.1757Z" fill="url(#paint99_linear_552_180142)"/>
        <path fill-rule="evenodd" clip-rule="evenodd" d="M39.2696 35.1757C39.2792 35.2033 39.2618 35.2392 39.2211 35.2753C39.1804 35.3114 39.1198 35.3449 39.0526 35.3683C38.9855 35.3918 38.9172 35.4032 38.8629 35.4002C38.8085 35.3972 38.7726 35.38 38.7629 35.3524C38.7533 35.3247 38.7707 35.2889 38.8114 35.2527C38.8521 35.2166 38.9127 35.1831 38.9799 35.1597C39.0471 35.1363 39.1153 35.1248 39.1697 35.1278C39.224 35.1308 39.26 35.148 39.2696 35.1757Z" fill="url(#paint100_linear_552_180142)"/>
        <path fill-rule="evenodd" clip-rule="evenodd" d="M38.7499 35.3715C38.9552 35.4344 39.2173 35.3237 39.2511 35.1763C39.3775 35.5 39.504 35.8237 39.6304 36.1474C39.5478 36.3405 39.3217 36.4091 39.1432 36.3519C39.0121 36.0253 38.881 35.6984 38.7499 35.3715Z" fill="#888896"/>
        <path fill-rule="evenodd" clip-rule="evenodd" d="M38.7499 35.3715C38.9552 35.4344 39.2173 35.3237 39.2511 35.1763C39.3775 35.5 39.504 35.8237 39.6304 36.1474C39.5478 36.3405 39.3217 36.4091 39.1432 36.3519C39.0121 36.0253 38.881 35.6984 38.7499 35.3715Z" fill="url(#paint101_linear_552_180142)"/>
        <path d="M38.2811 39.1254C43.2249 34.9122 56.3803 29.4384 65.4291 24.5949C48.498 23.0536 41.4421 22.0627 33.3953 18.7903C24.7698 22.8529 8.93794 32.4019 7.13477 34.4277C10.2331 34.4873 27.3538 36.8769 38.2811 39.1254V39.1254Z" stroke="#002C95" stroke-width="0.109688"/>
        <path d="M38.2811 39.1254C43.2249 34.9122 56.3803 29.4384 65.4291 24.5949C48.498 23.0536 41.4421 22.0627 33.3953 18.7903C24.7698 22.8529 8.93794 32.4019 7.13477 34.4277C10.2331 34.4873 27.3538 36.8769 38.2811 39.1254V39.1254Z" stroke="url(#paint102_linear_552_180142)" stroke-width="0.109688"/>
        <path fill-rule="evenodd" clip-rule="evenodd" d="M4.20117 35.1158C8.0976 33.5322 12.6918 35.1974 24.4406 36.7685C34.032 38.3537 42.5931 39.318 42.7734 41.8895C43.087 43.63 43.708 47.5609 43.9024 51.5279C31.6408 49.4911 17.6199 46.9211 5.35834 44.8843C4.55553 41.5822 4.37835 38.349 4.20117 35.1158Z" fill="url(#paint103_linear_552_180142)"/>
    </g>
    <defs>
        <radialGradient id="paint0_radial_552_180142" cx="0" cy="0" r="1" gradientUnits="userSpaceOnUse" gradientTransform="translate(28.986 53.0296) rotate(-10.8294) scale(26.002 8.75016)">
            <stop stop-color="#222223"/>
            <stop offset="1" stop-color="#222223" stop-opacity="0"/>
        </radialGradient>
        <radialGradient id="paint1_radial_552_180142" cx="0" cy="0" r="1" gradientUnits="userSpaceOnUse" gradientTransform="translate(52.3918 55.4701) rotate(-15.614) scale(23.6475 6.52301)">
            <stop stop-color="#222223"/>
            <stop offset="1" stop-color="#222223" stop-opacity="0"/>
        </radialGradient>
        <radialGradient id="paint2_radial_552_180142" cx="0" cy="0" r="1" gradientUnits="userSpaceOnUse" gradientTransform="translate(53.4081 37.2651) rotate(-20.9951) scale(56.8973 28.3637)">
            <stop stop-color="#222223"/>
            <stop offset="1" stop-color="#222223" stop-opacity="0"/>
        </radialGradient>
        <radialGradient id="paint3_radial_552_180142" cx="0" cy="0" r="1" gradientUnits="userSpaceOnUse" gradientTransform="translate(68.2076 42.3227) rotate(-23.4536) scale(53.8388 13.9462)">
            <stop stop-color="#222223"/>
            <stop offset="1" stop-color="#222223" stop-opacity="0"/>
        </radialGradient>
        <radialGradient id="paint4_radial_552_180142" cx="0" cy="0" r="1" gradientUnits="userSpaceOnUse" gradientTransform="translate(98.5451 34.0453) rotate(-22.2602) scale(17.1793 7.2573)">
            <stop stop-color="#222223"/>
            <stop offset="1" stop-color="#222223" stop-opacity="0"/>
        </radialGradient>
        <linearGradient id="paint5_linear_552_180142" x1="33.9162" y1="16.4858" x2="34.1128" y2="15.8581" gradientUnits="userSpaceOnUse">
            <stop stop-color="#686868"/>
            <stop offset="1" stop-color="#686868" stop-opacity="0"/>
        </linearGradient>
        <linearGradient id="paint6_linear_552_180142" x1="33.9162" y1="16.4858" x2="34.1128" y2="15.8581" gradientUnits="userSpaceOnUse">
            <stop stop-color="#686868"/>
            <stop offset="1" stop-color="#686868" stop-opacity="0"/>
        </linearGradient>
        <linearGradient id="paint7_linear_552_180142" x1="33.9162" y1="16.4858" x2="34.1128" y2="15.8581" gradientUnits="userSpaceOnUse">
            <stop stop-color="#686868"/>
            <stop offset="1" stop-color="#686868" stop-opacity="0"/>
        </linearGradient>
        <linearGradient id="paint8_linear_552_180142" x1="33.959" y1="13.629" x2="34.2124" y2="15.4124" gradientUnits="userSpaceOnUse">
            <stop stop-color="#686868"/>
            <stop offset="1" stop-color="#686868" stop-opacity="0"/>
        </linearGradient>
        <linearGradient id="paint9_linear_552_180142" x1="33.959" y1="13.629" x2="34.2124" y2="15.4124" gradientUnits="userSpaceOnUse">
            <stop stop-color="#686868"/>
            <stop offset="1" stop-color="#686868" stop-opacity="0"/>
        </linearGradient>
        <linearGradient id="paint10_linear_552_180142" x1="33.959" y1="13.629" x2="34.2124" y2="15.4124" gradientUnits="userSpaceOnUse">
            <stop stop-color="#686868"/>
            <stop offset="1" stop-color="#686868" stop-opacity="0"/>
        </linearGradient>
        <radialGradient id="paint11_radial_552_180142" cx="0" cy="0" r="1" gradientUnits="userSpaceOnUse" gradientTransform="translate(33.0891 15.85) rotate(9.34763) scale(1.46711 1.74724)">
            <stop stop-color="#B5B5BE"/>
            <stop offset="1" stop-color="#B5B5BE" stop-opacity="0"/>
        </radialGradient>
        <linearGradient id="paint12_linear_552_180142" x1="31.9089" y1="16.2292" x2="33.1898" y2="16.3864" gradientUnits="userSpaceOnUse">
            <stop stop-color="#293145"/>
            <stop offset="1" stop-color="#293145" stop-opacity="0"/>
        </linearGradient>
        <linearGradient id="paint13_linear_552_180142" x1="34.1122" y1="17.0641" x2="33.9526" y2="17.1873" gradientUnits="userSpaceOnUse">
            <stop stop-color="#B5B5BE"/>
            <stop offset="1" stop-color="#B5B5BE" stop-opacity="0"/>
        </linearGradient>
        <linearGradient id="paint14_linear_552_180142" x1="56.2583" y1="48.1395" x2="71.5105" y2="50.0739" gradientUnits="userSpaceOnUse">
            <stop stop-color="#373B3B"/>
            <stop offset="1" stop-color="#373B3B" stop-opacity="0"/>
        </linearGradient>
        <linearGradient id="paint15_linear_552_180142" x1="66.6386" y1="48.8168" x2="67.9908" y2="41.708" gradientUnits="userSpaceOnUse">
            <stop stop-color="#9D9A99"/>
            <stop offset="1" stop-color="#9D9A99" stop-opacity="0"/>
        </linearGradient>
        <linearGradient id="paint16_linear_552_180142" x1="57.7278" y1="47.373" x2="53.9533" y2="73.6717" gradientUnits="userSpaceOnUse">
            <stop stop-color="#3C3E3C"/>
            <stop offset="1" stop-color="#3C3E3C" stop-opacity="0"/>
        </linearGradient>
        <radialGradient id="paint17_radial_552_180142" cx="0" cy="0" r="1" gradientUnits="userSpaceOnUse" gradientTransform="translate(63.4114 48.5362) rotate(6.3299) scale(2.76266 10.4512)">
            <stop stop-color="#848080"/>
            <stop offset="1" stop-color="#848080" stop-opacity="0"/>
        </radialGradient>
        <linearGradient id="paint18_linear_552_180142" x1="64.561" y1="50.1262" x2="64.6052" y2="49.7284" gradientUnits="userSpaceOnUse">
            <stop stop-color="#A6A4A1"/>
            <stop offset="1" stop-color="#A6A4A1" stop-opacity="0"/>
        </linearGradient>
        <radialGradient id="paint19_radial_552_180142" cx="0" cy="0" r="1" gradientUnits="userSpaceOnUse" gradientTransform="translate(64.9155 50.1623) rotate(6.3299) scale(0.184803 0.478228)">
            <stop stop-color="#A0A09D"/>
            <stop offset="1" stop-color="#A0A09D" stop-opacity="0"/>
        </radialGradient>
        <linearGradient id="paint20_linear_552_180142" x1="64.0323" y1="45.7138" x2="64.0785" y2="45.2971" gradientUnits="userSpaceOnUse">
            <stop stop-color="#A6A4A1"/>
            <stop offset="1" stop-color="#A6A4A1" stop-opacity="0"/>
        </linearGradient>
        <radialGradient id="paint21_radial_552_180142" cx="0" cy="0" r="1" gradientUnits="userSpaceOnUse" gradientTransform="translate(64.411 45.751) rotate(6.3299) scale(0.193582 0.500944)">
            <stop stop-color="#A0A09D"/>
            <stop offset="1" stop-color="#A0A09D" stop-opacity="0"/>
        </radialGradient>
        <linearGradient id="paint22_linear_552_180142" x1="64.9478" y1="47.5276" x2="64.9919" y2="47.1298" gradientUnits="userSpaceOnUse">
            <stop stop-color="#A6A4A1"/>
            <stop offset="1" stop-color="#A6A4A1" stop-opacity="0"/>
        </linearGradient>
        <radialGradient id="paint23_radial_552_180142" cx="0" cy="0" r="1" gradientUnits="userSpaceOnUse" gradientTransform="translate(65.3023 47.5632) rotate(6.3299) scale(0.184803 0.478228)">
            <stop stop-color="#A0A09D"/>
            <stop offset="1" stop-color="#A0A09D" stop-opacity="0"/>
        </radialGradient>
        <linearGradient id="paint24_linear_552_180142" x1="63.172" y1="50.5119" x2="63.2183" y2="50.0941" gradientUnits="userSpaceOnUse">
            <stop stop-color="#A6A4A1"/>
            <stop offset="1" stop-color="#A6A4A1" stop-opacity="0"/>
        </linearGradient>
        <radialGradient id="paint25_radial_552_180142" cx="0" cy="0" r="1" gradientUnits="userSpaceOnUse" gradientTransform="translate(63.5493 50.5498) rotate(6.3299) scale(0.194081 0.502235)">
            <stop stop-color="#A0A09D"/>
            <stop offset="1" stop-color="#A0A09D" stop-opacity="0"/>
        </radialGradient>
        <linearGradient id="paint26_linear_552_180142" x1="63.2316" y1="48.0914" x2="63.2821" y2="47.6369" gradientUnits="userSpaceOnUse">
            <stop stop-color="#A6A4A1"/>
            <stop offset="1" stop-color="#A6A4A1" stop-opacity="0"/>
        </linearGradient>
        <radialGradient id="paint27_radial_552_180142" cx="0" cy="0" r="1" gradientUnits="userSpaceOnUse" gradientTransform="translate(63.6345 48.1318) rotate(6.3299) scale(0.211156 0.546423)">
            <stop stop-color="#A0A09D"/>
            <stop offset="1" stop-color="#A0A09D" stop-opacity="0"/>
        </radialGradient>
        <linearGradient id="paint28_linear_552_180142" x1="97.6402" y1="27.563" x2="112.143" y2="29.4105" gradientUnits="userSpaceOnUse">
            <stop stop-color="#373B3B"/>
            <stop offset="1" stop-color="#373B3B" stop-opacity="0"/>
        </linearGradient>
        <linearGradient id="paint29_linear_552_180142" x1="106.732" y1="28.157" x2="107.663" y2="22.783" gradientUnits="userSpaceOnUse">
            <stop stop-color="#9D9A99"/>
            <stop offset="1" stop-color="#9D9A99" stop-opacity="0"/>
        </linearGradient>
        <linearGradient id="paint30_linear_552_180142" x1="98.9903" y1="26.8197" x2="95.549" y2="50.9836" gradientUnits="userSpaceOnUse">
            <stop stop-color="#3C3E3C"/>
            <stop offset="1" stop-color="#3C3E3C" stop-opacity="0"/>
        </linearGradient>
        <linearGradient id="paint31_linear_552_180142" x1="38.7956" y1="11.3444" x2="40.6164" y2="13.062" gradientUnits="userSpaceOnUse">
            <stop stop-color="#083486"/>
            <stop offset="1" stop-color="#083486" stop-opacity="0"/>
        </linearGradient>
        <linearGradient id="paint32_linear_552_180142" x1="32.5728" y1="39.2666" x2="32.9752" y2="35.6388" gradientUnits="userSpaceOnUse">
            <stop stop-color="#083585"/>
            <stop offset="1" stop-color="#083585" stop-opacity="0"/>
        </linearGradient>
        <radialGradient id="paint33_radial_552_180142" cx="0" cy="0" r="1" gradientUnits="userSpaceOnUse" gradientTransform="translate(36.0751 41.1912) rotate(6.33006) scale(28.4064 14.0834)">
            <stop stop-color="#000016"/>
            <stop offset="1" stop-color="#000016" stop-opacity="0"/>
        </radialGradient>
        <linearGradient id="paint34_linear_552_180142" x1="22.9484" y1="23.2846" x2="24.8248" y2="26.1854" gradientUnits="userSpaceOnUse">
            <stop stop-color="#4FBFA3"/>
            <stop offset="1" stop-color="#4FBFA3"/>
        </linearGradient>
        <linearGradient id="paint35_linear_552_180142" x1="23.2859" y1="43.5362" x2="23.3217" y2="43.3068" gradientUnits="userSpaceOnUse">
            <stop stop-color="#AEAEC0"/>
            <stop offset="1" stop-color="#AEAEC0" stop-opacity="0"/>
        </linearGradient>
        <radialGradient id="paint36_radial_552_180142" cx="0" cy="0" r="1" gradientUnits="userSpaceOnUse" gradientTransform="translate(90.9206 9.39361) rotate(6.32997) scale(17.7732 14.2817)">
            <stop stop-color="#C4D9E6"/>
            <stop offset="1" stop-color="#C4D9E6" stop-opacity="0"/>
        </radialGradient>
        <linearGradient id="paint37_linear_552_180142" x1="94.9019" y1="7.60162" x2="95.711" y2="0.719099" gradientUnits="userSpaceOnUse">
            <stop stop-color="#C0D0DB"/>
            <stop offset="1" stop-color="#C0D0DB" stop-opacity="0"/>
        </linearGradient>
        <linearGradient id="paint38_linear_552_180142" x1="103.974" y1="8.816" x2="103.848" y2="11.0795" gradientUnits="userSpaceOnUse">
            <stop stop-color="#C4D6E3"/>
            <stop offset="1" stop-color="#C4D6E3" stop-opacity="0"/>
        </linearGradient>
        <linearGradient id="paint39_linear_552_180142" x1="30.9339" y1="24.3505" x2="34.3838" y2="31.0911" gradientUnits="userSpaceOnUse">
            <stop stop-color="#083483"/>
            <stop offset="1" stop-color="#083483" stop-opacity="0"/>
        </linearGradient>
        <linearGradient id="paint40_linear_552_180142" x1="29.0182" y1="29.6235" x2="27.5442" y2="26.579" gradientUnits="userSpaceOnUse">
            <stop stop-color="#62625F"/>
            <stop offset="1" stop-color="#62625F" stop-opacity="0"/>
        </linearGradient>
        <linearGradient id="paint41_linear_552_180142" x1="47.2749" y1="27.8367" x2="112.3" y2="35.05" gradientUnits="userSpaceOnUse">
            <stop stop-color="#FDFDFA"/>
            <stop offset="1" stop-color="#FDFDFA" stop-opacity="0"/>
        </linearGradient>
        <linearGradient id="paint42_linear_552_180142" x1="81.3203" y1="31.3549" x2="76.8954" y2="22.5976" gradientUnits="userSpaceOnUse">
            <stop stop-color="#0877B6"/>
            <stop offset="1" stop-color="#0877B6" stop-opacity="0"/>
        </linearGradient>
        <linearGradient id="paint43_linear_552_180142" x1="61.637" y1="0.855395" x2="62.1731" y2="4.78058" gradientUnits="userSpaceOnUse">
            <stop stop-color="#083486"/>
            <stop offset="1" stop-color="#083486" stop-opacity="0"/>
        </linearGradient>
        <linearGradient id="paint44_linear_552_180142" x1="87.2409" y1="0.883819" x2="86.0879" y2="4.8996" gradientUnits="userSpaceOnUse">
            <stop stop-color="#083486"/>
            <stop offset="1" stop-color="#083486" stop-opacity="0"/>
        </linearGradient>
        <radialGradient id="paint45_radial_552_180142" cx="0" cy="0" r="1" gradientUnits="userSpaceOnUse" gradientTransform="translate(73.1746 8.28668) rotate(6.33016) scale(34.7536 7.54994)">
            <stop stop-color="#4FBFA3"/>
            <stop offset="1" stop-color="#439687"/>
        </radialGradient>
        <linearGradient id="paint46_linear_552_180142" x1="89.9571" y1="38.1728" x2="86.6091" y2="31.513" gradientUnits="userSpaceOnUse">
            <stop stop-color="#47BFA3"/>
            <stop offset="1" stop-color="#4FBFA3"/>
        </linearGradient>
        <linearGradient id="paint47_linear_552_180142" x1="103.987" y1="4.8505" x2="103.55" y2="7.21016" gradientUnits="userSpaceOnUse">
            <stop stop-color="#4A1FB8"/>
            <stop offset="1" stop-color="#684BAF"/>
        </linearGradient>
        <linearGradient id="paint48_linear_552_180142" x1="22.718" y1="39.8006" x2="22.7517" y2="39.571" gradientUnits="userSpaceOnUse">
            <stop stop-color="#AEAEC0"/>
            <stop offset="1" stop-color="#AEAEC0" stop-opacity="0"/>
        </linearGradient>
        <linearGradient id="paint49_linear_552_180142" x1="23.487" y1="44.8389" x2="23.5228" y2="44.6096" gradientUnits="userSpaceOnUse">
            <stop stop-color="#AEAEC0"/>
            <stop offset="1" stop-color="#AEAEC0" stop-opacity="0"/>
        </linearGradient>
        <linearGradient id="paint50_linear_552_180142" x1="22.8225" y1="40.9808" x2="22.8562" y2="40.7512" gradientUnits="userSpaceOnUse">
            <stop stop-color="#AEAEC0"/>
            <stop offset="1" stop-color="#AEAEC0" stop-opacity="0"/>
        </linearGradient>
        <linearGradient id="paint51_linear_552_180142" x1="23.689" y1="46.1396" x2="23.7266" y2="45.9105" gradientUnits="userSpaceOnUse">
            <stop stop-color="#AEAEC0"/>
            <stop offset="1" stop-color="#AEAEC0" stop-opacity="0"/>
        </linearGradient>
        <linearGradient id="paint52_linear_552_180142" x1="23.0783" y1="42.2891" x2="23.112" y2="42.0595" gradientUnits="userSpaceOnUse">
            <stop stop-color="#AEAEC0"/>
            <stop offset="1" stop-color="#AEAEC0" stop-opacity="0"/>
        </linearGradient>
        <linearGradient id="paint53_linear_552_180142" x1="23.8363" y1="47.4361" x2="23.876" y2="47.2074" gradientUnits="userSpaceOnUse">
            <stop stop-color="#AEAEC0"/>
            <stop offset="1" stop-color="#AEAEC0" stop-opacity="0"/>
        </linearGradient>
        <linearGradient id="paint54_linear_552_180142" x1="24.0326" y1="48.7371" x2="24.0752" y2="48.509" gradientUnits="userSpaceOnUse">
            <stop stop-color="#AEAEC0"/>
            <stop offset="1" stop-color="#AEAEC0" stop-opacity="0"/>
        </linearGradient>
        <linearGradient id="paint55_linear_552_180142" x1="25.3234" y1="51.1985" x2="24.8692" y2="53.4129" gradientUnits="userSpaceOnUse">
            <stop stop-color="#C4C2BE"/>
            <stop offset="1" stop-color="#C4C2BE" stop-opacity="0"/>
        </linearGradient>
        <linearGradient id="paint56_linear_552_180142" x1="3.42749" y1="52.5989" x2="6.95549" y2="52.9903" gradientUnits="userSpaceOnUse">
            <stop stop-color="#67677B"/>
            <stop offset="1" stop-color="#67677B" stop-opacity="0"/>
        </linearGradient>
        <linearGradient id="paint57_linear_552_180142" x1="53.6983" y1="33.7789" x2="51.3405" y2="29.3662" gradientUnits="userSpaceOnUse">
            <stop stop-color="#439687"/>
            <stop offset="1" stop-color="#4FBFA3"/>
        </linearGradient>
        <radialGradient id="paint58_radial_552_180142" cx="0" cy="0" r="1" gradientUnits="userSpaceOnUse" gradientTransform="translate(74.8988 24.3113) rotate(-11.1205) scale(3.23692 2.27565)">
            <stop stop-color="#083486"/>
            <stop offset="1" stop-color="#083486" stop-opacity="0"/>
        </radialGradient>
        <linearGradient id="paint59_linear_552_180142" x1="84.4756" y1="47.6079" x2="69.6145" y2="28.5414" gradientUnits="userSpaceOnUse">
            <stop stop-color="#143187"/>
            <stop offset="1" stop-color="#143187" stop-opacity="0"/>
        </linearGradient>
        <linearGradient id="paint60_linear_552_180142" x1="84.4766" y1="47.6079" x2="69.6155" y2="28.5413" gradientUnits="userSpaceOnUse">
            <stop stop-color="#143187"/>
            <stop offset="1" stop-color="#143187" stop-opacity="0"/>
        </linearGradient>
        <linearGradient id="paint61_linear_552_180142" x1="40.0542" y1="6.35167" x2="47.8506" y2="17.3465" gradientUnits="userSpaceOnUse">
            <stop stop-color="#C0D1DD"/>
            <stop offset="1" stop-color="#C0D1DD" stop-opacity="0"/>
        </linearGradient>
        <radialGradient id="paint62_radial_552_180142" cx="0" cy="0" r="1" gradientUnits="userSpaceOnUse" gradientTransform="translate(57.5549 16.0727) rotate(6.32995) scale(17.6385 6.60369)">
            <stop stop-color="#C0D1DD"/>
            <stop offset="1" stop-color="#C0D1DD" stop-opacity="0"/>
        </radialGradient>
        <linearGradient id="paint63_linear_552_180142" x1="75.3661" y1="22.2177" x2="75.6705" y2="23.0471" gradientUnits="userSpaceOnUse">
            <stop stop-color="#AFACB9"/>
            <stop offset="1" stop-color="#AFACB9" stop-opacity="0"/>
        </linearGradient>
        <radialGradient id="paint64_radial_552_180142" cx="0" cy="0" r="1" gradientUnits="userSpaceOnUse" gradientTransform="translate(73.466 23.9055) rotate(6.33018) scale(1.06955 0.60574)">
            <stop stop-color="#AFACB9"/>
            <stop offset="1" stop-color="#AFACB9" stop-opacity="0"/>
        </radialGradient>
        <linearGradient id="paint65_linear_552_180142" x1="76.1246" y1="24.0784" x2="75.7666" y2="23.2587" gradientUnits="userSpaceOnUse">
            <stop stop-color="#AFACB9"/>
            <stop offset="1" stop-color="#AFACB9" stop-opacity="0"/>
        </linearGradient>
        <linearGradient id="paint66_linear_552_180142" x1="76.7528" y1="22.8287" x2="76.9487" y2="22.0495" gradientUnits="userSpaceOnUse">
            <stop stop-color="#686868"/>
            <stop offset="1" stop-color="#686868" stop-opacity="0"/>
        </linearGradient>
        <linearGradient id="paint67_linear_552_180142" x1="76.7528" y1="22.8287" x2="76.9487" y2="22.0495" gradientUnits="userSpaceOnUse">
            <stop stop-color="#686868"/>
            <stop offset="1" stop-color="#686868" stop-opacity="0"/>
        </linearGradient>
        <linearGradient id="paint68_linear_552_180142" x1="76.7528" y1="22.8287" x2="76.9487" y2="22.0495" gradientUnits="userSpaceOnUse">
            <stop stop-color="#686868"/>
            <stop offset="1" stop-color="#686868" stop-opacity="0"/>
        </linearGradient>
        <linearGradient id="paint69_linear_552_180142" x1="76.616" y1="19.3447" x2="77.0186" y2="21.5097" gradientUnits="userSpaceOnUse">
            <stop stop-color="#686868"/>
            <stop offset="1" stop-color="#686868" stop-opacity="0"/>
        </linearGradient>
        <linearGradient id="paint70_linear_552_180142" x1="76.616" y1="19.3447" x2="77.0186" y2="21.5097" gradientUnits="userSpaceOnUse">
            <stop stop-color="#686868"/>
            <stop offset="1" stop-color="#686868" stop-opacity="0"/>
        </linearGradient>
        <linearGradient id="paint71_linear_552_180142" x1="76.616" y1="19.3447" x2="77.0186" y2="21.5097" gradientUnits="userSpaceOnUse">
            <stop stop-color="#686868"/>
            <stop offset="1" stop-color="#686868" stop-opacity="0"/>
        </linearGradient>
        <radialGradient id="paint72_radial_552_180142" cx="0" cy="0" r="1" gradientUnits="userSpaceOnUse" gradientTransform="translate(75.6699 22.1025) rotate(6.32997) scale(1.85248 2.13171)">
            <stop stop-color="#B5B5BE"/>
            <stop offset="1" stop-color="#B5B5BE" stop-opacity="0"/>
        </radialGradient>
        <linearGradient id="paint73_linear_552_180142" x1="74.2072" y1="22.6348" x2="75.8327" y2="22.7515" gradientUnits="userSpaceOnUse">
            <stop stop-color="#293145"/>
            <stop offset="1" stop-color="#293145" stop-opacity="0"/>
        </linearGradient>
        <linearGradient id="paint74_linear_552_180142" x1="74.6218" y1="23.1734" x2="74.4557" y2="22.9861" gradientUnits="userSpaceOnUse">
            <stop stop-color="#B5B5BE"/>
            <stop offset="1" stop-color="#B5B5BE" stop-opacity="0"/>
        </linearGradient>
        <linearGradient id="paint75_linear_552_180142" x1="94.7048" y1="17.419" x2="94.5272" y2="16.9643" gradientUnits="userSpaceOnUse">
            <stop stop-color="#9F9FB2"/>
            <stop offset="1" stop-color="#9F9FB2" stop-opacity="0"/>
        </linearGradient>
        <radialGradient id="paint76_radial_552_180142" cx="0" cy="0" r="1" gradientUnits="userSpaceOnUse" gradientTransform="translate(93.5794 18.0205) rotate(19.0453) scale(0.767868 0.729706)">
            <stop stop-color="#9F9FB2"/>
            <stop offset="1" stop-color="#9F9FB2" stop-opacity="0"/>
        </radialGradient>
        <linearGradient id="paint77_linear_552_180142" x1="36.2849" y1="45.7221" x2="42.1686" y2="44.6895" gradientUnits="userSpaceOnUse">
            <stop stop-color="#534E50"/>
            <stop offset="1" stop-color="#534E50" stop-opacity="0"/>
        </linearGradient>
        <radialGradient id="paint78_radial_552_180142" cx="0" cy="0" r="1" gradientUnits="userSpaceOnUse" gradientTransform="translate(37.9459 45.5235) rotate(-9.95091) scale(3.89407 5.58806)">
            <stop stop-color="#CAC8C4"/>
            <stop offset="1" stop-color="#CAC8C4" stop-opacity="0"/>
        </radialGradient>
        <linearGradient id="paint79_linear_552_180142" x1="36.2849" y1="45.7221" x2="42.1686" y2="44.6895" gradientUnits="userSpaceOnUse">
            <stop stop-color="#534E50"/>
            <stop offset="1" stop-color="#534E50" stop-opacity="0"/>
        </linearGradient>
        <radialGradient id="paint80_radial_552_180142" cx="0" cy="0" r="1" gradientUnits="userSpaceOnUse" gradientTransform="translate(43.7839 54.1642) rotate(6.32981) scale(8.93411 1.67639)">
            <stop stop-color="#C4C2BE"/>
            <stop offset="1" stop-color="#C4C2BE" stop-opacity="0"/>
        </radialGradient>
        <linearGradient id="paint81_linear_552_180142" x1="7.60611" y1="48.0765" x2="8.30002" y2="48.0964" gradientUnits="userSpaceOnUse">
            <stop stop-color="#534E50"/>
            <stop offset="1" stop-color="#534E50" stop-opacity="0"/>
        </linearGradient>
        <radialGradient id="paint82_radial_552_180142" cx="0" cy="0" r="1" gradientUnits="userSpaceOnUse" gradientTransform="translate(7.79983 48.0927) rotate(1.64883) scale(0.452533 0.649444)">
            <stop stop-color="#CAC8C4"/>
            <stop offset="1" stop-color="#CAC8C4" stop-opacity="0"/>
        </radialGradient>
        <linearGradient id="paint83_linear_552_180142" x1="7.60611" y1="48.0765" x2="8.30002" y2="48.0964" gradientUnits="userSpaceOnUse">
            <stop stop-color="#534E50"/>
            <stop offset="1" stop-color="#534E50" stop-opacity="0"/>
        </linearGradient>
        <linearGradient id="paint84_linear_552_180142" x1="7.75277" y1="49.9333" x2="8.33436" y2="49.5543" gradientUnits="userSpaceOnUse">
            <stop stop-color="#534E50"/>
            <stop offset="1" stop-color="#534E50" stop-opacity="0"/>
        </linearGradient>
        <radialGradient id="paint85_radial_552_180142" cx="0" cy="0" r="1" gradientUnits="userSpaceOnUse" gradientTransform="translate(7.92119 49.8363) rotate(-33.0934) scale(0.452531 0.649441)">
            <stop stop-color="#CAC8C4"/>
            <stop offset="1" stop-color="#CAC8C4" stop-opacity="0"/>
        </radialGradient>
        <linearGradient id="paint86_linear_552_180142" x1="7.75277" y1="49.9333" x2="8.33436" y2="49.5543" gradientUnits="userSpaceOnUse">
            <stop stop-color="#534E50"/>
            <stop offset="1" stop-color="#534E50" stop-opacity="0"/>
        </linearGradient>
        <linearGradient id="paint87_linear_552_180142" x1="5.66397" y1="40.2122" x2="10.5321" y2="39.358" gradientUnits="userSpaceOnUse">
            <stop stop-color="#534E50"/>
            <stop offset="1" stop-color="#534E50" stop-opacity="0"/>
        </linearGradient>
        <radialGradient id="paint88_radial_552_180142" cx="0" cy="0" r="1" gradientUnits="userSpaceOnUse" gradientTransform="translate(7.03819 40.0479) rotate(-9.95246) scale(3.22189 4.62383)">
            <stop stop-color="#CAC8C4"/>
            <stop offset="1" stop-color="#CAC8C4" stop-opacity="0"/>
        </radialGradient>
        <linearGradient id="paint89_linear_552_180142" x1="5.66397" y1="40.2122" x2="10.5321" y2="39.358" gradientUnits="userSpaceOnUse">
            <stop stop-color="#534E50"/>
            <stop offset="1" stop-color="#534E50" stop-opacity="0"/>
        </linearGradient>
        <radialGradient id="paint90_radial_552_180142" cx="0" cy="0" r="1" gradientUnits="userSpaceOnUse" gradientTransform="translate(13.5378 32.1654) rotate(-23.0019) scale(2.93962 2.0714)">
            <stop stop-color="#083486"/>
            <stop offset="1" stop-color="#083486" stop-opacity="0"/>
        </radialGradient>
        <linearGradient id="paint91_linear_552_180142" x1="12.7803" y1="31.6924" x2="13.1218" y2="32.5697" gradientUnits="userSpaceOnUse">
            <stop stop-color="#BECED9"/>
            <stop offset="1" stop-color="#BECED9" stop-opacity="0"/>
        </linearGradient>
        <linearGradient id="paint92_linear_552_180142" x1="12.7803" y1="31.6924" x2="13.1218" y2="32.5697" gradientUnits="userSpaceOnUse">
            <stop stop-color="#BECED9"/>
            <stop offset="1" stop-color="#BECED9" stop-opacity="0"/>
        </linearGradient>
        <linearGradient id="paint93_linear_552_180142" x1="12.74" y1="31.1414" x2="12.8264" y2="31.3633" gradientUnits="userSpaceOnUse">
            <stop stop-color="#BECED9"/>
            <stop offset="1" stop-color="#BECED9" stop-opacity="0"/>
        </linearGradient>
        <linearGradient id="paint94_linear_552_180142" x1="12.74" y1="31.1414" x2="12.8264" y2="31.3633" gradientUnits="userSpaceOnUse">
            <stop stop-color="#BECED9"/>
            <stop offset="1" stop-color="#BECED9" stop-opacity="0"/>
        </linearGradient>
        <linearGradient id="paint95_linear_552_180142" x1="13.0466" y1="31.7517" x2="12.8436" y2="31.8373" gradientUnits="userSpaceOnUse">
            <stop stop-color="#B7C5D0"/>
            <stop offset="1" stop-color="#B7C5D0" stop-opacity="0"/>
        </linearGradient>
        <radialGradient id="paint96_radial_552_180142" cx="0" cy="0" r="1" gradientUnits="userSpaceOnUse" gradientTransform="translate(39.4252 36.8458) rotate(-31.2409) scale(3.06321 1.7147)">
            <stop stop-color="#083486"/>
            <stop offset="1" stop-color="#083486" stop-opacity="0"/>
        </radialGradient>
        <linearGradient id="paint97_linear_552_180142" x1="38.9485" y1="35.7037" x2="39.3178" y2="36.6525" gradientUnits="userSpaceOnUse">
            <stop stop-color="#BECED9"/>
            <stop offset="1" stop-color="#BECED9" stop-opacity="0"/>
        </linearGradient>
        <linearGradient id="paint98_linear_552_180142" x1="38.9485" y1="35.7037" x2="39.3178" y2="36.6525" gradientUnits="userSpaceOnUse">
            <stop stop-color="#BECED9"/>
            <stop offset="1" stop-color="#BECED9" stop-opacity="0"/>
        </linearGradient>
        <linearGradient id="paint99_linear_552_180142" x1="38.888" y1="35.1081" x2="38.9814" y2="35.3482" gradientUnits="userSpaceOnUse">
            <stop stop-color="#BECED9"/>
            <stop offset="1" stop-color="#BECED9" stop-opacity="0"/>
        </linearGradient>
        <linearGradient id="paint100_linear_552_180142" x1="38.888" y1="35.1081" x2="38.9814" y2="35.3482" gradientUnits="userSpaceOnUse">
            <stop stop-color="#BECED9"/>
            <stop offset="1" stop-color="#BECED9" stop-opacity="0"/>
        </linearGradient>
        <linearGradient id="paint101_linear_552_180142" x1="39.1985" y1="35.7681" x2="38.9789" y2="35.8606" gradientUnits="userSpaceOnUse">
            <stop stop-color="#B7C5D0"/>
            <stop offset="1" stop-color="#B7C5D0" stop-opacity="0"/>
        </linearGradient>
        <linearGradient id="paint102_linear_552_180142" x1="42.7121" y1="40.6762" x2="40.7632" y2="8.77492" gradientUnits="userSpaceOnUse">
            <stop stop-color="#004AA7"/>
            <stop offset="1" stop-color="#004AA7" stop-opacity="0"/>
        </linearGradient>
        <linearGradient id="paint103_linear_552_180142" x1="28.0614" y1="36.1688" x2="27.0639" y2="42.7398" gradientUnits="userSpaceOnUse">
            <stop stop-color="#47BFA3"/>
            <stop offset="1" stop-color="#4A1FB8" stop-opacity="0.26"/>
        </linearGradient>
        <clipPath id="clip0_552_180142">
            <rect width="124.537" height="71.9608" fill="white" transform="translate(0 0.177979)"/>
        </clipPath>
    </defs>
</svg>
