<svg width="76" height="76" viewBox="0 0 76 76" fill="none" xmlns="http://www.w3.org/2000/svg">
<rect width="76" height="76" rx="5.06667" fill="#E6F4F2"/>
<path d="M26.7556 59.2988V67.5428H25.5436V63.9068H21.0436V67.5428H19.8316V59.2988H21.0436V62.7788H25.5436V59.2988H26.7556ZM31.3584 66.6308C31.6784 66.6308 32.0064 66.5668 32.3424 66.4388C32.6864 66.3108 32.9504 66.1508 33.1344 65.9588L33.8784 66.7268C33.6064 67.0148 33.2304 67.2468 32.7504 67.4228C32.2784 67.5988 31.8184 67.6868 31.3704 67.6868C30.7944 67.6868 30.2624 67.5468 29.7744 67.2668C29.2864 66.9868 28.8984 66.5988 28.6104 66.1028C28.3224 65.6068 28.1784 65.0468 28.1784 64.4228C28.1784 63.8148 28.3144 63.2668 28.5864 62.7788C28.8664 62.2828 29.2424 61.8948 29.7144 61.6148C30.1864 61.3348 30.7064 61.1948 31.2744 61.1948C31.8984 61.1948 32.4344 61.3468 32.8824 61.6508C33.3304 61.9468 33.6704 62.3708 33.9024 62.9228C34.1424 63.4748 34.2624 64.1188 34.2624 64.8548H29.3784C29.4584 65.3828 29.6744 65.8108 30.0264 66.1388C30.3864 66.4668 30.8304 66.6308 31.3584 66.6308ZM31.3224 62.2508C30.8424 62.2508 30.4224 62.4028 30.0624 62.7068C29.7104 63.0028 29.4864 63.4028 29.3904 63.9068H33.1104C33.0384 63.4028 32.8504 63.0028 32.5464 62.7068C32.2424 62.4028 31.8344 62.2508 31.3224 62.2508ZM38.2434 61.1948C39.0594 61.1948 39.6954 61.4308 40.1514 61.9028C40.6074 62.3748 40.8354 63.0028 40.8354 63.7868V67.5428H39.6714V66.6908C39.4474 67.0028 39.1434 67.2468 38.7594 67.4228C38.3834 67.5988 37.9994 67.6868 37.6074 67.6868C36.9354 67.6868 36.3834 67.5068 35.9514 67.1468C35.5274 66.7868 35.3154 66.3068 35.3154 65.7068C35.3154 65.3068 35.4234 64.9508 35.6394 64.6388C35.8634 64.3188 36.1634 64.0748 36.5394 63.9068C36.9234 63.7308 37.3434 63.6428 37.7994 63.6428C38.3914 63.6428 39.0154 63.7548 39.6714 63.9788V63.7868C39.6714 63.3308 39.5474 62.9508 39.2994 62.6468C39.0514 62.3348 38.6434 62.1788 38.0754 62.1788C37.5794 62.1788 36.9954 62.3508 36.3234 62.6948L35.8914 61.8188C36.7234 61.4028 37.5074 61.1948 38.2434 61.1948ZM37.8354 66.7508C38.2514 66.7508 38.6354 66.6508 38.9874 66.4508C39.3474 66.2428 39.5754 65.9588 39.6714 65.5988V64.7708C39.1514 64.6108 38.5874 64.5308 37.9794 64.5308C37.5554 64.5308 37.1954 64.6388 36.8994 64.8548C36.6034 65.0708 36.4554 65.3428 36.4554 65.6708C36.4554 65.9988 36.5834 66.2628 36.8394 66.4628C37.1034 66.6548 37.4354 66.7508 37.8354 66.7508ZM42.5535 59.1548H43.7295V67.5428H42.5535V59.1548ZM48.7957 67.2428C48.6277 67.3788 48.4357 67.4868 48.2197 67.5668C48.0037 67.6468 47.7837 67.6868 47.5597 67.6868C47.0797 67.6868 46.6877 67.5308 46.3837 67.2188C46.0797 66.8988 45.9277 66.4908 45.9277 65.9948V62.3468H44.9917V61.3388H45.9277V59.6348H47.0917V61.3388H48.5557V62.3468H47.0917V65.9108C47.0917 66.1268 47.1517 66.3068 47.2717 66.4508C47.3997 66.5868 47.5517 66.6548 47.7277 66.6548C47.8557 66.6548 47.9757 66.6348 48.0877 66.5948C48.2077 66.5468 48.2997 66.4908 48.3637 66.4268L48.7957 67.2428ZM53.1626 61.1948C53.6106 61.1948 54.0106 61.2988 54.3626 61.5068C54.7226 61.7068 54.9986 61.9908 55.1906 62.3588C55.3906 62.7188 55.4906 63.1308 55.4906 63.5948V67.5428H54.3266V63.7988C54.3266 63.3348 54.1906 62.9588 53.9186 62.6708C53.6546 62.3748 53.3146 62.2268 52.8986 62.2268C52.5946 62.2268 52.3106 62.2948 52.0466 62.4308C51.7826 62.5588 51.5706 62.7348 51.4106 62.9588C51.2586 63.1828 51.1826 63.4268 51.1826 63.6908V67.5428H50.0066V59.1548H51.1826V62.2628C51.3746 61.9428 51.6466 61.6868 51.9986 61.4948C52.3586 61.2948 52.7466 61.1948 53.1626 61.1948Z" fill="#475467"/>
<path d="M29.8717 15.2241C23.1305 15.2404 18.5865 22.8662 19.2473 27.3539C20.706 37.2604 30.4483 42.7916 38.4494 48.1529C46.4505 42.7916 56.1928 37.2604 57.6515 27.3539C58.5663 21.141 49.5056 8.91474 38.4494 19.1904C35.3794 16.3371 32.4632 15.2179 29.8717 15.2241Z" fill="#4FBFA3" stroke="black" stroke-width="0.417931"/>
<path d="M24.6797 31.5687L32.6408 31.6596L34.5406 28.1143L35.9881 34.114L38.6116 24.9326L39.6972 35.7503L41.778 30.0233L43.135 34.2958L44.5825 31.205L52.9959 31.2959" stroke="white" stroke-width="0.826728"/>
<path opacity="0.261" d="M38.4531 19.1904L38.6182 47.9989C46.6193 42.6375 56.3616 37.1064 57.8203 27.1998C58.7397 20.956 49.5841 8.63785 38.4531 19.1904Z" fill="#4A07F2"/>
</svg>
