<svg width="77" height="54" viewBox="0 0 77 54" fill="none" xmlns="http://www.w3.org/2000/svg">
    <path d="M25.2908 2.63326C13.0779 1.57258 3.61431 14.6502 4.08547 22.8856C5.12555 41.0649 21.8771 52.6589 35.5023 63.6637C50.8616 55.2467 69.4021 46.8037 73.6462 29.0961C76.3079 17.9908 61.8736 -5.61975 40.186 11.2044C35.0867 5.53984 29.9857 3.041 25.2908 2.63326Z" fill="#4FBFA3" stroke="black" stroke-width="0.760001"/>
    <path d="M13.2442 31.3982L27.6493 32.8503L31.6638 26.736L33.3153 37.8373L39.552 21.6314L39.769 41.4009L44.464 31.3641L46.231 39.3223L49.3526 33.9582L64.577 35.4834" stroke="white" stroke-width="1.50339"/>
    <path opacity="0.261" d="M40.1926 11.205L35.8328 63.412C51.1921 54.995 69.7326 46.552 73.9767 28.8444C76.6517 17.6838 62.0604 -6.10851 40.1926 11.205Z" fill="#4A07F2"/>
</svg>
