<svg width="76" height="76" viewBox="0 0 76 76" fill="none" xmlns="http://www.w3.org/2000/svg">
<rect width="76" height="76" rx="5.06667" fill="#E6F4F2"/>
<g clip-path="url(#clip0_1599_2761)">
<path fill-rule="evenodd" clip-rule="evenodd" d="M33.9771 44.6626C35.535 45.5794 35.6456 46.7234 34.2845 47.8428C32.9234 48.9622 30.2022 49.9654 26.7194 50.6316C23.2367 51.2978 19.2778 51.5725 15.7135 51.3953C12.1493 51.2181 9.27169 50.6034 7.71382 49.6865C6.15594 48.7697 6.04538 47.6257 7.40646 46.5063C8.76754 45.3869 11.4888 44.3837 14.9715 43.7175C18.4542 43.0513 22.4132 42.7766 25.9774 42.9538C29.5417 43.131 32.4193 43.7457 33.9771 44.6626V44.6626Z" fill="url(#paint0_radial_1599_2761)"/>
<path fill-rule="evenodd" clip-rule="evenodd" d="M44.5893 45.1566C46.1248 45.6511 46.3637 46.4702 45.2533 47.4336C44.143 48.397 41.7744 49.4258 38.6686 50.2938C35.5628 51.1618 31.9742 51.7978 28.6923 52.0618C25.4104 52.3259 22.7041 52.1965 21.1686 51.702C19.633 51.2075 19.3942 50.3885 20.5045 49.4251C21.6149 48.4617 23.9835 47.4328 27.0893 46.5649C30.1951 45.6969 33.7837 45.0609 37.0655 44.7968C40.3474 44.5327 43.0538 44.6622 44.5893 45.1566V45.1566Z" fill="url(#paint1_radial_1599_2761)"/>
<path fill-rule="evenodd" clip-rule="evenodd" d="M8.11719 38.0252C10.1214 37.2117 12.4828 38.0679 18.5237 38.8757C23.4552 39.6908 27.8571 40.1866 27.9498 41.508C28.1111 42.4029 28.4303 44.424 28.5303 46.4645C22.2258 45.4173 15.0167 44.0959 8.71297 43.0486C8.29939 41.35 8.20829 39.6876 8.11719 38.0252Z" fill="#0857A4"/>
<path fill-rule="evenodd" clip-rule="evenodd" d="M60.7135 28.5867C61.4535 32.4457 59.2855 37.2509 54.6865 41.9454C50.0875 46.6398 43.4343 50.8389 36.1903 53.6189C28.9464 56.3988 21.7052 57.532 16.0597 56.769C10.4142 56.0061 6.82694 53.4095 6.08696 49.5505C5.34698 45.6916 7.51495 40.8863 12.1139 36.1919C16.7129 31.4974 23.3662 27.2983 30.6101 24.5184C37.8541 21.7384 45.0953 20.6052 50.7408 21.3682C56.3862 22.1312 59.9735 24.7277 60.7135 28.5867V28.5867Z" fill="url(#paint2_radial_1599_2761)"/>
<path fill-rule="evenodd" clip-rule="evenodd" d="M66.4075 30.6513C70.0995 31.1226 70.9646 32.7354 68.8126 35.135C66.6606 37.5345 61.6677 40.5242 54.9323 43.4464C48.1969 46.3685 40.2708 48.9837 32.8975 50.7167C25.5243 52.4497 19.3079 53.1585 15.6159 52.6872C11.9239 52.2159 11.0588 50.603 13.2108 48.2035C15.3628 45.8039 20.3557 42.8142 27.0911 39.8921C33.8265 36.9699 41.7527 34.3547 49.1259 32.6217C56.4992 30.8887 62.7155 30.1799 66.4075 30.6513V30.6513Z" fill="url(#paint3_radial_1599_2761)"/>
<path fill-rule="evenodd" clip-rule="evenodd" d="M64.7838 34.0672C65.1226 34.9978 64.5863 36.2429 63.2928 37.5285C61.9993 38.8141 60.0546 40.0349 57.8865 40.9224C55.7184 41.8098 53.5044 42.2912 51.7317 42.2607C49.959 42.2301 48.7727 41.6901 48.4339 40.7595C48.095 39.8288 48.6314 38.5837 49.9249 37.2981C51.2183 36.0125 53.1631 34.7917 55.3312 33.9043C57.4993 33.0168 59.7133 32.5354 61.486 32.566C63.2587 32.5965 64.4449 33.1365 64.7838 34.0672V34.0672Z" fill="url(#paint4_radial_1599_2761)"/>
<path fill-rule="evenodd" clip-rule="evenodd" d="M23.9819 28.0888C23.9505 28.2836 23.8555 28.4598 23.7177 28.5785C23.5799 28.6972 23.4106 28.7488 23.2471 28.7219C23.0836 28.695 22.9393 28.5918 22.8458 28.435C22.7524 28.2782 22.7175 28.0806 22.7489 27.8858C22.7803 27.691 22.8753 27.5148 23.0131 27.3961C23.1509 27.2773 23.3202 27.2258 23.4837 27.2527C23.6472 27.2796 23.7915 27.3828 23.885 27.5396C23.9784 27.6964 24.0133 27.8939 23.9819 28.0888V28.0888Z" fill="#A5A3AE"/>
<path fill-rule="evenodd" clip-rule="evenodd" d="M23.9819 28.0888C23.9505 28.2836 23.8555 28.4598 23.7177 28.5785C23.5799 28.6972 23.4106 28.7488 23.2471 28.7219C23.0836 28.695 22.9393 28.5918 22.8458 28.435C22.7524 28.2782 22.7175 28.0806 22.7489 27.8858C22.7803 27.691 22.8753 27.5148 23.0131 27.3961C23.1509 27.2773 23.3202 27.2258 23.4837 27.2527C23.6472 27.2796 23.7915 27.3828 23.885 27.5396C23.9784 27.6964 24.0133 27.8939 23.9819 28.0888V28.0888Z" fill="#A5A3AE"/>
<path fill-rule="evenodd" clip-rule="evenodd" d="M23.9819 28.0888C23.9505 28.2836 23.8555 28.4598 23.7177 28.5785C23.5799 28.6972 23.4106 28.7488 23.2471 28.7219C23.0836 28.695 22.9393 28.5918 22.8458 28.435C22.7524 28.2782 22.7175 28.0806 22.7489 27.8858C22.7803 27.691 22.8753 27.5148 23.0131 27.3961C23.1509 27.2773 23.3202 27.2258 23.4837 27.2527C23.6472 27.2796 23.7915 27.3828 23.885 27.5396C23.9784 27.6964 24.0133 27.8939 23.9819 28.0888V28.0888Z" fill="#A5A3AE"/>
<path fill-rule="evenodd" clip-rule="evenodd" d="M23.9819 28.0888C23.9505 28.2836 23.8555 28.4598 23.7177 28.5785C23.5799 28.6972 23.4106 28.7488 23.2471 28.7219C23.0836 28.695 22.9393 28.5918 22.8458 28.435C22.7524 28.2782 22.7175 28.0806 22.7489 27.8858C22.7803 27.691 22.8753 27.5148 23.0131 27.3961C23.1509 27.2773 23.3202 27.2258 23.4837 27.2527C23.6472 27.2796 23.7915 27.3828 23.885 27.5396C23.9784 27.6964 24.0133 27.8939 23.9819 28.0888V28.0888Z" fill="url(#paint5_linear_1599_2761)"/>
<path fill-rule="evenodd" clip-rule="evenodd" d="M23.9819 28.0888C23.9505 28.2836 23.8555 28.4598 23.7177 28.5785C23.5799 28.6972 23.4106 28.7488 23.2471 28.7219C23.0836 28.695 22.9393 28.5918 22.8458 28.435C22.7524 28.2782 22.7175 28.0806 22.7489 27.8858C22.7803 27.691 22.8753 27.5148 23.0131 27.3961C23.1509 27.2773 23.3202 27.2258 23.4837 27.2527C23.6472 27.2796 23.7915 27.3828 23.885 27.5396C23.9784 27.6964 24.0133 27.8939 23.9819 28.0888V28.0888Z" fill="url(#paint6_linear_1599_2761)"/>
<path fill-rule="evenodd" clip-rule="evenodd" d="M23.9819 28.0888C23.9505 28.2836 23.8555 28.4598 23.7177 28.5785C23.5799 28.6972 23.4106 28.7488 23.2471 28.7219C23.0836 28.695 22.9393 28.5918 22.8458 28.435C22.7524 28.2782 22.7175 28.0806 22.7489 27.8858C22.7803 27.691 22.8753 27.5148 23.0131 27.3961C23.1509 27.2773 23.3202 27.2258 23.4837 27.2527C23.6472 27.2796 23.7915 27.3828 23.885 27.5396C23.9784 27.6964 24.0133 27.8939 23.9819 28.0888V28.0888Z" fill="url(#paint7_linear_1599_2761)"/>
<path fill-rule="evenodd" clip-rule="evenodd" d="M23.9819 28.0888C23.9505 28.2836 23.8555 28.4598 23.7177 28.5785C23.5799 28.6972 23.4106 28.7488 23.2471 28.7219C23.0836 28.695 22.9393 28.5918 22.8458 28.435C22.7524 28.2782 22.7175 28.0806 22.7489 27.8858C22.7803 27.691 22.8753 27.5148 23.0131 27.3961C23.1509 27.2773 23.3202 27.2258 23.4837 27.2527C23.6472 27.2796 23.7915 27.3828 23.885 27.5396C23.9784 27.6964 24.0133 27.8939 23.9819 28.0888V28.0888Z" fill="url(#paint8_linear_1599_2761)"/>
<path fill-rule="evenodd" clip-rule="evenodd" d="M23.9819 28.0888C23.9505 28.2836 23.8555 28.4598 23.7177 28.5785C23.5799 28.6972 23.4106 28.7488 23.2471 28.7219C23.0836 28.695 22.9393 28.5918 22.8458 28.435C22.7524 28.2782 22.7175 28.0806 22.7489 27.8858C22.7803 27.691 22.8753 27.5148 23.0131 27.3961C23.1509 27.2773 23.3202 27.2258 23.4837 27.2527C23.6472 27.2796 23.7915 27.3828 23.885 27.5396C23.9784 27.6964 24.0133 27.8939 23.9819 28.0888V28.0888Z" fill="url(#paint9_linear_1599_2761)"/>
<path fill-rule="evenodd" clip-rule="evenodd" d="M23.9819 28.0888C23.9505 28.2836 23.8555 28.4598 23.7177 28.5785C23.5799 28.6972 23.4106 28.7488 23.2471 28.7219C23.0836 28.695 22.9393 28.5918 22.8458 28.435C22.7524 28.2782 22.7175 28.0806 22.7489 27.8858C22.7803 27.691 22.8753 27.5148 23.0131 27.3961C23.1509 27.2773 23.3202 27.2258 23.4837 27.2527C23.6472 27.2796 23.7915 27.3828 23.885 27.5396C23.9784 27.6964 24.0133 27.8939 23.9819 28.0888V28.0888Z" fill="url(#paint10_linear_1599_2761)"/>
<path fill-rule="evenodd" clip-rule="evenodd" d="M23.8335 28.0961C23.8021 28.2909 23.7071 28.4671 23.5693 28.5858C23.4315 28.7046 23.2622 28.7562 23.0987 28.7292C22.9352 28.7023 22.7908 28.5991 22.6974 28.4423C22.604 28.2855 22.5691 28.088 22.6005 27.8931C22.6318 27.6983 22.7269 27.5221 22.8647 27.4034C23.0025 27.2847 23.1717 27.2331 23.3352 27.26C23.4987 27.2869 23.6431 27.3901 23.7365 27.5469C23.83 27.7037 23.8648 27.9013 23.8335 28.0961V28.0961Z" fill="#676767"/>
<path fill-rule="evenodd" clip-rule="evenodd" d="M23.8335 28.0961C23.8021 28.2909 23.7071 28.4671 23.5693 28.5858C23.4315 28.7046 23.2622 28.7562 23.0987 28.7292C22.9352 28.7023 22.7908 28.5991 22.6974 28.4423C22.604 28.2855 22.5691 28.088 22.6005 27.8931C22.6318 27.6983 22.7269 27.5221 22.8647 27.4034C23.0025 27.2847 23.1717 27.2331 23.3352 27.26C23.4987 27.2869 23.6431 27.3901 23.7365 27.5469C23.83 27.7037 23.8648 27.9013 23.8335 28.0961V28.0961Z" fill="url(#paint11_radial_1599_2761)"/>
<path fill-rule="evenodd" clip-rule="evenodd" d="M23.8335 28.0961C23.8021 28.2909 23.7071 28.4671 23.5693 28.5858C23.4315 28.7046 23.2622 28.7562 23.0987 28.7292C22.9352 28.7023 22.7908 28.5991 22.6974 28.4423C22.604 28.2855 22.5691 28.088 22.6005 27.8931C22.6318 27.6983 22.7269 27.5221 22.8647 27.4034C23.0025 27.2847 23.1717 27.2331 23.3352 27.26C23.4987 27.2869 23.6431 27.3901 23.7365 27.5469C23.83 27.7037 23.8648 27.9013 23.8335 28.0961V28.0961Z" fill="url(#paint12_linear_1599_2761)"/>
<path fill-rule="evenodd" clip-rule="evenodd" d="M23.6285 28.9301C23.6895 28.955 23.735 28.9461 23.7899 28.8847C23.6168 28.6753 23.4441 28.4654 23.271 28.256C23.2006 28.2347 23.1507 28.3198 23.1802 28.4222C23.3337 28.5904 23.4755 28.7619 23.6285 28.9301V28.9301Z" fill="#636566"/>
<path fill-rule="evenodd" clip-rule="evenodd" d="M23.628 28.9301C23.6945 28.963 23.7269 28.9703 23.7894 28.8847C23.6163 28.6753 23.4437 28.4654 23.2706 28.2559C23.2001 28.2346 23.1212 28.3468 23.1798 28.4222C23.3332 28.5904 23.4751 28.7619 23.628 28.9301V28.9301Z" fill="url(#paint13_linear_1599_2761)"/>
<path d="M41.3092 45.1921C41.2254 45.9473 41.0809 46.6883 40.884 47.3728C40.6871 48.0572 40.4417 48.6717 40.1616 49.1812C39.8816 49.6907 39.5725 50.0853 39.2519 50.3423C38.9314 50.5993 38.6057 50.7137 38.2934 50.6791C37.9811 50.6444 37.6884 50.4614 37.432 50.1404C37.1756 49.8194 36.9604 49.3667 36.7988 48.8082C36.6373 48.2497 36.5325 47.5963 36.4904 46.8854C36.4483 46.1744 36.4697 45.4198 36.5535 44.6646C36.6372 43.9094 36.7817 43.1684 36.9786 42.484C37.1755 41.7995 37.421 41.185 37.701 40.6755C37.9811 40.166 38.2902 39.7715 38.6107 39.5145C38.9313 39.2575 39.257 39.143 39.5692 39.1777C39.8815 39.2123 40.1742 39.3953 40.4307 39.7163C40.6871 40.0373 40.9022 40.49 41.0638 41.0485C41.2254 41.607 41.3302 42.2604 41.3723 42.9714C41.4144 43.6823 41.3929 44.4369 41.3092 45.1921Z" fill="#050402"/>
<path d="M41.3092 45.1921C41.2254 45.9473 41.0809 46.6883 40.884 47.3728C40.6871 48.0572 40.4417 48.6717 40.1616 49.1812C39.8816 49.6907 39.5725 50.0853 39.2519 50.3423C38.9314 50.5993 38.6057 50.7137 38.2934 50.6791C37.9811 50.6444 37.6884 50.4614 37.432 50.1404C37.1756 49.8194 36.9604 49.3667 36.7988 48.8082C36.6373 48.2497 36.5325 47.5963 36.4904 46.8854C36.4483 46.1744 36.4697 45.4198 36.5535 44.6646C36.6372 43.9094 36.7817 43.1684 36.9786 42.484C37.1755 41.7995 37.421 41.185 37.701 40.6755C37.9811 40.166 38.2902 39.7715 38.6107 39.5145C38.9313 39.2575 39.257 39.143 39.5692 39.1777C39.8815 39.2123 40.1742 39.3953 40.4307 39.7163C40.6871 40.0373 40.9022 40.49 41.0638 41.0485C41.2254 41.607 41.3302 42.2604 41.3723 42.9714C41.4144 43.6823 41.3929 44.4369 41.3092 45.1921Z" fill="url(#paint14_linear_1599_2761)"/>
<path d="M40.657 45.1195C40.6004 45.6302 40.5104 46.1322 40.3921 46.5967C40.2738 47.0612 40.1296 47.4792 39.9678 47.8268C39.8059 48.1744 39.6295 48.4448 39.4487 48.6226C39.2678 48.8004 39.0861 48.8821 38.9138 48.863C38.7416 48.8439 38.5821 48.7243 38.4447 48.5113C38.3072 48.2982 38.1944 47.9957 38.1126 47.621C38.0309 47.2464 37.9818 46.8069 37.9682 46.3278C37.9546 45.8487 37.9768 45.3392 38.0334 44.8285C38.0901 44.3178 38.1801 43.8158 38.2984 43.3513C38.4166 42.8868 38.5608 42.4688 38.7227 42.1212C38.8846 41.7736 39.061 41.5032 39.2418 41.3254C39.4226 41.1476 39.6044 41.0659 39.7766 41.085C39.9489 41.1041 40.1083 41.2237 40.2458 41.4367C40.3833 41.6498 40.4961 41.9523 40.5779 42.327C40.6596 42.7016 40.7087 43.1411 40.7223 43.6202C40.7359 44.0993 40.7137 44.6088 40.657 45.1195Z" fill="#6E5E70"/>
<path d="M40.657 45.1195C40.6004 45.6302 40.5104 46.1322 40.3921 46.5967C40.2738 47.0612 40.1296 47.4792 39.9678 47.8268C39.8059 48.1744 39.6295 48.4448 39.4487 48.6226C39.2678 48.8004 39.0861 48.8821 38.9138 48.863C38.7416 48.8439 38.5821 48.7243 38.4447 48.5113C38.3072 48.2982 38.1944 47.9957 38.1126 47.621C38.0309 47.2464 37.9818 46.8069 37.9682 46.3278C37.9546 45.8487 37.9768 45.3392 38.0334 44.8285C38.0901 44.3178 38.1801 43.8158 38.2984 43.3513C38.4166 42.8868 38.5608 42.4688 38.7227 42.1212C38.8846 41.7736 39.061 41.5032 39.2418 41.3254C39.4226 41.1476 39.6044 41.0659 39.7766 41.085C39.9489 41.1041 40.1083 41.2237 40.2458 41.4367C40.3833 41.6498 40.4961 41.9523 40.5779 42.327C40.6596 42.7016 40.7087 43.1411 40.7223 43.6202C40.7359 44.0993 40.7137 44.6088 40.657 45.1195Z" fill="url(#paint15_linear_1599_2761)"/>
<path fill-rule="evenodd" clip-rule="evenodd" d="M39.5997 39.1609C37.9575 38.9787 38.404 38.9393 36.7618 38.7571C33.2154 39.3761 32.7393 50.0754 35.55 50.3964C37.1766 50.5478 36.6826 50.5091 38.3092 50.6605C35.6954 50.6133 35.9893 39.6795 39.5997 39.1609V39.1609Z" fill="black"/>
<path fill-rule="evenodd" clip-rule="evenodd" d="M39.5997 39.1609C37.9575 38.9787 38.404 38.9393 36.7618 38.7571C33.2154 39.3761 32.7393 50.0754 35.55 50.3964C37.1766 50.5478 36.6826 50.5091 38.3092 50.6605C35.6954 50.6133 35.9893 39.6795 39.5997 39.1609V39.1609Z" fill="url(#paint16_linear_1599_2761)"/>
<path fill-rule="evenodd" clip-rule="evenodd" d="M39.262 41.2963C40.7034 42.4018 39.7564 48.2321 38.3693 48.3809C37.5605 46.532 38.0005 42.7598 39.262 41.2963Z" fill="#6A5969"/>
<path fill-rule="evenodd" clip-rule="evenodd" d="M39.262 41.2963C40.7034 42.4018 39.7564 48.2321 38.3693 48.3809C37.5605 46.532 38.0005 42.7598 39.262 41.2963Z" fill="url(#paint17_radial_1599_2761)"/>
<path d="M39.0144 44.8269C38.9993 44.9721 38.9773 45.1159 38.9495 45.2497C38.9216 45.3836 38.8886 45.5048 38.8524 45.6062C38.8162 45.7075 38.7776 45.7871 38.7387 45.84C38.6998 45.8929 38.6615 45.9181 38.6261 45.9142C38.5907 45.9103 38.5589 45.8773 38.5326 45.8171C38.5063 45.757 38.486 45.6709 38.4728 45.564C38.4597 45.4572 38.4541 45.3317 38.4563 45.195C38.4585 45.0583 38.4685 44.9132 38.4856 44.7683C38.5007 44.6231 38.5227 44.4794 38.5506 44.3455C38.5784 44.2117 38.6114 44.0904 38.6476 43.989C38.6838 43.8877 38.7225 43.8082 38.7613 43.7552C38.8002 43.7023 38.8385 43.6771 38.8739 43.681C38.9093 43.6849 38.9411 43.718 38.9674 43.7781C38.9937 43.8382 39.0141 43.9243 39.0272 44.0312C39.0403 44.138 39.0459 44.2635 39.0437 44.4002C39.0415 44.5369 39.0315 44.682 39.0144 44.8269V44.8269Z" fill="#848080"/>
<path fill-rule="evenodd" clip-rule="evenodd" d="M39.3067 45.4821C39.1831 45.5098 39.1672 45.9002 39.2565 45.9188C39.1639 45.9085 39.0762 45.8982 38.983 45.8878C38.8783 45.8688 38.9032 45.4726 39.0331 45.4524C39.1247 45.4607 39.2151 45.4738 39.3067 45.4821V45.4821Z" fill="#848080"/>
<path d="M39.3667 45.71C39.3639 45.7395 39.3587 45.7686 39.3516 45.7956C39.3445 45.8226 39.3355 45.847 39.3253 45.8673C39.3151 45.8876 39.3037 45.9033 39.292 45.9137C39.2803 45.924 39.2684 45.9287 39.257 45.9274C39.2456 45.9262 39.235 45.919 39.2258 45.9063C39.2166 45.8937 39.2091 45.8758 39.2035 45.8538C39.198 45.8317 39.1946 45.806 39.1936 45.7781C39.1925 45.7501 39.1939 45.7206 39.1976 45.6913C39.2004 45.6618 39.2056 45.6327 39.2127 45.6057C39.2198 45.5787 39.2287 45.5543 39.239 45.534C39.2492 45.5137 39.2605 45.498 39.2723 45.4876C39.284 45.4773 39.2959 45.4726 39.3073 45.4739C39.3187 45.4751 39.3293 45.4823 39.3384 45.495C39.3476 45.5076 39.3552 45.5255 39.3608 45.5475C39.3663 45.5696 39.3697 45.5953 39.3707 45.6232C39.3718 45.6512 39.3704 45.6807 39.3667 45.71V45.71Z" fill="#848080"/>
<path fill-rule="evenodd" clip-rule="evenodd" d="M39.3067 45.4821C39.1831 45.5098 39.1672 45.9002 39.2565 45.9188C39.1639 45.9085 39.0762 45.8982 38.983 45.8878C38.8783 45.8688 38.9032 45.4726 39.0331 45.4524C39.1247 45.4607 39.2151 45.4738 39.3067 45.4821V45.4821Z" fill="url(#paint18_linear_1599_2761)"/>
<path d="M39.3667 45.71C39.3639 45.7395 39.3587 45.7686 39.3516 45.7956C39.3445 45.8226 39.3355 45.847 39.3253 45.8673C39.3151 45.8876 39.3037 45.9033 39.292 45.9137C39.2803 45.924 39.2684 45.9287 39.257 45.9274C39.2456 45.9262 39.235 45.919 39.2258 45.9063C39.2166 45.8937 39.2091 45.8758 39.2035 45.8538C39.198 45.8317 39.1946 45.806 39.1936 45.7781C39.1925 45.7501 39.1939 45.7206 39.1976 45.6913C39.2004 45.6618 39.2056 45.6327 39.2127 45.6057C39.2198 45.5787 39.2287 45.5543 39.239 45.534C39.2492 45.5137 39.2605 45.498 39.2723 45.4876C39.284 45.4773 39.2959 45.4726 39.3073 45.4739C39.3187 45.4751 39.3293 45.4823 39.3384 45.495C39.3476 45.5076 39.3552 45.5255 39.3608 45.5475C39.3663 45.5696 39.3697 45.5953 39.3707 45.6232C39.3718 45.6512 39.3704 45.6807 39.3667 45.71V45.71Z" fill="url(#paint19_radial_1599_2761)"/>
<path fill-rule="evenodd" clip-rule="evenodd" d="M39.0426 43.2037C38.9131 43.2327 38.8965 43.6417 38.99 43.6612C38.8931 43.6504 38.8011 43.6396 38.7036 43.6287C38.5939 43.6088 38.6199 43.1937 38.756 43.1726C38.852 43.1813 38.9467 43.195 39.0426 43.2037V43.2037Z" fill="#848080"/>
<path d="M39.1079 43.4424C39.105 43.4732 39.0996 43.5037 39.0921 43.532C39.0847 43.5603 39.0753 43.5859 39.0646 43.6071C39.0538 43.6284 39.042 43.6449 39.0297 43.6557C39.0174 43.6665 39.0049 43.6714 38.993 43.6701C38.9811 43.6688 38.97 43.6613 38.9604 43.648C38.9507 43.6348 38.9428 43.616 38.937 43.593C38.9312 43.5699 38.9276 43.5429 38.9265 43.5137C38.9255 43.4844 38.9269 43.4535 38.9307 43.4227C38.9337 43.3919 38.9391 43.3614 38.9466 43.3331C38.954 43.3048 38.9634 43.2793 38.9741 43.258C38.9849 43.2368 38.9967 43.2202 39.009 43.2094C39.0213 43.1986 39.0338 43.1937 39.0457 43.195C39.0576 43.1963 39.0687 43.2039 39.0783 43.2171C39.0879 43.2304 39.0959 43.2491 39.1017 43.2722C39.1075 43.2953 39.1111 43.3222 39.1121 43.3515C39.1132 43.3807 39.1118 43.4117 39.1079 43.4424V43.4424Z" fill="#848080"/>
<path fill-rule="evenodd" clip-rule="evenodd" d="M39.0426 43.2037C38.9131 43.2327 38.8965 43.6417 38.99 43.6612C38.8931 43.6504 38.8011 43.6396 38.7036 43.6287C38.5939 43.6088 38.6199 43.1937 38.756 43.1726C38.852 43.1813 38.9467 43.195 39.0426 43.2037V43.2037Z" fill="url(#paint20_linear_1599_2761)"/>
<path d="M39.1079 43.4424C39.105 43.4732 39.0996 43.5037 39.0921 43.532C39.0847 43.5603 39.0753 43.5859 39.0646 43.6071C39.0538 43.6284 39.042 43.6449 39.0297 43.6557C39.0174 43.6665 39.0049 43.6714 38.993 43.6701C38.9811 43.6688 38.97 43.6613 38.9604 43.648C38.9507 43.6348 38.9428 43.616 38.937 43.593C38.9312 43.5699 38.9276 43.5429 38.9265 43.5137C38.9255 43.4844 38.9269 43.4535 38.9307 43.4227C38.9337 43.3919 38.9391 43.3614 38.9466 43.3331C38.954 43.3048 38.9634 43.2793 38.9741 43.258C38.9849 43.2368 38.9967 43.2202 39.009 43.2094C39.0213 43.1986 39.0338 43.1937 39.0457 43.195C39.0576 43.1963 39.0687 43.2039 39.0783 43.2171C39.0879 43.2304 39.0959 43.2491 39.1017 43.2722C39.1075 43.2953 39.1111 43.3222 39.1121 43.3515C39.1132 43.3807 39.1118 43.4117 39.1079 43.4424V43.4424Z" fill="url(#paint21_radial_1599_2761)"/>
<path fill-rule="evenodd" clip-rule="evenodd" d="M39.502 44.1457C39.3784 44.1734 39.3625 44.5638 39.4518 44.5824C39.3592 44.5721 39.2715 44.5618 39.1783 44.5514C39.0736 44.5324 39.0985 44.1361 39.2284 44.1159C39.32 44.1243 39.4104 44.1374 39.502 44.1457V44.1457Z" fill="#848080"/>
<path d="M39.562 44.3736C39.5592 44.403 39.554 44.4321 39.5469 44.4592C39.5398 44.4862 39.5309 44.5106 39.5206 44.5308C39.5104 44.5511 39.499 44.5669 39.4873 44.5773C39.4756 44.5876 39.4637 44.5923 39.4523 44.591C39.4409 44.5897 39.4303 44.5826 39.4211 44.5699C39.412 44.5573 39.4044 44.5394 39.3988 44.5173C39.3933 44.4953 39.3899 44.4695 39.3889 44.4416C39.3878 44.4137 39.3892 44.3842 39.3929 44.3548C39.3957 44.3254 39.4009 44.2963 39.408 44.2693C39.4151 44.2423 39.424 44.2179 39.4343 44.1976C39.4445 44.1773 39.4559 44.1615 39.4676 44.1512C39.4793 44.1409 39.4912 44.1362 39.5026 44.1374C39.514 44.1387 39.5246 44.1459 39.5338 44.1585C39.5429 44.1712 39.5505 44.1891 39.5561 44.2111C39.5616 44.2332 39.565 44.2589 39.566 44.2868C39.5671 44.3147 39.5657 44.3443 39.562 44.3736V44.3736Z" fill="#848080"/>
<path fill-rule="evenodd" clip-rule="evenodd" d="M39.502 44.1457C39.3784 44.1734 39.3625 44.5638 39.4518 44.5824C39.3592 44.5721 39.2715 44.5618 39.1783 44.5514C39.0736 44.5324 39.0985 44.1361 39.2284 44.1159C39.32 44.1243 39.4104 44.1374 39.502 44.1457V44.1457Z" fill="url(#paint22_linear_1599_2761)"/>
<path d="M39.562 44.3736C39.5592 44.403 39.554 44.4321 39.5469 44.4592C39.5398 44.4862 39.5309 44.5106 39.5206 44.5308C39.5104 44.5511 39.499 44.5669 39.4873 44.5773C39.4756 44.5876 39.4637 44.5923 39.4523 44.591C39.4409 44.5897 39.4303 44.5826 39.4211 44.5699C39.412 44.5573 39.4044 44.5394 39.3988 44.5173C39.3933 44.4953 39.3899 44.4695 39.3889 44.4416C39.3878 44.4137 39.3892 44.3842 39.3929 44.3548C39.3957 44.3254 39.4009 44.2963 39.408 44.2693C39.4151 44.2423 39.424 44.2179 39.4343 44.1976C39.4445 44.1773 39.4559 44.1615 39.4676 44.1512C39.4793 44.1409 39.4912 44.1362 39.5026 44.1374C39.514 44.1387 39.5246 44.1459 39.5338 44.1585C39.5429 44.1712 39.5505 44.1891 39.5561 44.2111C39.5616 44.2332 39.565 44.2589 39.566 44.2868C39.5671 44.3147 39.5657 44.3443 39.562 44.3736V44.3736Z" fill="url(#paint23_radial_1599_2761)"/>
<path fill-rule="evenodd" clip-rule="evenodd" d="M38.5983 45.6706C38.4685 45.6997 38.4518 46.1098 38.5455 46.1293C38.4483 46.1185 38.3562 46.1076 38.2584 46.0967C38.1484 46.0768 38.1745 45.6606 38.311 45.6394C38.4071 45.6481 38.5021 45.6619 38.5983 45.6706V45.6706Z" fill="#848080"/>
<path d="M38.663 45.9099C38.66 45.9408 38.6546 45.9713 38.6471 45.9997C38.6397 46.0281 38.6303 46.0537 38.6195 46.075C38.6088 46.0963 38.5969 46.1129 38.5845 46.1237C38.5722 46.1346 38.5597 46.1395 38.5478 46.1382C38.5358 46.1368 38.5247 46.1293 38.5151 46.116C38.5054 46.1027 38.4974 46.0839 38.4916 46.0608C38.4858 46.0377 38.4822 46.0106 38.4812 45.9813C38.4801 45.952 38.4815 45.921 38.4854 45.8902C38.4884 45.8592 38.4938 45.8287 38.5012 45.8003C38.5087 45.7719 38.5181 45.7463 38.5289 45.725C38.5396 45.7037 38.5515 45.6871 38.5638 45.6763C38.5762 45.6654 38.5887 45.6605 38.6006 45.6618C38.6125 45.6632 38.6237 45.6707 38.6333 45.684C38.643 45.6973 38.6509 45.7161 38.6568 45.7392C38.6626 45.7624 38.6661 45.7894 38.6672 45.8187C38.6683 45.848 38.6669 45.879 38.663 45.9099V45.9099Z" fill="#848080"/>
<path fill-rule="evenodd" clip-rule="evenodd" d="M38.5983 45.6706C38.4685 45.6997 38.4518 46.1098 38.5455 46.1293C38.4483 46.1185 38.3562 46.1076 38.2584 46.0967C38.1484 46.0768 38.1745 45.6606 38.311 45.6394C38.4071 45.6481 38.5021 45.6619 38.5983 45.6706V45.6706Z" fill="url(#paint24_linear_1599_2761)"/>
<path d="M38.663 45.9099C38.66 45.9408 38.6546 45.9713 38.6471 45.9997C38.6397 46.0281 38.6303 46.0537 38.6195 46.075C38.6088 46.0963 38.5969 46.1129 38.5845 46.1237C38.5722 46.1346 38.5597 46.1395 38.5478 46.1382C38.5358 46.1368 38.5247 46.1293 38.5151 46.116C38.5054 46.1027 38.4974 46.0839 38.4916 46.0608C38.4858 46.0377 38.4822 46.0106 38.4812 45.9813C38.4801 45.952 38.4815 45.921 38.4854 45.8902C38.4884 45.8592 38.4938 45.8287 38.5012 45.8003C38.5087 45.7719 38.5181 45.7463 38.5289 45.725C38.5396 45.7037 38.5515 45.6871 38.5638 45.6763C38.5762 45.6654 38.5887 45.6605 38.6006 45.6618C38.6125 45.6632 38.6237 45.6707 38.6333 45.684C38.643 45.6973 38.6509 45.7161 38.6568 45.7392C38.6626 45.7624 38.6661 45.7894 38.6672 45.8187C38.6683 45.848 38.6669 45.879 38.663 45.9099V45.9099Z" fill="url(#paint25_radial_1599_2761)"/>
<path fill-rule="evenodd" clip-rule="evenodd" d="M38.6434 44.4073C38.5022 44.4389 38.484 44.885 38.586 44.9062C38.4803 44.8945 38.38 44.8827 38.2736 44.8709C38.1539 44.8491 38.1823 44.3963 38.3308 44.3733C38.4354 44.3828 38.5388 44.3978 38.6434 44.4073V44.4073Z" fill="#848080"/>
<path d="M38.7115 44.6674C38.7082 44.7011 38.7023 44.7343 38.6942 44.7652C38.6861 44.796 38.6759 44.8239 38.6642 44.8471C38.6525 44.8703 38.6395 44.8883 38.6261 44.9001C38.6127 44.9119 38.5991 44.9173 38.5861 44.9158C38.5731 44.9144 38.561 44.9062 38.5505 44.8917C38.54 44.8773 38.5313 44.8568 38.525 44.8316C38.5187 44.8064 38.5148 44.777 38.5136 44.7451C38.5125 44.7132 38.514 44.6795 38.5182 44.646C38.5215 44.6123 38.5273 44.5791 38.5355 44.5482C38.5436 44.5174 38.5538 44.4895 38.5655 44.4663C38.5772 44.4431 38.5902 44.4251 38.6036 44.4133C38.617 44.4015 38.6306 44.3961 38.6436 44.3976C38.6566 44.399 38.6687 44.4072 38.6792 44.4217C38.6897 44.4361 38.6984 44.4566 38.7047 44.4817C38.711 44.5069 38.7149 44.5364 38.7161 44.5683C38.7172 44.6001 38.7157 44.6339 38.7115 44.6674V44.6674Z" fill="#848080"/>
<path fill-rule="evenodd" clip-rule="evenodd" d="M38.6434 44.4073C38.5022 44.4389 38.484 44.885 38.586 44.9062C38.4803 44.8945 38.38 44.8827 38.2736 44.8709C38.1539 44.8491 38.1823 44.3963 38.3308 44.3733C38.4354 44.3828 38.5388 44.3978 38.6434 44.4073V44.4073Z" fill="url(#paint26_linear_1599_2761)"/>
<path d="M38.7115 44.6674C38.7082 44.7011 38.7023 44.7343 38.6942 44.7652C38.6861 44.796 38.6759 44.8239 38.6642 44.8471C38.6525 44.8703 38.6395 44.8883 38.6261 44.9001C38.6127 44.9119 38.5991 44.9173 38.5861 44.9158C38.5731 44.9144 38.561 44.9062 38.5505 44.8917C38.54 44.8773 38.5313 44.8568 38.525 44.8316C38.5187 44.8064 38.5148 44.777 38.5136 44.7451C38.5125 44.7132 38.514 44.6795 38.5182 44.646C38.5215 44.6123 38.5273 44.5791 38.5355 44.5482C38.5436 44.5174 38.5538 44.4895 38.5655 44.4663C38.5772 44.4431 38.5902 44.4251 38.6036 44.4133C38.617 44.4015 38.6306 44.3961 38.6436 44.3976C38.6566 44.399 38.6687 44.4072 38.6792 44.4217C38.6897 44.4361 38.6984 44.4566 38.7047 44.4817C38.711 44.5069 38.7149 44.5364 38.7161 44.5683C38.7172 44.6001 38.7157 44.6339 38.7115 44.6674V44.6674Z" fill="url(#paint27_radial_1599_2761)"/>
<path d="M62.2685 34.5919C62.1915 35.2857 62.0568 35.9661 61.8721 36.5945C61.6873 37.2228 61.4562 37.7867 61.1918 38.254C60.9274 38.7213 60.6349 39.0827 60.3311 39.3178C60.0274 39.5529 59.7182 39.6569 59.4212 39.6239C59.1243 39.591 58.8454 39.4217 58.6005 39.1258C58.3556 38.8299 58.1495 38.4131 57.9939 37.8993C57.8384 37.3854 57.7364 36.7845 57.6939 36.131C57.6513 35.4774 57.669 34.784 57.746 34.0902C57.823 33.3965 57.9576 32.716 58.1424 32.0876C58.3271 31.4593 58.5583 30.8954 58.8227 30.4281C59.0871 29.9609 59.3795 29.5994 59.6833 29.3643C59.9871 29.1293 60.2963 29.0252 60.5933 29.0582C60.8902 29.0911 61.1691 29.2604 61.414 29.5563C61.6589 29.8522 61.865 30.269 62.0206 30.7829C62.1761 31.2967 62.2781 31.8976 62.3206 32.5511C62.3631 33.2047 62.3454 33.8981 62.2685 34.5919Z" fill="#050402"/>
<path d="M62.2685 34.5919C62.1915 35.2857 62.0568 35.9661 61.8721 36.5945C61.6873 37.2228 61.4562 37.7867 61.1918 38.254C60.9274 38.7213 60.6349 39.0827 60.3311 39.3178C60.0274 39.5529 59.7182 39.6569 59.4212 39.6239C59.1243 39.591 58.8454 39.4217 58.6005 39.1258C58.3556 38.8299 58.1495 38.4131 57.9939 37.8993C57.8384 37.3854 57.7364 36.7845 57.6939 36.131C57.6513 35.4774 57.669 34.784 57.746 34.0902C57.823 33.3965 57.9576 32.716 58.1424 32.0876C58.3271 31.4593 58.5583 30.8954 58.8227 30.4281C59.0871 29.9609 59.3795 29.5994 59.6833 29.3643C59.9871 29.1293 60.2963 29.0252 60.5933 29.0582C60.8902 29.0911 61.1691 29.2604 61.414 29.5563C61.6589 29.8522 61.865 30.269 62.0206 30.7829C62.1761 31.2967 62.2781 31.8976 62.3206 32.5511C62.3631 33.2047 62.3454 33.8981 62.2685 34.5919Z" fill="url(#paint28_linear_1599_2761)"/>
<path d="M61.2558 34.4798C61.2131 34.8643 61.1385 35.2414 61.0361 35.5897C60.9337 35.9379 60.8056 36.2504 60.6591 36.5094C60.5125 36.7684 60.3505 36.9687 60.1821 37.099C60.0137 37.2293 59.8424 37.2869 59.6778 37.2687C59.5132 37.2504 59.3587 37.1566 59.223 36.9926C59.0872 36.8286 58.973 36.5976 58.8868 36.3128C58.8006 36.028 58.7441 35.695 58.7205 35.3328C58.697 34.9706 58.7068 34.5863 58.7494 34.2018C58.7921 33.8173 58.8667 33.4401 58.9691 33.0919C59.0715 32.7437 59.1996 32.4311 59.3461 32.1722C59.4927 31.9132 59.6547 31.7129 59.8231 31.5826C59.9915 31.4523 60.1628 31.3947 60.3274 31.4129C60.492 31.4312 60.6465 31.525 60.7822 31.689C60.918 31.853 61.0322 32.084 61.1184 32.3688C61.2046 32.6536 61.2611 32.9866 61.2847 33.3488C61.3082 33.711 61.2984 34.0953 61.2558 34.4798Z" fill="#6E5E70"/>
<path d="M61.2558 34.4798C61.2131 34.8643 61.1385 35.2414 61.0361 35.5897C60.9337 35.9379 60.8056 36.2504 60.6591 36.5094C60.5125 36.7684 60.3505 36.9687 60.1821 37.099C60.0137 37.2293 59.8424 37.2869 59.6778 37.2687C59.5132 37.2504 59.3587 37.1566 59.223 36.9926C59.0872 36.8286 58.973 36.5976 58.8868 36.3128C58.8006 36.028 58.7441 35.695 58.7205 35.3328C58.697 34.9706 58.7068 34.5863 58.7494 34.2018C58.7921 33.8173 58.8667 33.4401 58.9691 33.0919C59.0715 32.7437 59.1996 32.4311 59.3461 32.1722C59.4927 31.9132 59.6547 31.7129 59.8231 31.5826C59.9915 31.4523 60.1628 31.3947 60.3274 31.4129C60.492 31.4312 60.6465 31.525 60.7822 31.689C60.918 31.853 61.0322 32.084 61.1184 32.3688C61.2046 32.6536 61.2611 32.9866 61.2847 33.3488C61.3082 33.711 61.2984 34.0953 61.2558 34.4798Z" fill="url(#paint29_linear_1599_2761)"/>
<path fill-rule="evenodd" clip-rule="evenodd" d="M60.6004 29.0205C59.0387 28.8472 57.2854 28.6119 55.7236 28.4386C52.3553 28.9944 51.9246 38.7837 54.5975 39.0888C56.144 39.2336 57.868 39.4391 59.4145 39.5839C56.9301 39.5314 57.1706 29.4843 60.6004 29.0205V29.0205Z" fill="black"/>
<path fill-rule="evenodd" clip-rule="evenodd" d="M60.6004 29.0205C59.0387 28.8472 57.2854 28.6119 55.7236 28.4386C52.3553 28.9944 51.9246 38.7837 54.5975 39.0888C56.144 39.2336 57.868 39.4391 59.4145 39.5839C56.9301 39.5314 57.1706 29.4843 60.6004 29.0205V29.0205Z" fill="url(#paint30_linear_1599_2761)"/>
<path fill-rule="evenodd" clip-rule="evenodd" d="M41.3849 44.3644C45.5046 42.4803 54.4245 38.1582 56.2578 36.7385C57.9694 34.9277 57.2245 28.811 60.2147 28.957C60.5831 28.9973 60.8242 29.1045 61.199 29.2657C62.3269 30.421 62.2826 32.572 62.339 33.9474C65.1091 31.2748 65.1382 30.2679 65.3292 29.9833C65.4598 28.0822 64.2159 24.9106 63.874 23.6755C58.1532 22.2429 58.9239 22.7274 53.1942 21.3738C39.5452 18.0232 30.6011 21.9002 29.0331 22.6041C26.7297 24.6631 25.1181 26.9592 22.814 29.0182C17.0915 31.4425 7.46303 37.5721 8.11767 38.1912C8.18861 40.1947 8.32647 41.8579 9.15928 44.9029C16.2587 46.1428 20.8702 47.5061 27.9689 48.7461C30.1851 48.4333 33.7018 47.5456 35.2175 46.3573C36.3985 44.008 37.3176 39.0829 39.026 39.3288C39.5024 39.4014 39.5839 39.4489 39.7072 39.4618C40.9359 39.8367 41.547 42.6262 41.3849 44.3644V44.3644Z" fill="#4A1FB8" stroke="black" stroke-width="0.0563981"/>
<path fill-rule="evenodd" clip-rule="evenodd" d="M29.0096 22.5968C27.6027 23.8335 24.3158 27.767 22.8203 29.036C22.9267 29.306 23.2855 29.5906 23.5919 29.714C25.6944 27.5912 27.8067 25.5112 29.9093 23.3885C29.7311 23.3401 29.1377 22.9644 29.0096 22.5968Z" fill="url(#paint31_linear_1599_2761)"/>
<path fill-rule="evenodd" clip-rule="evenodd" d="M23.4219 29.0239C26.8974 30.7927 33.6631 31.6933 41.0544 31.9811C41.9533 29.8728 43.086 27.7533 43.985 25.6451C38.5858 25.2605 31.0276 24.3487 28.7146 23.374C26.8982 25.3541 25.2375 27.0439 23.4219 29.0239V29.0239Z" fill="#A7A4A1" stroke="black" stroke-width="0.0563981"/>
<path fill-rule="evenodd" clip-rule="evenodd" d="M22.813 29.0182C17.0905 31.4425 12.4677 34.4859 8.05859 38.0147C8.60843 36.7723 21.6037 39.4465 28.7023 40.6857C29.7447 39.4449 42.0208 32.4656 42.1442 32.4793C43.2591 32.7357 23.7248 31.5933 22.813 29.0182V29.0182Z" fill="url(#paint32_linear_1599_2761)"/>
<path fill-rule="evenodd" clip-rule="evenodd" d="M11.8867 39.2232L12.2753 44.628L24.3732 47.2401C24.3765 47.2119 23.6509 41.0363 23.5396 41.0242C18.7911 40.3277 15.1357 39.6964 11.8867 39.2232V39.2232Z" fill="url(#paint33_radial_1599_2761)"/>
<path fill-rule="evenodd" clip-rule="evenodd" d="M44.9387 25.6459L42.25 31.8924L54.9348 26.914L53.8827 23.4449L44.9387 25.6459V25.6459Z" fill="#A7A4A1" stroke="black" stroke-width="0.0563981"/>
<path fill-rule="evenodd" clip-rule="evenodd" d="M22.8164 29.0182C17.0939 31.4425 9.36966 36.5418 8.12891 37.9663C12.0882 36.7312 22.6229 40.3567 29.7223 41.5967C30.7647 40.3559 42.0242 32.4656 42.1476 32.4793C43.2625 32.7357 23.7282 31.5933 22.8164 29.0182V29.0182Z" fill="url(#paint34_linear_1599_2761)"/>
<path fill-rule="evenodd" clip-rule="evenodd" d="M11.8867 39.2232L12.2753 44.628L24.3732 47.2401C24.3765 47.2119 23.6509 41.0363 23.5396 41.0242C18.7911 40.3277 15.1357 39.6964 11.8867 39.2232V39.2232Z" fill="#000041"/>
<path d="M11.8516 41.3396L23.9754 43.2897L23.947 43.2864" stroke="#828283" stroke-width="0.289104"/>
<path d="M11.8516 41.3396L23.9754 43.2897L23.947 43.2864" stroke="url(#paint35_linear_1599_2761)" stroke-width="0.289104"/>
<path fill-rule="evenodd" clip-rule="evenodd" d="M44.9387 25.6459L42.25 31.8924L54.9348 26.914L53.8827 23.4449L44.9387 25.6459V25.6459Z" fill="url(#paint36_radial_1599_2761)" stroke="#787878" stroke-width="0.0563981"/>
<path fill-rule="evenodd" clip-rule="evenodd" d="M54.6172 23.2869L55.704 26.4408L61.0475 24.3197C58.387 23.8384 57.6364 24.1278 54.6172 23.2869Z" fill="#A7A4A1" stroke="black" stroke-width="0.0563981"/>
<path fill-rule="evenodd" clip-rule="evenodd" d="M54.6934 22.5775C56.6968 22.9862 58.7002 23.395 60.7036 23.8029C60.0458 23.3385 58.2439 22.5065 54.0807 21.6318C53.2245 21.4302 50.7655 20.8836 49.9102 20.6821C51.945 21.3069 54.2427 22.1066 54.6934 22.5775V22.5775Z" fill="#A7A4A1" stroke="black" stroke-width="0.0563981"/>
<path fill-rule="evenodd" clip-rule="evenodd" d="M54.6934 22.5775C56.6968 22.9862 58.7002 23.395 60.7036 23.8029C60.0458 23.3385 58.2439 22.5065 54.0807 21.6318C53.2245 21.4302 50.7655 20.8836 49.9102 20.6821C51.945 21.3069 54.2427 22.1066 54.6934 22.5775V22.5775Z" fill="url(#paint37_linear_1599_2761)" stroke="#787878" stroke-width="0.0563981"/>
<path fill-rule="evenodd" clip-rule="evenodd" d="M54.6172 23.2869L55.704 26.4408L61.0475 24.3197C58.387 23.8384 57.6364 24.1278 54.6172 23.2869Z" fill="url(#paint38_linear_1599_2761)" stroke="#787878" stroke-width="0.0563981"/>
<path fill-rule="evenodd" clip-rule="evenodd" d="M25.5448 31.3958C26.3946 31.8891 28.5415 32.2076 30.7755 32.4551C29.1832 33.7636 27.3798 35.1898 25.1345 36.5385C22.3773 36.4063 21.6823 36.2499 19.957 35.7243C20.0763 35.035 20.4012 34.2836 20.6883 34.1199C22.8029 32.5615 24.6419 31.7061 25.5448 31.3958V31.3958Z" fill="url(#paint39_linear_1599_2761)"/>
<path fill-rule="evenodd" clip-rule="evenodd" d="M20.2227 35.5485C20.2726 35.1777 20.3234 34.8068 20.5967 34.4609C21.9092 34.9269 23.5297 35.0543 24.9382 35.1639C25.1042 35.53 25.043 36.0177 24.9583 36.3563C23.3274 36.3063 21.7762 36.0403 20.2227 35.5485V35.5485Z" fill="black" stroke="#504E4E" stroke-width="0.0563981"/>
<path fill-rule="evenodd" clip-rule="evenodd" d="M20.2227 35.5485C20.2726 35.1777 20.3234 34.8068 20.5967 34.4609C21.9092 34.9269 23.5297 35.0543 24.9382 35.1639C25.1042 35.53 25.043 36.0177 24.9583 36.3563C23.3274 36.3063 21.7762 36.0403 20.2227 35.5485V35.5485Z" fill="url(#paint40_linear_1599_2761)" stroke="#504E4E" stroke-width="0.0563981"/>
<path opacity="0.26702" fill-rule="evenodd" clip-rule="evenodd" d="M62.9956 25.1678C52.0982 30.4686 41.5022 33.1533 29.156 41.3411C28.5239 41.7789 29.0955 42.9672 29.2076 44.3337C29.1592 46.2549 29.7856 46.5806 30.5023 46.9047C30.9957 47.2038 33.3426 46.4807 34.5116 45.7825C36.145 45.1359 35.7378 39.565 38.4918 38.4783C40.2348 38.2009 41.7054 39.8698 41.8505 42.802C46.5394 40.5559 50.8623 38.5524 55.5511 36.3072C56.8024 35.3736 56.8451 29.5649 59.0565 28.1169C59.9853 27.7122 62.9029 28.7135 62.7554 32.4221C65.6972 31.1676 64.8104 25.2565 62.9956 25.1678V25.1678Z" fill="url(#paint41_linear_1599_2761)"/>
<path fill-rule="evenodd" clip-rule="evenodd" d="M41.3843 44.3442C45.504 42.4601 54.4214 38.1582 56.2547 36.7385C57.9663 34.9277 57.2214 28.8111 60.2116 28.957C60.58 28.9973 60.8275 29.2246 61.196 29.2658C62.1634 30.4227 62.4746 32.4124 62.348 33.9087C65.119 31.2361 65.2335 30.4581 65.3286 29.9631C65.4568 28.0823 64.2128 24.9106 63.871 23.6755C54.8657 27.3857 40.6216 31.3127 27.8594 41.0718C28.2222 43.3203 28.8034 45.7527 28.3778 48.6316C30.594 48.3188 33.677 47.5634 35.1926 46.3751C36.0851 44.6522 37.3146 39.0829 39.0229 39.3288C39.4994 39.4014 39.5808 39.449 39.7041 39.4618C40.9328 39.8367 41.5455 42.6069 41.3843 44.3442Z" fill="url(#paint42_linear_1599_2761)"/>
<path fill-rule="evenodd" clip-rule="evenodd" d="M49.9543 20.6974C38.0515 18.7512 30.6005 21.9002 29.0325 22.6041C28.5125 24.1697 43.8457 25.591 44.8889 25.5451C47.9984 24.7768 52.614 23.7464 54.3425 23.2321C54.9931 22.9177 55.7832 22.5121 49.9543 20.6974Z" fill="url(#paint43_linear_1599_2761)"/>
<path fill-rule="evenodd" clip-rule="evenodd" d="M49.9543 20.6974C38.0515 18.7512 30.6005 21.9002 29.0325 22.6041C28.5125 24.1697 43.8457 25.591 44.8889 25.5451C47.9984 24.7768 52.614 23.7464 54.3425 23.2321C54.9931 22.9177 55.7832 22.5121 49.9543 20.6974Z" fill="url(#paint44_linear_1599_2761)"/>
<path fill-rule="evenodd" clip-rule="evenodd" d="M49.9543 20.6974C38.0515 18.7512 30.6005 21.9002 29.0325 22.6041C28.5125 24.1697 43.8457 25.591 44.8889 25.5451C47.9984 24.7768 52.614 23.7464 54.3425 23.2321C54.9931 22.9177 55.7832 22.5121 49.9543 20.6974Z" fill="url(#paint45_radial_1599_2761)"/>
<path fill-rule="evenodd" clip-rule="evenodd" d="M41.3641 44.3426C45.4846 42.4577 54.3819 38.1542 56.2152 36.7345C57.9268 34.9237 57.2214 28.8111 60.2116 28.957C60.58 28.9973 60.7098 29.032 61.1387 29.2392C62.2537 29.9736 62.2916 32.4317 62.3319 33.9466C65.1028 31.2748 65.2834 30.184 65.385 29.9897C65.5995 28.0581 64.2128 24.9106 63.871 23.6755C54.8657 27.3857 40.6216 31.3127 27.8594 41.0718C28.2222 43.3203 28.8034 45.7527 28.3778 48.6316C30.594 48.3188 33.6197 47.5376 35.1354 46.3485C36.2947 44.1967 37.3146 39.0829 39.0229 39.3288C39.4994 39.4014 39.5808 39.449 39.7041 39.4618C40.9328 39.8367 41.5262 42.6044 41.3641 44.3426V44.3426Z" fill="url(#paint46_linear_1599_2761)"/>
<path fill-rule="evenodd" clip-rule="evenodd" d="M63.8675 23.6562C60.9926 22.9 58.4748 22.4936 55.5273 21.8849C61.4433 23.378 61.4876 24.5027 61.5336 24.597C62.3051 24.2117 63.0226 23.9343 63.8675 23.6562Z" fill="url(#paint47_linear_1599_2761)"/>
<path d="M11.5508 39.4728L23.6915 41.315L23.6631 41.312" stroke="#828283" stroke-width="0.289105"/>
<path d="M11.5508 39.4728L23.6915 41.315L23.6631 41.312" stroke="url(#paint48_linear_1599_2761)" stroke-width="0.289105"/>
<path d="M11.9531 42.0093L24.0769 43.9594L24.0486 43.9561" stroke="#828283" stroke-width="0.289104"/>
<path d="M11.9531 42.0093L24.0769 43.9594L24.0486 43.9561" stroke="url(#paint49_linear_1599_2761)" stroke-width="0.289104"/>
<path d="M11.6055 40.0796L23.7462 41.9218L23.7178 41.9188" stroke="#828283" stroke-width="0.289105"/>
<path d="M11.6055 40.0796L23.7462 41.9218L23.7178 41.9188" stroke="url(#paint50_linear_1599_2761)" stroke-width="0.289105"/>
<path fill-rule="evenodd" clip-rule="evenodd" d="M28.2726 49.4507C27.5164 49.5644 15.4274 47.0386 8.64074 45.5519C8.19007 45.3794 7.93047 44.495 7.88532 43.9726C7.84421 43.5727 8.31825 43.1172 8.58188 43.0333C8.63187 43.1712 8.68266 43.3082 8.73345 43.4453C15.3113 44.6925 26.9037 47.2861 28.4669 47.1869C28.8322 47.199 28.9813 46.8765 29.1732 46.9265C29.7682 47.0773 29.9665 48.002 30.0286 48.63C30.0519 49.1782 28.5984 49.562 28.2726 49.4507Z" fill="#888786"/>
<path d="M11.9844 42.6155L24.2562 44.691L24.2275 44.6874" stroke="#828283" stroke-width="0.291064"/>
<path d="M11.9844 42.6155L24.2562 44.691L24.2275 44.6874" stroke="url(#paint51_linear_1599_2761)" stroke-width="0.291064"/>
<path d="M11.7344 40.7523L23.8751 42.5945L23.8467 42.5915" stroke="#828283" stroke-width="0.289105"/>
<path d="M11.7344 40.7523L23.8751 42.5945L23.8467 42.5915" stroke="url(#paint52_linear_1599_2761)" stroke-width="0.289105"/>
<path d="M12.0703 43.2285L24.3236 45.4114L24.2949 45.4076" stroke="#828283" stroke-width="0.291065"/>
<path d="M12.0703 43.2285L24.3236 45.4114L24.2949 45.4076" stroke="url(#paint53_linear_1599_2761)" stroke-width="0.291065"/>
<path d="M12.1875 43.8171L24.4111 46.1603L24.3824 46.1561" stroke="#828283" stroke-width="0.291065"/>
<path d="M12.1875 43.8171L24.4111 46.1603L24.3824 46.1561" stroke="url(#paint54_linear_1599_2761)" stroke-width="0.291065"/>
<path fill-rule="evenodd" clip-rule="evenodd" d="M23.5273 40.8533L24.2658 46.4097L25.1269 46.5339L24.1715 40.8969L23.5273 40.8533Z" fill="#0857A4"/>
<path fill-rule="evenodd" clip-rule="evenodd" d="M28.2726 49.4507C27.5164 49.5644 15.4274 47.0386 8.64074 45.5519C8.19007 45.3794 7.93047 44.495 7.88532 43.9726C7.84421 43.5727 8.31825 43.1172 8.58188 43.0333C8.63187 43.1712 8.68266 43.3082 8.73345 43.4453C15.3113 44.6925 26.9037 47.2861 28.4669 47.1869C28.8322 47.199 28.9813 46.8765 29.1732 46.9265C29.7682 47.0773 29.9665 48.002 30.0286 48.63C30.0519 49.1782 28.5984 49.562 28.2726 49.4507Z" fill="url(#paint55_linear_1599_2761)"/>
<path fill-rule="evenodd" clip-rule="evenodd" d="M28.2726 49.4507C27.5164 49.5644 15.4274 47.0386 8.64074 45.5519C8.19007 45.3794 7.93047 44.495 7.88532 43.9726C7.84421 43.5727 8.31825 43.1172 8.58188 43.0333C8.63187 43.1712 8.68266 43.3082 8.73345 43.4453C15.3113 44.6925 26.9037 47.2861 28.4669 47.1869C28.8322 47.199 28.9813 46.8765 29.1732 46.9265C29.7682 47.0773 29.9665 48.002 30.0286 48.63C30.0519 49.1782 28.5984 49.562 28.2726 49.4507Z" fill="url(#paint56_linear_1599_2761)"/>
<path d="M54.9481 26.9092C56.796 27.7662 56.7669 32.6494 54.125 37.997" stroke="#144AAA" stroke-width="0.0563981"/>
<path fill-rule="evenodd" clip-rule="evenodd" d="M37.1704 32.0319C34.26 34.7318 28.5529 36.258 24.1445 39.7859C26.4503 40.1028 24.0107 39.7859 26.3769 40.318C27.5661 40.9017 27.9539 40.8074 28.2667 42.4779C30.2209 42.6875 62.3184 29.5366 64.059 25.2065C64.1025 24.2624 64.0243 24.2858 63.4422 23.8247C49.0942 28.3298 45.0406 32.8485 37.1704 32.0319V32.0319Z" fill="url(#paint57_linear_1599_2761)"/>
<path fill-rule="evenodd" clip-rule="evenodd" d="M47.5228 31.7191C47.6048 32.136 47.4478 32.5821 47.0864 32.9593C46.7251 33.3365 46.1889 33.6139 45.5959 33.7304C45.003 33.847 44.4017 33.7932 43.9245 33.5808C43.4472 33.3685 43.1331 33.015 43.0511 32.5981C42.9692 32.1812 43.1262 31.7351 43.4875 31.3579C43.8489 30.9807 44.385 30.7033 44.978 30.5868C45.571 30.4702 46.1722 30.524 46.6495 30.7364C47.1267 30.9487 47.4409 31.3022 47.5228 31.7191V31.7191Z" fill="url(#paint58_radial_1599_2761)"/>
<path d="M54.945 26.9374C56.792 27.7944 56.7396 32.7066 54.0977 38.0534" stroke="url(#paint59_linear_1599_2761)" stroke-width="0.0563981"/>
<path d="M42.3337 31.8617C45.4682 32.9807 42.7747 42.3932 41.9023 44.0258" stroke="#144AAA" stroke-width="0.0563981"/>
<path d="M42.3337 31.8617C45.4682 32.9807 42.7747 42.3932 41.9023 44.0258" stroke="url(#paint60_linear_1599_2761)" stroke-width="0.0563981"/>
<path fill-rule="evenodd" clip-rule="evenodd" d="M23.4219 29.0239C26.8974 30.7927 33.6631 31.6933 41.0544 31.9811C41.9533 29.8728 43.086 27.7533 43.985 25.6451C38.5858 25.2605 31.0276 24.3487 28.7146 23.374C26.8982 25.3541 25.2375 27.0439 23.4219 29.0239V29.0239Z" fill="url(#paint61_linear_1599_2761)" stroke="black" stroke-width="0.0563981"/>
<path fill-rule="evenodd" clip-rule="evenodd" d="M23.4219 29.0239C26.8974 30.7927 33.6631 31.6933 41.0544 31.9811C41.9533 29.8728 43.086 27.7533 43.985 25.6451C38.5858 25.2605 31.0276 24.3487 28.7146 23.374C26.8982 25.3541 25.2375 27.0439 23.4219 29.0239V29.0239Z" fill="url(#paint62_radial_1599_2761)" stroke="#878786" stroke-width="0.0563981"/>
<path fill-rule="evenodd" clip-rule="evenodd" d="M43.4173 32.3213C43.327 32.1786 43.4245 31.956 43.5882 31.8617C44.4879 31.6021 46.1616 31.0297 46.3124 31.2256C46.3962 31.4941 44.3855 32.289 43.9171 32.4962C43.7116 32.547 43.4778 32.4946 43.4173 32.3213V32.3213Z" fill="#747474"/>
<path fill-rule="evenodd" clip-rule="evenodd" d="M43.4173 32.3213C43.327 32.1786 43.4245 31.956 43.5882 31.8617C44.4879 31.6021 46.1616 31.0297 46.3124 31.2256C46.3962 31.4941 44.3855 32.289 43.9171 32.4962C43.7116 32.547 43.4778 32.4946 43.4173 32.3213V32.3213Z" fill="url(#paint63_linear_1599_2761)"/>
<path fill-rule="evenodd" clip-rule="evenodd" d="M43.4173 32.3213C43.327 32.1786 43.4245 31.956 43.5882 31.8617C44.4879 31.6021 46.1616 31.0297 46.3124 31.2256C46.3962 31.4941 44.3855 32.289 43.9171 32.4962C43.7116 32.547 43.4778 32.4946 43.4173 32.3213V32.3213Z" fill="url(#paint64_radial_1599_2761)"/>
<path fill-rule="evenodd" clip-rule="evenodd" d="M43.4173 32.3213C43.327 32.1786 43.4245 31.956 43.5882 31.8617C44.4879 31.6021 46.1616 31.0297 46.3124 31.2256C46.3962 31.4941 44.3855 32.289 43.9171 32.4962C43.7116 32.547 43.4778 32.4946 43.4173 32.3213V32.3213Z" fill="url(#paint65_linear_1599_2761)"/>
<path fill-rule="evenodd" clip-rule="evenodd" d="M46.1439 31.2495C46.1173 31.4888 46.0093 31.7091 45.8435 31.862C45.6776 32.0149 45.4677 32.0878 45.2597 32.0648C45.0517 32.0417 44.8628 31.9245 44.7346 31.739C44.6063 31.5535 44.5491 31.3148 44.5757 31.0755C44.6022 30.8362 44.7103 30.6159 44.8761 30.463C45.0419 30.3101 45.2519 30.2371 45.4599 30.2602C45.6678 30.2833 45.8567 30.4005 45.985 30.586C46.1133 30.7715 46.1704 31.0102 46.1439 31.2495V31.2495Z" fill="#A5A3AE"/>
<path fill-rule="evenodd" clip-rule="evenodd" d="M46.1439 31.2495C46.1173 31.4888 46.0093 31.7091 45.8435 31.862C45.6776 32.0149 45.4677 32.0878 45.2597 32.0648C45.0517 32.0417 44.8628 31.9245 44.7346 31.739C44.6063 31.5535 44.5491 31.3148 44.5757 31.0755C44.6022 30.8362 44.7103 30.6159 44.8761 30.463C45.0419 30.3101 45.2519 30.2371 45.4599 30.2602C45.6678 30.2833 45.8567 30.4005 45.985 30.586C46.1133 30.7715 46.1704 31.0102 46.1439 31.2495V31.2495Z" fill="#A5A3AE"/>
<path fill-rule="evenodd" clip-rule="evenodd" d="M46.1439 31.2495C46.1173 31.4888 46.0093 31.7091 45.8435 31.862C45.6776 32.0149 45.4677 32.0878 45.2597 32.0648C45.0517 32.0417 44.8628 31.9245 44.7346 31.739C44.6063 31.5535 44.5491 31.3148 44.5757 31.0755C44.6022 30.8362 44.7103 30.6159 44.8761 30.463C45.0419 30.3101 45.2519 30.2371 45.4599 30.2602C45.6678 30.2833 45.8567 30.4005 45.985 30.586C46.1133 30.7715 46.1704 31.0102 46.1439 31.2495V31.2495Z" fill="#A5A3AE"/>
<path fill-rule="evenodd" clip-rule="evenodd" d="M46.1439 31.2495C46.1173 31.4888 46.0093 31.7091 45.8435 31.862C45.6776 32.0149 45.4677 32.0878 45.2597 32.0648C45.0517 32.0417 44.8628 31.9245 44.7346 31.739C44.6063 31.5535 44.5491 31.3148 44.5757 31.0755C44.6022 30.8362 44.7103 30.6159 44.8761 30.463C45.0419 30.3101 45.2519 30.2371 45.4599 30.2602C45.6678 30.2833 45.8567 30.4005 45.985 30.586C46.1133 30.7715 46.1704 31.0102 46.1439 31.2495V31.2495Z" fill="url(#paint66_linear_1599_2761)"/>
<path fill-rule="evenodd" clip-rule="evenodd" d="M46.1439 31.2495C46.1173 31.4888 46.0093 31.7091 45.8435 31.862C45.6776 32.0149 45.4677 32.0878 45.2597 32.0648C45.0517 32.0417 44.8628 31.9245 44.7346 31.739C44.6063 31.5535 44.5491 31.3148 44.5757 31.0755C44.6022 30.8362 44.7103 30.6159 44.8761 30.463C45.0419 30.3101 45.2519 30.2371 45.4599 30.2602C45.6678 30.2833 45.8567 30.4005 45.985 30.586C46.1133 30.7715 46.1704 31.0102 46.1439 31.2495V31.2495Z" fill="url(#paint67_linear_1599_2761)"/>
<path fill-rule="evenodd" clip-rule="evenodd" d="M46.1439 31.2495C46.1173 31.4888 46.0093 31.7091 45.8435 31.862C45.6776 32.0149 45.4677 32.0878 45.2597 32.0648C45.0517 32.0417 44.8628 31.9245 44.7346 31.739C44.6063 31.5535 44.5491 31.3148 44.5757 31.0755C44.6022 30.8362 44.7103 30.6159 44.8761 30.463C45.0419 30.3101 45.2519 30.2371 45.4599 30.2602C45.6678 30.2833 45.8567 30.4005 45.985 30.586C46.1133 30.7715 46.1704 31.0102 46.1439 31.2495V31.2495Z" fill="url(#paint68_linear_1599_2761)"/>
<path fill-rule="evenodd" clip-rule="evenodd" d="M46.1439 31.2495C46.1173 31.4888 46.0093 31.7091 45.8435 31.862C45.6776 32.0149 45.4677 32.0878 45.2597 32.0648C45.0517 32.0417 44.8628 31.9245 44.7346 31.739C44.6063 31.5535 44.5491 31.3148 44.5757 31.0755C44.6022 30.8362 44.7103 30.6159 44.8761 30.463C45.0419 30.3101 45.2519 30.2371 45.4599 30.2602C45.6678 30.2833 45.8567 30.4005 45.985 30.586C46.1133 30.7715 46.1704 31.0102 46.1439 31.2495V31.2495Z" fill="url(#paint69_linear_1599_2761)"/>
<path fill-rule="evenodd" clip-rule="evenodd" d="M46.1439 31.2495C46.1173 31.4888 46.0093 31.7091 45.8435 31.862C45.6776 32.0149 45.4677 32.0878 45.2597 32.0648C45.0517 32.0417 44.8628 31.9245 44.7346 31.739C44.6063 31.5535 44.5491 31.3148 44.5757 31.0755C44.6022 30.8362 44.7103 30.6159 44.8761 30.463C45.0419 30.3101 45.2519 30.2371 45.4599 30.2602C45.6678 30.2833 45.8567 30.4005 45.985 30.586C46.1133 30.7715 46.1704 31.0102 46.1439 31.2495V31.2495Z" fill="url(#paint70_linear_1599_2761)"/>
<path fill-rule="evenodd" clip-rule="evenodd" d="M46.1439 31.2495C46.1173 31.4888 46.0093 31.7091 45.8435 31.862C45.6776 32.0149 45.4677 32.0878 45.2597 32.0648C45.0517 32.0417 44.8628 31.9245 44.7346 31.739C44.6063 31.5535 44.5491 31.3148 44.5757 31.0755C44.6022 30.8362 44.7103 30.6159 44.8761 30.463C45.0419 30.3101 45.2519 30.2371 45.4599 30.2602C45.6678 30.2833 45.8567 30.4005 45.985 30.586C46.1133 30.7715 46.1704 31.0102 46.1439 31.2495V31.2495Z" fill="url(#paint71_linear_1599_2761)"/>
<path fill-rule="evenodd" clip-rule="evenodd" d="M45.9564 31.2672C45.9298 31.5065 45.8218 31.7268 45.656 31.8797C45.4901 32.0326 45.2802 32.1055 45.0722 32.0825C44.8642 32.0594 44.6753 31.9422 44.5471 31.7567C44.4188 31.5712 44.3616 31.3325 44.3882 31.0932C44.4147 30.8539 44.5228 30.6336 44.6886 30.4807C44.8544 30.3278 45.0644 30.2548 45.2724 30.2779C45.4803 30.301 45.6692 30.4182 45.7975 30.6037C45.9258 30.7892 45.9829 31.0279 45.9564 31.2672V31.2672Z" fill="#676767"/>
<path fill-rule="evenodd" clip-rule="evenodd" d="M45.9564 31.2672C45.9298 31.5065 45.8218 31.7268 45.656 31.8797C45.4901 32.0326 45.2802 32.1055 45.0722 32.0825C44.8642 32.0594 44.6753 31.9422 44.5471 31.7567C44.4188 31.5712 44.3616 31.3325 44.3882 31.0932C44.4147 30.8539 44.5228 30.6336 44.6886 30.4807C44.8544 30.3278 45.0644 30.2548 45.2724 30.2779C45.4803 30.301 45.6692 30.4182 45.7975 30.6037C45.9258 30.7892 45.9829 31.0279 45.9564 31.2672V31.2672Z" fill="url(#paint72_radial_1599_2761)"/>
<path fill-rule="evenodd" clip-rule="evenodd" d="M45.9564 31.2672C45.9298 31.5065 45.8218 31.7268 45.656 31.8797C45.4901 32.0326 45.2802 32.1055 45.0722 32.0825C44.8642 32.0594 44.6753 31.9422 44.5471 31.7567C44.4188 31.5712 44.3616 31.3325 44.3882 31.0932C44.4147 30.8539 44.5228 30.6336 44.6886 30.4807C44.8544 30.3278 45.0644 30.2548 45.2724 30.2779C45.4803 30.301 45.6692 30.4182 45.7975 30.6037C45.9258 30.7892 45.9829 31.0279 45.9564 31.2672V31.2672Z" fill="url(#paint73_linear_1599_2761)"/>
<path fill-rule="evenodd" clip-rule="evenodd" d="M44.0163 32.0262C43.9897 32.1044 44.0034 32.1617 44.0808 32.2261C44.3267 31.994 44.5718 31.7618 44.8169 31.5296C44.8387 31.4401 44.7323 31.3829 44.6089 31.4272C44.413 31.6312 44.2122 31.8214 44.0163 32.0262V32.0262Z" fill="#636566"/>
<path fill-rule="evenodd" clip-rule="evenodd" d="M44.0161 32.0262C43.9798 32.1117 43.9733 32.1536 44.0805 32.2261C44.3264 31.994 44.5715 31.7618 44.8166 31.5296C44.8384 31.4401 44.6973 31.3482 44.6086 31.4272C44.4127 31.6312 44.212 31.8214 44.0161 32.0262V32.0262Z" fill="url(#paint74_linear_1599_2761)"/>
<path d="M55.6676 28.6467L53.7703 29.3689" stroke="#5B5958" stroke-width="0.484947"/>
<path fill-rule="evenodd" clip-rule="evenodd" d="M55.6676 28.6467L53.7703 29.3689Z" fill="black"/>
<path d="M55.6676 28.6467L53.7703 29.3689" stroke="url(#paint75_linear_1599_2761)" stroke-width="0.484947"/>
<path fill-rule="evenodd" clip-rule="evenodd" d="M55.6705 28.676L53.7736 29.3405Z" fill="#9E9EB1"/>
<path d="M55.6705 28.676L53.7736 29.3405" stroke="url(#paint76_radial_1599_2761)" stroke-width="0.484947"/>
<path d="M27.548 42.9002C27.6443 43.4484 27.5854 44.0007 27.3844 44.4356C27.1834 44.8704 26.8568 45.1522 26.4764 45.219C26.0959 45.2857 25.6929 45.1319 25.3558 44.7915C25.0188 44.451 24.7754 43.9517 24.6792 43.4035C24.583 42.8553 24.6418 42.303 24.8428 41.8682C25.0438 41.4333 25.3704 41.1515 25.7508 41.0848C26.1313 41.018 26.5344 41.1718 26.8714 41.5122C27.2084 41.8527 27.4518 42.352 27.548 42.9002V42.9002Z" fill="#827F7C" stroke="url(#paint77_linear_1599_2761)" stroke-width="0.182702"/>
<path d="M27.548 42.9002C27.6443 43.4484 27.5854 44.0007 27.3844 44.4356C27.1834 44.8704 26.8568 45.1522 26.4764 45.219C26.0959 45.2857 25.6929 45.1319 25.3558 44.7915C25.0188 44.451 24.7754 43.9517 24.6792 43.4035C24.583 42.8553 24.6418 42.303 24.8428 41.8682C25.0438 41.4333 25.3704 41.1515 25.7508 41.0848C26.1313 41.018 26.5344 41.1718 26.8714 41.5122C27.2084 41.8527 27.4518 42.352 27.548 42.9002V42.9002Z" fill="url(#paint78_radial_1599_2761)" stroke="url(#paint79_linear_1599_2761)" stroke-width="0.182702"/>
<path fill-rule="evenodd" clip-rule="evenodd" d="M28.2726 49.4507C27.5164 49.5644 15.4274 47.0386 8.64074 45.5519C8.19007 45.3794 7.93047 44.495 7.88532 43.9726C7.84421 43.5727 8.31825 43.1172 8.58188 43.0333C8.63187 43.1712 8.68266 43.3082 8.73345 43.4453C15.3113 44.6925 26.9037 47.2861 28.4669 47.1869C28.8322 47.199 28.9813 46.8765 29.1732 46.9265C29.7682 47.0773 29.9665 48.002 30.0286 48.63C30.0519 49.1782 28.5984 49.562 28.2726 49.4507Z" fill="url(#paint80_radial_1599_2761)"/>
<path d="M25.7988 47.721C25.797 47.7925 25.7747 47.8605 25.7367 47.9099C25.6987 47.9593 25.6482 47.9861 25.5963 47.9844C25.5444 47.9827 25.4953 47.9527 25.4599 47.9009C25.4244 47.8491 25.4055 47.7798 25.4073 47.7083C25.4091 47.6368 25.4314 47.5688 25.4694 47.5194C25.5074 47.47 25.5579 47.4432 25.6098 47.4449C25.6617 47.4466 25.7108 47.4766 25.7463 47.5284C25.7817 47.5802 25.8006 47.6494 25.7988 47.721V47.721Z" fill="#827F7C" stroke="url(#paint81_linear_1599_2761)" stroke-width="0.0240295"/>
<path d="M25.7988 47.721C25.797 47.7925 25.7747 47.8605 25.7367 47.9099C25.6987 47.9593 25.6482 47.9861 25.5963 47.9844C25.5444 47.9827 25.4953 47.9527 25.4599 47.9009C25.4244 47.8491 25.4055 47.7798 25.4073 47.7083C25.4091 47.6368 25.4314 47.5688 25.4694 47.5194C25.5074 47.47 25.5579 47.4432 25.6098 47.4449C25.6617 47.4466 25.7108 47.4766 25.7463 47.5284C25.7817 47.5802 25.8006 47.6494 25.7988 47.721V47.721Z" fill="url(#paint82_radial_1599_2761)" stroke="url(#paint83_linear_1599_2761)" stroke-width="0.0240295"/>
<path d="M25.8565 48.6237C25.8723 48.6948 25.8675 48.7666 25.8431 48.8232C25.8187 48.8797 25.7767 48.9164 25.7265 48.9253C25.6762 48.9341 25.6217 48.9142 25.575 48.8701C25.5283 48.826 25.4932 48.7612 25.4774 48.6901C25.4617 48.6189 25.4665 48.5471 25.4909 48.4905C25.5153 48.434 25.5572 48.3973 25.6075 48.3885C25.6578 48.3797 25.7123 48.3995 25.759 48.4436C25.8057 48.4877 25.8408 48.5525 25.8565 48.6237V48.6237Z" fill="#827F7C" stroke="url(#paint84_linear_1599_2761)" stroke-width="0.0240324"/>
<path d="M25.8565 48.6237C25.8723 48.6948 25.8675 48.7666 25.8431 48.8232C25.8187 48.8797 25.7767 48.9164 25.7265 48.9253C25.6762 48.9341 25.6217 48.9142 25.575 48.8701C25.5283 48.826 25.4932 48.7612 25.4774 48.6901C25.4617 48.6189 25.4665 48.5471 25.4909 48.4905C25.5153 48.434 25.5572 48.3973 25.6075 48.3885C25.6578 48.3797 25.7123 48.3995 25.759 48.4436C25.8057 48.4877 25.8408 48.5525 25.8565 48.6237V48.6237Z" fill="url(#paint85_radial_1599_2761)" stroke="url(#paint86_linear_1599_2761)" stroke-width="0.0240324"/>
<path d="M10.1985 44.6379C10.1967 44.7025 10.177 44.764 10.144 44.8089C10.111 44.8537 10.0672 44.8781 10.0223 44.8768C9.97746 44.8755 9.93517 44.8486 9.90476 44.802C9.87435 44.7553 9.85831 44.6928 9.86017 44.6281C9.86203 44.5635 9.88164 44.502 9.91468 44.4572C9.94772 44.4124 9.99149 44.3879 10.0364 44.3892C10.0812 44.3905 10.1235 44.4174 10.1539 44.4641C10.1843 44.5107 10.2004 44.5732 10.1985 44.6379V44.6379Z" fill="#827F7C" stroke="url(#paint87_linear_1599_2761)" stroke-width="0.0212328"/>
<path d="M10.1985 44.6379C10.1967 44.7025 10.177 44.764 10.144 44.8089C10.111 44.8537 10.0672 44.8781 10.0223 44.8768C9.97746 44.8755 9.93517 44.8486 9.90476 44.802C9.87435 44.7553 9.85831 44.6928 9.86017 44.6281C9.86203 44.5635 9.88164 44.502 9.91468 44.4572C9.94772 44.4124 9.99149 44.3879 10.0364 44.3892C10.0812 44.3905 10.1235 44.4174 10.1539 44.4641C10.1843 44.5107 10.2004 44.5732 10.1985 44.6379V44.6379Z" fill="url(#paint88_radial_1599_2761)" stroke="url(#paint89_linear_1599_2761)" stroke-width="0.0212328"/>
<path d="M10.2175 45.3927C10.2529 45.4469 10.2718 45.5086 10.2702 45.5643C10.2686 45.6199 10.2465 45.665 10.2089 45.6895C10.1713 45.714 10.1212 45.716 10.0697 45.695C10.0181 45.674 9.96928 45.6317 9.93396 45.5775C9.89864 45.5233 9.8797 45.4616 9.88132 45.406C9.88293 45.3503 9.90496 45.3053 9.94257 45.2808C9.98017 45.2563 10.0303 45.2543 10.0818 45.2753C10.1334 45.2963 10.1822 45.3385 10.2175 45.3927V45.3927Z" fill="#827F7C" stroke="url(#paint90_linear_1599_2761)" stroke-width="0.0212327"/>
<path d="M10.2175 45.3927C10.2529 45.4469 10.2718 45.5086 10.2702 45.5643C10.2686 45.6199 10.2465 45.665 10.2089 45.6895C10.1713 45.714 10.1212 45.716 10.0697 45.695C10.0181 45.674 9.96928 45.6317 9.93396 45.5775C9.89864 45.5233 9.8797 45.4616 9.88132 45.406C9.88293 45.3503 9.90496 45.3053 9.94257 45.2808C9.98017 45.2563 10.0303 45.2543 10.0818 45.2753C10.1334 45.2963 10.1822 45.3385 10.2175 45.3927V45.3927Z" fill="url(#paint91_radial_1599_2761)" stroke="url(#paint92_linear_1599_2761)" stroke-width="0.0212327"/>
<path fill-rule="evenodd" clip-rule="evenodd" d="M11.1992 38.6153L11.3435 43.8645L12.1852 44.0774L11.8345 38.7282L11.1992 38.6153Z" fill="#0857A4"/>
<path d="M11.291 40.1563C11.3706 40.6099 11.3219 41.0669 11.1556 41.4267C10.9893 41.7865 10.719 42.0197 10.4043 42.075C10.0895 42.1302 9.75601 42.003 9.47716 41.7212C9.1983 41.4395 8.99692 41.0264 8.91732 40.5728C8.83772 40.1192 8.88642 39.6622 9.05271 39.3023C9.21899 38.9425 9.48925 38.7093 9.80401 38.6541C10.1188 38.5989 10.4523 38.7261 10.7311 39.0078C11.01 39.2895 11.2114 39.7026 11.291 40.1563V40.1563Z" fill="#827F7C" stroke="url(#paint93_linear_1599_2761)" stroke-width="0.15117"/>
<path d="M11.291 40.1563C11.3706 40.6099 11.3219 41.0669 11.1556 41.4267C10.9893 41.7865 10.719 42.0197 10.4043 42.075C10.0895 42.1302 9.75601 42.003 9.47716 41.7212C9.1983 41.4395 8.99692 41.0264 8.91732 40.5728C8.83772 40.1192 8.88642 39.6622 9.05271 39.3023C9.21899 38.9425 9.48925 38.7093 9.80401 38.6541C10.1188 38.5989 10.4523 38.7261 10.7311 39.0078C11.01 39.2895 11.2114 39.7026 11.291 40.1563V40.1563Z" fill="url(#paint94_radial_1599_2761)" stroke="url(#paint95_linear_1599_2761)" stroke-width="0.15117"/>
<path fill-rule="evenodd" clip-rule="evenodd" d="M15.5033 35.2594C15.6531 35.616 15.596 36.0431 15.3447 36.4469C15.0934 36.8506 14.6684 37.1979 14.1632 37.4124C13.6581 37.6268 13.1141 37.6909 12.6509 37.5904C12.1878 37.49 11.8435 37.2332 11.6937 36.8767C11.5439 36.5201 11.6009 36.093 11.8522 35.6893C12.1035 35.2855 12.5285 34.9382 13.0337 34.7237C13.5389 34.5093 14.0829 34.4452 14.546 34.5457C15.0092 34.6462 15.3535 34.9029 15.5033 35.2594V35.2594Z" fill="url(#paint96_radial_1599_2761)"/>
<path fill-rule="evenodd" clip-rule="evenodd" d="M13.2318 36.3306C13.25 36.3826 13.2172 36.4499 13.1408 36.5178C13.0643 36.5857 12.9504 36.6486 12.8242 36.6926C12.6979 36.7367 12.5696 36.7582 12.4675 36.7526C12.3655 36.747 12.2979 36.7146 12.2798 36.6626C12.2617 36.6106 12.2944 36.5433 12.3709 36.4754C12.4473 36.4075 12.5612 36.3446 12.6875 36.3006C12.8137 36.2566 12.942 36.235 13.0441 36.2406C13.1462 36.2463 13.2137 36.2786 13.2318 36.3306V36.3306Z" fill="#888896"/>
<path fill-rule="evenodd" clip-rule="evenodd" d="M13.2318 36.3306C13.25 36.3826 13.2172 36.4499 13.1408 36.5178C13.0643 36.5857 12.9504 36.6486 12.8242 36.6926C12.6979 36.7367 12.5696 36.7582 12.4675 36.7526C12.3655 36.747 12.2979 36.7146 12.2798 36.6626C12.2617 36.6106 12.2944 36.5433 12.3709 36.4754C12.4473 36.4075 12.5612 36.3446 12.6875 36.3006C12.8137 36.2566 12.942 36.235 13.0441 36.2406C13.1462 36.2463 13.2137 36.2786 13.2318 36.3306V36.3306Z" fill="url(#paint97_linear_1599_2761)"/>
<path fill-rule="evenodd" clip-rule="evenodd" d="M13.2318 36.3306C13.25 36.3826 13.2172 36.4499 13.1408 36.5178C13.0643 36.5857 12.9504 36.6486 12.8242 36.6926C12.6979 36.7367 12.5696 36.7582 12.4675 36.7526C12.3655 36.747 12.2979 36.7146 12.2798 36.6626C12.2617 36.6106 12.2944 36.5433 12.3709 36.4754C12.4473 36.4075 12.5612 36.3446 12.6875 36.3006C12.8137 36.2566 12.942 36.235 13.0441 36.2406C13.1462 36.2463 13.2137 36.2786 13.2318 36.3306V36.3306Z" fill="url(#paint98_linear_1599_2761)"/>
<path fill-rule="evenodd" clip-rule="evenodd" d="M12.673 35.9524C12.6776 35.9656 12.6693 35.9826 12.6499 35.9999C12.6305 36.0171 12.6016 36.0331 12.5696 36.0442C12.5375 36.0554 12.505 36.0609 12.4791 36.0594C12.4531 36.058 12.436 36.0498 12.4314 36.0366C12.4268 36.0234 12.4351 36.0063 12.4545 35.9891C12.4739 35.9719 12.5028 35.9559 12.5349 35.9448C12.5669 35.9336 12.5995 35.9281 12.6254 35.9295C12.6513 35.931 12.6684 35.9392 12.673 35.9524V35.9524Z" fill="#888896"/>
<path fill-rule="evenodd" clip-rule="evenodd" d="M12.673 35.9524C12.6776 35.9656 12.6693 35.9826 12.6499 35.9999C12.6305 36.0171 12.6016 36.0331 12.5696 36.0442C12.5375 36.0554 12.505 36.0609 12.4791 36.0594C12.4531 36.058 12.436 36.0498 12.4314 36.0366C12.4268 36.0234 12.4351 36.0063 12.4545 35.9891C12.4739 35.9719 12.5028 35.9559 12.5349 35.9448C12.5669 35.9336 12.5995 35.9281 12.6254 35.9295C12.6513 35.931 12.6684 35.9392 12.673 35.9524V35.9524Z" fill="url(#paint99_linear_1599_2761)"/>
<path fill-rule="evenodd" clip-rule="evenodd" d="M12.673 35.9524C12.6776 35.9656 12.6693 35.9826 12.6499 35.9999C12.6305 36.0171 12.6016 36.0331 12.5696 36.0442C12.5375 36.0554 12.505 36.0609 12.4791 36.0594C12.4531 36.058 12.436 36.0498 12.4314 36.0366C12.4268 36.0234 12.4351 36.0063 12.4545 35.9891C12.4739 35.9719 12.5028 35.9559 12.5349 35.9448C12.5669 35.9336 12.5995 35.9281 12.6254 35.9295C12.6513 35.931 12.6684 35.9392 12.673 35.9524V35.9524Z" fill="url(#paint100_linear_1599_2761)"/>
<path fill-rule="evenodd" clip-rule="evenodd" d="M12.4322 36.0456C12.5299 36.0755 12.6544 36.0228 12.6705 35.9528C12.7306 36.1067 12.7908 36.2605 12.8509 36.4144C12.8116 36.5062 12.7041 36.5389 12.6192 36.5116C12.5569 36.3564 12.4946 36.201 12.4322 36.0456V36.0456Z" fill="#888896"/>
<path fill-rule="evenodd" clip-rule="evenodd" d="M12.4322 36.0456C12.5299 36.0755 12.6544 36.0228 12.6705 35.9528C12.7306 36.1067 12.7908 36.2605 12.8509 36.4144C12.8116 36.5062 12.7041 36.5389 12.6192 36.5116C12.5569 36.3564 12.4946 36.201 12.4322 36.0456V36.0456Z" fill="url(#paint101_linear_1599_2761)"/>
<path fill-rule="evenodd" clip-rule="evenodd" d="M28.7181 37.2595C28.9262 37.5077 28.9316 37.8635 28.733 38.2487C28.5344 38.6339 28.1482 39.017 27.6592 39.3136C27.1702 39.6102 26.6186 39.7961 26.1257 39.8303C25.6328 39.8646 25.2389 39.7444 25.0308 39.4962C24.8227 39.248 24.8173 38.8922 25.0159 38.507C25.2145 38.1218 25.6008 37.7387 26.0897 37.4421C26.5787 37.1455 27.1303 36.9596 27.6232 36.9254C28.1162 36.8911 28.51 37.0113 28.7181 37.2595V37.2595Z" fill="url(#paint102_radial_1599_2761)"/>
<path fill-rule="evenodd" clip-rule="evenodd" d="M26.7486 38.4032C26.7683 38.4594 26.7328 38.5323 26.6501 38.6057C26.5674 38.6791 26.4443 38.7471 26.3077 38.7948C26.1712 38.8424 26.0324 38.8657 25.922 38.8596C25.8116 38.8535 25.7386 38.8185 25.719 38.7623C25.6993 38.7061 25.7348 38.6333 25.8175 38.5598C25.9002 38.4864 26.0233 38.4184 26.1599 38.3708C26.2964 38.3232 26.4352 38.2998 26.5456 38.3059C26.656 38.312 26.729 38.347 26.7486 38.4032V38.4032Z" fill="#888896"/>
<path fill-rule="evenodd" clip-rule="evenodd" d="M26.7486 38.4032C26.7683 38.4594 26.7328 38.5323 26.6501 38.6057C26.5674 38.6791 26.4443 38.7471 26.3077 38.7948C26.1712 38.8424 26.0324 38.8657 25.922 38.8596C25.8116 38.8535 25.7386 38.8185 25.719 38.7623C25.6993 38.7061 25.7348 38.6333 25.8175 38.5598C25.9002 38.4864 26.0233 38.4184 26.1599 38.3708C26.2964 38.3232 26.4352 38.2998 26.5456 38.3059C26.656 38.312 26.729 38.347 26.7486 38.4032V38.4032Z" fill="url(#paint103_linear_1599_2761)"/>
<path fill-rule="evenodd" clip-rule="evenodd" d="M26.7486 38.4032C26.7683 38.4594 26.7328 38.5323 26.6501 38.6057C26.5674 38.6791 26.4443 38.7471 26.3077 38.7948C26.1712 38.8424 26.0324 38.8657 25.922 38.8596C25.8116 38.8535 25.7386 38.8185 25.719 38.7623C25.6993 38.7061 25.7348 38.6333 25.8175 38.5598C25.9002 38.4864 26.0233 38.4184 26.1599 38.3708C26.2964 38.3232 26.4352 38.2998 26.5456 38.3059C26.656 38.312 26.729 38.347 26.7486 38.4032V38.4032Z" fill="url(#paint104_linear_1599_2761)"/>
<path fill-rule="evenodd" clip-rule="evenodd" d="M26.1355 37.9945C26.1405 38.0087 26.1315 38.0272 26.1105 38.0459C26.0895 38.0645 26.0583 38.0817 26.0236 38.0938C25.989 38.1059 25.9538 38.1118 25.9258 38.1103C25.8977 38.1087 25.8792 38.0999 25.8742 38.0856C25.8693 38.0713 25.8782 38.0528 25.8992 38.0342C25.9202 38.0156 25.9515 37.9983 25.9861 37.9862C26.0208 37.9742 26.056 37.9682 26.084 37.9698C26.112 37.9713 26.1306 37.9802 26.1355 37.9945V37.9945Z" fill="#888896"/>
<path fill-rule="evenodd" clip-rule="evenodd" d="M26.1355 37.9945C26.1405 38.0087 26.1315 38.0272 26.1105 38.0459C26.0895 38.0645 26.0583 38.0817 26.0236 38.0938C25.989 38.1059 25.9538 38.1118 25.9258 38.1103C25.8977 38.1087 25.8792 38.0999 25.8742 38.0856C25.8693 38.0713 25.8782 38.0528 25.8992 38.0342C25.9202 38.0156 25.9515 37.9983 25.9861 37.9862C26.0208 37.9742 26.056 37.9682 26.084 37.9698C26.112 37.9713 26.1306 37.9802 26.1355 37.9945V37.9945Z" fill="url(#paint105_linear_1599_2761)"/>
<path fill-rule="evenodd" clip-rule="evenodd" d="M26.1355 37.9945C26.1405 38.0087 26.1315 38.0272 26.1105 38.0459C26.0895 38.0645 26.0583 38.0817 26.0236 38.0938C25.989 38.1059 25.9538 38.1118 25.9258 38.1103C25.8977 38.1087 25.8792 38.0999 25.8742 38.0856C25.8693 38.0713 25.8782 38.0528 25.8992 38.0342C25.9202 38.0156 25.9515 37.9983 25.9861 37.9862C26.0208 37.9742 26.056 37.9682 26.084 37.9698C26.112 37.9713 26.1306 37.9802 26.1355 37.9945V37.9945Z" fill="url(#paint106_linear_1599_2761)"/>
<path fill-rule="evenodd" clip-rule="evenodd" d="M25.8648 38.0952C25.9703 38.1276 26.1051 38.0706 26.1225 37.9949C26.1875 38.1613 26.2525 38.3277 26.3175 38.4942C26.2751 38.5934 26.1588 38.6287 26.067 38.5993C25.9996 38.4314 25.9322 38.2633 25.8648 38.0952V38.0952Z" fill="#888896"/>
<path fill-rule="evenodd" clip-rule="evenodd" d="M25.8648 38.0952C25.9703 38.1276 26.1051 38.0706 26.1225 37.9949C26.1875 38.1613 26.2525 38.3277 26.3175 38.4942C26.2751 38.5934 26.1588 38.6287 26.067 38.5993C25.9996 38.4314 25.9322 38.2633 25.8648 38.0952V38.0952Z" fill="url(#paint107_linear_1599_2761)"/>
<path d="M25.6238 40.0254C28.1658 37.8591 34.9299 35.0446 39.5825 32.5543C30.8771 31.7618 27.2492 31.2523 23.1117 29.5697C18.6768 31.6586 10.5365 36.5684 9.60938 37.61C11.2024 37.6406 20.0054 38.8693 25.6238 40.0254V40.0254Z" stroke="#002C95" stroke-width="0.0563981"/>
<path d="M25.6238 40.0254C28.1658 37.8591 34.9299 35.0446 39.5825 32.5543C30.8771 31.7618 27.2492 31.2523 23.1117 29.5697C18.6768 31.6586 10.5365 36.5684 9.60938 37.61C11.2024 37.6406 20.0054 38.8693 25.6238 40.0254V40.0254Z" stroke="url(#paint108_linear_1599_2761)" stroke-width="0.0563981"/>
<path fill-rule="evenodd" clip-rule="evenodd" d="M8.10156 37.9639C10.105 37.1496 12.4672 38.0058 18.5081 38.8136C23.4396 39.6287 27.8415 40.1245 27.9342 41.4467C28.0955 42.3416 28.4147 44.3627 28.5147 46.4024C22.2102 45.3552 15.0011 44.0338 8.69654 42.9865C8.28376 41.2887 8.19266 39.6263 8.10156 37.9639V37.9639Z" fill="url(#paint109_linear_1599_2761)"/>
</g>
<path d="M30.9611 65.8628H26.6651L25.9451 67.5428H24.6011L28.1411 59.2988H29.4851L33.0251 67.5428H31.6811L30.9611 65.8628ZM30.4931 64.7708L28.8131 60.8588L27.1331 64.7708H30.4931ZM39.6599 61.3388V67.5428H38.4719V66.6428C38.2799 66.9548 38.0079 67.2068 37.6559 67.3988C37.3039 67.5908 36.9199 67.6868 36.5039 67.6868C36.0559 67.6868 35.6519 67.5868 35.2919 67.3868C34.9399 67.1788 34.6639 66.8948 34.4639 66.5348C34.2719 66.1668 34.1759 65.7508 34.1759 65.2868V61.3388H35.3399V65.0828C35.3399 65.5468 35.4719 65.9268 35.7359 66.2228C36.0079 66.5108 36.3519 66.6548 36.7679 66.6548C37.1999 66.6548 37.5799 66.5308 37.9079 66.2828C38.2359 66.0348 38.4239 65.7268 38.4719 65.3588V61.3388H39.6599ZM44.7195 67.2428C44.5515 67.3788 44.3595 67.4868 44.1435 67.5668C43.9275 67.6468 43.7075 67.6868 43.4835 67.6868C43.0035 67.6868 42.6115 67.5308 42.3075 67.2188C42.0035 66.8988 41.8515 66.4908 41.8515 65.9948V62.3468H40.9155V61.3388H41.8515V59.6348H43.0155V61.3388H44.4795V62.3468H43.0155V65.9108C43.0155 66.1268 43.0755 66.3068 43.1955 66.4508C43.3235 66.5868 43.4755 66.6548 43.6515 66.6548C43.7795 66.6548 43.8995 66.6348 44.0115 66.5948C44.1315 66.5468 44.2235 66.4908 44.2875 66.4268L44.7195 67.2428ZM48.8704 67.6868C48.2864 67.6868 47.7424 67.5388 47.2384 67.2428C46.7424 66.9468 46.3424 66.5508 46.0384 66.0548C45.7424 65.5508 45.5944 65.0108 45.5944 64.4348C45.5944 63.8588 45.7424 63.3228 46.0384 62.8268C46.3424 62.3308 46.7424 61.9348 47.2384 61.6388C47.7424 61.3428 48.2864 61.1948 48.8704 61.1948C49.4464 61.1948 49.9824 61.3428 50.4784 61.6388C50.9824 61.9348 51.3824 62.3308 51.6784 62.8268C51.9744 63.3228 52.1224 63.8588 52.1224 64.4348C52.1224 65.0108 51.9744 65.5508 51.6784 66.0548C51.3824 66.5508 50.9824 66.9468 50.4784 67.2428C49.9824 67.5388 49.4464 67.6868 48.8704 67.6868ZM48.8704 66.6548C49.2384 66.6548 49.5784 66.5548 49.8904 66.3548C50.2104 66.1548 50.4624 65.8868 50.6464 65.5508C50.8384 65.2068 50.9344 64.8348 50.9344 64.4348C50.9344 64.0428 50.8384 63.6788 50.6464 63.3428C50.4624 62.9988 50.2104 62.7268 49.8904 62.5268C49.5784 62.3268 49.2384 62.2268 48.8704 62.2268C48.4944 62.2268 48.1464 62.3268 47.8264 62.5268C47.5064 62.7268 47.2504 62.9988 47.0584 63.3428C46.8744 63.6788 46.7824 64.0428 46.7824 64.4348C46.7824 64.8348 46.8744 65.2068 47.0584 65.5508C47.2504 65.8868 47.5064 66.1548 47.8264 66.3548C48.1464 66.5548 48.4944 66.6548 48.8704 66.6548Z" fill="#475467"/>
<defs>
<radialGradient id="paint0_radial_1599_2761" cx="0" cy="0" r="1" gradientUnits="userSpaceOnUse" gradientTransform="translate(20.8453 47.1746) rotate(-10.8294) scale(13.3694 4.49906)">
<stop stop-color="#222223"/>
<stop offset="1" stop-color="#222223" stop-opacity="0"/>
</radialGradient>
<radialGradient id="paint1_radial_1599_2761" cx="0" cy="0" r="1" gradientUnits="userSpaceOnUse" gradientTransform="translate(32.8788 48.4294) rotate(-15.614) scale(12.1588 3.35393)">
<stop stop-color="#222223"/>
<stop offset="1" stop-color="#222223" stop-opacity="0"/>
</radialGradient>
<radialGradient id="paint2_radial_1599_2761" cx="0" cy="0" r="1" gradientUnits="userSpaceOnUse" gradientTransform="translate(33.3998 39.0689) rotate(-20.9951) scale(29.2548 14.5837)">
<stop stop-color="#222223"/>
<stop offset="1" stop-color="#222223" stop-opacity="0"/>
</radialGradient>
<radialGradient id="paint3_radial_1599_2761" cx="0" cy="0" r="1" gradientUnits="userSpaceOnUse" gradientTransform="translate(41.0114 41.6694) rotate(-23.4536) scale(27.6822 7.17072)">
<stop stop-color="#222223"/>
<stop offset="1" stop-color="#222223" stop-opacity="0"/>
</radialGradient>
<radialGradient id="paint4_radial_1599_2761" cx="0" cy="0" r="1" gradientUnits="userSpaceOnUse" gradientTransform="translate(56.6087 37.4134) rotate(-22.2602) scale(8.83305 3.73147)">
<stop stop-color="#222223"/>
<stop offset="1" stop-color="#222223" stop-opacity="0"/>
</radialGradient>
<linearGradient id="paint5_linear_1599_2761" x1="23.3804" y1="28.385" x2="23.4815" y2="28.0622" gradientUnits="userSpaceOnUse">
<stop stop-color="#686868"/>
<stop offset="1" stop-color="#686868" stop-opacity="0"/>
</linearGradient>
<linearGradient id="paint6_linear_1599_2761" x1="23.3804" y1="28.385" x2="23.4815" y2="28.0622" gradientUnits="userSpaceOnUse">
<stop stop-color="#686868"/>
<stop offset="1" stop-color="#686868" stop-opacity="0"/>
</linearGradient>
<linearGradient id="paint7_linear_1599_2761" x1="23.3804" y1="28.385" x2="23.4815" y2="28.0622" gradientUnits="userSpaceOnUse">
<stop stop-color="#686868"/>
<stop offset="1" stop-color="#686868" stop-opacity="0"/>
</linearGradient>
<linearGradient id="paint8_linear_1599_2761" x1="23.4024" y1="26.9161" x2="23.5327" y2="27.8331" gradientUnits="userSpaceOnUse">
<stop stop-color="#686868"/>
<stop offset="1" stop-color="#686868" stop-opacity="0"/>
</linearGradient>
<linearGradient id="paint9_linear_1599_2761" x1="23.4024" y1="26.9161" x2="23.5327" y2="27.8331" gradientUnits="userSpaceOnUse">
<stop stop-color="#686868"/>
<stop offset="1" stop-color="#686868" stop-opacity="0"/>
</linearGradient>
<linearGradient id="paint10_linear_1599_2761" x1="23.4024" y1="26.9161" x2="23.5327" y2="27.8331" gradientUnits="userSpaceOnUse">
<stop stop-color="#686868"/>
<stop offset="1" stop-color="#686868" stop-opacity="0"/>
</linearGradient>
<radialGradient id="paint11_radial_1599_2761" cx="0" cy="0" r="1" gradientUnits="userSpaceOnUse" gradientTransform="translate(22.9579 28.058) rotate(9.34763) scale(0.754341 0.898375)">
<stop stop-color="#B5B5BE"/>
<stop offset="1" stop-color="#B5B5BE" stop-opacity="0"/>
</radialGradient>
<linearGradient id="paint12_linear_1599_2761" x1="22.3511" y1="28.253" x2="23.0097" y2="28.3338" gradientUnits="userSpaceOnUse">
<stop stop-color="#293145"/>
<stop offset="1" stop-color="#293145" stop-opacity="0"/>
</linearGradient>
<linearGradient id="paint13_linear_1599_2761" x1="23.4811" y1="28.6821" x2="23.3991" y2="28.7455" gradientUnits="userSpaceOnUse">
<stop stop-color="#B5B5BE"/>
<stop offset="1" stop-color="#B5B5BE" stop-opacity="0"/>
</linearGradient>
<linearGradient id="paint14_linear_1599_2761" x1="34.8694" y1="44.6603" x2="42.7116" y2="45.6549" gradientUnits="userSpaceOnUse">
<stop stop-color="#373B3B"/>
<stop offset="1" stop-color="#373B3B" stop-opacity="0"/>
</linearGradient>
<linearGradient id="paint15_linear_1599_2761" x1="40.2047" y1="45.0085" x2="40.8999" y2="41.3534" gradientUnits="userSpaceOnUse">
<stop stop-color="#9D9A99"/>
<stop offset="1" stop-color="#9D9A99" stop-opacity="0"/>
</linearGradient>
<linearGradient id="paint16_linear_1599_2761" x1="35.6253" y1="44.2661" x2="33.6846" y2="57.7881" gradientUnits="userSpaceOnUse">
<stop stop-color="#3C3E3C"/>
<stop offset="1" stop-color="#3C3E3C" stop-opacity="0"/>
</linearGradient>
<radialGradient id="paint17_radial_1599_2761" cx="0" cy="0" r="1" gradientUnits="userSpaceOnUse" gradientTransform="translate(38.5469 44.8642) rotate(6.3299) scale(1.42047 5.3737)">
<stop stop-color="#848080"/>
<stop offset="1" stop-color="#848080" stop-opacity="0"/>
</radialGradient>
<linearGradient id="paint18_linear_1599_2761" x1="39.1414" y1="45.6819" x2="39.1641" y2="45.4774" gradientUnits="userSpaceOnUse">
<stop stop-color="#A6A4A1"/>
<stop offset="1" stop-color="#A6A4A1" stop-opacity="0"/>
</linearGradient>
<radialGradient id="paint19_radial_1599_2761" cx="0" cy="0" r="1" gradientUnits="userSpaceOnUse" gradientTransform="translate(39.3218 45.7003) rotate(6.3299) scale(0.0950201 0.24589)">
<stop stop-color="#A0A09D"/>
<stop offset="1" stop-color="#A0A09D" stop-opacity="0"/>
</radialGradient>
<linearGradient id="paint20_linear_1599_2761" x1="38.8695" y1="43.413" x2="38.8932" y2="43.1988" gradientUnits="userSpaceOnUse">
<stop stop-color="#A6A4A1"/>
<stop offset="1" stop-color="#A6A4A1" stop-opacity="0"/>
</linearGradient>
<radialGradient id="paint21_radial_1599_2761" cx="0" cy="0" r="1" gradientUnits="userSpaceOnUse" gradientTransform="translate(39.0609 43.4322) rotate(6.3299) scale(0.0995336 0.25757)">
<stop stop-color="#A0A09D"/>
<stop offset="1" stop-color="#A0A09D" stop-opacity="0"/>
</radialGradient>
<linearGradient id="paint22_linear_1599_2761" x1="39.3367" y1="44.3455" x2="39.3594" y2="44.1409" gradientUnits="userSpaceOnUse">
<stop stop-color="#A6A4A1"/>
<stop offset="1" stop-color="#A6A4A1" stop-opacity="0"/>
</linearGradient>
<radialGradient id="paint23_radial_1599_2761" cx="0" cy="0" r="1" gradientUnits="userSpaceOnUse" gradientTransform="translate(39.5171 44.3639) rotate(6.3299) scale(0.0950201 0.24589)">
<stop stop-color="#A0A09D"/>
<stop offset="1" stop-color="#A0A09D" stop-opacity="0"/>
</radialGradient>
<linearGradient id="paint24_linear_1599_2761" x1="38.4247" y1="45.8805" x2="38.4485" y2="45.6657" gradientUnits="userSpaceOnUse">
<stop stop-color="#A6A4A1"/>
<stop offset="1" stop-color="#A6A4A1" stop-opacity="0"/>
</linearGradient>
<radialGradient id="paint25_radial_1599_2761" cx="0" cy="0" r="1" gradientUnits="userSpaceOnUse" gradientTransform="translate(38.6159 45.8997) rotate(6.3299) scale(0.0997902 0.258233)">
<stop stop-color="#A0A09D"/>
<stop offset="1" stop-color="#A0A09D" stop-opacity="0"/>
</radialGradient>
<linearGradient id="paint26_linear_1599_2761" x1="38.4545" y1="44.6355" x2="38.4804" y2="44.4018" gradientUnits="userSpaceOnUse">
<stop stop-color="#A6A4A1"/>
<stop offset="1" stop-color="#A6A4A1" stop-opacity="0"/>
</linearGradient>
<radialGradient id="paint27_radial_1599_2761" cx="0" cy="0" r="1" gradientUnits="userSpaceOnUse" gradientTransform="translate(38.6602 44.6563) rotate(6.3299) scale(0.10857 0.280954)">
<stop stop-color="#A0A09D"/>
<stop offset="1" stop-color="#A0A09D" stop-opacity="0"/>
</radialGradient>
<linearGradient id="paint28_linear_1599_2761" x1="56.1451" y1="34.0803" x2="63.6022" y2="35.0302" gradientUnits="userSpaceOnUse">
<stop stop-color="#373B3B"/>
<stop offset="1" stop-color="#373B3B" stop-opacity="0"/>
</linearGradient>
<linearGradient id="paint29_linear_1599_2761" x1="60.8223" y1="34.3859" x2="61.3011" y2="31.6228" gradientUnits="userSpaceOnUse">
<stop stop-color="#9D9A99"/>
<stop offset="1" stop-color="#9D9A99" stop-opacity="0"/>
</linearGradient>
<linearGradient id="paint30_linear_1599_2761" x1="56.8407" y1="33.6982" x2="55.0713" y2="46.1226" gradientUnits="userSpaceOnUse">
<stop stop-color="#3C3E3C"/>
<stop offset="1" stop-color="#3C3E3C" stop-opacity="0"/>
</linearGradient>
<linearGradient id="paint31_linear_1599_2761" x1="25.8871" y1="25.7414" x2="26.8233" y2="26.6245" gradientUnits="userSpaceOnUse">
<stop stop-color="#083486"/>
<stop offset="1" stop-color="#083486" stop-opacity="0"/>
</linearGradient>
<linearGradient id="paint32_linear_1599_2761" x1="22.6871" y1="40.0981" x2="22.894" y2="38.2328" gradientUnits="userSpaceOnUse">
<stop stop-color="#083585"/>
<stop offset="1" stop-color="#083585" stop-opacity="0"/>
</linearGradient>
<radialGradient id="paint33_radial_1599_2761" cx="0" cy="0" r="1" gradientUnits="userSpaceOnUse" gradientTransform="translate(24.4903 41.0877) rotate(6.33007) scale(14.6057 7.24125)">
<stop stop-color="#000016"/>
<stop offset="1" stop-color="#000016" stop-opacity="0"/>
</radialGradient>
<linearGradient id="paint34_linear_1599_2761" x1="17.7405" y1="31.8807" x2="18.7053" y2="33.3722" gradientUnits="userSpaceOnUse">
<stop stop-color="#4FBFA3"/>
<stop offset="1" stop-color="#4FBFA3"/>
</linearGradient>
<linearGradient id="paint35_linear_1599_2761" x1="17.915" y1="42.2934" x2="17.9334" y2="42.1755" gradientUnits="userSpaceOnUse">
<stop stop-color="#AEAEC0"/>
<stop offset="1" stop-color="#AEAEC0" stop-opacity="0"/>
</linearGradient>
<radialGradient id="paint36_radial_1599_2761" cx="0" cy="0" r="1" gradientUnits="userSpaceOnUse" gradientTransform="translate(52.6904 24.7383) rotate(6.32997) scale(9.13844 7.34323)">
<stop stop-color="#C4D9E6"/>
<stop offset="1" stop-color="#C4D9E6" stop-opacity="0"/>
</radialGradient>
<linearGradient id="paint37_linear_1599_2761" x1="54.7368" y1="23.8169" x2="55.1528" y2="20.2782" gradientUnits="userSpaceOnUse">
<stop stop-color="#C0D0DB"/>
<stop offset="1" stop-color="#C0D0DB" stop-opacity="0"/>
</linearGradient>
<linearGradient id="paint38_linear_1599_2761" x1="59.3997" y1="24.4413" x2="59.3345" y2="25.6051" gradientUnits="userSpaceOnUse">
<stop stop-color="#C4D6E3"/>
<stop offset="1" stop-color="#C4D6E3" stop-opacity="0"/>
</linearGradient>
<linearGradient id="paint39_linear_1599_2761" x1="21.8452" y1="32.4287" x2="23.619" y2="35.8945" gradientUnits="userSpaceOnUse">
<stop stop-color="#083483"/>
<stop offset="1" stop-color="#083483" stop-opacity="0"/>
</linearGradient>
<linearGradient id="paint40_linear_1599_2761" x1="20.8601" y1="35.1399" x2="20.1023" y2="33.5745" gradientUnits="userSpaceOnUse">
<stop stop-color="#62625F"/>
<stop offset="1" stop-color="#62625F" stop-opacity="0"/>
</linearGradient>
<linearGradient id="paint41_linear_1599_2761" x1="30.2484" y1="34.2211" x2="63.6825" y2="37.93" gradientUnits="userSpaceOnUse">
<stop stop-color="#FDFDFA"/>
<stop offset="1" stop-color="#FDFDFA" stop-opacity="0"/>
</linearGradient>
<linearGradient id="paint42_linear_1599_2761" x1="47.7523" y1="36.0301" x2="45.4771" y2="31.5274" gradientUnits="userSpaceOnUse">
<stop stop-color="#0877B6"/>
<stop offset="1" stop-color="#0877B6" stop-opacity="0"/>
</linearGradient>
<linearGradient id="paint43_linear_1599_2761" x1="37.6315" y1="20.3481" x2="37.9071" y2="22.3663" gradientUnits="userSpaceOnUse">
<stop stop-color="#083486"/>
<stop offset="1" stop-color="#083486" stop-opacity="0"/>
</linearGradient>
<linearGradient id="paint44_linear_1599_2761" x1="50.7962" y1="20.3627" x2="50.2034" y2="22.4275" gradientUnits="userSpaceOnUse">
<stop stop-color="#083486"/>
<stop offset="1" stop-color="#083486" stop-opacity="0"/>
</linearGradient>
<radialGradient id="paint45_radial_1599_2761" cx="0" cy="0" r="1" gradientUnits="userSpaceOnUse" gradientTransform="translate(43.5638 24.1691) rotate(6.33016) scale(17.8692 3.88194)">
<stop stop-color="#4FBFA3"/>
<stop offset="1" stop-color="#4FBFA3"/>
</radialGradient>
<linearGradient id="paint46_linear_1599_2761" x1="52.193" y1="39.5356" x2="50.4716" y2="36.1114" gradientUnits="userSpaceOnUse">
<stop stop-color="#47BFA3"/>
<stop offset="1" stop-color="#4FBFA3"/>
</linearGradient>
<linearGradient id="paint47_linear_1599_2761" x1="59.4074" y1="22.4025" x2="59.1828" y2="23.6157" gradientUnits="userSpaceOnUse">
<stop stop-color="#4A1FB8"/>
<stop offset="1" stop-color="#684BAF"/>
</linearGradient>
<linearGradient id="paint48_linear_1599_2761" x1="17.6225" y1="40.3726" x2="17.6398" y2="40.2545" gradientUnits="userSpaceOnUse">
<stop stop-color="#AEAEC0"/>
<stop offset="1" stop-color="#AEAEC0" stop-opacity="0"/>
</linearGradient>
<linearGradient id="paint49_linear_1599_2761" x1="18.0166" y1="42.9631" x2="18.035" y2="42.8452" gradientUnits="userSpaceOnUse">
<stop stop-color="#AEAEC0"/>
<stop offset="1" stop-color="#AEAEC0" stop-opacity="0"/>
</linearGradient>
<linearGradient id="paint50_linear_1599_2761" x1="17.6772" y1="40.9794" x2="17.6945" y2="40.8614" gradientUnits="userSpaceOnUse">
<stop stop-color="#AEAEC0"/>
<stop offset="1" stop-color="#AEAEC0" stop-opacity="0"/>
</linearGradient>
<linearGradient id="paint51_linear_1599_2761" x1="18.122" y1="43.632" x2="18.1414" y2="43.5143" gradientUnits="userSpaceOnUse">
<stop stop-color="#AEAEC0"/>
<stop offset="1" stop-color="#AEAEC0" stop-opacity="0"/>
</linearGradient>
<linearGradient id="paint52_linear_1599_2761" x1="17.8061" y1="41.6521" x2="17.8234" y2="41.5341" gradientUnits="userSpaceOnUse">
<stop stop-color="#AEAEC0"/>
<stop offset="1" stop-color="#AEAEC0" stop-opacity="0"/>
</linearGradient>
<linearGradient id="paint53_linear_1599_2761" x1="18.1989" y1="44.2987" x2="18.2192" y2="44.1811" gradientUnits="userSpaceOnUse">
<stop stop-color="#AEAEC0"/>
<stop offset="1" stop-color="#AEAEC0" stop-opacity="0"/>
</linearGradient>
<linearGradient id="paint54_linear_1599_2761" x1="18.3015" y1="44.9675" x2="18.3234" y2="44.8502" gradientUnits="userSpaceOnUse">
<stop stop-color="#AEAEC0"/>
<stop offset="1" stop-color="#AEAEC0" stop-opacity="0"/>
</linearGradient>
<linearGradient id="paint55_linear_1599_2761" x1="18.9611" y1="46.2331" x2="18.7276" y2="47.3717" gradientUnits="userSpaceOnUse">
<stop stop-color="#C4C2BE"/>
<stop offset="1" stop-color="#C4C2BE" stop-opacity="0"/>
</linearGradient>
<linearGradient id="paint56_linear_1599_2761" x1="7.70293" y1="46.9531" x2="9.51691" y2="47.1543" gradientUnits="userSpaceOnUse">
<stop stop-color="#67677B"/>
<stop offset="1" stop-color="#67677B" stop-opacity="0"/>
</linearGradient>
<linearGradient id="paint57_linear_1599_2761" x1="33.5512" y1="37.2765" x2="32.3389" y2="35.0076" gradientUnits="userSpaceOnUse">
<stop stop-color="#4FBFA3"/>
<stop offset="1" stop-color="#4FBFA3"/>
</linearGradient>
<radialGradient id="paint58_radial_1599_2761" cx="0" cy="0" r="1" gradientUnits="userSpaceOnUse" gradientTransform="translate(44.4506 32.4086) rotate(-11.1205) scale(1.66432 1.17007)">
<stop stop-color="#083486"/>
<stop offset="1" stop-color="#083486" stop-opacity="0"/>
</radialGradient>
<linearGradient id="paint59_linear_1599_2761" x1="49.3768" y1="44.3869" x2="41.7356" y2="34.5835" gradientUnits="userSpaceOnUse">
<stop stop-color="#143187"/>
<stop offset="1" stop-color="#143187" stop-opacity="0"/>
</linearGradient>
<linearGradient id="paint60_linear_1599_2761" x1="49.3769" y1="44.3869" x2="41.7358" y2="34.5835" gradientUnits="userSpaceOnUse">
<stop stop-color="#143187"/>
<stop offset="1" stop-color="#143187" stop-opacity="0"/>
</linearGradient>
<linearGradient id="paint61_linear_1599_2761" x1="26.5368" y1="23.1742" x2="30.5454" y2="28.8274" gradientUnits="userSpaceOnUse">
<stop stop-color="#C0D1DD"/>
<stop offset="1" stop-color="#C0D1DD" stop-opacity="0"/>
</linearGradient>
<radialGradient id="paint62_radial_1599_2761" cx="0" cy="0" r="1" gradientUnits="userSpaceOnUse" gradientTransform="translate(35.5351 28.1725) rotate(6.32995) scale(9.06917 3.39541)">
<stop stop-color="#C0D1DD"/>
<stop offset="1" stop-color="#C0D1DD" stop-opacity="0"/>
</radialGradient>
<linearGradient id="paint63_linear_1599_2761" x1="44.6923" y1="31.332" x2="44.8488" y2="31.7584" gradientUnits="userSpaceOnUse">
<stop stop-color="#AFACB9"/>
<stop offset="1" stop-color="#AFACB9" stop-opacity="0"/>
</linearGradient>
<radialGradient id="paint64_radial_1599_2761" cx="0" cy="0" r="1" gradientUnits="userSpaceOnUse" gradientTransform="translate(43.7153 32.1998) rotate(6.33018) scale(0.549929 0.311452)">
<stop stop-color="#AFACB9"/>
<stop offset="1" stop-color="#AFACB9" stop-opacity="0"/>
</radialGradient>
<linearGradient id="paint65_linear_1599_2761" x1="45.0823" y1="32.2887" x2="44.8982" y2="31.8673" gradientUnits="userSpaceOnUse">
<stop stop-color="#AFACB9"/>
<stop offset="1" stop-color="#AFACB9" stop-opacity="0"/>
</linearGradient>
<linearGradient id="paint66_linear_1599_2761" x1="45.4053" y1="31.6462" x2="45.506" y2="31.2456" gradientUnits="userSpaceOnUse">
<stop stop-color="#686868"/>
<stop offset="1" stop-color="#686868" stop-opacity="0"/>
</linearGradient>
<linearGradient id="paint67_linear_1599_2761" x1="45.4053" y1="31.6462" x2="45.506" y2="31.2456" gradientUnits="userSpaceOnUse">
<stop stop-color="#686868"/>
<stop offset="1" stop-color="#686868" stop-opacity="0"/>
</linearGradient>
<linearGradient id="paint68_linear_1599_2761" x1="45.4053" y1="31.6462" x2="45.506" y2="31.2456" gradientUnits="userSpaceOnUse">
<stop stop-color="#686868"/>
<stop offset="1" stop-color="#686868" stop-opacity="0"/>
</linearGradient>
<linearGradient id="paint69_linear_1599_2761" x1="45.335" y1="29.8549" x2="45.5419" y2="30.968" gradientUnits="userSpaceOnUse">
<stop stop-color="#686868"/>
<stop offset="1" stop-color="#686868" stop-opacity="0"/>
</linearGradient>
<linearGradient id="paint70_linear_1599_2761" x1="45.335" y1="29.8549" x2="45.5419" y2="30.968" gradientUnits="userSpaceOnUse">
<stop stop-color="#686868"/>
<stop offset="1" stop-color="#686868" stop-opacity="0"/>
</linearGradient>
<linearGradient id="paint71_linear_1599_2761" x1="45.335" y1="29.8549" x2="45.5419" y2="30.968" gradientUnits="userSpaceOnUse">
<stop stop-color="#686868"/>
<stop offset="1" stop-color="#686868" stop-opacity="0"/>
</linearGradient>
<radialGradient id="paint72_radial_1599_2761" cx="0" cy="0" r="1" gradientUnits="userSpaceOnUse" gradientTransform="translate(44.8498 31.2728) rotate(6.32997) scale(0.952489 1.09606)">
<stop stop-color="#B5B5BE"/>
<stop offset="1" stop-color="#B5B5BE" stop-opacity="0"/>
</radialGradient>
<linearGradient id="paint73_linear_1599_2761" x1="44.0977" y1="31.5466" x2="44.9335" y2="31.6065" gradientUnits="userSpaceOnUse">
<stop stop-color="#293145"/>
<stop offset="1" stop-color="#293145" stop-opacity="0"/>
</linearGradient>
<linearGradient id="paint74_linear_1599_2761" x1="44.3099" y1="31.8235" x2="44.2245" y2="31.7272" gradientUnits="userSpaceOnUse">
<stop stop-color="#B5B5BE"/>
<stop offset="1" stop-color="#B5B5BE" stop-opacity="0"/>
</linearGradient>
<linearGradient id="paint75_linear_1599_2761" x1="54.634" y1="28.8647" x2="54.5427" y2="28.6309" gradientUnits="userSpaceOnUse">
<stop stop-color="#9F9FB2"/>
<stop offset="1" stop-color="#9F9FB2" stop-opacity="0"/>
</linearGradient>
<radialGradient id="paint76_radial_1599_2761" cx="0" cy="0" r="1" gradientUnits="userSpaceOnUse" gradientTransform="translate(54.0573 29.1739) rotate(19.0453) scale(0.394814 0.375192)">
<stop stop-color="#9F9FB2"/>
<stop offset="1" stop-color="#9F9FB2" stop-opacity="0"/>
</radialGradient>
<linearGradient id="paint77_linear_1599_2761" x1="24.601" y1="43.4173" x2="27.6262" y2="42.8864" gradientUnits="userSpaceOnUse">
<stop stop-color="#534E50"/>
<stop offset="1" stop-color="#534E50" stop-opacity="0"/>
</linearGradient>
<radialGradient id="paint78_radial_1599_2761" cx="0" cy="0" r="1" gradientUnits="userSpaceOnUse" gradientTransform="translate(25.455 43.3152) rotate(-9.95091) scale(2.00221 2.8732)">
<stop stop-color="#CAC8C4"/>
<stop offset="1" stop-color="#CAC8C4" stop-opacity="0"/>
</radialGradient>
<linearGradient id="paint79_linear_1599_2761" x1="24.601" y1="43.4173" x2="27.6262" y2="42.8864" gradientUnits="userSpaceOnUse">
<stop stop-color="#534E50"/>
<stop offset="1" stop-color="#534E50" stop-opacity="0"/>
</linearGradient>
<radialGradient id="paint80_radial_1599_2761" cx="0" cy="0" r="1" gradientUnits="userSpaceOnUse" gradientTransform="translate(28.453 47.7579) rotate(6.32981) scale(4.59364 0.861948)">
<stop stop-color="#C4C2BE"/>
<stop offset="1" stop-color="#C4C2BE" stop-opacity="0"/>
</radialGradient>
<linearGradient id="paint81_linear_1599_2761" x1="25.3966" y1="47.708" x2="25.8096" y2="47.7183" gradientUnits="userSpaceOnUse">
<stop stop-color="#534E50"/>
<stop offset="1" stop-color="#534E50" stop-opacity="0"/>
</linearGradient>
<radialGradient id="paint82_radial_1599_2761" cx="0" cy="0" r="1" gradientUnits="userSpaceOnUse" gradientTransform="translate(25.5119 47.7177) rotate(1.85676) scale(0.269262 0.369422)">
<stop stop-color="#CAC8C4"/>
<stop offset="1" stop-color="#CAC8C4" stop-opacity="0"/>
</radialGradient>
<linearGradient id="paint83_linear_1599_2761" x1="25.3966" y1="47.708" x2="25.8096" y2="47.7183" gradientUnits="userSpaceOnUse">
<stop stop-color="#534E50"/>
<stop offset="1" stop-color="#534E50" stop-opacity="0"/>
</linearGradient>
<linearGradient id="paint84_linear_1599_2761" x1="25.4671" y1="48.6919" x2="25.8629" y2="48.6042" gradientUnits="userSpaceOnUse">
<stop stop-color="#534E50"/>
<stop offset="1" stop-color="#534E50" stop-opacity="0"/>
</linearGradient>
<radialGradient id="paint85_radial_1599_2761" cx="0" cy="0" r="1" gradientUnits="userSpaceOnUse" gradientTransform="translate(25.5802 48.6783) rotate(-9.93264) scale(0.26456 0.375978)">
<stop stop-color="#CAC8C4"/>
<stop offset="1" stop-color="#CAC8C4" stop-opacity="0"/>
</radialGradient>
<linearGradient id="paint86_linear_1599_2761" x1="25.4671" y1="48.6919" x2="25.8629" y2="48.6042" gradientUnits="userSpaceOnUse">
<stop stop-color="#534E50"/>
<stop offset="1" stop-color="#534E50" stop-opacity="0"/>
</linearGradient>
<linearGradient id="paint87_linear_1599_2761" x1="9.85095" y1="44.6279" x2="10.2077" y2="44.6382" gradientUnits="userSpaceOnUse">
<stop stop-color="#534E50"/>
<stop offset="1" stop-color="#534E50" stop-opacity="0"/>
</linearGradient>
<radialGradient id="paint88_radial_1599_2761" cx="0" cy="0" r="1" gradientUnits="userSpaceOnUse" gradientTransform="translate(9.95055 44.6362) rotate(1.64883) scale(0.232678 0.333924)">
<stop stop-color="#CAC8C4"/>
<stop offset="1" stop-color="#CAC8C4" stop-opacity="0"/>
</radialGradient>
<linearGradient id="paint89_linear_1599_2761" x1="9.85095" y1="44.6279" x2="10.2077" y2="44.6382" gradientUnits="userSpaceOnUse">
<stop stop-color="#534E50"/>
<stop offset="1" stop-color="#534E50" stop-opacity="0"/>
</linearGradient>
<linearGradient id="paint90_linear_1599_2761" x1="9.92623" y1="45.5826" x2="10.2253" y2="45.3877" gradientUnits="userSpaceOnUse">
<stop stop-color="#534E50"/>
<stop offset="1" stop-color="#534E50" stop-opacity="0"/>
</linearGradient>
<radialGradient id="paint91_radial_1599_2761" cx="0" cy="0" r="1" gradientUnits="userSpaceOnUse" gradientTransform="translate(10.0128 45.5327) rotate(-33.0934) scale(0.232677 0.333922)">
<stop stop-color="#CAC8C4"/>
<stop offset="1" stop-color="#CAC8C4" stop-opacity="0"/>
</radialGradient>
<linearGradient id="paint92_linear_1599_2761" x1="9.92623" y1="45.5826" x2="10.2253" y2="45.3877" gradientUnits="userSpaceOnUse">
<stop stop-color="#534E50"/>
<stop offset="1" stop-color="#534E50" stop-opacity="0"/>
</linearGradient>
<linearGradient id="paint93_linear_1599_2761" x1="8.85263" y1="40.5842" x2="11.3556" y2="40.145" gradientUnits="userSpaceOnUse">
<stop stop-color="#534E50"/>
<stop offset="1" stop-color="#534E50" stop-opacity="0"/>
</linearGradient>
<radialGradient id="paint94_radial_1599_2761" cx="0" cy="0" r="1" gradientUnits="userSpaceOnUse" gradientTransform="translate(9.55921 40.4997) rotate(-9.95246) scale(1.65659 2.37743)">
<stop stop-color="#CAC8C4"/>
<stop offset="1" stop-color="#CAC8C4" stop-opacity="0"/>
</radialGradient>
<linearGradient id="paint95_linear_1599_2761" x1="8.85263" y1="40.5842" x2="11.3556" y2="40.145" gradientUnits="userSpaceOnUse">
<stop stop-color="#534E50"/>
<stop offset="1" stop-color="#534E50" stop-opacity="0"/>
</linearGradient>
<radialGradient id="paint96_radial_1599_2761" cx="0" cy="0" r="1" gradientUnits="userSpaceOnUse" gradientTransform="translate(12.9017 36.4469) rotate(-23.0019) scale(1.51146 1.06505)">
<stop stop-color="#083486"/>
<stop offset="1" stop-color="#083486" stop-opacity="0"/>
</radialGradient>
<linearGradient id="paint97_linear_1599_2761" x1="12.5147" y1="36.2037" x2="12.6903" y2="36.6547" gradientUnits="userSpaceOnUse">
<stop stop-color="#BECED9"/>
<stop offset="1" stop-color="#BECED9" stop-opacity="0"/>
</linearGradient>
<linearGradient id="paint98_linear_1599_2761" x1="12.5147" y1="36.2037" x2="12.6903" y2="36.6547" gradientUnits="userSpaceOnUse">
<stop stop-color="#BECED9"/>
<stop offset="1" stop-color="#BECED9" stop-opacity="0"/>
</linearGradient>
<linearGradient id="paint99_linear_1599_2761" x1="12.491" y1="35.9202" x2="12.5356" y2="36.0346" gradientUnits="userSpaceOnUse">
<stop stop-color="#BECED9"/>
<stop offset="1" stop-color="#BECED9" stop-opacity="0"/>
</linearGradient>
<linearGradient id="paint100_linear_1599_2761" x1="12.491" y1="35.9202" x2="12.5356" y2="36.0346" gradientUnits="userSpaceOnUse">
<stop stop-color="#BECED9"/>
<stop offset="1" stop-color="#BECED9" stop-opacity="0"/>
</linearGradient>
<linearGradient id="paint101_linear_1599_2761" x1="12.6455" y1="36.2341" x2="12.5411" y2="36.2781" gradientUnits="userSpaceOnUse">
<stop stop-color="#B7C5D0"/>
<stop offset="1" stop-color="#B7C5D0" stop-opacity="0"/>
</linearGradient>
<radialGradient id="paint102_radial_1599_2761" cx="0" cy="0" r="1" gradientUnits="userSpaceOnUse" gradientTransform="translate(26.2126 38.8534) rotate(-31.2409) scale(1.57501 0.881647)">
<stop stop-color="#083486"/>
<stop offset="1" stop-color="#083486" stop-opacity="0"/>
</radialGradient>
<linearGradient id="paint103_linear_1599_2761" x1="25.973" y1="38.2659" x2="26.1629" y2="38.7538" gradientUnits="userSpaceOnUse">
<stop stop-color="#BECED9"/>
<stop offset="1" stop-color="#BECED9" stop-opacity="0"/>
</linearGradient>
<linearGradient id="paint104_linear_1599_2761" x1="25.973" y1="38.2659" x2="26.1629" y2="38.7538" gradientUnits="userSpaceOnUse">
<stop stop-color="#BECED9"/>
<stop offset="1" stop-color="#BECED9" stop-opacity="0"/>
</linearGradient>
<linearGradient id="paint105_linear_1599_2761" x1="25.9387" y1="37.9596" x2="25.9869" y2="38.0834" gradientUnits="userSpaceOnUse">
<stop stop-color="#BECED9"/>
<stop offset="1" stop-color="#BECED9" stop-opacity="0"/>
</linearGradient>
<linearGradient id="paint106_linear_1599_2761" x1="25.9387" y1="37.9596" x2="25.9869" y2="38.0834" gradientUnits="userSpaceOnUse">
<stop stop-color="#BECED9"/>
<stop offset="1" stop-color="#BECED9" stop-opacity="0"/>
</linearGradient>
<linearGradient id="paint107_linear_1599_2761" x1="26.0954" y1="38.2991" x2="25.9825" y2="38.3467" gradientUnits="userSpaceOnUse">
<stop stop-color="#B7C5D0"/>
<stop offset="1" stop-color="#B7C5D0" stop-opacity="0"/>
</linearGradient>
<linearGradient id="paint108_linear_1599_2761" x1="27.9021" y1="40.8228" x2="26.9" y2="24.4201" gradientUnits="userSpaceOnUse">
<stop stop-color="#004AA7"/>
<stop offset="1" stop-color="#004AA7" stop-opacity="0"/>
</linearGradient>
<linearGradient id="paint109_linear_1599_2761" x1="20.3698" y1="38.5053" x2="19.8568" y2="41.8838" gradientUnits="userSpaceOnUse">
<stop stop-color="#47BFA3"/>
<stop offset="1" stop-color="#4A1FB8" stop-opacity="0.26"/>
</linearGradient>
<clipPath id="clip0_1599_2761">
<rect width="64.0329" height="37" fill="white" transform="translate(5.94141 20)"/>
</clipPath>
</defs>
</svg>
