<svg width="130" height="31" viewBox="0 0 130 31" fill="none" xmlns="http://www.w3.org/2000/svg">
    <path d="M37.9725 4.51172C37.924 4.51172 35.3343 4.51172 31.1829 6.44675L30.4748 6.78874C29.6439 7.2038 28.758 7.69487 27.8236 8.27654C27.6717 8.37008 27.2223 8.61854 26.9766 8.80561C29.1622 10.8166 30.4651 12.1671 31.3413 13.1316C32.2175 14.0962 32.7445 14.7715 33.4558 15.5373C39.7249 22.2602 51.6844 13.4473 37.9725 4.51172Z" fill="#439687"/>
    <path d="M27.8343 8.27794C28.7687 7.69334 29.6546 7.2052 30.4855 6.79013L31.1936 6.44814H31.1289L31.1968 6.43353C35.332 4.50435 37.9218 4.4985 37.9864 4.4985C37.967 4.41081 37.7375 4.39619 36.7999 3.78529C36.261 3.42484 35.6937 3.10049 35.1025 2.81485C34.1357 2.1981 31.8822 1.4615 31.8822 1.4615H31.8564C29.0184 0.577733 26.0494 0.0850514 23.0492 0C21.1755 0.0132275 19.3089 0.209229 17.4817 0.5846L17.3459 0.61383C14.9857 1.08736 11.9951 2.5664 11.9951 2.5664C10.3991 3.32664 8.89141 4.22948 7.49451 5.2614L7.42985 5.31109C6.92224 5.69985 3.49509 8.40363 1.22218 12.0925V12.1071C1.09957 12.2899 0.991529 12.4804 0.898866 12.6771C0.898866 12.6771 0.898866 12.6771 0.927964 12.6771C0.895632 12.7414 0.860068 12.8027 0.827736 12.87C0.795404 12.9372 0.746907 13.0337 0.708109 13.1184C0.236779 14.1489 -0.00388132 15.2537 4.73345e-05 16.3688C4.73345e-05 21.0456 4.28398 24.7198 9.47644 24.7198C16.3437 24.7198 18.206 18.4149 22.367 13.1301C23.7022 11.353 25.3879 9.81322 27.3396 8.58778C27.3524 8.57832 27.3666 8.57045 27.3817 8.56439L27.8343 8.27794Z" fill="#4FBFA3"/>
    <path d="M25.4599 20.2686C25.8812 20.2685 26.3001 20.3276 26.7014 20.4439C27.0902 20.5515 27.4501 20.7307 27.7586 20.9701C28.0794 20.7582 28.4308 20.587 28.8029 20.4615C29.2515 20.3199 29.7247 20.2526 30.1997 20.2627C30.5883 20.2634 30.9749 20.3146 31.3474 20.4147C31.7145 20.5126 32.0563 20.6756 32.3529 20.8941C32.6594 21.1328 32.8997 21.4331 33.0545 21.771C33.2377 22.1911 33.3225 22.6409 33.3035 23.0922V27.8742C33.1445 27.9151 32.9824 27.9454 32.8185 27.9648C32.5907 27.9969 32.3604 28.0125 32.1299 28.0116C31.926 28.0139 31.7225 27.9982 31.522 27.9648C31.3552 27.9413 31.1981 27.8788 31.0661 27.7836C30.9358 27.6843 30.8375 27.555 30.7816 27.4094C30.7071 27.2121 30.6731 27.004 30.6814 26.7956V23.1594C30.6934 23.0408 30.677 22.9212 30.6335 22.8087C30.59 22.6963 30.5204 22.5936 30.4292 22.5076C30.2295 22.3619 29.9774 22.288 29.7212 22.3C29.5601 22.3042 29.4017 22.3381 29.2556 22.3994C29.1215 22.4496 28.9971 22.5187 28.887 22.604C28.8915 22.6429 28.8915 22.6821 28.887 22.7209V27.8742C28.7212 27.9141 28.5527 27.9444 28.3826 27.9648C28.1613 27.9966 27.9375 28.0122 27.7134 28.0116C27.5085 28.0138 27.3039 27.9981 27.1023 27.9648C26.9358 27.9403 26.779 27.8779 26.6464 27.7836C26.5169 27.6836 26.4188 27.5546 26.3619 27.4094C26.2874 27.2121 26.2534 27.004 26.2617 26.7956V23.1594C26.2747 23.0395 26.2574 22.9184 26.2109 22.8054C26.1644 22.6925 26.09 22.5906 25.9933 22.5076C25.7974 22.3682 25.5539 22.2948 25.3047 22.3C25.1403 22.297 24.9771 22.3259 24.8262 22.3848C24.7151 22.4328 24.6071 22.4865 24.5028 22.5456V27.8742C24.3439 27.9151 24.1818 27.9454 24.0179 27.9648C23.79 27.9968 23.5598 28.0124 23.3292 28.0116C23.1254 28.0139 22.9218 27.9982 22.7214 27.9648C22.5546 27.9413 22.3974 27.8788 22.2655 27.7836C22.1351 27.6843 22.0369 27.555 21.981 27.4094C21.9064 27.2121 21.8725 27.004 21.8807 26.7956V22.2153C21.8673 21.9872 21.928 21.7606 22.0553 21.5634C22.1885 21.3869 22.3536 21.2317 22.5435 21.1045C22.9356 20.8458 23.3727 20.6482 23.8368 20.5199C24.3599 20.3598 24.9076 20.2749 25.4599 20.2686Z" fill="#439687"/>
    <path d="M36.016 26.0144C35.9028 25.7601 35.7799 25.4766 35.6506 25.1638C35.5213 24.8511 35.3887 24.4886 35.2497 24.0823C35.1107 23.676 34.9684 23.2054 34.8197 22.691C34.671 22.1765 34.4964 21.5685 34.3477 20.8904C34.5083 20.7301 34.7015 20.5991 34.9167 20.5046C35.1649 20.3972 35.4369 20.3422 35.712 20.3438C36.0286 20.3336 36.3411 20.4112 36.6076 20.5659C36.886 20.7762 37.0719 21.0697 37.1314 21.3931L38.3503 25.576H38.415C38.5378 25.231 38.6575 24.8569 38.7771 24.4506C38.8967 24.0443 39.0099 23.6263 39.123 23.1966C39.2362 22.767 39.3429 22.3197 39.4463 21.9047C39.5498 21.4896 39.6274 21.0512 39.7018 20.6332C40.0718 20.4389 40.4928 20.338 40.9207 20.3409C41.2383 20.3297 41.5517 20.4095 41.8163 20.5689C41.9426 20.6646 42.0411 20.7868 42.1031 20.9249C42.1651 21.063 42.1887 21.2127 42.1719 21.361C42.1674 21.68 42.1306 21.998 42.062 22.311C41.9908 22.6705 41.8971 23.0534 41.7775 23.4597C41.6578 23.866 41.5188 24.284 41.3604 24.7137C41.202 25.1434 41.0371 25.5701 40.8592 25.9852C40.6814 26.4002 40.5036 26.7919 40.3193 27.1544C40.135 27.5168 39.954 27.8559 39.7794 28.1511C39.5415 28.5723 39.2725 28.9785 38.9743 29.3671C38.7723 29.6378 38.5346 29.8851 38.2662 30.1037C38.07 30.2663 37.8389 30.3907 37.5873 30.4691C37.3576 30.5363 37.1174 30.5698 36.876 30.5684C36.6811 30.5756 36.4868 30.5455 36.3057 30.48C36.1246 30.4145 35.9608 30.3152 35.8252 30.1885C35.55 29.9156 35.3818 29.5684 35.3467 29.2005C35.67 28.9462 35.9933 28.6656 36.336 28.3557C36.6561 28.0562 36.9552 27.7389 37.2316 27.4058C37.0149 27.3298 36.8219 27.2074 36.6691 27.0492C36.3895 26.7393 36.1688 26.3896 36.016 26.0144Z" fill="#439687"/>
    <path d="M47.6581 22.3077C47.4074 22.3071 47.1587 22.3477 46.9242 22.4276C46.6958 22.5095 46.4903 22.6363 46.3228 22.7988C46.1433 22.9664 46.0036 23.1653 45.9122 23.3834C45.8029 23.6457 45.7502 23.9245 45.757 24.2048C45.7355 24.4621 45.7733 24.7207 45.8679 24.9642C45.9625 25.2077 46.1119 25.4308 46.3066 25.6195C46.4841 25.7734 46.6934 25.8942 46.9225 25.9749C47.1516 26.0556 47.3961 26.0948 47.6419 26.0901C47.9138 26.095 48.1846 26.0594 48.4437 25.9849C48.6497 25.9201 48.8506 25.843 49.0451 25.754C49.2336 25.8786 49.3921 26.0368 49.5107 26.2187C49.6165 26.4047 49.6687 26.6118 49.6626 26.8209C49.6682 27.0158 49.6152 27.2084 49.5093 27.3782C49.4034 27.5481 49.2486 27.6888 49.0613 27.7854C48.5522 28.0372 47.9756 28.1556 47.3962 28.1274C46.7937 28.1314 46.1958 28.0322 45.6341 27.8351C45.1319 27.658 44.6761 27.3882 44.2956 27.043C43.9117 26.6966 43.6141 26.28 43.4226 25.8212C43.2056 25.3162 43.0959 24.7787 43.0993 24.2369C43.0825 23.639 43.1923 23.0438 43.4226 22.4831C43.6094 22.0274 43.9055 21.6147 44.2895 21.2746C44.6735 20.9345 45.136 20.6754 45.6438 20.5159C46.152 20.3511 46.6882 20.268 47.2281 20.2704C47.8312 20.2373 48.4306 20.3764 48.9416 20.6679C49.1278 20.7787 49.2803 20.9297 49.3854 21.1074C49.4904 21.2851 49.5446 21.4837 49.543 21.6851C49.5454 21.8729 49.4977 22.0583 49.404 22.2259C49.3187 22.3829 49.2099 22.5284 49.0807 22.6585C48.8711 22.5676 48.6551 22.4895 48.434 22.4247C48.184 22.3484 47.922 22.3089 47.6581 22.3077Z" fill="#094063"/>
    <path d="M58.6616 24.1954C58.6725 24.7669 58.5729 25.3357 58.3674 25.8762C58.1949 26.337 57.9161 26.7594 57.5494 27.1155C57.192 27.4507 56.757 27.7102 56.2756 27.8755C55.7472 28.0529 55.187 28.1401 54.6234 28.1327C54.0584 28.1398 53.4973 28.0475 52.9713 27.8609C52.4897 27.6849 52.0553 27.4178 51.6974 27.0775C51.3303 26.7207 51.0496 26.2986 50.873 25.8382C50.6689 25.3105 50.5693 24.7544 50.5787 24.1954C50.5701 23.6413 50.6697 23.0901 50.873 22.5673C51.0493 22.1116 51.3277 21.6936 51.6909 21.3397C52.0489 20.9994 52.4832 20.7323 52.9648 20.5563C53.4906 20.3687 54.0517 20.2754 54.6169 20.2815C55.1837 20.2781 55.7455 20.3775 56.2691 20.5738C56.7504 20.7453 57.1866 21.0062 57.5494 21.3397C57.9165 21.6965 58.1973 22.1186 58.3739 22.579C58.5742 23.0983 58.6716 23.6455 58.6616 24.1954ZM53.259 24.1954C53.2249 24.6907 53.3507 25.1842 53.6211 25.616C53.7274 25.7724 53.8776 25.9006 54.0566 25.9874C54.2355 26.0741 54.4367 26.1165 54.6396 26.11C54.84 26.1156 55.0383 26.0721 55.2136 25.9841C55.3889 25.8961 55.5347 25.7669 55.6354 25.6102C55.8915 25.176 56.0112 24.6867 55.9813 24.1954C56.0072 23.7081 55.8782 23.2243 55.6095 22.8012C55.5019 22.6491 55.3537 22.5239 55.1786 22.4373C55.0034 22.3506 54.8069 22.3051 54.6072 22.3051C54.4076 22.3051 54.2111 22.3506 54.0359 22.4373C53.8608 22.5239 53.7126 22.6491 53.605 22.8012C53.3453 23.2267 53.2253 23.7104 53.259 24.1954Z" fill="#094063"/>
    <path d="M64.9142 27.6931C64.7227 27.8246 64.5022 27.9173 64.2676 27.965C63.9608 28.0395 63.6443 28.0759 63.3267 28.0731C62.9714 28.0791 62.6177 28.0276 62.2824 27.9211C62.1504 27.8802 62.0287 27.816 61.9243 27.7322C61.82 27.6484 61.7351 27.5467 61.6746 27.433C61.5808 27.2605 61.4709 27.0208 61.3513 26.711C61.2316 26.4012 61.0861 26.0563 60.9439 25.6763C60.8016 25.2963 60.6497 24.8871 60.4945 24.4515C60.3393 24.016 60.1938 23.5746 60.0548 23.1596C59.9157 22.7445 59.7897 22.3236 59.6765 21.929C59.5633 21.5344 59.4696 21.1836 59.3984 20.8796C59.5631 20.7226 59.7596 20.5956 59.9772 20.5055C60.2284 20.3968 60.5038 20.3418 60.7822 20.3447C61.0969 20.3341 61.4074 20.4117 61.6713 20.5669C61.9454 20.7795 62.1284 21.0722 62.1887 21.3941L62.79 23.7325C62.9032 24.1914 63.0099 24.6094 63.1133 24.9747C63.2168 25.3401 63.2944 25.6295 63.3461 25.8341H63.4237C63.6177 25.0819 63.8236 24.2498 64.0413 23.3379C64.2546 22.4259 64.4519 21.5285 64.6265 20.6458C64.8134 20.551 65.0134 20.4793 65.2214 20.4324C65.4326 20.383 65.6498 20.3575 65.868 20.3564C66.1904 20.3471 66.5084 20.4266 66.7797 20.5844C66.9096 20.678 67.0113 20.7996 67.0757 20.938C67.1401 21.0764 67.1651 21.2272 67.1483 21.3765C67.1365 21.6153 67.0975 21.8524 67.0319 22.0839C66.9576 22.3937 66.8573 22.7416 66.7409 23.1333C66.6245 23.5249 66.4823 23.9371 66.3239 24.3726C66.1654 24.8081 66.0006 25.2495 65.8357 25.65C65.6708 26.0504 65.5123 26.4538 65.3507 26.8192C65.189 27.1845 65.0371 27.4593 64.9142 27.6931Z" fill="#094063"/>
    <path d="M72.3561 28.1327C71.7809 28.138 71.2089 28.0539 70.6652 27.8843C70.1586 27.7225 69.6958 27.4655 69.3072 27.1301C68.9057 26.774 68.5946 26.3431 68.3955 25.8674C68.1656 25.2975 68.0559 24.6937 68.0722 24.0873C68.0544 23.4989 68.1642 22.913 68.3955 22.3627C68.5921 21.9166 68.8894 21.5124 69.2685 21.176C69.6214 20.8709 70.0425 20.6377 70.5035 20.492C70.9594 20.3461 71.4393 20.2709 71.9229 20.2699C72.4326 20.2636 72.9388 20.347 73.4134 20.5154C73.8445 20.6669 74.238 20.8944 74.5708 21.1848C74.902 21.4768 75.1619 21.8283 75.3338 22.2166C75.518 22.6268 75.6103 23.0659 75.6054 23.5085C75.6265 23.7973 75.5208 24.0819 75.3112 24.3007C75.0873 24.494 74.8005 24.6169 74.4932 24.6514L70.6749 25.198C70.7266 25.36 70.8147 25.5106 70.9338 25.6404C71.0528 25.7701 71.2002 25.8763 71.3668 25.9522C71.74 26.1238 72.1541 26.2102 72.5727 26.2035C72.9782 26.2047 73.3815 26.1505 73.769 26.0428C74.0926 25.9579 74.4016 25.833 74.6872 25.6716C74.8613 25.7811 75.0042 25.9264 75.1043 26.0954C75.216 26.2736 75.274 26.4752 75.2724 26.68C75.2825 26.8879 75.2272 27.0942 75.1127 27.2748C74.9982 27.4554 74.8294 27.6029 74.6258 27.7001C74.2814 27.876 73.9046 27.9939 73.5136 28.048C73.131 28.1047 72.7438 28.133 72.3561 28.1327ZM71.9229 22.1581C71.7 22.1529 71.4788 22.1938 71.2762 22.278C71.1071 22.3533 70.9573 22.4598 70.8365 22.5907C70.7234 22.7178 70.6369 22.8624 70.5811 23.0175C70.5254 23.1718 70.4917 23.3319 70.4809 23.4939L73.1224 23.0701C73.077 22.8419 72.959 22.6306 72.7829 22.4621C72.6732 22.3573 72.5392 22.2757 72.3905 22.2231C72.2418 22.1705 72.0821 22.1484 71.9229 22.1581Z" fill="#094063"/>
    <path d="M79.6422 27.875C79.4822 27.9162 79.319 27.9464 79.154 27.9656C78.9272 27.9977 78.698 28.0134 78.4685 28.0124C78.2637 28.0146 78.059 27.9989 77.8575 27.9656C77.6892 27.9443 77.5308 27.8811 77.4 27.783C77.2692 27.6849 77.1713 27.5558 77.1171 27.4102C77.0425 27.2129 77.0086 27.0048 77.0168 26.7964V22.2336C77.0097 22.0264 77.055 21.8204 77.1494 21.6315C77.2402 21.4613 77.3677 21.3092 77.5244 21.1843C77.7098 21.0406 77.9152 20.9197 78.1355 20.8247C78.3877 20.7117 78.6481 20.614 78.9147 20.5324C79.1981 20.4503 79.4877 20.3868 79.7812 20.3424C80.076 20.2968 80.3745 20.2744 80.6736 20.2752C81.0891 20.2585 81.4998 20.3608 81.8472 20.5675C81.9978 20.6767 82.1162 20.818 82.1918 20.9786C82.2674 21.1393 82.2979 21.3144 82.2805 21.4882C82.2809 21.6294 82.2603 21.7701 82.219 21.9062C82.1807 22.0342 82.1287 22.1586 82.0638 22.2775C81.8472 22.2775 81.6274 22.2775 81.4172 22.3096C81.1946 22.3289 80.9733 22.3592 80.7544 22.4002C80.5378 22.4411 80.3341 22.4821 80.1433 22.5288C79.976 22.5673 79.8135 22.6211 79.6583 22.6896L79.6422 27.875Z" fill="#094063"/>
    <path d="M86.9889 20.2698C87.5312 20.2644 88.0707 20.3394 88.5861 20.492C89.0242 20.6229 89.4342 20.8206 89.7986 21.0766C89.9913 21.2056 90.1567 21.365 90.2868 21.5472C90.4128 21.7513 90.4744 21.9829 90.4646 22.2165V27.5247C90.4742 28.0046 90.3637 28.4802 90.1413 28.916C89.9471 29.2943 89.6595 29.6273 89.3007 29.8894C88.9331 30.1608 88.5069 30.36 88.0494 30.474C87.5494 30.5995 87.0325 30.6614 86.5137 30.6582C85.7554 30.6899 84.9994 30.5618 84.3054 30.284C84.0543 30.1775 83.8439 30.0058 83.7011 29.7908C83.5583 29.5758 83.4895 29.3273 83.5036 29.0768C83.4986 28.8638 83.5484 28.6527 83.6491 28.4601C83.7253 28.3071 83.8353 28.1698 83.9724 28.0567C84.2918 28.2275 84.6312 28.3657 84.9844 28.4688C85.3601 28.58 85.753 28.6362 86.1483 28.6354C86.6108 28.6563 87.0707 28.5612 87.4771 28.3607C87.6398 28.2688 87.7718 28.1387 87.8589 27.9842C87.9461 27.8298 87.9851 27.6568 87.9718 27.4838V27.2412C87.4859 27.436 86.9578 27.5299 86.4264 27.5159C85.9769 27.517 85.5306 27.4477 85.1072 27.3113C84.693 27.1757 84.3182 26.9568 84.0112 26.6712C83.6758 26.3506 83.4182 25.9703 83.2546 25.5546C83.0524 25.0318 82.956 24.4802 82.9701 23.9265C82.957 23.3763 83.059 22.8289 83.2708 22.313C83.4466 21.8886 83.7269 21.506 84.0904 21.1941C84.4539 20.8821 84.8912 20.649 85.3691 20.5124C85.8908 20.3524 86.438 20.2704 86.9889 20.2698ZM87.9589 22.4767C87.857 22.4241 87.7484 22.3829 87.6356 22.3539C87.4677 22.3093 87.2932 22.2886 87.1183 22.2925C86.9065 22.2789 86.6941 22.3098 86.4978 22.3828C86.3014 22.4558 86.1265 22.569 85.9867 22.7134C85.7113 23.0592 85.5775 23.4808 85.6084 23.906C85.5633 24.3561 85.6974 24.806 85.9867 25.1746C86.1056 25.3011 86.2546 25.4018 86.4225 25.4691C86.5905 25.5364 86.773 25.5686 86.9566 25.5634C87.319 25.5803 87.6757 25.4762 87.9589 25.2711V22.4767Z" fill="#094063"/>
    <path d="M96.2054 28.1327C95.6302 28.1379 95.0583 28.0539 94.5145 27.8842C93.9961 27.7198 93.5243 27.4537 93.133 27.105C92.7418 26.7563 92.4406 26.3337 92.2513 25.8674C92.0198 25.2979 91.9101 24.6938 91.928 24.0873C91.9085 23.4987 92.0184 22.9126 92.2513 22.3627C92.4456 21.9155 92.7432 21.5109 93.1242 21.176C93.4762 20.8696 93.8976 20.6362 94.3593 20.492C94.8151 20.3458 95.295 20.2707 95.7787 20.2698C96.2884 20.2639 96.7945 20.3473 97.2691 20.5154C97.6994 20.6683 98.0926 20.8957 98.4266 21.1847C98.7531 21.4779 99.0085 21.8293 99.1767 22.2165C99.3583 22.6273 99.4494 23.0662 99.4451 23.5085C99.4671 23.7969 99.3625 24.0815 99.1541 24.3006C98.9301 24.4939 98.6433 24.6169 98.3361 24.6514L94.521 25.2126C94.5734 25.3747 94.6622 25.5253 94.7817 25.6551C94.9013 25.7848 95.0492 25.8909 95.2161 25.9668C95.588 26.1388 96.0011 26.2251 96.4188 26.2181C96.8243 26.2195 97.2276 26.1653 97.6151 26.0574C97.9396 25.9725 98.2497 25.8475 98.5365 25.6861C98.7088 25.7967 98.8504 25.9418 98.9504 26.11C99.0632 26.2879 99.1223 26.4895 99.1217 26.6946C99.1315 26.9025 99.0759 27.1086 98.9615 27.2891C98.8471 27.4697 98.6784 27.6172 98.4751 27.7147C98.132 27.8909 97.7562 28.0087 97.3661 28.0625C96.982 28.1144 96.5938 28.1378 96.2054 28.1327ZM95.7722 22.1581C95.5493 22.1525 95.328 22.1935 95.1256 22.2779C94.9559 22.3525 94.8059 22.4591 94.6859 22.5907C94.5715 22.717 94.4849 22.8618 94.4304 23.0174C94.3732 23.1714 94.3395 23.3317 94.3302 23.4939L96.9685 23.0701C96.9259 22.841 96.8075 22.6291 96.629 22.4621C96.52 22.3571 96.3866 22.2754 96.2385 22.2228C96.0903 22.1703 95.931 22.1481 95.7722 22.1581Z" fill="#094063"/>
    <path d="M105.621 23.2066C105.634 23.0802 105.616 22.9529 105.57 22.8333C105.523 22.7137 105.448 22.6047 105.35 22.5138C105.146 22.3588 104.885 22.2794 104.619 22.2917C104.412 22.2921 104.207 22.3177 104.008 22.3677C103.821 22.4143 103.646 22.4916 103.491 22.5957V27.8746C103.332 27.9155 103.169 27.9458 103.006 27.9652C102.778 27.9972 102.547 28.0129 102.317 28.012C102.113 28.0143 101.91 27.9987 101.709 27.9652C101.542 27.9417 101.385 27.8793 101.253 27.784C101.123 27.6847 101.025 27.5555 100.969 27.4099C100.894 27.2125 100.86 27.0045 100.868 26.796V22.2332C100.857 21.9998 100.918 21.7682 101.043 21.5639C101.17 21.3815 101.332 21.2212 101.522 21.0903C101.921 20.8291 102.367 20.6314 102.841 20.5057C103.414 20.3479 104.01 20.271 104.609 20.2778C105.771 20.2778 106.666 20.5291 107.293 21.0319C107.612 21.2951 107.862 21.6192 108.025 21.9807C108.189 22.3421 108.261 22.732 108.237 23.1218V27.8746C108.077 27.9158 107.914 27.9461 107.749 27.9652C107.522 27.9973 107.293 28.013 107.063 28.012C106.858 28.0142 106.654 27.9985 106.452 27.9652C106.286 27.9401 106.129 27.8778 105.996 27.784C105.867 27.6841 105.769 27.555 105.712 27.4099C105.637 27.2125 105.603 27.0045 105.612 26.796L105.621 23.2066Z" fill="#094063"/>
    <path d="M109.962 18.4457C109.95 18.088 110.09 17.7397 110.353 17.4724C110.489 17.3475 110.651 17.2483 110.83 17.1807C111.009 17.113 111.202 17.0781 111.396 17.0781C111.59 17.0781 111.782 17.113 111.961 17.1807C112.14 17.2483 112.302 17.3475 112.438 17.4724C112.693 17.7443 112.833 18.0892 112.833 18.4457C112.833 18.8022 112.693 19.1471 112.438 19.4191C112.302 19.544 112.14 19.6431 111.961 19.7108C111.782 19.7785 111.59 19.8133 111.396 19.8133C111.202 19.8133 111.009 19.7785 110.83 19.7108C110.651 19.6431 110.489 19.544 110.353 19.4191C110.09 19.1518 109.95 18.8035 109.962 18.4457ZM112.71 27.8753L112.205 27.9601C111.985 27.9953 111.761 28.0129 111.536 28.0127C111.331 28.0149 111.127 27.9992 110.925 27.9659C110.757 27.9447 110.598 27.8814 110.468 27.7833C110.337 27.6852 110.239 27.5562 110.185 27.4106C110.11 27.2132 110.076 27.0052 110.085 26.7967V20.6058L110.576 20.5211C110.798 20.4859 111.023 20.4683 111.248 20.4684C111.452 20.4661 111.656 20.4818 111.856 20.5152C112.023 20.5387 112.18 20.6012 112.312 20.6964C112.442 20.7957 112.541 20.925 112.597 21.0706C112.672 21.2677 112.708 21.4758 112.7 21.6844L112.71 27.8753Z" fill="#094063"/>
    <path d="M114.527 20.6025C114.686 20.5601 114.848 20.5298 115.012 20.5118C115.24 20.4799 115.47 20.4642 115.701 20.4651C115.905 20.4627 116.108 20.4784 116.309 20.5118C116.477 20.5336 116.636 20.5969 116.767 20.6949C116.898 20.7929 116.997 20.9217 117.052 21.0672C117.125 21.2649 117.159 21.4727 117.153 21.681V24.9519C117.136 25.1092 117.154 25.2681 117.207 25.4188C117.26 25.5695 117.346 25.709 117.46 25.8288C117.708 26.0202 118.03 26.1157 118.355 26.0948C118.55 26.0987 118.745 26.0791 118.934 26.0363C119.054 26.0061 119.17 25.965 119.28 25.9135V20.6025C119.44 20.5599 119.603 20.5295 119.768 20.5118C119.995 20.4797 120.224 20.4641 120.454 20.4651C120.659 20.4629 120.863 20.4785 121.065 20.5118C121.233 20.5331 121.391 20.5964 121.522 20.6944C121.653 20.7925 121.751 20.9216 121.805 21.0672C121.88 21.2646 121.914 21.4726 121.905 21.681V26.3052C121.92 26.5301 121.867 26.7542 121.753 26.9546C121.64 27.155 121.469 27.3244 121.259 27.4452C120.864 27.6828 120.426 27.8559 119.966 27.9567C119.436 28.0739 118.894 28.1318 118.349 28.1292C117.83 28.1346 117.313 28.0736 116.813 27.948C116.37 27.8378 115.957 27.6457 115.601 27.3838C115.253 27.1216 114.983 26.785 114.815 26.4046C114.617 25.9388 114.522 25.4421 114.537 24.9431L114.527 20.6025Z" fill="#094063"/>
    <path d="M129.994 25.6851C130.012 26.0276 129.942 26.3693 129.79 26.6832C129.637 26.9971 129.406 27.2748 129.115 27.4944C128.526 27.929 127.664 28.1472 126.528 28.1492C126.122 28.1532 125.716 28.1239 125.316 28.0615C124.985 28.0096 124.665 27.911 124.369 27.7692C124.123 27.6572 123.911 27.4927 123.751 27.2898C123.597 27.0894 123.518 26.8498 123.525 26.6058C123.517 26.3917 123.571 26.1794 123.68 25.9891C123.775 25.8307 123.901 25.6891 124.052 25.5711C124.377 25.7486 124.72 25.8974 125.077 26.0154C125.506 26.1478 125.958 26.2121 126.412 26.2054C126.666 26.2181 126.919 26.1707 127.146 26.068C127.222 26.0347 127.286 25.9829 127.331 25.9183C127.376 25.8537 127.401 25.779 127.401 25.7026C127.404 25.6372 127.388 25.5722 127.356 25.5135C127.324 25.4548 127.276 25.4043 127.217 25.3665C127.026 25.2646 126.815 25.1981 126.596 25.1707L126.134 25.08C125.404 24.9722 124.72 24.6896 124.152 24.2616C123.927 24.0531 123.753 23.804 123.641 23.5305C123.53 23.2569 123.483 22.9652 123.505 22.6744C123.499 22.3218 123.583 21.9726 123.751 21.6543C123.912 21.3544 124.151 21.0938 124.446 20.8943C124.77 20.6803 125.134 20.52 125.52 20.4208C125.969 20.3057 126.433 20.2496 126.9 20.2542C127.26 20.2529 127.619 20.2813 127.974 20.3389C128.276 20.3851 128.57 20.4698 128.846 20.5903C129.078 20.6892 129.279 20.8377 129.432 21.0229C129.579 21.2062 129.655 21.428 129.648 21.6543C129.653 21.8553 129.608 22.0548 129.519 22.2389C129.441 22.3963 129.332 22.5391 129.196 22.6598C129.08 22.5925 128.955 22.5385 128.824 22.499C128.647 22.4385 128.467 22.3877 128.284 22.347C128.089 22.3001 127.891 22.262 127.692 22.233C127.511 22.2031 127.327 22.1875 127.143 22.1863C126.875 22.1748 126.607 22.2136 126.357 22.3003C126.275 22.3261 126.203 22.3748 126.154 22.4393C126.104 22.5039 126.077 22.581 126.079 22.6598C126.078 22.7128 126.092 22.7652 126.118 22.8125C126.145 22.8598 126.183 22.9007 126.231 22.9316C126.412 23.0298 126.611 23.0972 126.819 23.1304L127.298 23.2356C128.284 23.4607 128.989 23.7676 129.406 24.1564C129.611 24.3634 129.768 24.6051 129.869 24.8675C129.97 25.1299 130.013 25.4078 129.994 25.6851Z" fill="#094063"/>
</svg>
