<svg width="76" height="76" viewBox="0 0 76 76" fill="none" xmlns="http://www.w3.org/2000/svg">
<rect width="76" height="76" rx="5.06667" fill="#E6F4F2"/>
<path d="M23.024 60.4268H20.324V59.2988H26.948V60.4268H24.236V67.5428H23.024V60.4268ZM29.5378 62.5268C29.7378 62.1108 30.0378 61.7868 30.4378 61.5548C30.8458 61.3148 31.3138 61.1948 31.8418 61.1948V62.2268C31.2018 62.2268 30.6698 62.3908 30.2458 62.7188C29.8298 63.0388 29.5938 63.4708 29.5378 64.0148V67.5428H28.3498V61.3388H29.5378V62.5268ZM35.6047 61.1948C36.4207 61.1948 37.0567 61.4308 37.5127 61.9028C37.9687 62.3748 38.1967 63.0028 38.1967 63.7868V67.5428H37.0327V66.6908C36.8087 67.0028 36.5047 67.2468 36.1207 67.4228C35.7447 67.5988 35.3607 67.6868 34.9687 67.6868C34.2967 67.6868 33.7447 67.5068 33.3127 67.1468C32.8887 66.7868 32.6767 66.3068 32.6767 65.7068C32.6767 65.3068 32.7847 64.9508 33.0007 64.6388C33.2247 64.3188 33.5247 64.0748 33.9007 63.9068C34.2847 63.7308 34.7047 63.6428 35.1607 63.6428C35.7527 63.6428 36.3767 63.7548 37.0327 63.9788V63.7868C37.0327 63.3308 36.9087 62.9508 36.6607 62.6468C36.4127 62.3348 36.0047 62.1788 35.4367 62.1788C34.9407 62.1788 34.3567 62.3508 33.6847 62.6948L33.2527 61.8188C34.0847 61.4028 34.8687 61.1948 35.6047 61.1948ZM35.1967 66.7508C35.6127 66.7508 35.9967 66.6508 36.3487 66.4508C36.7087 66.2428 36.9367 65.9588 37.0327 65.5988V64.7708C36.5127 64.6108 35.9487 64.5308 35.3407 64.5308C34.9167 64.5308 34.5567 64.6388 34.2607 64.8548C33.9647 65.0708 33.8167 65.3428 33.8167 65.6708C33.8167 65.9988 33.9447 66.2628 34.2007 66.4628C34.4647 66.6548 34.7967 66.7508 35.1967 66.7508ZM39.3148 61.3388H40.5988L42.5308 66.1628L44.4268 61.3388H45.7108L43.0948 67.5428H41.9788L39.3148 61.3388ZM49.2744 66.6308C49.5944 66.6308 49.9224 66.5668 50.2584 66.4388C50.6024 66.3108 50.8664 66.1508 51.0504 65.9588L51.7944 66.7268C51.5224 67.0148 51.1464 67.2468 50.6664 67.4228C50.1944 67.5988 49.7344 67.6868 49.2864 67.6868C48.7104 67.6868 48.1784 67.5468 47.6904 67.2668C47.2024 66.9868 46.8144 66.5988 46.5264 66.1028C46.2384 65.6068 46.0944 65.0468 46.0944 64.4228C46.0944 63.8148 46.2304 63.2668 46.5024 62.7788C46.7824 62.2828 47.1584 61.8948 47.6304 61.6148C48.1024 61.3348 48.6224 61.1948 49.1904 61.1948C49.8144 61.1948 50.3504 61.3468 50.7984 61.6508C51.2464 61.9468 51.5864 62.3708 51.8184 62.9228C52.0584 63.4748 52.1784 64.1188 52.1784 64.8548H47.2944C47.3744 65.3828 47.5904 65.8108 47.9424 66.1388C48.3024 66.4668 48.7464 66.6308 49.2744 66.6308ZM49.2384 62.2508C48.7584 62.2508 48.3384 62.4028 47.9784 62.7068C47.6264 63.0028 47.4024 63.4028 47.3064 63.9068H51.0264C50.9544 63.4028 50.7664 63.0028 50.4624 62.7068C50.1584 62.4028 49.7504 62.2508 49.2384 62.2508ZM53.5554 59.1548H54.7314V67.5428H53.5554V59.1548Z" fill="#475467"/>
<path fill-rule="evenodd" clip-rule="evenodd" d="M52.7319 19.0581C52.797 19.676 50.4951 24.6827 49.5403 27.8199C48.6438 30.7659 48.871 31.5925 48.871 31.5925C48.871 31.5925 51.3844 32.2233 52.4745 32.5907C53.5642 32.9604 54.3508 34.5083 54.1408 35.3446L55.3782 35.863C56.2192 36.2164 55.9907 37.258 54.7521 37.0439L53.5135 36.8298C52.4781 38.1312 50.953 38.0126 50.1362 37.9233C49.3192 37.8362 47.3351 37.4104 47.022 37.5957C46.7342 37.7646 46.0892 39.247 46.3007 39.4215C47.5434 40.4489 47.6445 41.4516 46.2101 41.2668C44.6159 41.0616 43.3874 40.5876 43.3874 40.5876C43.3874 40.5876 38.7312 48.7072 38.4148 48.5954C37.2387 48.1772 33.8658 47.275 33.2464 47.2335C32.4179 47.1764 35.7825 37.525 36.5444 33.7397C36.5891 33.5192 35.873 32.0921 35.5183 31.9574C32.714 30.8929 27.7923 28.7932 25.7196 28.5652C24.5015 28.4301 22.8599 30.937 22.3131 31.1186C21.6651 31.333 18.8235 30.8828 18.6459 30.7815C18.3307 30.6043 19.3709 27.8177 19.4662 27.3097C19.5306 26.9633 20.6469 27.1198 20.6359 26.662C20.6263 26.2893 18.9045 24.4038 18.9323 24.1388C19.1185 22.4783 20.6839 19.655 21.5146 18.7653C21.7703 18.4906 23.004 20.6461 23.3718 20.5598C23.6116 20.5023 24.4991 19.119 24.7832 19.1192C25.201 19.1178 28.2892 19.5681 28.4555 19.9302C28.7531 20.5743 26.9443 24.7436 27.5479 24.9727C31.5484 26.4937 35.3218 26.5283 39.5278 28.0735C41.9531 25.3825 47.5272 17.5446 47.8501 17.6222C48.4825 17.7755 52.7035 18.7911 52.7319 19.0581V19.0581ZM45.5214 37.3202L44.3407 38.7981C44.3407 38.7981 44.9762 39.2936 45.2315 39.1739C45.4864 39.0565 46.0591 37.6816 45.5214 37.3202V37.3202Z" fill="url(#paint0_angular_1599_2969)"/>
<defs>
<radialGradient id="paint0_angular_1599_2969" cx="0" cy="0" r="1" gradientUnits="userSpaceOnUse" gradientTransform="translate(40.4078 30.5882) rotate(-162.316) scale(17.1781 17.0192)">
<stop stop-color="#7552D0"/>
<stop offset="1" stop-color="#4FBFA3"/>
</radialGradient>
</defs>
</svg>
