<svg width="144" height="96" viewBox="0 0 144 96" fill="none" xmlns="http://www.w3.org/2000/svg">
    <g clip-path="url(#clip0_1042_8031)">
        <path d="M127.056 85.2807V80.1814L121.746 80.6994V85.7987L127.056 85.2807Z" fill="#3A5AEA"/>
        <path d="M83.8832 10.5683V14.5492L80.6709 14.5588V10.5779L83.8832 10.5683Z" fill="#3BEB9C"/>
        <path d="M74.5742 59.0901V58.9958L79.9175 58.6566V58.7509L74.5742 59.0901Z" fill="#3A5AEA"/>
        <path d="M40.4195 59.1334V59.0768L43.6255 58.8732V58.9298L40.4195 59.1334Z" fill="#D3EA3A"/>
        <path d="M30.1234 18.7841V26.0399L35.4771 26.0609V18.8052L30.1234 18.7841Z" fill="#3BEB9C"/>
        <path d="M34.93 37.9542V45.1616L40.2812 45.0961V37.8887L34.93 37.9542Z" fill="#3A5AEA"/>
        <path d="M2.12077 39.3592V43.6837L5.33154 43.6444V39.3199L2.12077 39.3592Z" fill="#D3EA3A"/>
        <path d="M94.555 46.0509V51.3504L89.2061 51.1801V45.8806L94.555 46.0509Z" fill="#EA3A89"/>
        <path d="M20.9584 52.1442V52.5147L17.752 52.3195V51.949L20.9584 52.1442Z" fill="#3BEB9C"/>
        <path d="M112.328 81.8031V75.1234L107.012 75.454V82.1337L112.328 81.8031Z" fill="#3BEB9C"/>
        <path d="M93.3805 40.8676C97.2416 39.5349 100.225 37.7991 100.225 36.6481C100.225 33.3721 92.9175 33.8761 90.3975 35.1361C89.0032 35.8333 84.3688 37.3018 81.0615 41.2065" stroke="#ECEA1A" stroke-width="0.63"/>
        <path d="M35.466 59.5263C46.1093 67.2488 54.6143 57.7623 54.6143 51.264C54.6143 44.46 48.2302 41.8718 44.7863 42.948C38.1626 45.0179 34.2593 48.448 32.5176 62.5949" stroke="#EB3B8A" stroke-width="0.63"/>
        <path d="M92.0543 20.6467C91.4908 29.3506 93.7073 39.5317 103.565 47.8933" stroke="#3BEB9C" stroke-width="5.04"/>
        <path d="M38.7646 39.5308C37.5502 47.534 35.3779 56.0153 31.6828 64.116C30.9846 65.6469 30.2834 67.1212 29.5815 68.5439" stroke="#D4EB3B" stroke-width="3.78"/>
        <path d="M101.07 74.9642C100.654 71.6755 100.237 68.3866 99.8212 65.0976C99.507 62.6165 99.6133 59.4004 97.9631 57.3533C96.3609 55.3658 96.79 52.4426 94.4688 51.5676C91.9617 50.6227 85.997 51.8787 83.339 51.6192C83.1256 51.3842 82.8091 51.2373 82.4197 51.3004C77.761 52.057 73.2489 53.4356 68.8831 55.2169C64.9303 56.8297 61.0072 58.6092 57.7643 61.4403C57.451 61.7139 57.3977 62.0462 57.4959 62.34C57.3991 62.4811 57.3375 62.6574 57.3366 62.8739C57.3122 68.5585 59.4664 74.0815 60.458 79.6344C61.527 85.6213 62.0601 91.6889 62.4002 97.7568C62.7271 103.594 62.7839 109.242 64.8572 114.788C65.2754 115.907 65.7333 117.01 66.1978 118.111C66.6269 119.128 65.9438 120.166 66.9279 120.784C67.7821 121.32 69.8344 121.4 70.805 121.364C72.4106 121.303 74.0156 121.226 75.6209 121.157C81.7216 120.895 87.8226 120.633 93.9236 120.372C95.9373 120.285 98.2061 120.787 98.7476 118.41C99.4137 115.485 99.9036 112.504 100.392 109.545C101.327 103.878 102.193 98.1341 102.419 92.3885C102.649 86.5383 101.803 80.7524 101.07 74.9642Z" fill="#222B49" fill-opacity="0.5"/>
        <path d="M73.009 72.6472C74.0303 70.7562 75.7819 69.417 76.6214 67.4038C77.3599 65.6324 77.3446 63.7272 77.7063 61.8691C78.4903 57.8385 79.5354 53.7112 82.9476 51.4377C83.0709 51.3553 84.5204 51.8374 84.6071 51.7389L84.6399 51.7136C84.2243 51.6574 83.8082 51.6062 83.3906 51.5656C83.1775 51.3303 82.8607 51.1834 82.4716 51.2465C79.2609 51.768 76.1215 52.5903 73.0499 53.6311C72.8509 53.782 72.6476 53.9272 72.4515 54.0821C72.3003 54.1783 72.1465 54.2696 71.9959 54.3678C71.7862 54.5046 71.6304 54.6662 71.5198 54.8407C71.0699 55.2206 70.6313 55.6134 70.1996 56.0146C67.762 57.1404 65.3583 58.4804 63.793 60.656C61.6408 63.6472 61.832 67.4381 61.8511 70.9425C61.8744 75.3014 61.5394 79.6545 61.6008 84.0134C61.6569 88.0053 62.0446 92.0762 63.2885 95.8891C63.7144 97.194 64.1579 99.036 65.7641 99.2345C66.5345 99.3292 67.1001 98.9862 67.5399 98.4669C67.8659 99.8482 68.2714 101.226 68.7835 102.603C69.4735 104.46 70.2393 106.291 70.9291 108.149C70.1878 107.898 69.1999 108.184 68.9333 109.074C68.7665 109.631 68.615 110.19 68.4716 110.75C67.7683 110.001 66.4012 110.034 66.0305 111.17C65.5536 111.254 65.1222 111.578 64.9436 112.18C64.7887 112.702 64.6642 113.228 64.566 113.758C64.6743 114.083 64.7875 114.409 64.909 114.734C65.3272 115.853 65.7851 116.957 66.2494 118.057C66.6788 119.075 65.9957 120.113 66.9798 120.73C67.8337 121.266 69.8857 121.347 70.8562 121.31C71.3418 121.292 71.8271 121.27 72.3124 121.249C72.9779 120.548 73.5536 119.756 73.9563 119.207C75.2834 117.398 75.7848 115.396 75.4259 113.178C74.6354 108.293 72.1159 103.84 70.663 99.146C70.1063 97.3481 69.7587 95.5273 69.5476 93.6925C70.267 90.8802 70.4576 87.9043 70.6719 85.0427C70.9752 80.9882 71.0296 76.3128 73.009 72.6472Z" fill="#1A2337"/>
        <path d="M90.5337 52.7315C90.8393 49.8028 91.2307 44.5845 91.6854 42.5115C91.7223 42.4257 91.7416 42.3335 91.743 42.2454C91.754 42.1956 91.7643 42.1454 91.7756 42.0953C91.9086 41.4937 91.1595 41.2521 91.025 41.8603C91.019 41.8871 91.0138 41.9136 91.0078 41.9404C88.2228 42.3957 85.4381 42.7574 82.6543 43.0192C82.5328 43.0308 82.4357 43.0941 82.3643 43.1814C82.1682 43.1912 81.9723 43.3464 81.9657 43.6474C81.9349 44.9923 81.8122 49.596 81.8191 52.1892C84.6729 53.071 87.6082 53.2617 90.5337 52.7315Z" fill="#E77569"/>
        <path d="M70.9222 96.0438C67.1543 83.4671 60.3324 71.0897 62.243 57.5422C62.2568 57.4454 62.2424 57.3585 62.2122 57.2813C62.3567 57.2145 62.4993 57.1439 62.6447 57.0785C63.2124 56.8231 62.7202 55.9876 62.1557 56.2416C54.4419 59.7131 47.6981 65.0178 42.5095 71.6983C42.4473 71.7783 42.4162 71.8639 42.4053 71.9485C42.2814 72.0228 42.1924 72.1542 42.1939 72.344C42.2422 78.4602 42.4055 84.575 42.6958 90.6847C42.9729 96.5152 43.1221 102.464 43.9305 108.249C44.2706 110.683 44.9566 112.923 46.4001 114.929C47.1662 115.993 48.0598 116.983 48.4881 118.249C48.874 119.39 48.9325 120.563 49.4947 121.652C50.3526 123.314 52.2491 125.66 54.0635 126.342C55.3123 126.811 66.2367 117.051 69.3318 112.067C70.7424 109.795 71.9132 107.392 72.1686 104.696C72.4463 101.766 71.7574 98.8313 70.9222 96.0438Z" fill="#1A649D"/>
        <path d="M81.8223 49.8335C84.596 50.8522 88.2075 50.3942 90.877 48.9894C91.0432 47.2228 91.2252 45.3842 91.4219 43.986C90.9331 44.1677 90.4795 44.4914 90.0651 44.7814C89.2676 45.3401 87.5414 47.137 86.4668 46.9227C85.6293 46.7554 85.0784 47.4431 85.0562 48.0949C83.9313 48.1015 82.8334 47.8809 81.866 47.3558C81.8493 48.1674 81.8338 49.0188 81.8223 49.8335Z" fill="#C8645C" fill-opacity="0.5"/>
        <path d="M61.9898 59.8936C60.0731 59.54 58.0292 60.0163 56.0495 60.5673C55.0455 60.8466 54.0476 61.1666 53.0609 61.5217C49.0891 64.3928 45.5274 67.8191 42.4988 71.7186C42.4366 71.7984 42.4055 71.8839 42.3945 71.9689C42.2704 72.0432 42.1814 72.1745 42.1831 72.3643C42.2315 78.4803 42.3945 84.5954 42.6851 90.7047C42.8159 93.4548 42.9198 96.2312 43.0762 99.004C43.4155 98.9392 43.7726 98.8347 44.1505 98.682C45.6872 98.0605 46.8473 96.73 47.9495 95.5408C49.0741 94.3272 50.1754 93.0436 51.0181 91.6128C52.9299 88.3662 52.5189 84.9954 52.7504 81.3914C53.0206 77.186 54.6322 73.6908 57.6032 70.7164C58.9393 69.3786 60.4196 68.1981 61.9641 67.1109C62.0379 67.0588 62.1119 67.0087 62.1859 66.9571C61.9103 64.6321 61.8219 62.2803 61.9898 59.8936Z" fill="#195280"/>
        <path d="M92.872 74.6493C92.6784 72.4749 92.4287 70.3034 92.1701 68.1359C92.0728 67.3177 92.0192 66.3872 91.0987 66.3181C91.0475 66.2556 91.4055 66.5974 91.2949 66.6081C88.2239 66.9056 83.876 66.7682 80.7953 66.6622C79.0189 66.6009 78.6234 66.4301 78.5609 68.3582C78.5235 69.5039 78.2914 75.0966 78.2539 76.2422C78.2329 76.8917 77.8945 78.3461 78.2678 78.9503C78.7899 79.7947 80.5741 79.5836 81.3891 79.6499C83.7239 79.8397 86.0671 79.9258 88.41 79.9079C89.5228 79.8993 90.8289 80.028 91.9218 79.8037C92.1707 79.7527 92.3976 79.7725 92.6004 79.5773C93.5401 78.6721 92.9728 75.7791 92.872 74.6493Z" fill="#DDDFE1"/>
        <path d="M118.428 38.1237C116.844 38.6456 115.212 38.7723 113.668 39.4574C112.274 40.0761 110.992 40.9389 109.897 42.0011C108.495 43.3613 104.994 42.9529 103.153 43.3264C101.105 43.7423 98.974 43.9281 97.2745 45.3096C95.2413 46.9622 94.688 50.4444 91.7763 50.8542C91.4512 50.8997 91.0811 50.9109 90.9046 51.0823C90.6684 51.3112 90.6384 51.5681 90.6226 51.9915C90.3954 58.1008 89.447 64.0207 89.9256 70.1565C90.3876 76.0769 91.4117 81.9553 91.4031 87.9074C91.3942 94.0343 90.436 100.106 90.167 106.219C89.9334 111.54 90.0564 117.509 92.1951 122.489C93.1345 124.676 95.7407 123.437 97.5666 123.11C100.914 122.509 104.262 121.909 107.61 121.308C107.741 121.285 107.84 121.231 107.914 121.161C107.95 121.141 107.986 121.119 108.02 121.092C109.721 119.732 109.818 117.249 110.118 115.253C110.525 112.55 110.804 109.827 110.942 107.096C111.228 101.453 110.67 95.9046 110.29 90.2843C109.585 79.859 110.855 69.0751 116.242 59.9391C116.289 59.8588 116.315 59.7799 116.327 59.7033C118.481 57.5179 121.232 55.5296 123.841 53.8917C126.297 52.3489 127.96 52.3172 130.177 50.4357C130.177 50.4357 136.901 44.5899 131.617 39.4917C126.332 34.3933 118.428 38.1237 118.428 38.1237Z" fill="#1A649D"/>
        <path d="M70.9686 94.4793C70.2782 101.019 65.6247 105.879 61.2209 110.342C60.9286 110.638 61.3854 111.095 61.678 110.799C66.2203 106.196 70.904 101.211 71.6148 94.4793C71.6583 94.066 71.0118 94.0692 70.9686 94.4793Z" fill="#222B49" fill-opacity="0.5"/>
        <path d="M101.619 57.0428C99.9985 55.5022 98.4326 53.9073 96.9215 52.2585C96.6404 51.9512 96.1842 52.4091 96.465 52.7156C97.9758 54.3644 99.5414 55.959 101.163 57.4995C101.464 57.7861 101.922 57.3299 101.619 57.0428Z" fill="#222B49" fill-opacity="0.5"/>
        <path d="M101.097 60.582C100.366 59.5861 99.663 58.57 98.9897 57.5341C98.7636 57.1865 98.2043 57.5099 98.4318 57.8601C99.1054 58.896 99.8076 59.9121 100.539 60.908C100.783 61.2398 101.344 60.9178 101.097 60.582Z" fill="#222B49" fill-opacity="0.5"/>
        <path d="M110.992 101.682C109.398 100.855 107.922 99.8329 106.573 98.6115C106.265 98.333 105.807 98.7883 106.116 99.0683C107.602 100.414 109.236 101.527 111.007 102.411C111.003 102.168 110.998 101.925 110.992 101.682ZM102.971 89.0807C103.542 89.0188 105.251 91.3818 105.64 91.7902C107.349 93.5868 109.114 95.326 110.778 97.1634C110.756 96.8164 110.733 96.4693 110.71 96.1223C108.276 93.4934 105.659 91.0368 103.368 88.2766C103.252 88.1361 103.033 88.1706 102.911 88.2766C101.862 89.1927 100.913 90.182 100.04 91.2661C99.8537 91.4253 99.6901 91.5166 99.8284 91.7317C101.204 93.8756 102.751 95.8876 104.469 97.7679C104.75 98.0752 105.206 97.6176 104.926 97.3109C103.313 95.5452 101.858 93.6579 100.553 91.6546C100.962 91.148 101.381 90.6515 101.833 90.1814C101.981 90.0265 102.753 89.104 102.971 89.0807Z" fill="#222B49" fill-opacity="0.5"/>
        <path d="M94.2889 53.2374C94.3712 52.1652 94.7065 50.4392 94.2739 49.3445C94.1129 49.5406 93.9401 49.7215 93.7587 49.8908C93.9706 50.885 93.7074 52.4261 93.6423 53.2374C93.5283 54.6569 93.3036 56.0647 92.8967 57.4312C92.3011 59.4328 91.3095 61.276 89.8969 62.7731C89.8799 63.085 89.8649 63.3966 89.8511 63.7088C91.5324 62.1196 92.7273 60.118 93.4373 57.8814C93.9142 56.3783 94.1679 54.8073 94.2889 53.2374Z" fill="#222B49" fill-opacity="0.5"/>
        <path d="M118.147 58.0875C116.36 59.5505 115.484 61.926 114.086 63.7533C114.085 63.8115 114.073 63.8726 114.045 63.9368C113.99 64.0655 113.937 64.1948 113.884 64.3241C113.709 64.071 113.552 63.7936 113.418 63.4915C112.421 61.2379 113.025 58.5973 114.434 56.6694C115.175 55.6565 116.148 54.7945 117.189 54.1019C117.189 54.1019 120.821 52.9291 123.553 53.891C119.78 56.7604 118.147 58.0875 118.147 58.0875Z" fill="#195280"/>
        <path d="M94.827 32.8003C95.0292 31.7797 95.2932 30.7526 95.3809 29.7139C95.4649 28.7176 95.4028 27.0751 94.2934 26.6697C93.7064 26.4553 93.3004 27.3434 93.8908 27.559C94.4768 27.7729 94.5761 28.6544 94.4753 29.6998C94.458 29.5537 94.4385 29.408 94.4074 29.2632C94.2993 28.7529 93.5265 28.6623 93.4407 29.2421C93.4319 29.3018 93.422 29.36 93.4128 29.4193C93.3221 29.3475 93.2264 29.2843 93.1257 29.2307C93.252 28.8955 93.2782 28.5081 93.4092 28.1168C93.6069 27.526 92.7192 27.119 92.5203 27.7141C92.4303 27.982 92.229 28.686 92.0197 28.9572C91.5947 28.938 91.1557 28.9893 90.7483 29.0738C90.1436 29.1988 90.2209 30.1049 90.8582 30.0437C91.2401 30.0068 91.7235 30.0783 92.1442 30.0161C92.2663 30.0484 92.3769 30.0935 92.4763 30.1517C92.4689 31.2857 92.4805 32.4192 92.5271 33.5527C92.5506 34.1322 92.3825 35.2667 92.7543 35.7583C93.2501 36.4139 93.9141 36.1878 94.2395 35.5192C94.6277 34.7202 94.6562 33.663 94.827 32.8003Z" fill="#723C3C"/>
        <path d="M93.3905 37.6174C93.365 35.4678 93.177 33.1658 92.5433 31.1027C91.9426 29.1471 89.9512 28.4914 88.1228 28.0713C85.8685 27.5531 83.8775 24.9871 81.7549 25.9933C80.2632 26.7003 78.3457 26.7205 77.2019 28.2396C76.6169 28.1375 74.9774 32.4132 75.0569 33.2104C75.4635 37.2911 75.4868 42.1301 78.2863 45.4415C79.5271 46.9095 81.9384 48.3328 83.5346 48.9138C85.3583 49.5775 86.4973 49.4375 88.2238 48.5581C90.106 47.5995 91.2218 45.8704 92.3018 44.1043C93.4307 42.2587 93.4156 39.7154 93.3905 37.6174Z" fill="#E77569"/>
        <path d="M94.2976 34.7177C92.9508 34.1465 92.1485 35.9605 92.0374 36.9703C92.0063 37.2518 92.1871 37.4364 92.4003 37.4976C92.397 37.5137 92.3941 37.5306 92.3907 37.5464C92.3289 37.8576 92.1866 38.319 92.1968 38.7255C92.1819 38.7533 92.1665 38.7805 92.1512 38.8084C91.9247 39.2288 91.587 39.8326 92.0395 40.2412C93.0305 41.1365 94.5176 39.2044 94.7927 38.4426C95.1332 37.5009 95.5069 35.2303 94.2976 34.7177Z" fill="#E77569"/>
        <path d="M74.1812 37.4941C75.2634 36.5099 76.6198 37.9564 77.0586 38.8727C77.1809 39.1281 77.0719 39.3623 76.891 39.4907C76.8993 39.5047 76.9077 39.5193 76.9157 39.5334C77.0774 39.8064 77.364 40.1948 77.4887 40.582C77.5123 40.6032 77.5356 40.624 77.5587 40.6454C77.9119 40.967 78.4308 41.4251 78.1389 41.9605C77.4996 43.1331 75.4572 41.8014 74.9456 41.1737C74.3127 40.3977 73.2095 38.3781 74.1812 37.4941Z" fill="#E77569"/>
        <path d="M90.1775 31.7883C89.0783 31.5379 87.0877 32.0012 86.6931 32.5229C86.6627 32.5628 86.5384 32.6558 86.59 32.9567C86.6643 33.3898 87.4041 33.3196 87.7967 33.2975C88.5996 33.2515 90.871 33.2148 91.1775 32.8833C91.8298 32.1781 90.5386 31.8706 90.1775 31.7883Z" fill="#864644"/>
        <path d="M77.331 34.5979C77.7 34.8581 79.9287 34.4189 80.7232 34.2957C81.1121 34.2354 81.8502 34.1494 81.8321 33.7101C81.8196 33.4049 81.6835 33.3348 81.6413 33.3077C81.0363 32.9201 79.3618 32.8955 78.339 33.3703C78.0032 33.5263 76.5455 34.0445 77.331 34.5979Z" fill="#864644"/>
        <path d="M85.8629 36.2586C85.7776 35.8528 85.1298 35.9208 85.2163 36.3316C85.402 37.2125 86.4319 39.5886 84.7555 39.6178C84.3374 39.6251 84.4123 40.2716 84.8286 40.2643C85.5662 40.2513 86.1233 39.7255 86.2966 39.02C86.5283 38.0772 86.0531 37.1614 85.8629 36.2586Z" fill="#C8645C" fill-opacity="0.5"/>
        <path d="M88.9916 41.652C86.7002 41.9361 84.295 42.3254 81.7993 42.6918C81.5817 42.6716 81.2864 42.9755 81.5965 43.2083C82.9178 44.2006 84.4909 44.6901 86.1406 44.3518C87.3983 44.0941 88.5864 43.2564 89.3262 42.0468C89.4319 41.8735 89.1909 41.6274 88.9916 41.652Z" fill="#CE4839"/>
        <path d="M89.0337 41.6651C89.015 41.6632 88.9961 41.6627 88.9778 41.663C85.6631 41.7404 84.8488 42.0048 81.8621 42.6916C83.1186 43.8121 84.9741 43.3238 86.4785 43.0822C87.5976 42.9027 88.5442 42.6022 89.0337 41.6651Z" fill="white"/>
        <path d="M93.61 22.4234C93.7802 21.8275 93.6108 21.2035 93.0869 20.7253C92.0842 19.8101 90.4337 20.174 89.2823 20.5481C88.6646 20.7488 88.3465 20.983 87.6812 20.8602C87.1546 20.763 86.8756 20.4727 86.4277 20.2376C85.8035 19.9104 85.13 19.7695 84.4255 19.756C82.7303 19.7232 80.8091 20.3626 79.3328 21.1634C78.9196 21.3877 77.7468 21.8217 76.5771 23.5171C76.0781 24.2397 75.8601 24.4097 75.1238 24.9592C74.4498 25.4618 73.9319 25.9762 73.6197 26.7829C73.3551 27.4665 73.551 28.6654 73.3337 29.4647C73.172 29.5877 72.8254 30.2392 72.9315 31.6555C73.1724 34.8723 75.3153 37.9851 75.3161 37.9861C75.7837 38.7354 75.7747 37.9746 75.7944 37.8693C75.8632 37.5013 75.665 34.858 75.6571 32.9907C75.6504 31.3074 75.9163 30.3806 77.0177 29.6082C78.9489 29.0103 80.1546 30.2094 82.0647 29.8503C83.1641 29.6436 84.1912 29.2575 85.3339 29.3526C86.6979 29.4656 87.3447 30.0277 88.552 30.6831C90.0544 31.6306 91.9555 31.8508 93.4742 30.8232C94.4155 30.1858 95.227 29.0894 95.2654 27.9786C95.7191 27.5 96.0463 26.8911 96.1725 26.1523C96.4627 24.4529 95.3933 22.4265 93.61 22.4234Z" fill="#864644"/>
        <path d="M93.6113 36.5287C93.5236 36.1239 92.8757 36.1916 92.9647 36.6017C93.0743 37.1088 93.0688 37.5999 92.9459 38.1038C92.8468 38.5105 93.4902 38.6097 93.5887 38.2051C93.7236 37.6517 93.732 37.0855 93.6113 36.5287Z" fill="#C8645C" fill-opacity="0.5"/>
        <path d="M76.1999 40.1525C75.9848 39.8029 75.8815 39.4193 75.8665 39.0111C75.851 38.5933 75.2043 38.6672 75.2199 39.0841C75.2391 39.6057 75.401 40.0927 75.6738 40.5353C75.8938 40.8922 76.4187 40.5072 76.1999 40.1525Z" fill="#C8645C" fill-opacity="0.5"/>
        <path d="M90.4801 28.2331C88.8853 29.0948 87.598 27.5958 86.2063 27.0604C85.204 26.6747 84.1741 26.6104 83.1168 26.7293C82.7007 26.7763 82.8151 27.4168 83.2304 27.3702C85.149 27.1541 86.3521 27.9667 87.9747 28.7486C88.9038 29.1965 89.8265 29.3245 90.7549 28.823C91.1215 28.625 90.8499 28.0334 90.4801 28.2331Z" fill="#723C3C"/>
        <path d="M92.4153 25.1506C92.0182 25.7643 91.4097 26.3573 90.7061 25.7432C90.3901 25.4673 90.0141 25.9986 90.3272 26.2715C90.7312 26.624 91.2907 26.7503 91.8043 26.5846C92.3262 26.4165 92.6579 25.9723 92.9437 25.53C93.1707 25.1791 92.6428 24.7987 92.4153 25.1506Z" fill="#723C3C"/>
        <path d="M80.5698 36.6089C80.5798 37.145 80.3222 37.5846 79.9946 37.5906C79.6669 37.5966 79.3935 37.167 79.3837 36.6309C79.3737 36.0949 79.6311 35.6553 79.9587 35.6493C80.2861 35.6433 80.5598 36.0729 80.5698 36.6089Z" fill="#222B49" fill-opacity="0.5"/>
        <path d="M89.6533 35.5068C89.6633 36.0428 89.4057 36.4824 89.078 36.4884C88.7504 36.4945 88.477 36.0648 88.4672 35.5287C88.4572 34.9927 88.7146 34.5531 89.0419 34.5471C89.3696 34.5411 89.6433 34.9707 89.6533 35.5068Z" fill="#222B49" fill-opacity="0.5"/>
        <path d="M91.5105 7.93582C91.3995 8.01271 91.3443 8.17772 91.4113 8.31038C91.7992 9.08364 95.1875 13.1594 95.6636 13.8291C93.7971 12.1681 91.2022 9.41818 88.8995 8.31198C88.657 8.19565 88.2859 8.50761 88.3833 8.76593C88.8298 9.95143 91.1992 11.7381 92.0813 12.6307C92.9762 13.5365 93.5598 14.2907 94.3617 15.2395C93.0657 14.2717 92.0141 13.4271 90.7506 12.4167C89.7557 11.6206 87.2979 9.64132 86.4315 9.38467C86.2072 9.31836 85.9379 9.65332 86.0257 9.88787C86.2857 10.586 88.2251 12.3371 89.2158 13.1991C90.0035 13.8846 92.652 16.8593 92.6124 16.9099C91.0315 15.8241 89.5144 14.6534 88.0854 13.3692C87.1099 12.4925 86.9092 12.3047 85.8553 11.55C85.4945 11.292 85.1015 11.146 84.9613 11.3044C84.5409 11.7798 85.0665 12.324 85.4051 12.8349C86.1583 13.9701 89.6668 17.5299 90.9207 18.3019C90.2318 17.9362 89.3065 17.7154 88.6171 17.5951C87.99 17.4854 87.0518 17.359 86.5927 17.661C85.2885 18.5189 86.674 18.9662 87.5694 19.3128C88.725 19.7597 89.7293 20.1166 90.8353 20.7033C91.9676 21.3038 92.9145 22.1028 94.1383 22.5321C95.1748 22.8959 96.2724 23.0521 97.3684 23.0633C97.7818 23.0676 98.2069 23.0272 98.6331 22.9877C101.013 23.3954 102.816 24.8827 104.58 26.4552C106.344 28.0275 108.099 29.61 109.858 31.1872C110.45 31.7186 111.187 31.1003 111.136 30.4778C111.433 30.418 111.686 30.2112 111.72 29.8529C111.73 29.7526 111.751 29.6556 111.779 29.5606C111.986 29.3911 112.116 29.1292 112.096 28.8649C112.43 28.2825 112.816 27.7342 112.493 27.032C111.908 25.7623 103.644 19.8268 102.769 19.1714C102.349 18.5523 101.768 17.0972 101.257 16.6005C99.5189 14.9127 97.7769 13.2298 96.0366 11.5446C95.4966 11.0213 92.1483 7.49437 91.5105 7.93582ZM111.037 27.4434C111.042 27.4625 110.981 27.5314 110.904 27.611C110.879 27.5908 110.855 27.5708 110.83 27.5506C110.83 27.4551 110.813 27.3598 110.779 27.2669C110.922 27.371 111.04 27.4535 111.037 27.4434Z" fill="#E77569"/>
        <path d="M93.2035 18.3689C92.7996 18.3027 92.766 18.9382 93.1666 19.0039C95.5847 19.4016 97.8852 18.6775 100.105 20.0562C100.453 20.2721 100.806 19.7426 100.457 19.5265C98.1356 18.0841 95.7475 18.7871 93.2035 18.3689Z" fill="#C8645C" fill-opacity="0.5"/>
        <path d="M127.731 51.9102C136.607 45.2601 133.515 38.7338 133.515 38.7338C132.071 36.2695 131.822 33.1416 130.037 30.903C128.261 28.6757 125.749 28.3425 123.158 27.6814C121.482 27.2539 120.426 26.4609 119.347 25.1253C118.57 24.1631 117.688 23.4002 116.555 22.8826C114.758 22.0613 112.878 22.0059 111.182 22.5245C110.46 21.8769 109.72 21.2578 108.941 20.73C107.195 19.5476 106.207 20.8751 105.076 22.1727C104.287 23.0774 102.189 24.6595 102.727 26.0927C102.954 26.6966 103.577 27.0687 104.047 27.4582C104.577 27.8976 105.064 28.367 105.52 28.8668C105.047 31.2827 105.677 33.8481 107.164 35.8066C108.587 37.6795 110.656 38.8661 112.467 40.311C113.757 41.3396 114.91 42.5412 115.389 44.1597C115.854 45.7349 116.184 46.2262 116.812 47.7664C116.812 47.7664 122.039 56.1742 127.731 51.9102Z" fill="#1A649D"/>
        <path d="M133.205 38.2987C131.762 35.8345 131.512 32.7063 129.728 30.4679C127.952 28.2406 125.439 27.9075 122.848 27.2464C121.173 26.8188 120.117 26.0258 119.038 24.6902C118.26 23.728 117.379 22.9646 116.246 22.4473C114.449 21.626 112.569 21.5708 110.873 22.0895C110.151 21.4419 109.411 20.8225 108.631 20.2946C107.867 19.7775 107.249 19.7404 106.7 19.9714C106.102 20.6792 105.591 21.448 105.474 22.2812C105.255 23.8311 106.241 24.8287 107.692 25.0923C109.763 25.4694 110.624 26.802 111.816 28.435C112.811 29.7966 113.956 30.9877 115.451 31.8018C116.837 32.5569 118.302 32.8916 119.851 33.1136C121.556 33.3581 123.653 33.3705 124.885 34.7638C125.993 36.0169 132.491 37.2836 133.177 38.7752" fill="#195280"/>
        <path d="M109.29 23.4073C108.254 24.6637 107.181 25.8876 106.07 27.0789C105.792 27.3774 106.227 27.8427 106.506 27.5425C107.617 26.3515 108.69 25.1276 109.725 23.8706C109.983 23.5585 109.55 23.0915 109.29 23.4073Z" fill="#222B49" fill-opacity="0.5"/>
        <path d="M103.237 25.4184L104.545 26.7745C104.829 27.0694 105.293 26.634 105.008 26.3386L103.7 24.9828C103.416 24.6879 102.952 25.1232 103.237 25.4184Z" fill="#222B49" fill-opacity="0.5"/>
        <path d="M104.885 23.3678C105.336 23.8352 105.811 24.2764 106.31 24.6917C106.621 24.9503 107.089 24.5176 106.774 24.2558C106.275 23.8405 105.8 23.3993 105.349 22.932C105.064 22.6374 104.6 23.0725 104.885 23.3678Z" fill="#222B49" fill-opacity="0.5"/>
        <path d="M106.963 21.4527C106.877 21.5863 106.91 21.8156 107.064 21.8915C107.422 22.0685 107.754 22.2857 108.049 22.5547C108.35 22.8288 108.816 22.3949 108.513 22.1188C108.177 21.8128 107.81 21.5535 107.402 21.352C107.247 21.2752 107.063 21.298 106.963 21.4527Z" fill="#222B49" fill-opacity="0.5"/>
        <path d="M69.1434 49.3439C68.9999 49.1567 68.8582 48.9657 68.7152 48.7713C67.6835 47.3649 61.9173 40.5625 59.8067 38.0794C59.2589 38.2149 58.7025 38.2648 58.1379 38.1697C57.3655 38.0394 56.4749 37.8757 55.8958 37.5287C55.1813 37.1012 54.5213 36.686 53.7144 36.4459C53.4176 36.3576 52.9585 36.3247 52.841 35.9665C52.5476 35.0734 54.247 35.4483 54.5805 35.5159C54.9699 35.5949 55.3557 35.6929 55.7368 35.8065C55.2498 35.1249 54.7625 34.4399 54.1453 33.8968C53.064 32.9461 51.0192 31.0524 50.1788 29.8676C49.9691 29.5718 50.305 29.2252 50.6109 29.4134C51.261 29.8134 54.6588 32.5347 55.2107 32.6893C54.081 31.7655 52.9843 30.8036 51.9262 29.7966C51.2735 29.1751 50.2143 28.5094 50.2179 27.5194C50.2185 27.2637 50.5346 27.1753 50.7178 27.2937C52.2609 28.2908 53.486 29.6433 54.9403 30.7511C55.2802 31.0102 55.7209 31.2944 56.0947 31.5048C56.7832 31.8933 57.0333 31.9028 56.1136 30.8803C56.1136 30.8803 53.4208 28.522 52.5317 27.2187C52.3536 26.9571 52.5823 26.6336 52.8889 26.7242C54.0211 27.059 54.8278 27.9903 55.6913 28.7561C56.183 29.1917 56.6747 29.6284 57.1949 30.03C57.4893 30.261 58.0793 30.675 58.11 30.616C57.7542 30.2493 57.554 29.7818 57.1808 29.421C56.5129 28.7752 55.2704 27.9113 55.1787 26.9242C55.1541 26.6597 55.4439 26.448 55.6762 26.6175C57.4565 27.9166 59.0553 29.6174 60.2847 31.4462C61.1242 32.6952 61.3766 34.2162 62.0718 35.513C65.5043 38.4204 66.9061 39.2265 70.672 42.4788C73.1962 44.659 78.7537 47.9773 77.6085 51.7389C76.9624 53.8601 69.8523 71.3407 68.2105 70.209C66.4543 68.9985 64.3759 67.1093 64.0399 65.1406C64.0375 65.1259 64.0385 65.113 64.037 65.0986C63.6373 64.8884 63.5033 64.1974 64.0432 63.9381C64.0432 63.9381 70.3436 52.2248 70.1059 51.4223C69.8679 50.6201 69.1434 49.3439 69.1434 49.3439Z" fill="#E77569"/>
        <path d="M59.2196 36.2515C58.4247 35.3593 58.0488 34.2022 58.1528 33.0133C58.1884 32.6067 58.8182 32.669 58.7826 33.0745C58.692 34.1084 59.0236 35.0821 59.7129 35.8556C59.9835 36.1596 59.4904 36.5552 59.2196 36.2515Z" fill="#C8645C" fill-opacity="0.5"/>
        <path d="M18.7145 55.0612C18.8063 54.8441 18.8952 54.6232 18.9841 54.3988C19.6269 52.7775 23.4874 44.7388 24.9019 41.8029C25.4665 41.7957 26.0173 41.7033 26.5396 41.4684C27.2538 41.1473 28.0745 40.7643 28.5473 40.2823C29.1304 39.6883 29.664 39.119 30.384 38.6831C30.6488 38.5226 31.0848 38.3752 31.108 37.9986C31.1663 37.0604 29.6167 37.8527 29.3112 38.0023C28.954 38.1772 28.6059 38.3692 28.2656 38.5753C28.5646 37.7929 28.863 37.0071 29.3232 36.3259C30.129 35.1327 31.6291 32.7839 32.143 31.4249C32.271 31.0861 31.8585 30.8349 31.61 31.0947C31.0819 31.6461 28.4819 35.1377 27.9871 35.4267C28.8465 34.2475 29.6646 33.0394 30.4341 31.7977C30.9086 31.0313 31.765 30.1195 31.5117 29.1627C31.4462 28.9154 31.1181 28.9097 30.9707 29.0706C29.7297 30.4252 28.8862 32.0435 27.7592 33.4832C27.4956 33.8196 27.1408 34.2057 26.8328 34.504C26.2646 35.0535 26.0249 35.1262 26.6564 33.9045C26.6564 33.9045 28.6661 30.9425 29.197 29.4567C29.3034 29.1587 29.0004 28.9033 28.7264 29.0686C27.7155 29.6784 27.1706 30.7833 26.5283 31.7423C26.1627 32.2883 25.7975 32.835 25.3957 33.3553C25.1691 33.6531 24.7029 34.2022 24.6579 34.1529C24.9097 33.7083 24.9853 33.2056 25.2551 32.7624C25.7381 31.9687 26.7221 30.8187 26.5613 29.8403C26.5183 29.5785 26.1844 29.4467 26.0024 29.6696C24.6083 31.3763 23.4912 33.4254 22.7636 35.5056C22.267 36.9262 22.4072 38.4619 22.0623 39.8923C19.4757 43.5726 18.3232 44.7066 15.5011 48.8049C13.6094 51.552 9.07044 56.1667 11.1294 59.5172C12.2901 61.4064 23.5867 76.5236 24.8894 75.0135C26.2828 73.3987 27.8163 71.0455 27.644 69.0556C27.6428 69.0407 27.6383 69.0284 27.6361 69.0144C27.9696 68.71 27.9246 68.0077 27.337 67.8934C27.337 67.8934 18.2814 58.1519 18.3088 57.3153C18.3362 56.479 18.7145 55.0612 18.7145 55.0612Z" fill="#E77569"/>
        <path d="M25.0108 39.8858C25.5545 38.822 25.6257 37.6072 25.2247 36.4833C25.0876 36.0991 24.4938 36.3183 24.6303 36.7018C24.9791 37.6792 24.9048 38.7048 24.4333 39.6276C24.2483 39.99 24.8255 40.2483 25.0108 39.8858Z" fill="#C8645C" fill-opacity="0.5"/>
        <path d="M63.1715 72.8214C62.4793 71.6457 61.7761 70.4656 61.419 69.1362C61.021 67.6524 61.0964 66.0368 61.044 64.5141C61.0113 63.5677 60.9786 62.6216 60.9459 61.6752C59.4161 61.974 57.8001 62.0041 56.2112 62.0369L56.3033 64.7039C56.4211 68.1205 56.7641 71.0355 58.4277 74.0786C59.7389 76.4769 61.0939 78.5435 61.5489 81.1908C62.142 80.9734 62.7433 80.7729 63.3664 80.6212M52.9947 75.3349C52.2201 72.4969 52.8708 69.4064 52.6973 66.5057C52.6119 65.0769 52.4081 63.6577 52.1 62.2617C50.4973 62.4098 48.9205 62.6216 47.3658 62.9176C47.7837 64.694 48.0033 66.5077 48.0006 68.377C47.9957 71.6446 47.6202 74.9639 48.9345 78.0599C49.5443 79.4959 50.4076 80.7941 51.0661 82.2034C51.0831 82.2391 51.0981 82.2757 51.1146 82.3119C52.8244 82.6291 54.5555 82.8961 56.2927 82.7522C56.3119 82.7506 56.3308 82.7475 56.3504 82.7456C55.9318 81.5143 55.4181 80.3232 54.8184 79.1663C54.1643 77.9047 53.3727 76.7203 52.9947 75.3349Z" fill="#F44956"/>
        <path d="M54.787 67.3483C54.8301 67.0718 54.8619 66.7933 54.8652 66.5104C54.8713 66.013 54.5281 65.7921 54.1571 65.7983C54.1778 65.7121 54.2006 65.6245 54.2196 65.539C54.3023 65.1716 54.1048 64.868 53.8257 64.7071C53.863 64.5724 53.9002 64.4372 53.9375 64.3025C54.0717 63.8178 53.7343 63.4739 53.336 63.3901C53.3833 63.2378 53.4305 63.0854 53.4777 62.9331C53.6469 62.3865 53.2058 62.0303 52.7439 62.0122C52.6412 61.7863 52.4114 61.6419 52.1548 61.6034C51.8264 61.2326 51.1147 61.3903 50.8515 61.8058C49.6927 63.6329 48.3808 66.8092 48.5394 69.0001C48.5627 69.3243 48.7686 69.5561 49.0246 69.6649C48.9471 69.9764 48.8714 70.2881 48.8012 70.6008C48.6715 71.1767 49.3302 71.7616 49.8665 71.5142C50.0525 71.5952 50.2674 71.6218 50.4596 71.5787C50.625 71.5412 50.7728 71.4661 50.9083 71.3676C51.2092 71.6481 51.6184 71.6873 51.9284 71.4625C52.191 71.635 52.5442 71.6736 52.7964 71.4649C52.9576 71.3311 53.1028 71.1771 53.2347 71.0081C53.5983 71.1794 54.0787 71.1054 54.2762 70.6736C54.3438 70.5262 54.405 70.3782 54.4668 70.2301C54.4838 70.2067 54.5025 70.1863 54.5179 70.1598C54.8972 69.5125 55.0607 68.9226 55.1303 68.2073C55.1313 68.2032 55.1326 68.1994 55.1336 68.1953L55.1316 68.1954C55.138 68.1257 55.145 68.0559 55.1499 67.9837C55.1717 67.6649 55.0114 67.4548 54.787 67.3483Z" fill="#F5AC63"/>
        <path d="M29.5739 87.0981C29.5739 87.0981 29.9876 90.849 30.1378 91.8304C30.4946 94.1618 30.4395 96.5347 30.3574 98.8839C30.2795 101.099 29.7463 103.901 31.1516 105.826C32.4327 107.581 35.015 108.547 37.1059 108.887C37.6075 108.968 45.0268 109.385 46.5808 109.279C49.66 109.07 52.7759 108.687 55.776 107.943C58.2193 107.338 59.1303 107.154 60.9858 105.395C62.4809 103.976 61.5815 93.7728 61.0156 88.6609C60.8394 87.066 60.695 85.967 60.6664 85.7851C60.5428 85 67.477 76.2668 68.3711 75.3753C72.0019 71.7533 70.9084 72.626 69.1206 70.0502C68.4137 69.0316 67.6239 68.117 66.8727 66.8339C65.556 64.5854 65.9863 64.9097 63.5745 63.7735C60.6885 62.4142 63.0364 74.3855 52.0198 68.7968C48.8898 67.2092 45.684 68.8052 42.2034 69.2317C42.0578 69.1366 41.8773 69.0793 41.6603 69.0851C37.3563 69.1992 33.1234 70.2074 29.2458 72.0843" fill="#CA98C4"/>
        <path d="M29.539 87.0867C29.539 87.0867 29.5395 87.0908 29.5399 87.0939C29.9342 86.9138 30.3565 86.786 30.8279 86.7458C33.2635 86.5373 35.4166 86.9912 37.7897 86.0886C39.9094 85.2823 41.0733 83.7936 42.0675 82.47C43.3574 80.7524 47.0214 80.6576 47.815 78.4722C48.1805 77.4666 48.1876 76.4123 48.3742 75.3715C48.6414 73.8813 49.28 72.8409 50.4452 71.9093C51.3975 71.1475 53.2621 70.3908 53.6048 69.0732C53.0896 68.9474 52.5532 68.8487 51.9849 68.7855C48.4968 68.3983 45.6491 68.7939 42.1685 69.2204C42.0229 69.1253 41.8424 69.068 41.6253 69.0738C41.5231 69.0767 41.421 69.0822 41.3186 69.0861C41.1922 69.1845 41.0937 69.3285 41.0567 69.5361C40.8103 70.9338 40.7204 72.3434 40.8965 73.7564C41.1279 75.6117 41.7891 77.2446 39.9525 78.4826C38.6589 79.3541 37.1752 79.9197 35.6253 80.0832C34.0852 80.2454 32.5267 80.0582 30.9898 80.2792" fill="#A07A9C"/>
        <path d="M64.3061 74.1326C63.8541 71.4385 63.471 68.7148 62.7585 66.0737C62.0085 63.2941 60.9073 60.6276 59.8602 57.951C58.564 54.6375 57.5031 51.3575 56.9069 47.8419C56.5009 45.4457 55.9794 43.1276 54.5091 41.2118C54.5097 41.1028 54.4823 40.9886 54.4091 40.8733C51.8497 36.8435 46.4479 35.7685 42.175 37.5217C37.9847 39.2413 35.2276 43.2774 34.0644 47.5327C33.336 50.1968 33.1744 52.9914 33.2681 55.7414C33.3759 58.9024 34.1459 62.1511 33.7029 65.3059C33.3075 68.1228 31.9971 70.6661 31.7839 73.5342C31.5691 76.4208 31.6713 79.3477 31.6485 82.2407C31.6461 82.5686 31.9921 82.8741 32.316 82.8363C34.9736 82.5284 37.6314 82.2202 40.2892 81.9118C41.4965 81.7721 44.5017 82.0486 45.0642 80.5922C45.3682 79.8047 45.0377 78.605 44.8131 77.8476C42.6065 70.3996 42.8821 69.7458 42.3688 67.1391C41.8416 64.4624 41.6193 61.5008 42.0367 58.7733C42.4335 56.1791 43.6806 53.7311 45.181 51.6027C45.3907 51.3049 45.6166 51.0226 45.8488 50.7464C46.6007 52.5005 47.6053 54.13 48.5787 55.787C50.1148 58.4025 51.087 61.0949 51.813 64.0311C52.5755 67.1161 50.9244 66.1106 51.6729 69.199C52.0123 70.5991 53.2087 75.9464 53.5481 77.3462C53.7487 78.1741 53.7829 79.6121 54.6155 80.1207C55.488 80.6533 58.5082 80.428 59.4303 80.2922C60.9121 80.0744 62.5302 79.9747 63.9743 79.5805C64.6093 79.4072 64.9325 79.1504 65.01 78.4873C65.1614 77.1928 64.5219 75.4176 64.3061 74.1326Z" fill="#882F4A"/>
        <path d="M57.9203 60.8529C57.6307 58.0617 56.3964 55.4323 56.0024 52.6384C55.8614 51.6379 54.2811 51.7184 54.4236 52.7279C54.5146 53.3733 54.6305 54.0086 54.7629 54.6385C54.3651 54.2109 53.479 54.2518 53.3963 54.9434C53.115 55.0014 52.8709 55.1913 52.8233 55.5278C52.8193 55.5562 52.8155 55.5844 52.8111 55.6128C52.6124 55.7092 52.4452 55.8736 52.3752 56.1052C52.2515 56.5143 52.14 56.9254 52.034 57.3375C51.8946 57.4356 51.7911 57.5925 51.7634 57.8234C51.7013 58.345 51.6392 58.8663 51.5768 59.3876C51.4258 60.1894 51.3054 60.997 51.2091 61.8096C51.4339 62.5356 50.9362 66.1097 51.6848 69.1981C52.01 70.5403 53.1223 75.5064 53.5129 77.1492C53.9083 76.608 54.2094 75.9788 54.3824 75.513C55.2828 73.0924 54.952 70.4116 55.7069 67.9406C56.4599 65.4755 58.2013 63.5591 57.9203 60.8529Z" fill="#6D253B"/>
        <path d="M41.0117 67.431C41.2793 67.9535 42.2736 69.4182 42.8179 69.8386C42.6613 68.8868 42.581 68.1631 42.3795 67.139C41.9052 64.7305 41.682 62.0929 41.9451 59.6016C41.7631 59.2168 41.5646 58.8386 41.3426 58.4696C40.5886 57.2169 39.4511 55.1194 38.0806 54.4505C37.834 54.3301 37.5123 54.3289 37.2838 54.4957C37.2664 54.5085 37.2529 54.5249 37.2365 54.5385C37.4766 53.525 37.8392 52.5521 38.2688 51.706C38.7301 50.7966 37.321 50.0779 36.8602 50.9861C35.3169 54.0277 34.6327 58.141 36.409 61.2136C37.2523 62.672 38.5012 63.8315 39.5506 65.1329C40.1344 65.8566 40.5874 66.6023 41.0117 67.431Z" fill="#6D253B"/>
        <path d="M51.5884 69.3357C51.6346 67.4324 51.2897 62.2301 51.5713 59.5158C51.6001 59.4287 41.3766 59.3155 41.4119 59.6127C41.6275 61.426 42.5186 69.2351 42.8026 69.8065C43.1988 70.6029 45.3133 70.9341 46.0928 70.9937C48.4705 71.1758 51.5756 69.8605 51.5884 69.3357Z" fill="#E77569"/>
        <path d="M50.7651 60.4772C48.9449 61.0815 46.9525 61.5161 45.0439 61.6681C44.092 61.7439 42.6016 61.1773 41.6383 61.6655C41.7667 62.749 41.9247 64.0602 42.0845 65.3151C43.7701 66.5824 46.039 67.2807 47.9306 66.5285C49.2555 66.0016 50.4223 65.0663 51.3396 63.9628C51.3768 63.9181 51.4164 63.8709 51.4579 63.8214C51.4363 62.5469 51.4372 61.2804 51.4996 60.2411C51.2463 60.3066 50.9918 60.4021 50.7651 60.4772Z" fill="#C8645C" fill-opacity="0.5"/>
        <path d="M54.6769 53.8851C54.9247 51.8094 55.0355 49.566 54.6863 47.4967C54.3553 45.5353 52.5184 44.651 50.8093 44.0139C48.7018 43.2284 47.1076 40.5021 44.9336 41.2028C43.4061 41.6952 41.5548 41.4713 40.2596 42.7908C39.7085 42.618 38.2092 46.9196 38.1848 47.6985C38.0593 51.684 37.468 56.3517 39.7467 59.8993C40.7568 61.4718 42.2773 62.7628 43.7423 63.525C45.4164 64.3961 46.5319 64.4057 48.3082 63.7771C50.2442 63.0917 51.5392 61.5659 52.8044 60.0005C54.1267 58.3643 54.4349 55.911 54.6769 53.8851Z" fill="#E77569"/>
        <path d="M55.6225 47.3097C55.3662 46.6841 55.1104 46.0248 54.7034 45.4779C54.2538 44.873 53.4328 44.5179 52.9754 43.9428C53.1008 43.8343 53.1807 43.6714 53.1627 43.4525C53.1171 42.896 52.9852 42.4955 52.7063 42.0161C52.4346 41.5491 51.8374 41.7082 51.6265 42.0919C51.5701 42.0587 51.5103 42.0337 51.4477 42.0178C51.6542 41.7685 51.8476 41.5022 52.0171 41.2023C52.4187 40.491 51.2899 39.9188 50.8902 40.6266C50.7104 40.9451 50.4952 41.222 50.2577 41.474C50.0044 41.4253 49.707 41.5487 49.5532 41.7806C49.5367 41.7302 49.5171 41.6803 49.4892 41.6313C49.4716 41.6 49.4512 41.5734 49.4311 41.5457C49.4533 41.194 49.1654 40.8349 48.7675 40.8537C48.8899 40.4337 48.3637 39.9907 47.9208 40.0929C47.7925 40.1223 47.6626 40.1534 47.5311 40.1861C47.4345 40.1288 47.3157 40.0978 47.1723 40.1099C46.0353 40.2047 45.0476 40.638 43.968 40.9568C43.6632 41.0468 43.4452 41.1164 43.2925 41.1689C43.3114 41.1373 43.3023 41.1036 43.2413 41.0718C43.0891 40.992 42.9993 40.7782 42.796 40.6976C42.1828 40.4547 41.4451 40.9927 40.9308 41.2499C39.7669 41.8309 38.6793 42.5215 37.6361 43.2968C37.0682 43.7188 37.4851 44.6426 38.1883 44.4236C38.3594 44.3703 38.524 44.3067 38.6864 44.2391C37.959 44.996 37.2345 45.7554 36.5052 46.5103C36.1897 46.8371 36.3259 47.2147 36.6123 47.407C36.5245 47.4457 36.4377 47.4861 36.3486 47.5231C36.0218 47.6598 35.9002 48.0354 35.9702 48.3378C35.5642 48.4846 35.6119 49.6601 36.0379 50.021C38.3011 51.9364 42.1625 48.7096 44.144 47.3969C45.6717 46.3846 47.1077 45.2413 48.647 44.2446C49.0598 43.9774 49.4624 43.7168 49.8483 43.4445C50.3962 44.8099 51.2517 45.9334 52.382 46.9812C54.2597 48.7218 55.0357 50.9032 55.7595 53.2959C55.9752 54.0099 56.9808 53.7437 56.9905 53.0576C57.0191 51.0362 56.3812 49.1623 55.6225 47.3097Z" fill="#882F4A"/>
        <path d="M46.7691 56.009C46.5069 56.0117 46.1283 55.9929 45.9723 55.7253C45.833 55.4856 45.9751 55.1038 46.0282 54.8535C46.1304 54.375 46.2349 53.8969 46.3385 53.4189C46.4246 53.0203 45.8062 52.8877 45.7201 53.2857C45.5569 54.0399 45.1239 55.0805 45.3519 55.8519C45.5512 56.5253 46.183 56.647 46.8048 56.6408C47.2122 56.6369 47.1756 56.0051 46.7691 56.009Z" fill="#C8645C" fill-opacity="0.5"/>
        <path d="M52.3784 48.446C51.5076 48.0411 50.6749 47.9124 49.7449 48.0384C49.1851 48.1145 48.0922 48.2605 47.8137 48.8701C47.7903 48.9206 47.8068 48.9804 47.8307 49.0288C48.0394 49.4539 49.1262 49.2135 49.5934 49.1925C50.6916 49.1425 51.7859 49.2486 52.8709 49.4732C52.9694 49.4937 53.0346 49.4018 53.0327 49.3021C53.0266 48.9625 52.725 48.6074 52.3784 48.446Z" fill="#222B49" fill-opacity="0.5"/>
        <path d="M39.652 49.4915C39.65 49.5913 39.7148 49.6829 39.8134 49.6629C40.8992 49.4404 41.9935 49.3375 43.0917 49.3898C43.5587 49.412 44.6452 49.6541 44.8548 49.2296C44.8785 49.181 44.8954 49.121 44.8723 49.0706C44.5948 48.4603 43.502 48.3118 42.9426 48.2348C42.0128 48.1068 41.18 48.2339 40.3084 48.6368C39.9612 48.7974 39.6589 49.152 39.652 49.4915Z" fill="#222B49" fill-opacity="0.5"/>
        <path d="M55.0086 50.8985C54.2143 50.9064 53.7143 51.8078 53.4031 52.4163C53.2468 52.7223 53.3886 52.9959 53.6158 53.1347C53.3954 53.5188 53.1835 53.9579 53.0432 54.3766C52.908 54.5114 52.839 54.7035 52.9062 54.9066C52.795 55.5639 52.9739 56.0643 53.7624 56.0267C55.4862 55.9447 56.3399 53.8984 56.2536 52.4267C56.2116 51.7101 55.8505 50.8901 55.0086 50.8985Z" fill="#E77569"/>
        <path d="M37.7976 50.5949C38.5917 50.6179 39.0741 51.5284 39.3734 52.1425C39.5241 52.4515 39.3773 52.7228 39.1472 52.8574C39.3604 53.2455 39.5638 53.6884 39.6962 54.1097C39.8286 54.2471 39.894 54.4407 39.8231 54.6424C39.9215 55.3017 39.7333 55.7984 38.9455 55.7458C37.2236 55.6311 36.4095 53.5688 36.5239 52.0992C36.5794 51.3833 36.9561 50.5704 37.7976 50.5949Z" fill="#E77569"/>
        <path d="M49.0708 58.4401C47.2836 58.6082 45.5126 58.6335 43.7353 58.5099C43.3515 58.4834 43.2534 58.7635 43.4734 58.9948C44.2384 59.7519 45.1276 60.1201 46.4772 60.0439C47.6937 59.975 48.881 59.6819 49.3956 58.8052C49.5 58.6269 49.3364 58.415 49.0708 58.4401Z" fill="white"/>
        <path d="M54.9982 52.56C54.8909 52.1706 54.2676 52.2812 54.3762 52.6743C54.5002 53.1242 54.3113 53.5315 54.1025 53.9241C53.913 54.2796 54.4316 54.6424 54.623 54.2834C54.908 53.748 55.1681 53.1764 54.9982 52.56Z" fill="#C8645C" fill-opacity="0.5"/>
        <path d="M38.2703 52.3711C38.3254 51.9697 37.707 51.8345 37.6519 52.2382C37.5778 52.7776 37.6072 53.3019 37.7402 53.8298C37.8395 54.2241 38.4387 54.0206 38.3396 53.6271C38.2358 53.2144 38.2125 52.7925 38.2703 52.3711Z" fill="#C8645C" fill-opacity="0.5"/>
        <path d="M41.3231 46.5751C40.2477 47.5413 39.1276 48.5111 37.6538 48.7549C37.2564 48.8207 37.2875 49.4526 37.6895 49.3861C39.3471 49.1119 40.58 48.0881 41.795 46.996C42.0977 46.7242 41.6233 46.3054 41.3231 46.5751ZM37.6242 47.7769C38.0255 47.4262 38.3997 47.0481 38.7458 46.6425C39.0101 46.333 38.5387 45.9109 38.2735 46.2213C37.9275 46.6266 37.5535 47.0047 37.1522 47.3557C37.0224 47.469 37.0624 47.6971 37.1773 47.8023C37.3164 47.9291 37.4961 47.8887 37.6242 47.7769ZM34.4372 68.3369C33.7825 70.0608 33.1654 71.7884 33.0113 73.6404C32.8562 75.5048 32.8982 77.396 32.8624 79.2657C32.8545 79.673 33.4862 79.635 33.4939 79.23C33.5275 77.484 33.504 75.7253 33.621 73.9829C33.7473 72.1038 34.3356 70.3759 35.0007 68.6248C35.1438 68.2475 34.5817 67.9567 34.4372 68.3369ZM34.9898 76.4086C34.7109 77.9794 34.6447 79.5509 34.7965 81.1399C34.8352 81.5442 35.4668 81.5105 35.428 81.1042C35.2816 79.5718 35.3395 78.058 35.6088 76.5415C35.6801 76.1409 35.0611 76.0071 34.9898 76.4086ZM58.9513 75.6158C59.3386 76.68 59.556 77.7683 59.6065 78.8999C59.6245 79.3067 60.256 79.2711 60.238 78.8637C60.1853 77.6768 59.9572 76.5296 59.5508 75.4131C59.4118 75.0316 58.8114 75.232 58.9513 75.6158ZM60.9022 68.3645C60.7755 67.9782 60.1751 68.1795 60.3025 68.5672C61.2599 71.487 61.8367 74.4684 62.0372 77.5347C62.0639 77.9409 62.6954 77.9061 62.6688 77.4993C62.4646 74.379 61.8764 71.3358 60.9022 68.3645Z" fill="#6D253B"/>
        <path d="M55.0989 50.0449C54.7882 50.1891 54.499 50.3592 54.2245 50.5524C54.22 50.4246 54.2137 50.2969 54.2037 50.1693C54.1714 49.7587 54.1474 49.3518 53.8136 49.0631C53.0576 48.4088 51.515 48.5254 50.6051 48.6125C49.0859 48.635 47.7884 49.5453 47.3664 50.818C46.5426 50.7023 45.7318 50.7316 44.9201 50.8952C44.473 49.5273 43.0236 48.6218 41.4112 48.7379C40.4972 48.7299 38.9501 48.7474 38.2539 49.4647C38.0724 49.6519 38.0033 49.8702 37.9765 50.1025C37.8322 49.9529 37.6759 49.8208 37.4795 49.7327C37.1086 49.5668 36.8195 50.1298 37.1917 50.2962C37.43 50.4031 37.5875 50.6011 37.7544 50.7956C37.8288 50.8826 37.9032 50.9695 37.9776 51.0562C38.001 51.4539 38.0482 51.85 38.1107 52.2435C38.1152 52.2901 38.1164 52.3364 38.1235 52.3834C38.2475 53.2189 38.7281 53.9488 39.4766 54.4376C40.213 54.9189 41.1227 55.1093 42.0388 54.9735C42.1562 54.9558 42.2718 54.9333 42.3848 54.906C44.0491 54.5033 45.1931 53.0575 45.0469 51.5087C45.7716 51.3578 46.5019 51.3343 47.2355 51.4369C47.2322 51.4705 47.2263 51.503 47.2242 51.5368C47.1259 53.1568 48.4216 54.5764 50.1697 54.8419C50.2848 54.8592 50.4018 54.8718 50.5202 54.8789C52.4425 54.9956 54.0915 53.6862 54.1964 51.9598C54.1992 51.9127 54.1965 51.8664 54.1972 51.8194C54.2082 51.6636 54.2161 51.5068 54.2219 51.3503C54.5472 51.0666 54.9094 50.8261 55.3013 50.6444C55.6664 50.4753 55.469 49.8736 55.0989 50.0449ZM41.9457 54.3474C41.1832 54.4607 40.4293 54.3049 39.8226 53.9081C39.2949 53.5635 38.9365 53.0723 38.7941 52.5093C38.794 52.5067 38.7948 52.505 38.7941 52.5024C38.7804 52.428 38.7639 52.3454 38.7463 52.259C38.715 52.0251 38.7225 51.7933 38.763 51.5689C38.9209 51.4937 39.017 51.3175 38.8826 51.1491C39.1936 50.3428 39.9486 49.6851 40.9198 49.4499C41.0148 49.4268 41.1118 49.4085 41.2107 49.3936C42.7705 49.1623 44.2042 50.0851 44.4071 51.451C44.6096 52.8166 43.5061 54.1152 41.9457 54.3474ZM53.565 51.8905C53.555 51.9774 53.5456 52.0611 53.5386 52.1366C53.5383 52.1377 53.539 52.1391 53.539 52.1403C53.3335 53.4081 52.0478 54.3378 50.5586 54.2473C48.9852 54.1552 47.7721 52.9534 47.8555 51.5752C47.9393 50.197 49.2879 49.1529 50.8617 49.2485C52.4257 49.3421 53.6288 50.5249 53.565 51.8905Z" fill="#3E3842"/>
        <path d="M37.563 54.5819C36.9533 54.6164 37.0059 55.564 37.6165 55.5292C38.2261 55.4947 38.1738 54.5471 37.563 54.5819Z" fill="#DDDFE1"/>
        <path d="M54.8638 54.7361C54.2541 54.7706 54.3067 55.7182 54.9172 55.6834C55.5269 55.6489 55.4746 54.7015 54.8638 54.7361Z" fill="#DDDFE1"/>
        <path d="M29.5403 87.0937C29.5403 87.0937 26.3502 78.0095 21.1844 75.098C16.0183 72.1865 26.0711 65.9862 26.0711 65.9862L32.2699 70.8204" fill="#CA98C4"/>
        <path d="M59.0739 89.3389C58.6696 88.8362 53.5266 87.0413 56.7294 84.0247C59.9322 81.0083 62.7967 80.4123 62.7967 80.4123L64.551 80.2487L60.9764 85.701L60.9706 88.9093C60.9706 88.9093 60.0995 90.6136 59.0739 89.3389Z" fill="#A07A9C"/>
        <path d="M42.4864 52.2193C42.4582 52.7398 42.1771 53.1483 41.8588 53.131C41.5408 53.1138 41.306 52.6776 41.3344 52.1573C41.3626 51.6365 41.6434 51.2284 41.9615 51.2459C42.2798 51.2629 42.5146 51.6988 42.4864 52.2193Z" fill="#222B49" fill-opacity="0.5"/>
        <path d="M51.1292 52.1373C51.1036 52.658 50.8249 53.0675 50.5066 53.0517C50.1883 53.0362 49.9513 52.6015 49.9769 52.0808C50.0024 51.5601 50.2812 51.1506 50.5991 51.1661C50.9174 51.1819 51.1547 51.6166 51.1292 52.1373Z" fill="#222B49" fill-opacity="0.5"/>
        <path d="M64.9014 15.0073L64.9201 15.0531V15.0556C65.0398 15.3836 65.0231 15.7299 64.8972 16.0297C64.7653 16.344 64.512 16.6087 64.1696 16.7488L64.1237 16.7673H64.1209C63.7932 16.8868 63.4468 16.8705 63.1472 16.7444C62.8327 16.6125 62.5678 16.3592 62.4279 16.0166L62.4094 15.9708V15.9682C62.2897 15.6403 62.3064 15.294 62.4323 14.9942C62.5642 14.6797 62.8176 14.415 63.1599 14.2751L63.2057 14.2565H63.2084C63.5364 14.137 63.8827 14.1533 64.1823 14.2794C64.4969 14.4114 64.7617 14.6646 64.9014 15.0073ZM64.4573 15.1791C64.3673 14.9644 64.1982 14.8049 63.9973 14.7206C63.7938 14.6352 63.5583 14.627 63.3396 14.7162L63.3321 14.7195C63.1174 14.8094 62.9577 14.9786 62.8732 15.1793C62.788 15.3828 62.7798 15.6183 62.8692 15.8372L62.872 15.844C62.9619 16.0591 63.1311 16.2189 63.3324 16.3032C63.5357 16.3886 63.7711 16.3968 63.9901 16.3076L63.9967 16.3045C64.2119 16.2148 64.3715 16.0458 64.4561 15.8445C64.5416 15.641 64.5498 15.4056 64.4604 15.1868L64.4573 15.1791Z" fill="#9FBEFF"/>
        <path d="M63.1702 32.1821C63.1702 32.3219 63.057 32.4351 62.9173 32.4351C62.7777 32.4351 62.6645 32.3219 62.6645 32.1821V30.2358C62.6645 30.096 62.7777 29.9828 62.9173 29.9828C63.057 29.9828 63.1702 30.096 63.1702 30.2358V32.1821ZM63.8905 30.9561C64.0303 30.9561 64.1435 31.0693 64.1435 31.209C64.1435 31.3484 64.0303 31.4616 63.8905 31.4616H61.9441C61.8046 31.4616 61.6914 31.3484 61.6914 31.209C61.6914 31.0693 61.8046 30.9561 61.9441 30.9561H63.8905Z" fill="#9FBEFF"/>
        <path d="M22.781 12.7226C22.781 12.8623 22.6678 12.9755 22.5282 12.9755C22.3886 12.9755 22.2754 12.8623 22.2754 12.7226V10.7762C22.2754 10.6366 22.3886 10.5234 22.5282 10.5234C22.6678 10.5234 22.781 10.6366 22.781 10.7762V12.7226ZM23.5014 11.4967C23.6411 11.4967 23.7543 11.6099 23.7543 11.7494C23.7543 11.8889 23.6411 12.0022 23.5014 12.0022H21.555C21.4154 12.0022 21.3022 11.8889 21.3022 11.7494C21.3022 11.6099 21.4154 11.4967 21.555 11.4967H23.5014Z" fill="#5925DC"/>
        <path d="M22.628 33.4619L22.6469 33.5077V33.5102C22.7665 33.8384 22.7497 34.1846 22.624 34.4842C22.4919 34.7987 22.2386 35.0634 21.8962 35.2034L21.8504 35.222H21.8476C21.5197 35.3416 21.1734 35.3251 20.8738 35.1992C20.5593 35.0673 20.2946 34.8138 20.1545 34.4713L20.1359 34.4256V34.423C20.0163 34.0949 20.0329 33.7488 20.1588 33.449C20.2908 33.1345 20.5442 32.8698 20.8865 32.7299L20.9323 32.7112H20.935C21.2631 32.5916 21.6092 32.6082 21.9089 32.7342C22.2235 32.8659 22.4882 33.1194 22.628 33.4619ZM22.184 33.634C22.0938 33.4192 21.9249 33.2595 21.7239 33.1752C21.5204 33.0898 21.2851 33.0816 21.0662 33.171L21.0587 33.1741C20.844 33.264 20.6843 33.4332 20.6 33.6342C20.5146 33.8374 20.5064 34.0729 20.5958 34.2918L20.5985 34.2987C20.6886 34.5138 20.8576 34.6737 21.0589 34.758C21.2622 34.8434 21.4977 34.8516 21.7166 34.7622L21.7235 34.7593C21.9385 34.6694 22.0982 34.5004 22.1826 34.2991C22.2682 34.0956 22.2764 33.8603 22.187 33.6414L22.184 33.634Z" fill="#5925DC"/>
        <path d="M19.7803 24.7717C19.9738 24.7717 20.1319 24.6138 20.1319 24.4201C20.1319 24.2266 19.9738 24.0687 19.7803 24.0687C19.5868 24.0687 19.4287 24.2266 19.4287 24.4201C19.4287 24.6138 19.5868 24.7717 19.7803 24.7717Z" fill="#9FBEFF"/>
        <path d="M20.6744 41.1429C20.8679 41.1429 21.0259 40.9848 21.0259 40.7911C21.0259 40.5976 20.8679 40.4397 20.6744 40.4397C20.4808 40.4397 20.3228 40.5976 20.3228 40.7911C20.3228 40.9848 20.4808 41.1429 20.6744 41.1429Z" fill="#9FBEFF"/>
        <path d="M28.7303 10.7202C28.9238 10.7202 29.0819 10.5623 29.0819 10.3686C29.0819 10.1749 28.9238 10.0172 28.7303 10.0172C28.5368 10.0172 28.3789 10.1749 28.3789 10.3686C28.3789 10.5623 28.5368 10.7202 28.7303 10.7202Z" fill="#5925DC"/>
        <path d="M60.2356 9.7783C60.4291 9.7783 60.5871 9.62033 60.5871 9.42663C60.5871 9.23308 60.4291 9.07544 60.2356 9.07544C60.0421 9.07544 59.8838 9.23308 59.8838 9.42663C59.8838 9.62033 60.0421 9.7783 60.2356 9.7783Z" fill="#9FBEFF"/>
        <path d="M64.8853 23.8321C65.0788 23.8321 65.2368 23.6742 65.2368 23.4806C65.2368 23.2871 65.0788 23.1292 64.8853 23.1292C64.6918 23.1292 64.5337 23.2871 64.5337 23.4806C64.5337 23.6742 64.6918 23.8321 64.8853 23.8321Z" fill="#9FBEFF"/>
        <path d="M64.3336 38.4867C64.527 38.4867 64.6851 38.3287 64.6851 38.1351C64.6851 37.9416 64.527 37.7837 64.3336 37.7837C64.1401 37.7837 63.9819 37.9416 63.9819 38.1351C63.9819 38.3287 64.1401 38.4867 64.3336 38.4867Z" fill="#9FBEFF"/>
        <path d="M30.2837 19.999L56.4858 21.3289C56.4862 21.3289 56.4866 21.3291 56.4866 21.3295L55.7228 36.379C55.6882 37.06 55.1029 37.5889 54.4219 37.5544L30.695 36.3502C30.014 36.3156 29.4853 35.7301 29.5199 35.0491L30.2837 19.999Z" fill="#9FBEFF"/>
        <path d="M43.3867 20.6639L56.4874 21.3288C56.4877 21.3289 56.4881 21.3293 56.4881 21.3296L55.7243 36.379C55.6897 37.06 55.1044 37.5889 54.4234 37.5544L43.7981 37.0151C43.1171 36.9805 42.5883 36.395 42.6229 35.714L43.3867 20.6639Z" fill="#80B0FF"/>
        <path d="M30.2094 21.4621L43.3108 22.127L43.3851 20.664L30.2837 19.999L30.2094 21.4621Z" fill="#63A2FF"/>
        <path d="M56.4139 22.792L43.3125 22.127L43.3867 20.6639L56.4881 21.3289L56.4139 22.792Z" fill="#63A2FF"/>
        <path d="M35.5234 20.3351L38.1384 20.4678L37.3745 35.5179C37.34 36.1989 37.8689 36.7844 38.5497 36.8189L35.9348 36.6862C35.2538 36.6517 34.725 36.0662 34.7596 35.3852L35.5234 20.3351Z" fill="#FFF6E8"/>
        <path d="M35.4531 21.7274L38.068 21.8601L38.1422 20.397L35.5273 20.2643L35.4531 21.7274Z" fill="#D3E1F6"/>
        <path d="M51.2397 21.1327L48.6247 21L47.8609 36.0501C47.8263 36.7311 47.241 37.26 46.56 37.2254L49.175 37.3582C49.8559 37.3927 50.4413 36.8638 50.4758 36.1828L51.2397 21.1327Z" fill="#E4DDD2"/>
        <path d="M48.5547 22.3924L51.1696 22.5251L51.2439 21.062L48.6289 20.9293L48.5547 22.3924Z" fill="#B3CAEA"/>
        <path d="M29.927 16.0324L57.245 17.4189C57.7692 17.4455 58.1765 17.8962 58.1499 18.4207L58.0334 20.7156C58.0068 21.2402 57.5559 21.6474 57.0317 21.6208L29.7137 20.2343C29.1893 20.2077 28.7821 19.757 28.8088 19.2323L28.9252 16.9375C28.9519 16.413 29.4026 16.0058 29.927 16.0324Z" fill="#9FBEFF"/>
        <path d="M43.5859 16.7256L57.2445 17.4189C57.7691 17.4455 58.1763 17.8964 58.1497 18.4208L58.0332 20.7156C58.0066 21.2402 57.5559 21.6474 57.0312 21.6207L43.3726 20.9275C42.8482 20.9009 42.4408 20.4502 42.4675 19.9256L42.5839 17.6308C42.6105 17.1064 43.0614 16.699 43.5859 16.7256Z" fill="#80B0FF"/>
        <path d="M35.7273 16.3268L38.3422 16.4595C37.8178 16.4329 37.3671 16.8403 37.3405 17.3647L37.224 19.6595C37.1974 20.1841 37.6045 20.6348 38.129 20.6614L35.514 20.5287C34.9896 20.5021 34.5824 20.0514 34.6091 19.5268L34.7255 17.2319C34.7521 16.7076 35.2028 16.3002 35.7273 16.3268Z" fill="#FFF6E8"/>
        <path d="M51.4435 17.1245L48.8286 16.9918C49.3531 17.0184 49.7604 17.4693 49.7338 17.9937L49.6173 20.2886C49.5907 20.8132 49.1398 21.2203 48.6154 21.1937L51.2303 21.3264C51.7549 21.3531 52.2055 20.9459 52.2321 20.4213L52.3486 18.1264C52.3752 17.602 51.9682 17.1512 51.4435 17.1245Z" fill="#E4DDD2"/>
        <path d="M43.8647 16.0737C43.8593 14.9863 43.5664 13.9637 43.2416 12.9416C42.8512 11.6 42.5566 10.2257 41.9426 8.94936C41.0701 7.13016 39.782 5.3449 37.5171 6.53998C36.6365 6.99827 36.0996 7.63035 35.8437 8.34548C36.1694 8.34315 36.5162 8.44639 36.8235 8.59055C38.619 9.47746 39.8119 11.4231 40.8115 13.0815C41.2308 13.7833 41.6817 14.4208 42.1327 15.0905C42.2788 15.3074 42.5383 15.6981 42.655 16.0606C43.0023 16.1129 43.353 16.1401 43.7051 16.1384L43.8647 16.0737Z" fill="#FFF6E8"/>
        <path d="M40.7983 13.0758C39.7987 11.4174 38.6057 9.47177 36.8103 8.58481C36.503 8.44066 36.1561 8.33742 35.8305 8.3398C35.4372 9.43865 35.7134 10.7353 36.4749 11.9135C37.8323 13.9844 40.1492 15.6804 42.6417 16.0549C42.5249 15.6924 42.2655 15.3017 42.1195 15.0848C41.6684 14.4151 41.2175 13.7777 40.7983 13.0758Z" fill="#E4DDD2"/>
        <path d="M42.9989 15.9723C43.4854 14.9997 44.2008 14.2129 44.9448 13.4406C45.8892 12.4108 46.7621 11.3093 47.8778 10.4369C49.4662 9.19261 51.4116 8.16313 52.913 10.2378C53.4991 11.039 53.7005 11.8435 53.6131 12.5981C53.3223 12.4517 52.9657 12.3904 52.626 12.3838C50.6236 12.3833 48.6924 13.5989 47.0613 14.6426C46.3746 15.0861 45.6882 15.4579 44.9867 15.8584C44.7602 15.9879 44.3541 16.2236 44.089 16.4966C43.7545 16.3896 43.428 16.2585 43.1132 16.1011L42.9989 15.9723Z" fill="#FFF6E8"/>
        <path d="M47.0755 14.6615C48.7066 13.6178 50.6378 12.4023 52.6402 12.4027C52.98 12.4093 53.3365 12.4707 53.6273 12.617C53.4932 13.7765 52.6709 14.8166 51.4665 15.5355C49.3318 16.7905 46.5036 17.2843 44.1032 16.5156C44.3683 16.2425 44.7744 16.0069 45.0009 15.8773C45.7024 15.4769 46.3888 15.105 47.0755 14.6615Z" fill="#E4DDD2"/>
        <path d="M43.4598 15.6214C42.4141 15.5683 41.5401 16.0445 41.5076 16.6849L45.2944 16.8771C45.3269 16.2367 44.5055 15.6744 43.4598 15.6214Z" fill="#FFF6E8"/>
    </g>
    <defs>
        <clipPath id="clip0_1042_8031">
            <rect width="144" height="144" fill="white"/>
        </clipPath>
    </defs>
</svg>
