<svg width="34" height="20" viewBox="0 0 34 20" fill="none" xmlns="http://www.w3.org/2000/svg">
    <path d="M28.3351 3.54492C28.2989 3.54492 26.3665 3.54492 23.2688 5.06574L22.7405 5.33453C22.1205 5.66075 21.4594 6.0467 20.7622 6.50386C20.6488 6.57738 20.3135 6.77265 20.1301 6.91968C21.761 8.50023 22.7332 9.56159 23.387 10.3197C24.0408 11.0778 24.4341 11.6085 24.9648 12.2104C29.6427 17.4942 38.5666 10.5678 28.3351 3.54492Z" fill="#439687"/>
    <path d="M20.7694 6.506C21.4666 6.04653 22.1276 5.66288 22.7476 5.33666L23.276 5.06788H23.2277L23.2784 5.05639C26.364 3.54016 28.2964 3.53557 28.3447 3.53557C28.3302 3.46665 28.1589 3.45516 27.4593 2.97502C27.0572 2.69173 26.6339 2.43681 26.1927 2.21231C25.4714 1.72758 23.7899 1.14866 23.7899 1.14866H23.7705C21.6529 0.454066 19.4375 0.0668456 17.1989 0C15.8007 0.0103961 14.4079 0.164442 13.0445 0.459463L12.9432 0.482436C11.182 0.854601 8.95047 2.01704 8.95047 2.01704C7.75961 2.61455 6.63458 3.32413 5.59225 4.13517L5.544 4.17422C5.16523 4.47976 2.60796 6.60478 0.911966 9.50399V9.51548C0.820479 9.65916 0.739858 9.80887 0.670715 9.96346C0.670715 9.96346 0.670715 9.96346 0.692427 9.96346C0.668302 10.014 0.641764 10.0622 0.617639 10.1151C0.593514 10.1679 0.557326 10.2437 0.528376 10.3104C0.17668 11.1203 -0.00289616 11.9885 3.532e-05 12.865C3.532e-05 16.5407 3.19662 19.4284 7.07112 19.4284C12.1953 19.4284 13.5849 14.4731 16.6898 10.3195C17.6861 8.92281 18.9439 7.71264 20.4003 6.74951C20.4098 6.74207 20.4204 6.73589 20.4316 6.73113L20.7694 6.506Z" fill="#4FBFA3"/>
</svg>
