<svg width="24" height="24" viewBox="0 0 24 24" fill="none" xmlns="http://www.w3.org/2000/svg">
<g clip-path="url(#clip0_259_38764)">
<path d="M21.9905 8.75389L22.3634 8.38088C22.6811 8.06314 22.6811 7.54799 22.3634 7.23033C22.0456 6.91267 21.5306 6.91267 21.2128 7.23033L20.8306 7.61263L20.0965 4.67615C19.833 3.62249 18.7758 2.79712 17.6899 2.79712H6.31006C5.22408 2.79712 4.16695 3.62249 3.90343 4.67623L3.16937 7.61263L2.78715 7.23033C2.46933 6.91267 1.95434 6.91267 1.63661 7.23033C1.31887 7.54807 1.31887 8.06322 1.63661 8.38088L2.00954 8.75389C0.820687 9.33667 0 10.5591 0 11.97V14.8276C0 15.9809 0.548768 17.0078 1.39822 17.6629V19.0887C1.39822 20.2551 2.34707 21.2039 3.51354 21.2039H5.10513C6.27152 21.2039 7.22036 20.2551 7.22036 19.0887V18.4073H16.7796V19.0887C16.7796 20.2551 17.7284 21.2039 18.8948 21.2039H20.4864C21.6528 21.2039 22.6017 20.2551 22.6017 19.0887V17.6631C23.4512 17.0079 24 15.981 24 14.8276V11.97C24 10.5591 23.1793 9.33667 21.9905 8.75389ZM4.71507 8.13829L5.48194 5.0709C5.56501 4.73845 5.96751 4.42419 6.31006 4.42419H17.6898C18.0323 4.42419 18.4348 4.73845 18.5179 5.0709L19.2848 8.13837C19.306 8.22346 19.3018 8.29587 19.2735 8.33223C19.2449 8.36859 19.1757 8.39033 19.0881 8.39033H4.91176C4.82416 8.39033 4.75491 8.36859 4.72638 8.33223C4.6981 8.29587 4.6939 8.22346 4.71507 8.13829ZM1.62715 11.97C1.62715 10.8934 2.50311 10.0175 3.57964 10.0175H20.4204C21.4969 10.0175 22.3728 10.8934 22.3728 11.97V14.8276C22.3728 15.9042 21.4969 16.7801 20.4204 16.7801H3.57964C2.50311 16.7801 1.62715 15.9042 1.62715 14.8276V11.97V11.97ZM5.59321 19.0887C5.59321 19.3532 5.36962 19.5768 5.10513 19.5768H3.51345C3.24889 19.5768 3.02529 19.3532 3.02529 19.0887V18.3642C3.20606 18.3924 3.39103 18.4073 3.57956 18.4073H5.59313V19.0887H5.59321ZM20.9745 19.0887C20.9745 19.3532 20.7509 19.5768 20.4864 19.5768H18.8948C18.6303 19.5768 18.4067 19.3532 18.4067 19.0887V18.4073H20.4204C20.6089 18.4073 20.7939 18.3924 20.9746 18.3642V19.0887H20.9745Z" fill="#7A5AF8"/>
<rect x="1.29688" y="9.72974" width="21.4054" height="7.78378" rx="1.57576" fill="#7A5AF8"/>
<path d="M9.20217 14.212H14.7956C15.2449 14.212 15.6091 13.8477 15.6091 13.3985C15.6091 12.9492 15.2448 12.585 14.7956 12.585H9.20217C8.75287 12.585 8.38867 12.9492 8.38867 13.3985C8.38859 13.8477 8.75287 14.212 9.20217 14.212Z" fill="#FFBA08"/>
<path d="M5.00867 15.6104C6.22831 15.6104 7.22055 14.6182 7.22055 13.3986C7.22055 12.1789 6.22831 11.1868 5.00867 11.1868C3.78904 11.1868 2.79688 12.1789 2.79688 13.3986C2.79679 14.6181 3.78904 15.6104 5.00867 15.6104ZM5.00867 12.8138C5.3311 12.8138 5.5934 13.0761 5.5934 13.3985C5.5934 13.7209 5.3311 13.9832 5.00867 13.9832C4.68633 13.9832 4.42395 13.7209 4.42395 13.3985C4.42386 13.0761 4.68625 12.8138 5.00867 12.8138Z" fill="#FFBA08"/>
<path d="M18.9912 15.6104C20.2108 15.6104 21.203 14.6182 21.203 13.3986C21.203 12.1789 20.2108 11.1868 18.9912 11.1868C17.7715 11.1868 16.7793 12.1789 16.7793 13.3986C16.7792 14.6181 17.7715 15.6104 18.9912 15.6104ZM18.9912 12.8138C19.3135 12.8138 19.5759 13.0761 19.5759 13.3985C19.5759 13.7209 19.3135 13.9832 18.9912 13.9832C18.6688 13.9832 18.4064 13.7209 18.4064 13.3985C18.4064 13.0761 18.6687 12.8138 18.9912 12.8138Z" fill="#FFBA08"/>
</g>
<defs>
<clipPath id="clip0_259_38764">
<rect width="24" height="24" fill="white"/>
</clipPath>
</defs>
</svg>
