<svg width="27" height="22" viewBox="0 0 27 22" fill="none" xmlns="http://www.w3.org/2000/svg">
<path d="M3.75542 12.2432L13.9113 21.9576C13.9916 22.0344 14.2389 21.9896 14.3525 21.9576L23.4969 12.8133C24.4604 11.8498 25.3385 10.7643 25.6839 9.44617C26.2746 7.19208 26.2606 4.01744 23.6253 1.64567C20.0928 -1.53357 15.6774 0.615425 13.9113 2.08733C11.8507 0.615457 6.93466 -1.44516 3.75542 2.08733C0.576182 5.61982 2.43074 10.3298 3.75542 12.2432Z" fill="#6938EF"/>
<path d="M2 9.59399H6.31377C6.37776 9.59399 6.43788 9.56337 6.47551 9.51162L9.6962 5.08318C9.79606 4.94587 10.0108 4.9876 10.052 5.15231L11.1972 9.73318C11.2325 9.87456 11.4024 9.93189 11.5162 9.84085L13.224 8.47459C13.341 8.38097 13.5156 8.44458 13.545 8.59154L14.2374 12.0535C14.2759 12.2461 14.54 12.2736 14.6174 12.093L15.6364 9.71521C15.668 9.64167 15.7403 9.59399 15.8203 9.59399H25.4027" stroke="white" stroke-width="2.2" stroke-linecap="round"/>
</svg>
