<svg width="28" height="28" viewBox="0 0 28 28" fill="none" xmlns="http://www.w3.org/2000/svg">
<rect width="28" height="28" rx="14" fill="#FAFAFA"/>
<g clip-path="url(#clip0_539_1268)">
<path d="M21.9042 9.0654C21.3104 9.32805 20.6807 9.50054 20.036 9.57717C20.7156 9.17073 21.2242 8.53107 21.4671 7.7774C20.8293 8.15695 20.1301 8.42295 19.4013 8.56684C18.9118 8.04307 18.2629 7.6957 17.5556 7.57874C16.8483 7.46178 16.1222 7.58178 15.4901 7.92008C14.858 8.25838 14.3554 8.79604 14.0604 9.44946C13.7654 10.1029 13.6946 10.8354 13.8589 11.5333C12.5655 11.4685 11.3003 11.1324 10.1452 10.5468C8.99019 9.96124 7.97121 9.13932 7.15445 8.1344C6.86534 8.63097 6.71341 9.19546 6.71423 9.77006C6.71423 10.8978 7.28823 11.8942 8.16089 12.4775C7.64445 12.4612 7.13938 12.3218 6.68778 12.0707V12.1112C6.68794 12.8623 6.94785 13.5902 7.42344 14.1716C7.89903 14.7529 8.56104 15.1519 9.29723 15.3008C8.81781 15.4308 8.31513 15.4499 7.82723 15.3568C8.03479 16.0034 8.43934 16.5688 8.98424 16.9739C9.52914 17.3791 10.1871 17.6037 10.866 17.6163C10.1913 18.1462 9.4187 18.5379 8.59247 18.7691C7.76624 19.0002 6.90255 19.0663 6.05078 18.9634C7.53766 19.9196 9.26852 20.4273 11.0363 20.4256C17.0198 20.4256 20.2919 15.4688 20.2919 11.1701C20.2919 11.0301 20.288 10.8885 20.2818 10.7501C20.9187 10.2897 21.4684 9.71952 21.905 9.06617L21.9042 9.0654Z" fill="#094063"/>
</g>
<defs>
<clipPath id="clip0_539_1268">
<path d="M4.66699 8.6665C4.66699 6.45736 6.45785 4.6665 8.66699 4.6665H19.3337C21.5428 4.6665 23.3337 6.45737 23.3337 8.6665V19.3332C23.3337 21.5423 21.5428 23.3332 19.3337 23.3332H8.66699C6.45785 23.3332 4.66699 21.5423 4.66699 19.3332V8.6665Z" fill="white"/>
</clipPath>
</defs>
</svg>
