<svg width="28" height="28" viewBox="0 0 28 28" fill="none" xmlns="http://www.w3.org/2000/svg">
<rect width="28" height="28" rx="14" fill="#FAFAFA"/>
<g clip-path="url(#clip0_347_874)">
<path d="M16.646 21V15.582H18.4606L18.732 13.4758H16.646V12.1318C16.646 11.522 16.8156 11.1059 17.6898 11.1059H18.8051V9.22211C18.2652 9.16482 17.7225 9.13704 17.1796 9.13889C15.5719 9.13889 14.4713 10.1204 14.4713 11.9233V13.4758H12.6529V15.582H14.4713V21H7.77778C7.5715 21 7.37367 20.9181 7.22781 20.7722C7.08194 20.6263 7 20.4285 7 20.2222V7.77778C7 7.5715 7.08194 7.37367 7.22781 7.22781C7.37367 7.08194 7.5715 7 7.77778 7H20.2222C20.4285 7 20.6263 7.08194 20.7722 7.22781C20.9181 7.37367 21 7.5715 21 7.77778V20.2222C21 20.4285 20.9181 20.6263 20.7722 20.7722C20.6263 20.9181 20.4285 21 20.2222 21H16.646Z" fill="#094063"/>
</g>
<defs>
<clipPath id="clip0_347_874">
<path d="M4.66699 8.6665C4.66699 6.45736 6.45785 4.6665 8.66699 4.6665H19.3337C21.5428 4.6665 23.3337 6.45737 23.3337 8.6665V19.3332C23.3337 21.5423 21.5428 23.3332 19.3337 23.3332H8.66699C6.45785 23.3332 4.66699 21.5423 4.66699 19.3332V8.6665Z" fill="white"/>
</clipPath>
</defs>
</svg>
