<svg width="28" height="28" viewBox="0 0 28 28" fill="none" xmlns="http://www.w3.org/2000/svg">
<rect width="28" height="28" rx="14" fill="#FAFAFA"/>
<g clip-path="url(#clip0_539_1262)">
<path d="M18.9272 18.9303H16.8544V15.6816C16.8544 14.9069 16.8389 13.9098 15.7733 13.9098C14.693 13.9098 14.5281 14.7529 14.5281 15.6248V18.9303H12.4546V12.25H14.4457V13.16H14.4729C14.7513 12.6358 15.428 12.0812 16.4391 12.0812C18.5391 12.0812 18.928 13.4641 18.928 15.2631V18.9303H18.9272ZM10.1134 11.3361C9.95521 11.3363 9.79849 11.3053 9.65227 11.2448C9.50605 11.1843 9.37321 11.0956 9.26136 10.9836C9.1495 10.8717 9.06084 10.7388 9.00045 10.5926C8.94006 10.4463 8.90914 10.2896 8.90944 10.1313C8.9096 9.8932 8.98036 9.66047 9.11279 9.46256C9.24521 9.26465 9.43335 9.11045 9.65341 9.01946C9.87347 8.92848 10.1156 8.90479 10.3491 8.9514C10.5826 8.99801 10.7971 9.11281 10.9654 9.2813C11.1336 9.4498 11.2482 9.6644 11.2945 9.89799C11.3408 10.1316 11.3168 10.3736 11.2255 10.5936C11.1342 10.8135 10.9798 11.0015 10.7817 11.1336C10.5836 11.2658 10.3508 11.3363 10.1127 11.3361H10.1134ZM11.1526 18.9303H9.07356V12.25H11.1533V18.9303H11.1526ZM19.9656 7H8.03367C7.46122 7 7 7.45111 7 8.00878V19.9912C7 20.5489 7.462 21 8.03289 21H19.9624C20.5333 21 21 20.5489 21 19.9912V8.00878C21 7.45111 20.5333 7 19.9624 7H19.9648H19.9656Z" fill="#094063"/>
</g>
<defs>
<clipPath id="clip0_539_1262">
<path d="M4.66699 8.6665C4.66699 6.45736 6.45785 4.6665 8.66699 4.6665H19.3337C21.5428 4.6665 23.3337 6.45737 23.3337 8.6665V19.3332C23.3337 21.5423 21.5428 23.3332 19.3337 23.3332H8.66699C6.45785 23.3332 4.66699 21.5423 4.66699 19.3332V8.6665Z" fill="white"/>
</clipPath>
</defs>
</svg>
