<svg width="28" height="28" viewBox="0 0 28 28" fill="none" xmlns="http://www.w3.org/2000/svg">
<rect width="28" height="28" rx="14" fill="#FAFAFA"/>
<g clip-path="url(#clip0_539_1256)">
<path d="M14.0004 6.22217C16.1137 6.22217 16.3773 6.22995 17.2064 6.26883C18.0348 6.30772 18.5987 6.43761 19.0949 6.6305C19.6082 6.82806 20.0407 7.09561 20.4731 7.52728C20.8686 7.91609 21.1746 8.3864 21.3699 8.9055C21.562 9.40095 21.6927 9.96561 21.7315 10.7939C21.7681 11.6231 21.7782 11.8867 21.7782 13.9999C21.7782 16.1132 21.7704 16.3768 21.7315 17.2059C21.6927 18.0343 21.562 18.5982 21.3699 19.0944C21.1752 19.6138 20.8691 20.0842 20.4731 20.4726C20.0842 20.868 19.6139 21.174 19.0949 21.3694C18.5994 21.5615 18.0348 21.6922 17.2064 21.7311C16.3773 21.7676 16.1137 21.7777 14.0004 21.7777C11.8872 21.7777 11.6235 21.7699 10.7944 21.7311C9.9661 21.6922 9.40221 21.5615 8.90599 21.3694C8.38669 21.1745 7.91629 20.8685 7.52777 20.4726C7.13219 20.0839 6.82616 19.6135 6.63099 19.0944C6.4381 18.5989 6.30821 18.0343 6.26932 17.2059C6.23277 16.3768 6.22266 16.1132 6.22266 13.9999C6.22266 11.8867 6.23043 11.6231 6.26932 10.7939C6.30821 9.96483 6.4381 9.40172 6.63099 8.9055C6.82562 8.38609 7.13173 7.91564 7.52777 7.52728C7.9164 7.13157 8.38677 6.82551 8.90599 6.6305C9.40221 6.43761 9.96532 6.30772 10.7944 6.26883C11.6235 6.23228 11.8872 6.22217 14.0004 6.22217ZM14.0004 10.1111C12.969 10.1111 11.9799 10.5208 11.2506 11.2501C10.5213 11.9794 10.1115 12.9685 10.1115 13.9999C10.1115 15.0313 10.5213 16.0205 11.2506 16.7498C11.9799 17.4791 12.969 17.8888 14.0004 17.8888C15.0318 17.8888 16.021 17.4791 16.7503 16.7498C17.4796 16.0205 17.8893 15.0313 17.8893 13.9999C17.8893 12.9685 17.4796 11.9794 16.7503 11.2501C16.021 10.5208 15.0318 10.1111 14.0004 10.1111ZM19.056 9.91661C19.056 9.65876 18.9536 9.41147 18.7712 9.22915C18.5889 9.04682 18.3416 8.94439 18.0838 8.94439C17.8259 8.94439 17.5786 9.04682 17.3963 9.22915C17.214 9.41147 17.1115 9.65876 17.1115 9.91661C17.1115 10.1745 17.214 10.4218 17.3963 10.6041C17.5786 10.7864 17.8259 10.8888 18.0838 10.8888C18.3416 10.8888 18.5889 10.7864 18.7712 10.6041C18.9536 10.4218 19.056 10.1745 19.056 9.91661ZM14.0004 11.6666C14.6193 11.6666 15.2128 11.9124 15.6504 12.35C16.0879 12.7876 16.3338 13.3811 16.3338 13.9999C16.3338 14.6188 16.0879 15.2123 15.6504 15.6499C15.2128 16.0874 14.6193 16.3333 14.0004 16.3333C13.3816 16.3333 12.7881 16.0874 12.3505 15.6499C11.9129 15.2123 11.6671 14.6188 11.6671 13.9999C11.6671 13.3811 11.9129 12.7876 12.3505 12.35C12.7881 11.9124 13.3816 11.6666 14.0004 11.6666Z" fill="#094063"/>
</g>
<defs>
<clipPath id="clip0_539_1256">
<path d="M4.66699 8.6665C4.66699 6.45736 6.45785 4.6665 8.66699 4.6665H19.3337C21.5428 4.6665 23.3337 6.45737 23.3337 8.6665V19.3332C23.3337 21.5423 21.5428 23.3332 19.3337 23.3332H8.66699C6.45785 23.3332 4.66699 21.5423 4.66699 19.3332V8.6665Z" fill="white"/>
</clipPath>
</defs>
</svg>
