<svg width="49" height="42" viewBox="0 0 49 42" fill="none" xmlns="http://www.w3.org/2000/svg">
<path d="M5.35126 23.3735L24.7398 41.919C24.8931 42.0657 25.3652 41.9801 25.5821 41.919L43.3637 24.1376C44.9883 22.5131 46.4569 20.6841 47.093 18.4765C48.3382 14.1542 48.4908 7.8273 43.2846 3.14173C36.5408 -2.92773 28.1115 1.1749 24.7398 3.9849C20.8059 1.17496 11.4207 -2.75895 5.35126 3.9849C-0.718197 10.7287 2.82232 19.7205 5.35126 23.3735Z" fill="#6938EF"/>
<path d="M2 18.3158H10.2581C10.366 18.3158 10.4673 18.2641 10.5308 18.1769L16.749 9.62693C16.9173 9.39543 17.2794 9.46578 17.3488 9.74347L19.5751 18.649C19.6347 18.8873 19.9211 18.984 20.1129 18.8305L23.4849 16.1329C23.6822 15.9751 23.9766 16.0823 24.0262 16.3301L25.3905 23.1521C25.4555 23.4768 25.9007 23.5231 26.0311 23.2187L28.0448 18.5201C28.098 18.3961 28.2199 18.3158 28.3547 18.3158H46.678" stroke="#FEC84B" stroke-width="3.70911" stroke-linecap="round"/>
</svg>
