<svg width="18" height="19" viewBox="0 0 18 19" fill="none" xmlns="http://www.w3.org/2000/svg">
    <path d="M13.4999 6.1213C13.4774 6.1213 13.4624 6.1213 13.4399 6.1213H13.4024C11.9849 6.0763 10.9274 4.98129 10.9274 3.63129C10.9274 2.25129 12.0524 1.13379 13.4249 1.13379C14.7974 1.13379 15.9224 2.25879 15.9224 3.63129C15.9149 4.98879 14.8574 6.08379 13.5074 6.12879C13.5074 6.12129 13.5074 6.1213 13.4999 6.1213ZM13.4249 2.25129C12.6674 2.25129 12.0524 2.86629 12.0524 3.62379C12.0524 4.36629 12.6299 4.9663 13.3724 4.9963C13.3799 4.9888 13.4399 4.9888 13.5074 4.9963C14.2349 4.9588 14.7974 4.35879 14.8049 3.62379C14.8049 2.86629 14.1899 2.25129 13.4249 2.25129Z" fill="#7DC5B8"/>
    <path d="M13.5075 11.6487C13.215 11.6487 12.9225 11.6262 12.63 11.5737C12.3225 11.5212 12.12 11.2287 12.1725 10.9212C12.225 10.6137 12.5175 10.4112 12.825 10.4637C13.7475 10.6212 14.7225 10.4487 15.375 10.0137C15.7275 9.78122 15.915 9.48871 15.915 9.19621C15.915 8.90371 15.72 8.61871 15.375 8.38621C14.7225 7.95121 13.7325 7.77871 12.8025 7.94371C12.495 8.00371 12.2025 7.79371 12.15 7.48621C12.0975 7.17871 12.3 6.88621 12.6075 6.83371C13.83 6.61621 15.0975 6.84871 15.9975 7.44871C16.6575 7.89121 17.04 8.52121 17.04 9.19621C17.04 9.86371 16.665 10.5012 15.9975 10.9512C15.315 11.4012 14.43 11.6487 13.5075 11.6487Z" fill="#7DC5B8"/>
    <path d="M4.47749 6.12122C4.46999 6.12122 4.46249 6.12122 4.46249 6.12122C3.11249 6.07622 2.05499 4.98122 2.04749 3.63122C2.04749 2.25122 3.17249 1.12622 4.54499 1.12622C5.91749 1.12622 7.04249 2.25122 7.04249 3.62372C7.04249 4.98122 5.98499 6.07622 4.63499 6.12122L4.47749 5.55872L4.52999 6.12122C4.51499 6.12122 4.49249 6.12122 4.47749 6.12122ZM4.55249 4.99622C4.59749 4.99622 4.63499 4.99622 4.67999 5.00372C5.34749 4.97372 5.93249 4.37372 5.93249 3.63122C5.93249 2.87372 5.31749 2.25872 4.55999 2.25872C3.80249 2.25872 3.18749 2.87372 3.18749 3.63122C3.18749 4.36622 3.75749 4.95872 4.48499 5.00372C4.49249 4.99622 4.52249 4.99622 4.55249 4.99622Z" fill="#7DC5B8"/>
    <path d="M4.47 11.6487C3.5475 11.6487 2.6625 11.4012 1.98 10.9512C1.32 10.5087 0.9375 9.87121 0.9375 9.19621C0.9375 8.52871 1.32 7.89121 1.98 7.44871C2.88 6.84871 4.1475 6.61621 5.37 6.83371C5.6775 6.88621 5.88 7.17871 5.8275 7.48621C5.775 7.79371 5.4825 8.00371 5.175 7.94371C4.245 7.77871 3.2625 7.95121 2.6025 8.38621C2.25 8.61871 2.0625 8.90371 2.0625 9.19621C2.0625 9.48871 2.2575 9.78122 2.6025 10.0137C3.255 10.4487 4.23 10.6212 5.1525 10.4637C5.46 10.4112 5.7525 10.6212 5.805 10.9212C5.8575 11.2287 5.655 11.5212 5.3475 11.5737C5.055 11.6262 4.7625 11.6487 4.47 11.6487Z" fill="#7DC5B8"/>
    <path d="M8.99987 11.7238C8.97737 11.7238 8.96237 11.7238 8.93987 11.7238H8.90237C7.48487 11.6788 6.42737 10.5838 6.42737 9.23383C6.42737 7.85383 7.55237 6.73633 8.92487 6.73633C10.2974 6.73633 11.4224 7.86133 11.4224 9.23383C11.4149 10.5913 10.3574 11.6863 9.00737 11.7313C9.00737 11.7238 9.00737 11.7238 8.99987 11.7238ZM8.92487 7.85383C8.16737 7.85383 7.55237 8.46883 7.55237 9.22633C7.55237 9.96883 8.12987 10.5688 8.87237 10.5988C8.87987 10.5913 8.93987 10.5913 9.00737 10.5988C9.73487 10.5613 10.2974 9.96133 10.3049 9.22633C10.3049 8.47633 9.68987 7.85383 8.92487 7.85383Z" fill="#7DC5B8"/>
    <path d="M8.99984 17.2588C8.09984 17.2588 7.19984 17.0263 6.50234 16.5538C5.84234 16.1113 5.45984 15.4813 5.45984 14.8063C5.45984 14.1388 5.83484 13.4938 6.50234 13.0513C7.90484 12.1213 10.1023 12.1213 11.4973 13.0513C12.1573 13.4938 12.5398 14.1238 12.5398 14.7988C12.5398 15.4663 12.1648 16.1113 11.4973 16.5538C10.7998 17.0188 9.89984 17.2588 8.99984 17.2588ZM7.12484 13.9963C6.77234 14.2288 6.58484 14.5213 6.58484 14.8138C6.58484 15.1063 6.77984 15.3913 7.12484 15.6238C8.13734 16.3063 9.85484 16.3063 10.8673 15.6238C11.2198 15.3913 11.4073 15.0988 11.4073 14.8063C11.4073 14.5138 11.2123 14.2288 10.8673 13.9963C9.86234 13.3138 8.14484 13.3213 7.12484 13.9963Z" fill="#7DC5B8"/>
</svg>
