<svg width="24" height="24" viewBox="0 0 24 24" fill="none" xmlns="http://www.w3.org/2000/svg">
    <path d="M20.4905 3.51999C15.8071 -1.16917 8.20916 -1.17383 3.51994 3.50951C-1.16921 8.19297 -1.17393 15.7909 3.50952 20.4802C8.19287 25.1693 15.7909 25.174 20.4801 20.4906C25.1692 15.8072 25.1739 8.20915 20.4905 3.51999ZM12.0037 19.2697C11.369 19.2697 10.8544 18.7552 10.8544 18.1204C10.8544 17.4856 11.3689 16.9711 12.0037 16.9711C12.6384 16.9711 13.153 17.4856 13.153 18.1204C13.1529 18.7552 12.6384 19.2697 12.0037 19.2697ZM13.8722 12.3498C13.2157 12.7336 13.1596 13.2057 13.1568 14.5662C13.1566 14.6561 13.1563 14.7469 13.1558 14.8382C13.1517 15.4812 12.6294 15.9997 11.9872 15.9997C11.9847 15.9997 11.9821 15.9997 11.9796 15.9997C11.3341 15.9956 10.8142 15.469 10.8183 14.8235C10.8188 14.7355 10.819 14.6481 10.8192 14.5615C10.8221 13.1632 10.8256 11.4232 12.6925 10.332C14.1905 9.45629 14.3793 8.88107 14.2036 8.12626C13.9972 7.23966 13.1875 7.00989 12.5557 7.08213C12.3436 7.10647 11.2855 7.28104 11.2855 8.32777C11.2855 8.97316 10.7622 9.49652 10.1167 9.49652C9.47121 9.49652 8.94796 8.97316 8.94796 8.32777C8.94796 6.45291 10.3218 4.98573 12.289 4.75988C14.315 4.52746 16.0374 5.6938 16.4801 7.5964C17.1418 10.4386 14.7665 11.8271 13.8722 12.3498Z" fill="#12B76A"/>
</svg>
